<?xml version="1.0" standalone="no"?>
<!DOCTYPE svg PUBLIC "-//W3C//DTD SVG 1.1//EN" "http://www.w3.org/Graphics/SVG/1.1/DTD/svg11.dtd" >
<svg xmlns="http://www.w3.org/2000/svg">
<metadata>
This is a custom SVG webfont generated by Font Squirrel.
Copyright   : Copyright c Iconian FontsShyFonts Type Foundry 2000
</metadata>
<defs>
<font id="webfontBXF2ddQB" horiz-adv-x="1089" >
<font-face units-per-em="2048" ascent="1638" descent="-410" />
<missing-glyph horiz-adv-x="896" />
<glyph unicode=" "  horiz-adv-x="896" />
<glyph unicode="&#x09;" horiz-adv-x="896" />
<glyph unicode="&#xa0;" horiz-adv-x="896" />
<glyph unicode="!" horiz-adv-x="662" d="M32 169v12q3 34 20.5 63t43.5 50t57.5 33t63.5 14l-2 2q-27 16 -42.5 41.5t-20.5 52.5q-7 31 -9 61t0 65q8 72 18 135.5t22 124.5q9 33 14 62l10 57l6 77q2 6 1 12.5t1 12.5l2 28q4 51 17.5 105.5t33.5 111.5q27 59 74 96t105 37h9t10 -2q7 -3 17 -3q31 -9 50 -28t30 -42 l89 -98q17 -18 26.5 -40.5t17.5 -44.5q7 -35 11.5 -68.5t2.5 -64.5v-4q-11 -94 -37.5 -186l-54.5 -186h2q-5 -13 -9 -26t-9 -27l-21 -51.5t-20 -53.5l-23 -70t-28 -69t-37 -65.5t-51 -60.5l73 -80q4 -4 6.5 -7.5l5.5 -7.5q19 -32 26 -67.5t5 -71.5l-2 -12q-4 -35 -22 -66 t-45 -54t-60.5 -36t-67.5 -13h-18q-34 5 -61 20t-47 38l-87 94q-23 16 -41 38.5t-30.5 48.5t-18.5 55t-6 58zM75 171q-1 -32 8 -64t27 -58t44 -44t59 -22q29 -3 58 6t52.5 27.5t39.5 44.5t19 55q4 33 -1 66.5t-23 59.5q-19 29 -51.5 42t-67.5 15q-27 2 -56.5 -6t-53.5 -25 t-39.5 -41.5t-14.5 -55.5zM186 563q-2 -29 1 -56.5t8 -55.5q4 -29 21.5 -53t48.5 -26q41 32 67.5 75.5t46 92.5t35 100t35.5 97l63 209t43 211q1 31 -1.5 61.5t-9.5 59.5q-5 15 -11 30.5t-15 29t-21 23.5t-28 15q-25 6 -48.5 0.5t-45 -20.5t-40 -38.5t-31.5 -52.5 q-17 -48 -28.5 -96t-16.5 -97l-4 -66t-6 -66q-4 -33 -9.5 -66t-15.5 -65q-12 -62 -21.5 -123t-16.5 -123z" />
<glyph unicode="&#x22;" horiz-adv-x="889" d="M159 1006q-2 48 3 98q4 44 15 87t24 86q3 2 3.5 4t2.5 4l6 12l18.5 33t21.5 33t28 30.5t38 26.5q11 5 24 9.5t31 4.5h7q35 0 57 -18t35 -44l32 -36q20 36 52 61.5t74 25.5q2 0 4.5 -0.5t4.5 -0.5h12q38 -12 63 -34t39 -52l87 -94q22 -24 33.5 -55.5t16.5 -66t5.5 -70 t-0.5 -67.5q0 -6 1 -12.5t-1 -11.5q0 -5 -1.5 -10t-1.5 -10q-5 -39 -12 -80.5t-21.5 -81.5t-39 -75.5t-64.5 -63.5q-2 -1 -5 -1t-5 -2q-12 -7 -21 -7l-17 -3h-17q-22 0 -37 7t-28 20l-68 73q-11 -23 -31.5 -44t-46.5 -38q-16 -6 -30.5 -7t-29.5 -1q-23 4 -40 14.5t-30 24.5 l-91 97q-19 11 -33 27.5t-23.5 36t-16.5 40t-12 38.5q-13 45 -15 93zM202.5 1015q1.5 -44 14.5 -87q5 -19 12 -40t18 -39t27 -31.5t38 -17.5q11 0 20 0.5t18 5.5q37 22 56 56.5t28 74.5t12.5 82t9.5 78q4 45 4.5 92t-6.5 105q-3 16 -8.5 34t-15 32.5t-24.5 23.5t-36 7 q-10 0 -20 -4t-19 -8q-18 -9 -31.5 -23t-24 -31t-19 -35t-17.5 -34l-21.5 -75.5t-12.5 -76.5q-4 -45 -2.5 -89zM497.5 947q1.5 -36 9.5 -71q4 -14 9.5 -30t14 -28.5t21.5 -20.5t32 -7h5l17 4q4 1 8.5 3t8.5 3q35 24 56.5 58t33.5 72.5t18 79t11 77.5q1 39 1.5 84.5 t-7.5 87.5t-29.5 74.5t-64.5 45.5q-23 4 -42 -4t-33.5 -22.5t-24 -34t-13.5 -38.5q-9 -45 -13.5 -89.5t-8.5 -89.5q0 -20 -5 -43l-4 -39q-2 -36 -0.5 -72z" />
<glyph unicode="#" horiz-adv-x="1183" d="M101 708l1 9q3 31 15.5 53.5t31.5 38.5t43 26.5t50 16.5l-34 39q-14 8 -24 18t-18 21q-16 25 -25 52.5t-6 56.5l2 14q11 36 32 59t47.5 37t56.5 21.5t58 12.5h2q9 30 24.5 59.5t36.5 52.5t48.5 37.5t62.5 14.5h5q38 0 67.5 -21t45.5 -53l41 -48q7 21 17.5 41.5t26 36.5 t36.5 27.5t50 14.5q31 -4 58 -16.5t49 -29.5q11 -11 21 -22.5t17 -27.5l88 -95l10 -14t9 -14q12 -9 20 -20t14 -24l2 -2l92 -99q17 -18 26.5 -40.5t7.5 -51.5l-1 -7q-2 -23 -13 -43.5t-27.5 -37t-37 -27.5t-42.5 -15l74 -80q10 -11 16.5 -27.5t5.5 -38.5v-9q-3 -31 -15 -51 t-28 -39l-4.5 -9l-3.5 -7l-6 -3q-26 -20 -50 -36.5t-55 -18.5h-2l-9 -1v-7q0 -3 -1.5 -9t-1.5 -8q-1 -6 -3.5 -16.5t-4.5 -18t-2 -8.5q-18 -42 -56.5 -68.5t-80.5 -35.5h-8q-29 0 -51 9.5t-36 24.5l-81 89q-8 -26 -25 -47t-38 -35q-23 -20 -52 -29.5t-59 -9.5q-43 9 -70 39 l-92 99q-15 11 -27.5 23.5t-20.5 27.5q-25 13 -42 33l-89 97q-31 18 -49.5 50t-18.5 69zM143 710q0 -19 7.5 -36t20 -30t29 -21.5t34.5 -9.5q19 -5 38 -4.5t39 -0.5q2 -24 5 -52t12 -52.5t25.5 -43.5t44.5 -25q23 0 46 8.5t41 24.5q18 11 32.5 30.5t16.5 42.5l5 60 q27 1 54 -1.5t54 -2.5q-2 -25 0 -53.5t12 -53.5t29 -41t51 -16q33 7 63 27t43 52q5 11 7 23.5t5 24.5q0 11 2.5 22t4.5 22h3h17l19 2q24 2 43 15.5l39 28.5l28.5 41t15.5 46q0 26 -14 41t-35 24t-45 13t-44 9l8 99h57q18 1 35.5 9t31.5 20.5t22.5 29.5t7.5 35q1 29 -12 50 t-33.5 35.5t-46.5 23t-50 12.5v16v17l2 19q-5 46 -41 75q-17 14 -38 24.5t-44 12.5q-28 -3 -45.5 -19.5t-28 -39.5t-16.5 -48.5t-12 -47.5q-26 0 -52 1l-52 2l5 63q3 19 -3.5 35.5t-19 29.5t-29 20t-34.5 6q-30 1 -53.5 -14t-40.5 -38.5t-27.5 -51.5t-14.5 -53 q-25 -6 -54.5 -11t-56.5 -15.5t-48 -28.5t-29 -48q-4 -23 2 -44t17 -39q14 -16 30.5 -29.5t41.5 -11.5q15 -2 32 -1t33 3q-3 -25 -5.5 -50t-6.5 -49q-25 -2 -56 -7.5t-58 -18t-46 -33.5t-20 -54zM555 823l8 100h104q0 -24 -1.5 -48.5t-3.5 -48.5q-27 -2 -54 -2q-26 0 -53 -1 z" />
<glyph unicode="$" horiz-adv-x="1085" d="M43 555v5v7q2 22 13 40.5t27.5 31.5t37 20t41.5 7h10q21 -3 41.5 -8t40.5 -11l-5 5l-82 89q-37 24 -61 63.5t-19 89.5l2 14q6 34 24.5 61t43.5 48t53 36.5l53 28.5q46 22 94.5 39.5t99.5 28.5q3 16 6.5 31t5.5 29q3 11 4.5 21t4.5 22q5 20 8.5 42t10.5 41q8 28 22 58.5 t35 55.5t49.5 41t67.5 16h5q29 -2 63.5 -12.5t57.5 -37.5q22 -17 34 -46l92 -99q21 -20 30 -48t6 -59q-2 -29 -8 -59t-17 -59q0 -2 -1 -2t-1 -1q45 -30 72 -80l85 -91q22 -23 35.5 -53t12.5 -65v-1q-3 -26 -15.5 -44.5t-30.5 -30.5t-39 -18t-42 -6h-10q-4 0 -10 1 q-5 0 -9.5 1t-9.5 1h-29q2 -5 6 -10t6 -10l80 -87q29 -31 45 -70t13 -84q-10 -62 -47 -112t-88 -86q-41 -29 -85.5 -51t-94.5 -36v-36q-2 -8 -1 -17t-1 -17q0 -7 -1 -13t1 -14v-28q0 -13 -2 -30l-2 -12q0 -11 -3 -21q-4 -32 -11 -62t-25 -61l-2 2q-12 -25 -31.5 -42.5 t-42.5 -28.5t-48 -16t-48 -5h-7q-29 0 -55 11t-46 33l-90 99q-40 24 -58 68q-2 14 -1 29t2 33l2 24l5.5 33.5t4.5 31.5v3q3 11 5 23t2 25q2 6 3.5 12.5t3.5 12.5q-27 16 -49.5 35.5t-42.5 41.5l-75 80q-31 26 -57 56t-46 66q-10 18 -14 41t-4 46zM87 556q-2 -17 2 -33.5 t12 -30.5q45 -81 122 -131.5t170 -63.5q-5 -35 -11.5 -69t-14.5 -69q-4 -35 -10.5 -67.5t-8.5 -67.5q-2 -13 -2 -25q0 -13 2 -26q11 -29 37 -43t55 -14q20 0 41 3t40 11.5t35 22t26 33.5q18 30 24.5 62.5t11.5 64.5q2 24 2 48t1 49q0 24 0.5 48.5t3.5 48.5q53 13 102 36.5 t94 54.5q42 31 75.5 73.5t42.5 95.5q2 44 -18.5 81.5t-53.5 63.5q-33 27 -70 51t-75 44q-10 8 -22 14.5t-23.5 13.5t-21 16t-13.5 23l12 12q9 -2 17 -3t17 -2q24 2 47.5 -3.5t47.5 -7.5q22 -5 46 -5.5t48 -2.5q16 -3 34 -1t33.5 9t26 20t10.5 33q1 41 -24 73.5t-56 54.5 q-35 23 -71.5 42.5t-78.5 26.5q5 26 12.5 52.5t18.5 52.5q10 26 14.5 53.5t7.5 54.5q2 28 -7.5 53t-31.5 41q-16 20 -43 27.5t-53 9.5q-27 1 -48.5 -12t-37.5 -33t-27 -44.5t-18 -46.5q-14 -53 -23.5 -107t-22.5 -107q-56 -10 -108 -27.5t-102 -42.5q-23 -11 -47 -24.5 t-45.5 -30.5t-37.5 -38t-22 -48q-4 -26 3 -48.5t22 -41t35 -32.5t42 -22l108.5 -29.5t108.5 -31.5q20 -6 41.5 -16.5t38.5 -25.5t27 -35.5t7 -45.5q-2 -12 -9.5 -18.5t-17.5 -9.5t-21.5 -4t-21.5 -2q-36 0 -71 7t-69 15q-22 11 -46.5 18t-47.5 18q-23 9 -46 15.5t-47 8.5 q-15 1 -30 -3t-26.5 -13t-18 -22t-4.5 -29z" />
<glyph unicode="%" horiz-adv-x="1427" d="M109 51q5 36 21.5 65.5l33.5 57.5v2h-2l15 27l104.5 164.5l105.5 163.5l14 20t12 21q-24 11 -45.5 26t-38.5 37l-82 87q-45 31 -71 80q-29 51 -38.5 106.5t-4.5 115.5l4 24q10 59 29.5 117.5t55.5 111.5h-2q21 29 47.5 54t57 43.5t63.5 31t68 16.5q15 4 29 5t25 1 q69 0 124 -33.5t88 -87.5l82 -90q4 -4 6.5 -8.5t6.5 -8.5l86.5 131l88.5 126v-1q0 2 3 5l-2 -4l21 30.5t25.5 29t33.5 23t43 13.5q51 -4 94 -30.5t63 -70.5l89 -93q20 -23 30 -50.5t7 -59.5v-8q-17 -71 -51.5 -132.5t-72.5 -120.5q-13 -18 -24.5 -36.5t-21.5 -36.5 l-61.5 -90l-61.5 -89h-2l-34 -47q51 -8 95 -34.5t71 -70.5l90 -99q17 -20 31 -46v1q26 -48 33.5 -100.5t2.5 -105.5l-2 -26q-9 -67 -34.5 -129.5t-69.5 -116.5q-22 -27 -49 -51t-58 -42.5t-64.5 -30t-67.5 -14.5q-11 -1 -21 -2t-23 -1q-51 0 -91.5 19t-69.5 51l-84 92 q-29 20 -51 49.5t-37 64.5l-51 -75l-48 -75q-17 -22 -31.5 -48.5t-28.5 -55.5q-5 -8 -9.5 -17t-9.5 -17l2 -2q-16 -32 -45.5 -49t-60.5 -17h-10q-32 2 -58.5 15.5t-45.5 33.5l-91 99q-38 24 -59 68t-16 94zM152 49q-2 -27 5.5 -52t22.5 -44.5t37 -32t49 -14.5 q23 -2 44.5 9.5t32.5 33.5l39.5 74.5t44.5 72.5l202 306l207 305l122 177l122 178l48.5 74.5t48 76t40.5 78.5t27 83q3 29 -6.5 53t-28 42t-43.5 28.5t-52 12.5q-16 -2 -29 -10.5t-24 -20t-20.5 -25l-18.5 -26.5q-84 -118 -161.5 -238.5l-155.5 -242.5q8 27 12 55t7 54 q14 63 1.5 126.5t-47 112.5t-89.5 74t-126 12q-61 -5 -113 -37t-87 -83q-38 -49 -56.5 -104.5t-27.5 -112.5q-8 -57 -0.5 -114.5t36.5 -105.5q29 -51 82.5 -80t113.5 -27q49 -2 97 13.5t88 46.5l-190.5 -296.5l-190.5 -296.5l-39 -64.5t-24 -70.5zM387 990q-1 10 0 19 q5 24 6.5 47.5t7.5 46.5q3 10 7.5 21t11 20.5t16 16t21.5 6.5q16 3 29.5 -5t18.5 -22q2 -17 0 -33.5t-3 -33.5q-2 -17 -6.5 -37.5t-13.5 -38t-23.5 -29.5t-36.5 -12q-12 -2 -19 2.5t-11 13t-5 18.5zM690.5 185q9.5 -61 40 -108.5t80 -73t117.5 -13.5q63 4 118.5 38t95.5 85 q38 50 62 107.5t32 117.5q8 54 2.5 108.5t-31.5 101.5q-25 50 -75.5 76.5t-107.5 24.5q-71 8 -132.5 -20t-106.5 -78.5t-70 -115.5t-22 -131q-12 -58 -2.5 -119zM913 263q-3 43 5 89q1 13 5.5 26.5t13 24t21 17t27.5 5.5q16 0 25 -9t12.5 -22.5t3 -29t-3.5 -28.5v-1l-1 -18 l-4 -18q0 -13 -2 -25.5t-5 -26.5q-5 -13 -16 -22.5t-25 -7.5q-23 -3 -38.5 10.5t-17.5 35.5z" />
<glyph unicode="&#x26;" horiz-adv-x="1253" d="M94 490l2 17q4 41 18.5 80t37.5 74.5t53.5 66.5t65.5 55q-20 26 -38 54t-31 58.5t-19.5 63t-3.5 68.5v11q0 2 2 4.5t2 5.5q4 43 19.5 82.5t39 75t53.5 66t63 54.5q69 51 146.5 77.5t157.5 26.5h12q58 0 111.5 -9.5t101.5 -27.5q21 -8 43.5 -18.5t42.5 -24t36.5 -31 t26.5 -39.5l87 -94q17 -18 27.5 -40t11.5 -50v-11q-4 -35 -18.5 -61.5t-34.5 -50.5q-4 -4 -7.5 -8.5t-7.5 -8.5q8 -9 15 -18t12 -20l87 -95q25 -27 37 -63t8 -74v-12q-12 -122 -35 -237t-49 -232q-2 -9 -4 -20t-4 -19q-10 -34 -21.5 -69t-27.5 -69.5t-38 -66.5t-53 -60 q-62 -49 -135.5 -66t-148.5 -21h-13q-53 0 -103 12.5t-95.5 35t-86 53t-74.5 66.5l-70 75l-25.5 24.5l-25.5 25.5q-36 37 -66 80.5t-50 92.5t-29.5 102t-4.5 109zM137 490q-4 -51 5 -100t27.5 -93.5t46 -85t60.5 -74.5q33 -35 72.5 -65t83.5 -51t93 -32t100 -9q33 2 66.5 6 t66.5 13t64.5 23t59.5 36q26 24 45.5 52.5t34 60t25.5 64.5t20 65l53.5 250.5t36.5 251.5q5 30 -1.5 59t-23 51.5t-42 36t-57.5 12.5q-19 3 -38 -2.5t-35.5 -17t-29 -27.5t-18.5 -35q-38 2 -73 9t-71 13l-72 16.5t-68 27.5q-28 20 -37 55t-5 68q2 12 12.5 18l19.5 11 q23 11 44 12q36 -1 72 -6.5l72 -11.5q33 -7 67 -15t69 -9q27 0 46 18t36 38q16 22 29.5 45.5t13.5 50.5q-1 27 -14 47.5t-32.5 37t-43.5 28t-47 20.5q-48 18 -102 27.5t-109 8.5q-74 0 -144.5 -24.5t-132.5 -69.5q-30 -23 -57 -50t-48 -58.5t-35 -66t-17 -71.5 q-8 -41 0 -78.5t25 -71.5t40.5 -65t47.5 -58q-41 -21 -77.5 -51t-63.5 -67t-43.5 -79.5t-16.5 -87.5zM410 476q13 47 46 70t75 33t87 11t82 4q24 -2 48 -4.5t47 -7.5l-25.5 -149.5l-25.5 -149.5l-17 -1l-19 -2l-19 -2q-50 0 -97 12.5t-89 37.5q-41 22 -69.5 60t-23.5 88z M565 345q58 -24 124 -24l18 2q2 26 7 52l10 50q-26 -2 -51.5 -6.5t-47 -13.5t-37.5 -23.5t-23 -36.5zM713 942h4l2 2h-2zM719 944q6 -4 15 -4q5 -1 12 -1q19 -4 40.5 -7t41.5 -7q1 2 2 2t1 1q-29 5 -58.5 9.5t-53.5 6.5zM1114 1193l4 -3q-1 0 -4 3z" />
<glyph unicode="'" horiz-adv-x="584" d="M146 989q0 43 2 83v19l2 18q10 82 36 159q2 2 2 4t1 5q17 41 38 80.5t56 62.5q41 19 79 19q33 -5 56.5 -25t37.5 -47l90 -99q20 -23 31.5 -53.5t18.5 -59.5l1 -1q13 -45 18 -92t1 -96l-2 -2q-4 -42 -12.5 -84.5t-26.5 -89.5q-2 -2 -2.5 -4t-2.5 -4q-8 -21 -17.5 -41.5 t-22 -39t-29 -34t-37.5 -25.5h-1q-14 -7 -29.5 -9.5t-30.5 -2.5q-26 8 -45.5 20t-33.5 28l-88 95q-37 23 -56 58t-26.5 75t-7.5 83zM189.5 1019q-1.5 -49 6 -94.5t29.5 -81t69 -48.5q10 0 20 2t19 7q19 9 33 24t24.5 33t18.5 37.5l16 38.5q15 38 23 77.5t13 79.5 q4 45 -1 88.5t-16 85.5q-4 19 -10.5 40.5t-17 40t-26 31.5t-37.5 16q-24 0 -44 -10q-17 -10 -29.5 -25t-22 -32t-17.5 -35.5l-15 -35.5q-11 -36 -19.5 -73.5t-12.5 -75.5q-2 -41 -3.5 -90z" />
<glyph unicode="(" horiz-adv-x="1031" d="M75 599v12q11 116 41.5 226.5t79.5 213.5q53 111 128.5 210.5t178.5 177.5q47 32 97 56t107 24h11t16 -2q44 -5 76 -28.5t52 -58.5l90 -97q27 -29 39.5 -69.5t10.5 -82.5l-2 -10q-5 -19 -14 -32.5t-21.5 -23t-26.5 -16.5l-27 -14l-15 -6q-78 -36 -143 -98t-104 -140 q-45 -85 -64.5 -176t-28.5 -184q-5 -69 -2.5 -139t26.5 -132q23 -18 45.5 -33t46.5 -27l23 -12t25 -10q13 -7 31 -14l6 -3t8 -5q4 -3 10.5 -6t12.5 -4v-2q14 -8 23.5 -19.5t17.5 -25.5l96 -105q27 -30 24 -69v-1q-5 -35 -21.5 -65.5t-42 -54.5t-57 -39.5t-65.5 -19.5h-2 q-8 -2 -18 -2h-19q-53 0 -101 17t-92 46l1 -2q-74 47 -129 109l-63 70q-65 53 -112 120t-83 142q-42 94 -60.5 196t-9.5 208zM118 599q-9 -100 8.5 -197.5t57.5 -186.5q44 -90 105.5 -168.5t149.5 -131.5q44 -30 95.5 -46.5t108.5 -8.5q28 3 53.5 15.5t45.5 31.5t34 43.5 t18 52.5q1 17 -6.5 32t-21.5 21l-59.5 27.5t-59.5 30.5q-63 36 -119 83.5t-91 111.5q-17 34 -25.5 70.5t-11.5 75t-2.5 77.5t3.5 77q10 96 30 191.5t67 184.5q44 84 114 151t156 105q11 6 23 11.5t23 13t20 17t13 23.5q3 30 -4 59t-22.5 52.5t-40 39t-55.5 18.5 q-54 6 -104 -15.5t-94 -53.5q-97 -72 -168.5 -167.5t-122.5 -202.5q-49 -104 -79.5 -214.5t-38.5 -222.5z" />
<glyph unicode=")" horiz-adv-x="1029" d="M128 32v9q2 22 15.5 47t35.5 40l10 3q2 0 3.5 1t3.5 1v2q3 2 4.5 2.5t4.5 2.5l16.5 8t22.5 6q42 16 78 42.5t65.5 59.5t54 71.5t44.5 78.5q47 91 72 188t34 196q5 65 -8 129t-45 117q-66 48 -152 78q-1 0 -5 4l-30 16.5t-26 22.5l-89 96q-23 14 -40 35.5t-14 59.5 q4 40 24 71.5t48.5 53.5t62 35t66.5 18v1q28 6 67 6q56 0 106.5 -17t94.5 -46.5t81 -68.5t66 -82l56 -59q26 -30 48.5 -62.5t40.5 -65.5l1 -2q63 -116 92 -248.5t16 -272.5q-6 -70 -23 -139t-42.5 -136t-58.5 -132.5t-69 -128.5l-49 -77t-56 -78.5t-63.5 -73t-72.5 -60.5 t-83 -41.5t-94 -15.5h-24q-36 5 -68 21.5t-56 43.5l-86 94q-17 12 -32 27.5t-26 34t-17 39.5t-5 45zM171 36q0 -29 11.5 -53.5t31 -43.5t44.5 -31t51 -16q71 -5 130.5 25t109 78.5t90 108.5t73.5 114q72 123 123 252.5t64 266.5q12 133 -15.5 260.5t-89.5 239.5 q-28 55 -68.5 105t-92 86t-112.5 52.5t-130 4.5q-27 -3 -55 -13.5t-51.5 -27.5t-40 -40.5t-19.5 -53.5q0 -16 6.5 -27.5t17 -20.5t23 -15t23.5 -12q75 -26 139.5 -68.5t113.5 -102.5q51 -63 72 -146t15 -168q-9 -103 -35.5 -203.5t-75.5 -195.5q-21 -44 -48 -86t-60 -79 t-73 -66.5t-87 -46.5q-15 -3 -30.5 -10.5t-29.5 -13.5q-13 -9 -19 -24t-6 -29z" />
<glyph unicode="*" horiz-adv-x="980" d="M90 739q9 30 24 54t34.5 43.5t41 35t44.5 29.5q-19 15 -36.5 32.5t-31.5 37.5t-23.5 44t-11.5 52q6 30 23 57.5t40.5 49.5t52 35t58.5 15h6q22 0 39 -7.5t32 -18.5q5 17 12.5 32.5t15.5 30.5q22 36 58 62.5t78 26.5h4q39 -2 72.5 -23.5t51.5 -56.5l46 -53q13 4 25 5.5 t25 2.5q40 -5 72 -28.5t49 -58.5l90 -97q18 -20 29 -44.5t11 -52.5v-5q-3 -31 -16.5 -62.5t-48.5 -48.5l-4 -2l-42.5 -24.5l-42.5 -24.5l78 -86q17 -17 23.5 -40.5t4.5 -48.5q0 -4 -2 -10t-2 -10q-5 -23 -14.5 -48.5t-29.5 -48.5h2q-20 -25 -46.5 -41.5t-56.5 -20.5 q-26 0 -46 6.5t-37 15.5q-11 -23 -27.5 -40.5t-35.5 -30.5q-26 -20 -58.5 -29.5t-61.5 -11.5q-26 2 -44 11t-31 23l-85 92h-26q-31 0 -56.5 12t-45.5 27q-13 7 -23 19l-93 103q-3 0 -6 3v-2q-26 18 -42 49t-16 69zM133 734q0 -25 12.5 -44.5t30.5 -32.5q19 -13 40 -23.5 t47 -8.5q14 -2 27.5 2.5t26.5 12t25.5 16t24.5 15.5q-1 -24 -0.5 -53.5t8 -55t24.5 -43.5t48 -21q52 3 94 34q20 14 36.5 34.5t18.5 44.5q2 7 2.5 14t0.5 13q23 -17 48.5 -33t57.5 -16q22 2 41.5 15t35.5 31q14 17 21.5 38.5t12.5 41.5q5 23 -0.5 47t-25.5 37l-66 44.5 l-65 45.5l81.5 51l83.5 48q22 11 31.5 34t11.5 45q-1 22 -9.5 41.5t-22.5 35t-32.5 26t-39.5 13.5q-36 -2 -68.5 -19.5t-59.5 -40.5q2 22 5 42.5t5 42.5q1 21 -7 38.5t-22 31t-32 21.5t-38 8q-31 2 -57 -17t-42 -46q-15 -28 -23.5 -58t-12.5 -61l-1 -12l-22 23t-24 22.5 t-27.5 17t-32.5 5.5q-23 -1 -44 -10.5t-38 -25t-29 -35.5t-17 -42q3 -29 16 -53t32 -44t41.5 -37.5l43.5 -34.5q-24 -17 -51.5 -33.5t-52 -35.5t-44 -42.5t-28.5 -53.5z" />
<glyph unicode="+" horiz-adv-x="945" d="M56 700v8q16 48 45 75.5t65 42.5t76 20.5t77 8.5q4 38 16.5 80t35 77.5t57.5 58.5t86 23h1q42 -2 76 -25t51 -60l88 -96q14 -15 24 -36t12 -46q32 -11 59.5 -29t41.5 -49l92 -101q34 -38 33 -102v-2q-4 -28 -18 -53.5t-35 -45.5t-47.5 -32t-55.5 -13q-18 0 -33.5 -0.5 t-32.5 -2.5q-11 -2 -20 -2h-16v-13q-2 -17 -4 -36t-5 -36q-5 -35 -24.5 -61.5t-45.5 -45.5q-26 -21 -57.5 -34t-63.5 -13q-24 7 -44 17.5t-34 25.5l-92 99q-27 18 -43 44t-24 57q-22 5 -40.5 16t-31.5 28l-88 97q-14 8 -24.5 19t-18.5 22q-17 23 -28.5 52t-9.5 63zM99 705 q-4 -26 5.5 -49.5t23.5 -42.5q14 -20 35 -32.5t47 -13.5q31 -3 60.5 -2.5t58.5 0.5q1 -32 1.5 -70t8 -73t26.5 -61.5t57 -34.5q26 0 50.5 10.5t44.5 27.5q20 15 35.5 35t19.5 46q5 30 6.5 60.5t5.5 59.5q35 0 69 2.5t69 2.5q21 1 41 10t35.5 24t26 34t13.5 40q3 41 -18 66.5 t-53 40t-70 19t-71 3.5q-5 0 -11 1t-11 1q5 36 5 70t4 70q0 21 -8 39t-22 32t-32 22.5t-39 8.5q-42 1 -70 -21t-45 -54.5t-25.5 -70.5t-11.5 -70l-2 -19q-33 -4 -73 -7t-77 -13t-66.5 -31t-42.5 -60z" />
<glyph unicode="," horiz-adv-x="613" d="M17 -75l2 7q3 34 12 66.5t23 62.5t30.5 58.5t34.5 56.5l12 15l-1 -2q2 5 4.5 9t7.5 9l38 48.5t44.5 45t54 34.5t66.5 17q37 -5 67 -22.5t44 -51.5l94 -101q8 -8 13.5 -17.5t9.5 -22.5q7 -26 9.5 -52.5t1.5 -53.5l-2 -2q-5 -40 -19.5 -76.5t-35 -70.5t-45.5 -65.5 l-50 -60.5q-4 -4 -9 -8.5t-7 -8.5q-13 -15 -27.5 -30t-32 -27t-38 -20t-45.5 -8q-4 0 -7.5 0.5t-7.5 0.5h-11q-5 0 -11 2q-20 4 -36.5 12.5t-27.5 19.5l-97 104q-16 10 -27.5 25t-18.5 33t-10 37t-2 37zM60 -73q-1 -17 2.5 -35t12 -32.5t22 -24.5t33.5 -12q8 -2 15 -2t15 -2 q21 1 38.5 9.5t33 21.5t29.5 28.5l27 29.5l47.5 56t42.5 60.5t32 65t18 69.5q3 24 0 48t-8 47q-9 26 -30.5 39t-48.5 16q-32 -2 -58 -17.5t-48.5 -38t-42 -49l-37.5 -49.5q-17 -26 -33 -53.5t-29 -56t-22 -58t-11 -60.5z" />
<glyph unicode="-" d="M130 701l1 12q19 47 51 74t69.5 41t78.5 18.5t80 6.5h15q4 0 7.5 1t7.5 1q12 -2 21 -2h20q5 0 10.5 -0.5t11.5 -0.5h24q5 0 11.5 -1t12.5 -1h26q11 -2 20 -2h21q44 0 92.5 -2.5t101.5 -9.5q38 -9 75.5 -31.5t54.5 -62.5l91 -97q17 -18 25.5 -41t6.5 -54v-6 q-6 -29 -23.5 -52.5t-40.5 -41.5t-50.5 -28.5t-54.5 -13.5q-64 -4 -127.5 -5.5t-126.5 -1.5q-44 0 -88 1t-88 1h-58q-32 5 -60.5 18.5t-48.5 35.5l-91 98l-16 12.5t-13 14.5q-22 22 -37.5 52t-11.5 67zM172 705q-4 -27 9.5 -50.5t30.5 -41.5q34 -37 87 -45l240.5 -2t240.5 7 q22 2 43.5 10.5t39.5 22.5t30.5 32t17.5 40q2 25 -8 45t-27 34.5t-38.5 23.5t-42.5 14q-45 5 -90.5 8t-90.5 3q-23 0 -46 1.5t-46 1.5q-22 2 -44 2t-45 1q-34 -2 -73 -5t-76 -12.5t-67 -30.5t-45 -59z" />
<glyph unicode="." horiz-adv-x="637" d="M63 145l2 17q6 40 26.5 75.5t50 62.5t66.5 42.5t77 15.5h17q49 0 89.5 -24t60.5 -66l89 -96q23 -26 35 -59t8 -70v-11q-4 -39 -22 -76t-45 -69l2 -1q-29 -35 -70 -58t-87 -23h-9q-36 0 -65.5 14.5t-50.5 37.5l-89 97q-22 15 -39 36t-27.5 46t-15.5 53t-3 56zM108 162 q-6 -35 0.5 -70t25 -62.5t47.5 -44.5t68 -14q36 0 69 18t56 47q24 28 39 61.5t17 69.5q3 31 -7 59.5t-30 49.5t-48 32t-60 8q-32 0 -62 -12t-54 -33t-40 -49.5t-21 -59.5z" />
<glyph unicode="/" horiz-adv-x="971" d="M10 70v14q5 59 25.5 110.5t43.5 100.5q1 3 3 6.5t3 5.5q11 20 20.5 39l20.5 40q4 10 10 19t11 20q8 14 15 29t15 29t15.5 29l15.5 31h2l66 135l14 27l14 27l20 44.5t21 42.5q63 121 133 238.5l142 232.5q17 27 37.5 56.5t46 54t57 40.5t70.5 16h21q28 -5 56.5 -22 t42.5 -46l97 -106q11 -13 17.5 -30.5t4.5 -39.5v-12q-4 -30 -13.5 -57.5t-20.5 -56.5l-7 -15q-8 -14 -14.5 -30l-12.5 -30q-11 -20 -20.5 -40.5t-20.5 -39.5h-2l-245 -493.5t-272 -476.5l-35 -50.5t-42.5 -49t-52 -37t-63.5 -14.5q-4 0 -11 0.5t-11 0.5q-20 4 -37 13.5 t-28 22.5l-92 101q-31 18 -46.5 50.5t-13.5 70.5zM53 72q-3 -34 15 -61t53 -33q30 -5 55 7t47 32t39.5 45l32.5 47q147 235 272.5 477l243.5 489q18 34 33.5 68t32.5 67l25.5 64t13.5 67q1 16 -5 28.5t-17.5 22t-25.5 15t-27 8.5q-33 4 -60 -9t-49.5 -35t-41.5 -49l-35 -51 l-141 -231.5t-132 -237.5l-67.5 -139t-68.5 -139l-60.5 -116l-60.5 -116q-26 -53 -48 -108t-24 -112z" />
<glyph unicode="0" horiz-adv-x="1217" d="M102 650l2 9q11 119 45 235.5t92 225.5q27 54 64.5 108t85 98.5t105 73t125.5 30.5h4q62 0 115 -14t97 -39t80.5 -60.5t65.5 -77.5l67 -73q51 -57 84.5 -130.5t52.5 -155t23.5 -166t-2.5 -163.5l-3 -39q-11 -116 -45.5 -228.5t-101.5 -215.5h2q-31 -53 -73.5 -98.5 t-93.5 -80t-109.5 -54t-119.5 -19.5h-14q-77 0 -139 32t-108 84l-74 77q-50 39 -87 93.5t-61 112.5q-45 100 -66.5 210t-12.5 225zM147 659q-12 -112 8.5 -219.5t64.5 -205.5q21 -48 51 -93.5t70 -81t89.5 -57t108.5 -21.5q58 -2 112 15.5t102 49.5t88.5 75t69.5 92 q65 98 97 207t43 220q10 77 8 162.5t-18.5 169t-49 159t-83.5 133t-122.5 91t-165.5 33.5q-60 -2 -111 -28.5t-94 -67t-76.5 -90.5t-58.5 -99q-58 -105 -90.5 -217t-42.5 -227zM411.5 522.5q1.5 33.5 3.5 61.5q7 82 18.5 166.5t40.5 179.5q10 28 23 60t31.5 60t44 47 t60.5 21q46 -5 75.5 -26.5t47.5 -53t26 -71.5t10 -82t0.5 -83.5t-2.5 -76.5q-6 -72 -19.5 -145t-41.5 -157q-13 -27 -31 -55t-41.5 -49.5t-52 -34.5t-61.5 -11q-37 3 -61 19.5t-39 41.5t-22 56.5t-9 65t-0.5 67zM566 389q-1 -37 1 -73q20 3 38 15t33.5 29t28.5 38t22 42h2 q26 78 39 147.5t18 137.5l1 11q0 2 -0.5 4.5t-0.5 7.5q1 46 1.5 100.5t-8.5 102.5q-23 -3 -41 -19.5t-32 -39t-24 -48.5t-18 -50h2q-29 -96 -40.5 -177.5t-19.5 -159.5q-1 -31 -2 -68zM812 922l2 -2q0 2 -2 2z" />
<glyph unicode="1" horiz-adv-x="683" d="M131 1200v7q4 37 20 74t42.5 67.5t62 51.5t77.5 28q28 -6 43 -12l27 -11q2 -2 5.5 -4t6.5 -3v-4q63 -37 106 -104l80 -85q46 -51 70.5 -118.5t23.5 -141.5l-2 -29v-18l-4 -38q-6 -80 -16.5 -158t-22.5 -158q-4 -33 -9 -67l-10 -66l-16 -111.5t-13 -108.5l-3 -43 q-3 -18 -2 -37l-8 -94q-3 -28 -13 -54t-21 -50v-2q-16 -32 -45.5 -58t-65.5 -34l-2 2q-9 -3 -15 -3.5t-11 -0.5q-35 0 -63.5 13.5t-50.5 36.5l-89 97q-34 21 -54 56q-21 45 -21 93q0 49 2 97q0 5 -1 10t1 9l2 15q6 78 16 158t21 158l23.5 161t19.5 161l3 31q3 31 3 63t-8 57 q-5 2 -5 5l-5 6l-30.5 31t-27 34.5t-17.5 40.5t-4 50zM174 1207q-3 -24 3.5 -44.5t19 -37.5t28.5 -32.5l31 -29.5q9 -20 12 -42.5t2.5 -45.5t-2.5 -47t-3 -46q-8 -81 -20 -162l-23 -162q-11 -78 -21 -157t-17 -157q-1 -25 -3 -51t-1.5 -51.5t4.5 -50.5t14 -47q18 -32 52 -49 t73 -10q26 5 48 24t33 44q12 23 20.5 48t10.5 51q2 20 4.5 41t2.5 41q0 22 2.5 42.5t2.5 42.5q9 89 23.5 177.5t26.5 177.5q13 89 24.5 176t17.5 176v23q0 13 2 24q1 44 -9 86.5t-29.5 80t-48.5 68.5t-65 52l-29 15t-31 11q-33 -5 -60 -22t-47 -42t-32.5 -54.5t-15.5 -60.5z " />
<glyph unicode="2" horiz-adv-x="1253" d="M143 1056l2 19q9 53 36.5 96.5t65.5 78.5t82.5 61.5t88.5 45.5q82 36 167.5 53t173.5 17h26q60 -2 104.5 -34t71.5 -77l83 -89h-1l3 -2q17 -18 29 -38t22 -42l-1 2q26 -54 36 -115t8 -124l-2 -14q-6 -73 -34 -139.5t-66 -129.5l-91.5 -131.5l-93.5 -129.5l-7.5 -9 t-5.5 -9q29 5 56 9t53 9h8q35 0 62.5 -18t47.5 -42q4 -7 8.5 -14t8.5 -15l95 -103q16 -20 28 -46.5t8 -58.5v-6l-10 -23q-27 -30 -59 -51t-66.5 -37t-71 -28t-73.5 -23q-18 -5 -33.5 -10l-31.5 -10q-90 -23 -180 -39t-181 -16h-33q-35 0 -61 13t-46 35l-89 99 q-24 14 -40.5 35.5t-27 47t-14.5 53.5t-2 55l2 14q8 82 43.5 157.5t79.5 144.5l54.5 81l56.5 81q19 29 39 56.5t39 56.5l-1 -2q4 5 6.5 9.5t6 9.5l8.5 12l13 18l-2 -1l40.5 66t38.5 69l-18.5 -10.5t-16.5 -10.5l-6 -17h-2l-5 -15l-7 -16h-2q-8 -24 -24 -46t-38 -38 t-47.5 -25.5t-50.5 -9.5h-12q-26 0 -49 9.5t-40 27.5l-94 101q-17 11 -30 25.5t-19 34.5q-12 24 -15 54t-1 58zM185.5 1017q1.5 -28 14.5 -51q8 -29 33 -43t54 -12q20 0 40.5 7t37.5 19.5t30.5 30t19.5 37.5l5 16l7 17l8 18q20 25 47 37.5t54 22.5q29 12 59.5 19t61.5 8 q15 1 25.5 -5t16.5 -15.5t8.5 -22t0.5 -25.5q-5 -40 -17.5 -78.5t-30 -75.5t-39.5 -73l-44 -70l-110.5 -160.5l-109.5 -160.5l-41.5 -68t-36.5 -71.5t-26.5 -74.5t-13.5 -77q-3 -30 3 -61.5t21.5 -56.5t40.5 -41.5t58 -16.5q97 -4 193.5 12t190.5 41q40 13 83 25.5t84.5 28 t79.5 37.5t69 55q2 26 -7 48t-24 39q-14 20 -34.5 33.5t-47.5 11.5q-97 -12 -193.5 -34t-194.5 -38q21 72 60.5 136.5t83.5 126.5l93.5 128.5l92.5 130.5q37 62 63.5 128t30.5 137q2 58 -7.5 114t-33.5 106q-21 51 -61.5 88.5t-100.5 39.5q-89 3 -177.5 -13t-172.5 -53 q-40 -18 -80 -41.5t-74 -54t-58.5 -68t-31.5 -82.5q-4 -27 -2.5 -55z" />
<glyph unicode="3" horiz-adv-x="1232" d="M131 1067q12 42 34.5 75t51 60t60 49.5l61.5 43.5q4 3 6.5 4.5t7.5 6.5q2 2 6 4.5l7 4.5t5.5 3.5t1.5 0.5q4 0 10 4l11 5l69 35.5t71.5 32t74.5 23.5t80 9q63 0 117 -26.5t98 -66.5q15 -16 28 -32.5t25 -34.5l61 -65q3 -4 5.5 -6.5t4.5 -6.5l6 -4q35 -40 57 -89.5 t19 -106.5q-4 -44 -18.5 -84.5t-34.5 -76.5q2 -2 4 -5.5t3 -6.5l92 -98q47 -49 68 -116.5t14 -138.5q-1 -10 -2 -22t-3 -20q-6 -62 -28 -121t-55.5 -113t-76 -102.5t-89.5 -88.5q-45 -40 -95 -73t-104 -57t-111 -37t-115 -13q-8 0 -17 1t-17 1q-36 4 -67 19t-54 41l-87 95 q-35 22 -53 53q-26 32 -39 72.5t-11 84.5q3 26 12 54t36 44q31 14 55 17t44 5q4 0 7.5 0.5t6.5 0.5h8q18 2 40 4t56 10v-3q51 11 97.5 32.5t88.5 50.5l21.5 16t19.5 17q-27 -8 -54.5 -17t-53.5 -22h2l-27 -16h1q-17 -10 -39.5 -19.5t-53.5 -17.5q-35 4 -62.5 21.5 t-47.5 39.5l-82 87q-14 11 -25.5 22t-21.5 24q-22 23 -35 53.5t-13 66.5q2 28 11.5 52t24.5 44.5t33.5 37.5t37.5 31l-1 4q-2 1 -0.5 -1.5t0.5 -0.5l-96 106q-5 2 -9 5.5t-8 7.5l2 -1q-3 1 -4.5 3t-4.5 3h2h3v2h-7l-6 7q-18 20 -31 46.5t-9 66.5zM172 1058q-2 -26 12 -45 l28 -37l18.5 -16t20.5 -14.5t22.5 -10.5t25.5 -3q41 18 79 42l76 48l90.5 53.5t97.5 35.5l8 -8q-2 -8 -5 -16.5t-5 -16.5q-4 -51 -37.5 -91t-73.5 -69l-94 -56.5l-94 -56.5q-37 -24 -69 -59t-36 -81q0 -28 10.5 -52t29.5 -44q16 -20 38.5 -36.5t50.5 -19.5q27 8 51 21.5 t50 26.5q75 37 153.5 52t157.5 15q13 -1 20.5 -8t11.5 -17.5t4 -22.5t-2 -22q-3 -29 -14 -55t-27.5 -49t-37.5 -43t-44 -36q-49 -35 -101 -57t-109 -35q-29 -7 -59 -9t-62 -5l-35 -4t-35 -10t-22.5 -26t-6.5 -35q-3 -37 8 -71.5t34 -61.5q18 -29 47.5 -46.5t65.5 -21.5 q58 -4 116 6.5t112.5 32.5t105.5 54.5t96 73.5q45 38 85.5 84t71.5 97.5t51.5 107t25.5 114.5q12 59 2.5 117t-38.5 105.5t-75.5 79t-107.5 37.5q34 52 62.5 108t33.5 116q2 55 -21 102.5t-59 83.5q-38 36 -86 59t-104 23q-39 -1 -77.5 -10.5t-75 -24.5t-72.5 -34l-70 -37 l-65.5 -45t-63.5 -49.5t-53.5 -57.5t-34.5 -70zM338 1292l2 -2z" />
<glyph unicode="4" horiz-adv-x="1157" d="M47 648q0 28 2 59q8 66 27 127t45 120q26 60 56.5 117.5t68.5 114.5q18 29 39.5 56.5t47.5 56.5q20 26 47 52t67 40h16q38 0 67 -17t54 -38q8 -10 16 -21.5t16 -24.5l33 -37q2 9 4 17t6 17q7 26 22.5 50t36 42t46 28.5t53.5 10.5q2 0 4.5 -0.5t4.5 -0.5h9q45 -5 78 -30 t53 -61l82 -90h-1t-1 1l7 -5q26 -28 39.5 -65t11.5 -76q-1 -31 -2.5 -63.5t-5.5 -63.5q-2 -22 -4.5 -43.5t-4.5 -43.5q-5 -54 -9.5 -108t-10.5 -107q0 -5 -1 -10.5t1 -13.5v-7l30 -32q22 -24 33.5 -54.5t7.5 -66.5v-7q-9 -42 -31.5 -80.5t-60.5 -61.5l-2 -15q0 -5 -1.5 -9.5 t-1.5 -9.5q-2 -32 -3.5 -64t-3.5 -64q-1 -24 -3 -47.5l-4 -46.5l-3 -32q-4 -34 -16 -69.5t-33 -66t-51.5 -52t-71.5 -25.5l-2 1q-8 -2 -14 -2.5t-10 -0.5q-32 0 -60.5 12t-48.5 34l-89 99q-22 13 -37.5 32t-23.5 45q-14 36 -14.5 76.5t3.5 82.5l4 47q0 5 1.5 11.5t1.5 12.5 l4 31q-40 4 -78.5 11t-78.5 18q-53 14 -107.5 37.5t-99.5 73.5l-77 83q-19 14 -36.5 31.5t-31.5 40.5q-11 17 -11 44zM91.5 657.5q1.5 -24.5 12.5 -44.5q16 -24 39.5 -42t50.5 -30.5t56 -22t57 -16.5q60 -18 124 -23.5t129 -5.5q18 0 35 -0.5t35 -3.5q1 -13 -1.5 -24.5 t-0.5 -24.5q-4 -23 -7 -47t-8 -47q-7 -45 -12 -94q-3 -42 -5 -86.5t13 -82.5q12 -40 47.5 -58t77.5 -12q32 4 56 21.5t41 42.5t26.5 54.5t12.5 57.5l6 62.5t3 62.5l4 64.5l4 64.5q3 14 5 29t6 29q37 16 58 50t29 71q5 43 -17 77t-57 51q2 16 1 30.5t1 29.5q5 54 10.5 107.5 t10.5 107.5q5 53 9 106t6 106q1 28 -7 55t-24 48.5t-39 36t-53 17.5q-22 3 -42 -4t-37 -20.5t-29 -32t-17 -39.5q-14 -45 -21 -90.5t-11 -90.5q-4 -41 -6 -82.5t-6 -82.5q-4 -42 -7.5 -83.5t-12.5 -83.5q-60 8 -120 14.5t-119 17.5q22 57 49 110.5t58 107.5l52.5 93.5 t38.5 98.5q2 29 -12.5 54t-32.5 45q-19 17 -43.5 30.5t-53.5 11.5q-29 -10 -51 -32t-41 -45q-22 -24 -42.5 -50.5t-37.5 -54.5q-36 -54 -66 -110t-56 -116q-24 -57 -42.5 -115t-25.5 -118q-2 -25 -0.5 -49.5z" />
<glyph unicode="5" horiz-adv-x="1244" d="M119 630l2 7q5 64 13 127t20 127l10 59.5l10 61.5q2 11 3 20.5t4 20.5q2 20 5.5 41t8.5 41q4 27 14 55.5t25 54.5t35.5 48.5t46.5 39.5q49 32 100 49t101 28v1q44 9 91.5 13t96.5 4h32t33 -1q35 -2 71.5 -7.5t71.5 -30.5l2 2q34 -22 48 -56l90 -98q24 -26 33.5 -59.5 t7.5 -68.5l-2 -13q-2 -30 -15.5 -55t-43.5 -41q-11 -5 -20 -8.5t-18 -3.5q49 -29 89 -78q7 -14 15 -24l77 -84q12 -12 20 -24q44 -57 58 -127t7 -142v-11q-7 -72 -34 -137t-67 -124t-90 -111.5t-104 -98.5q-49 -40 -103 -76.5t-112.5 -64t-119.5 -44t-124 -16.5h-25 q-13 0 -25 2q-32 4 -60.5 18.5t-48.5 37.5l-92 101q-32 22 -53 58q-20 32 -28 67t-8 73l2 12q2 21 9.5 41.5t20.5 37.5t31.5 29.5t42.5 17.5q2 0 4 1t5 1l-69 73q-23 14 -39 35t-27 45q-13 35 -22.5 72.5t-5.5 81.5zM164 637q-5 -38 3 -73.5t21 -68.5q14 -32 40.5 -56 t65.5 -26q33 0 67 14.5t61 36.5l86 68.5l86 69.5l43.5 31t44 30t47 24t51.5 13q17 -2 21.5 -16.5t2.5 -28.5l-2 -18q-5 -29 -17 -55.5t-28.5 -51.5t-35.5 -48l-38 -45l-40.5 -42t-43 -40t-47.5 -34.5t-52 -23.5q-27 -7 -54.5 -8t-54.5 -1q-29 2 -56.5 -1.5t-56.5 -8.5 q-33 -6 -49.5 -34.5t-18.5 -59.5q0 -33 8 -65t26 -59q17 -27 44.5 -45t61.5 -22q64 -7 128 6t124.5 40t117 64.5t106.5 79.5q51 43 98.5 92.5t85.5 105t64 117t32 128.5q4 34 3 68.5t-7.5 67.5t-19.5 63.5t-34 56.5q-40 56 -104 82.5t-133 28.5q-48 2 -96 -8t-93 -30 t-86 -49.5t-75 -65.5l21.5 131.5t24.5 132.5q37 17 76 24l79 14q40 2 79.5 5t79.5 5q20 2 41 1.5t41 8.5q19 11 27.5 30.5t8.5 39.5q5 35 -7 68.5t-41 52.5q-26 20 -59.5 24.5t-66.5 6.5q-60 3 -120 0.5t-119 -15.5q-48 -9 -96 -25t-90 -45q-43 -29 -69 -75t-34 -94 q-11 -60 -20 -121t-22 -122q-11 -63 -18.5 -125t-12.5 -125z" />
<glyph unicode="6" horiz-adv-x="1172" d="M89 480q11 118 45 232.5t76 226.5q8 18 15 35.5l14 35.5l37 91.5t41.5 90t50.5 86.5t64 81q32 29 70.5 48t81.5 21q6 2 11 2h13q35 0 62.5 -18.5t41.5 -47.5l95 -103q16 -17 23.5 -38.5t9.5 -44.5h-2l4.5 -37t0.5 -40q-20 -51 -41.5 -92t-43.5 -79q77 -2 144 -34.5 t115 -91.5q4 -7 7.5 -12.5t8.5 -11.5l83 -91q2 -2 4 -5.5t5 -5.5l5 -6q41 -54 56 -121t9 -136l-2 -17q-11 -109 -59.5 -209t-123.5 -182q-36 -41 -78.5 -75.5t-90 -60.5t-99 -40.5t-105.5 -14.5h-12q-80 0 -148 35t-117 89l-77 84q-29 24 -54 53t-45 61h2q-51 75 -78 160.5 t-19 181.5zM131 480q-8 -90 20.5 -172.5t75.5 -152.5q22 -36 52.5 -67.5t66.5 -55t77.5 -37.5t86.5 -14q51 -2 100.5 11t95.5 37.5t86.5 57.5t74.5 72q69 78 115.5 171.5t56.5 195.5q8 66 -5 132t-51 119q-42 54 -106.5 82t-135.5 28q-62 2 -125 -9.5t-121 -41.5 q17 47 38.5 89.5l43.5 86.5l58.5 109.5t53.5 112.5q0 17 -0.5 33t-2.5 33q-1 20 -9 37.5t-21.5 30t-31.5 18t-40 0.5q-34 -2 -65.5 -16t-57.5 -39q-39 -44 -68.5 -93t-53.5 -101t-45 -105l-43 -105q-42 -109 -75.5 -221t-44.5 -226zM410 333q1 33 15 64t31 62q19 35 48 62.5 t63 46.5q33 21 68 37t73 15q23 2 37.5 -9t22.5 -28t10 -38t0 -40q-4 -48 -22.5 -95t-52.5 -84q-36 -38 -83 -56t-96 -16q-19 0 -40 3.5t-38.5 12.5t-28 24.5t-7.5 38.5zM601 307q19 8 37.5 19.5t35.5 28.5q11 13 21 28.5t17 32.5q-3 -2 -6.5 -4t-5.5 -4q-59 -34 -96 -94 q-2 -2 -2 -4q0 -1 -1 -3zM1096 708v0l1 -1q0 1 -1 1z" />
<glyph unicode="7" horiz-adv-x="1155" d="M125 1099l1 9q6 50 29.5 93.5t59 79t78.5 62t88 43.5v-4q72 27 143.5 36t144.5 9h48q60 -2 119 -10t113 -26q38 -16 73 -42t55 -64l87 -94q23 -26 36 -57t12 -69l-2 -7q-18 -78 -49.5 -153.5l-63.5 -150.5l-39 -88l-108 -231l-110 -228h1q-15 -34 -26 -72.5l-21 -76.5 q-5 -15 -9 -31t-8 -30q0 -2 -1 -3t-1 -3l-2 -5l-21 -60t-22 -49q-35 -38 -71 -49t-67 -12h-10q-38 0 -67 14t-51 37l-87 95q-42 27 -64.5 75.5t-17.5 102.5l2 10q5 66 25.5 124.5t44.5 116.5q0 5 2 7q3 3 5 6l123 272l124 273q-20 -8 -38 -18.5t-32 -27.5q-22 -27 -52 -48 t-66 -26h-15q-28 0 -59 6t-54 23q-19 10 -30 23l-96 104q-28 17 -42.5 48t-11.5 66zM169 1108q-5 -26 5 -51t33 -36q22 -16 50 -22t57 -4q27 4 50.5 20t41.5 38q43 47 102 65t118 17q30 0 58.5 -2.5t57.5 -4.5l-9.5 -24.5t-8.5 -24.5l-154.5 -344.5l-156.5 -343.5l-46 -119 t-27 -122q-5 -33 2.5 -64.5t26 -55.5t46.5 -38t63 -11q26 2 53.5 8t47.5 28q15 24 24.5 52.5t17.5 55.5q17 57 30.5 112t37.5 109l110.5 230l106.5 231l83.5 190.5t66.5 193.5q1 30 -8.5 54.5t-27 44.5t-40.5 35t-48 25q-53 17 -107.5 24.5t-111.5 9.5q-82 3 -164.5 -5 t-162.5 -38q-39 -14 -75.5 -36.5t-66.5 -52t-50 -66t-25 -78.5z" />
<glyph unicode="8" horiz-adv-x="1190" d="M92 357v12l2 13q3 40 17 78t36.5 73.5t52.5 66.5t65 57l-11 9q-27 22 -49.5 50.5t-38 61t-22.5 68.5t-4 74l2 19q6 48 23 93.5t41.5 87.5t56 80t65.5 71q71 69 156.5 112.5t181.5 43.5h8q89 0 163.5 -39t128.5 -101l25.5 -31t23.5 -32l58 -62q-1 0 -3 1t-2 3l16 -16 q51 -58 83.5 -129t30.5 -152q0 -8 -1 -16.5t-1 -19.5q-8 -84 -55.5 -156.5t-118.5 -123.5l36 -36q42 -45 63.5 -104.5t16.5 -125.5l-1 -16q-6 -45 -21.5 -88.5t-38.5 -83.5t-51.5 -76t-61.5 -67q-66 -65 -150 -103.5t-172 -38.5h-11q-85 0 -160 31t-133 88l-10.5 10.5 l-10.5 10.5l-73 78l-14.5 13t-12.5 13q-58 57 -94 133.5t-31 165.5zM135 358q-4 -78 28 -148t86 -121q53 -52 122.5 -80.5t147.5 -28.5q84 -3 162.5 33t141.5 96q62 60 105.5 134t54.5 158q6 45 -3 86.5t-29 77.5t-50 65t-66 49q44 22 82 55t66 73.5t44 87t16 95.5 q4 77 -28 146t-83 122q-49 55 -115 90.5t-146 35.5q-44 1 -86.5 -9t-82.5 -29t-76.5 -46t-68.5 -58q-66 -61 -114 -138t-59 -165q-8 -46 2 -88.5t32.5 -78.5t55.5 -64t72 -46q-43 -22 -81 -54t-67 -71t-46 -84.5t-17 -94.5zM423 340q3 26 20 48t37 39q23 17 48 29t54 12 q22 0 41.5 -9t33.5 -24.5t21.5 -35.5t5.5 -42q0 -27 -14 -46.5t-35.5 -31.5t-47 -17t-48.5 -3q-19 0 -40.5 3.5t-39 12.5t-28.5 25t-8 40zM498 978q4 28 19 54.5t38 46.5t50.5 34.5t56.5 14.5q20 0 35.5 -9t26 -23.5t16 -33t4.5 -36.5q-2 -30 -17.5 -56.5t-35.5 -49.5 q-20 -20 -45.5 -35t-54.5 -15q-23 0 -41 9t-30.5 24t-18 34.5t-3.5 40.5z" />
<glyph unicode="9" horiz-adv-x="1167" d="M80 836v11q12 78 37 151.5t67 141.5q47 71 106 130t130 99q49 28 104.5 43.5t112.5 15.5h8q51 0 99 -13.5t90.5 -37.5t78 -57.5t62.5 -73.5q1 -3 2 -4.5t1 -4.5l70 -73q20 -21 39 -50q51 -75 76 -164.5t18 -186.5v-2q-6 -66 -21.5 -132t-37 -131t-47.5 -129.5l-53 -127.5 q-10 -22 -19 -45t-20 -46h-2q-22 -49 -46.5 -98.5t-56 -94t-72.5 -81t-96 -60.5q-4 0 -11 -1t-11 -1q-25 0 -46 9.5t-36 26.5l-92 102q-30 17 -46 47.5t-14 68.5l5 46q2 7 3 11t1 8q8 51 25 95t39 88q-72 1 -136.5 27.5t-110.5 79.5l-80 87q-16 12 -30 25.5t-25 29.5 q-42 58 -56.5 128.5t-8.5 142.5zM123 847q-7 -69 5.5 -135.5t50.5 -119.5q43 -54 106.5 -82.5t134.5 -28.5q77 -1 151 27t137 76q-28 -60 -57.5 -116.5l-58.5 -115.5l-52.5 -107.5t-34.5 -113.5q-2 -6 -2.5 -12.5t-2.5 -12.5q-2 -7 -2 -15v-14q-4 -21 2 -40t18.5 -32.5 t31 -20t39.5 -3.5q59 25 100.5 71t73 101.5t57.5 115.5t54 113l50 123.5t45.5 126t36 128t21.5 129.5q5 91 -17.5 175t-70.5 156q-49 74 -126.5 120t-170.5 46q-52 2 -104.5 -13t-98.5 -42q-67 -37 -122 -91t-97 -120q-40 -63 -63 -132t-34 -141zM378.5 806.5 q-0.5 19.5 2.5 36.5q1 50 22.5 97.5t57 83.5t82.5 55.5t99 14.5q15 -1 32.5 -3t32.5 -8.5t25 -18.5t10 -31q-4 -57 -35 -106t-70 -91q-20 -20 -43 -39t-48 -34t-52.5 -24t-56.5 -9q-21 0 -33.5 11.5t-18.5 28.5t-6.5 36.5zM567 826q23 15 39 38q8 8 15.5 16.5l15.5 17.5 q-43 -28 -70 -72z" />
<glyph unicode=":" horiz-adv-x="625" d="M55 177l1 11q3 40 24 71.5t51 53.5t66 33.5t71 11.5h15q3 0 5.5 1t5.5 1q48 0 89 -22.5t61 -64.5l90 -97q18 -20 27.5 -45t6.5 -56q-1 -5 -1 -9q0 -3 -2 -11q-5 -42 -22 -80t-41 -76q-27 -33 -65.5 -60t-86.5 -27h-4q-38 0 -66.5 13.5t-49.5 36.5l-90 99q-25 16 -42.5 41 t-28 53.5t-14 60t-0.5 61.5zM97 183q-3 -34 3 -70.5t22.5 -66.5t44 -49t67.5 -19q18 -1 35.5 5t33.5 16t30 23.5t25 28.5q42 62 53 135q8 33 -2 58.5t-30.5 43t-49 25t-58.5 3.5q-29 1 -59 -7.5t-55 -26t-41.5 -42.5t-18.5 -57zM141 710q0 19 1 36l17 68t34 68q24 34 62 58 t83 24q37 -4 71.5 -20t54.5 -51l97 -108q7 -6 11.5 -13.5l9.5 -15.5l-3 3q19 -28 23 -59.5t4 -61.5l-2 -5q2 -6 1 -14.5t-1 -17.5q-3 -33 -14 -66.5t-31.5 -61.5t-50 -45.5t-69.5 -17.5h-12q-34 1 -66 13.5t-54 37.5l-92 99q-14 9 -24.5 20.5t-19.5 25.5q-12 15 -18.5 32.5 t-9 35.5t-2.5 36zM184 744q-1 -29 2 -59.5t21 -53.5q17 -26 46.5 -40t60.5 -16q36 -3 62.5 14t43 44t24 59.5t7.5 61.5t-2 58t-19 53q-14 29 -41 41.5t-58 15.5q-31 0 -57.5 -18t-44.5 -44q-21 -26 -30.5 -56.5t-14.5 -59.5z" />
<glyph unicode=";" horiz-adv-x="655" d="M32 -49q7 66 35.5 121.5t62.5 106.5q20 29 43 59t50.5 55.5t60 43.5t71.5 23q36 0 70.5 -14t48.5 -49l98 -104l1 -2q15 -16 19 -36l-54 60h-2l56 -60q7 -24 6 -51t-2 -51l-2 -14q-6 -40 -21.5 -77.5t-36 -72.5t-45.5 -68.5t-51 -64.5q-4 -4 -8.5 -8l-4.5 -4l-30.5 -28.5 t-32 -26t-34.5 -18.5t-38 -7h-16q-6 1 -10.5 2t-12.5 3q-20 6 -34.5 16t-25.5 21l-91 99q-40 23 -55.5 63t-14.5 83zM77 -48q-3 -37 11.5 -71.5t53.5 -46.5q6 -1 13 -2t14 -3q21 -2 38.5 5.5t33.5 20t30 27.5l28 29l45.5 59.5t42 62.5t33.5 66.5t20 71.5q2 24 3.5 50 t-4.5 49q-8 26 -32 36.5t-50 10.5q-32 -4 -59 -20t-50.5 -38.5t-43.5 -48.5l-38 -51q-31 -48 -58 -99t-31 -108zM170 690q0 21 1 40q4 37 20 76t42 71.5t62 53t79 20.5h13q48 -5 83.5 -31t58.5 -63l87 -96q32 -35 46.5 -81.5t11.5 -94.5l-2 -13q-4 -64 -54 -120 q-29 -28 -64.5 -43t-73.5 -15h-6q-33 0 -67.5 11.5t-66.5 34.5l-104 113q-9 4 -18 12q-19 21 -29 42t-14.5 42t-4.5 41zM214 698q0 -17 3.5 -34.5t12 -35.5t24.5 -36q23 -17 51 -24.5t57 -7.5q32 -2 61 10.5t53 35.5q45 48 45 107q2 33 -6.5 66t-26.5 60.5t-45 46.5t-62 22 t-64.5 -12.5t-51 -41t-34.5 -58.5t-16 -64q-1 -17 -1 -34z" />
<glyph unicode="&#x3c;" horiz-adv-x="949" d="M41 671q7 33 22 59.5t34.5 48.5t41 40l42.5 34l4 4t6 5q4 4 8.5 6t7.5 4h-2l57 33.5t57 34.5q4 3 9.5 6.5t9.5 5.5l32 21q4 2 9 5t10 7l64.5 41.5l63.5 40.5q29 17 62 27t68 10h13q36 -4 67.5 -26t49.5 -54l92 -101q39 -42 39 -102v-10q-2 -30 -17 -58t-48 -43l-80 -52.5 l-79 -51.5l15.5 -7.5l13.5 -6.5q41 -17 53 -51l96 -104q18 -20 23 -47t2 -54l-1 -19q-4 -27 -16.5 -53t-31.5 -46.5t-44.5 -34t-54.5 -16.5q-54 0 -97.5 16.5t-83.5 36.5l-80 49.5t-82 47.5l-27 18l-28 18l-65 41t-58 50l-80 87q-33 26 -58.5 59t-38.5 81zM87 676 q9 -38 32.5 -66t54 -50.5t64 -42t62.5 -39.5q43 -23 83 -47l81 -49q36 -19 74.5 -34t82.5 -15q22 2 41 12t33.5 26t24 35.5t12.5 40.5q3 15 3 31t-3.5 30t-12.5 25.5t-24 17.5l-129.5 69l-130.5 69l139 92.5l141 90.5q22 11 30 33t9 44q1 21 -7 40.5t-22 35t-33 25.5t-40 12 q-29 2 -58.5 -7.5t-55.5 -25.5l-57.5 -34.5l-55.5 -35.5l-99.5 -62t-100.5 -61l-42.5 -32.5t-42 -36t-34 -42t-19.5 -49.5z" />
<glyph unicode="=" horiz-adv-x="1111" d="M123 532l2 14q2 28 15 48.5t31.5 34.5t40.5 23t42 15l-37 41q-31 21 -49.5 55.5t-13.5 76.5v8q1 3 2 5.5t1 4.5q6 30 21.5 51.5t35.5 36.5t42.5 25.5t43.5 18.5q42 15 83.5 22.5t84.5 9.5h41q23 0 42 -1h5q20 -2 38 -3t37 -1h31q3 0 5.5 -1t4.5 -1h7q8 2 14 2h12h20 t17 -2q30 0 62 -6t61 -18.5t53 -32.5t39 -48l93 -99q17 -20 27 -45.5t10 -57.5h-2q3 -8 2.5 -14t-0.5 -8q-2 -26 -13.5 -46t-29 -35t-39.5 -24.5t-46 -12.5l65 -71q15 -17 23 -39.5t6 -53.5q-3 -8 -3 -15v-7q-9 -31 -28.5 -56.5t-45.5 -43.5t-56 -28.5t-60 -12.5 q-51 -4 -104.5 -5.5t-106.5 -1.5q-62 0 -124 2t-124 6q-32 3 -60.5 17.5t-50.5 37.5l-89 97q-33 22 -54.5 58t-23.5 80zM167 538q1 -26 11.5 -49t27 -40t38.5 -28t48 -13q112 -8 224.5 -9t227.5 7q24 1 48 9.5t44.5 23t36.5 34.5t23 44q5 28 -1.5 49t-22 35t-37 22.5 t-45 13.5t-48 6.5t-44.5 1.5q-13 -2 -24.5 -1.5t-23.5 -1.5h-49q-46 0 -89 3q-22 3 -42.5 4t-42.5 1q-40 0 -80.5 -5.5t-80.5 -16.5q-16 -5 -33.5 -12t-32.5 -17.5t-24.5 -25.5t-8.5 -35zM200 807q5 -22 18.5 -39t34 -27t44.5 -9h514q22 -3 45 3t41.5 19.5t29 33t7.5 45.5 q-1 38 -20 65t-48.5 43.5t-65 24t-68.5 7.5q-13 2 -27 2q-13 0 -26 -2q-13 0 -25.5 1.5t-25.5 0.5q-42 0 -82 3q-19 2 -40 2h-40q-38 -3 -76 -9t-76 -20q-17 -7 -35.5 -15.5t-34.5 -20t-28 -26.5t-16 -36q-5 -24 0 -46zM1017 503l4 -3q-2 0 -2 1t-2 2zM1041 817l3 -3 q-1 0 -1 1t-2 2z" />
<glyph unicode="&#x3e;" horiz-adv-x="949" d="M138 389l2 15q2 31 15.5 59.5t45.5 48.5v-2l92 64l93 66q-12 7 -23.5 12.5t-22.5 13.5q-8 4 -13.5 9l-12.5 11l-94 102q-36 21 -47.5 57t-8.5 71l2 16q4 29 16.5 55.5t32.5 47.5t46.5 34.5t57.5 15.5q60 -6 107.5 -28t92.5 -45l19 -10q10 -7 21 -13t26 -11l57 -35 l59 -38.5l62.5 -44.5t67.5 -54l12 -12h-2q9 -12 18 -22.5t17 -22.5l87 -94q17 -18 29.5 -39.5t14.5 -52.5l-2 -8q-6 -32 -21 -58.5t-35 -49t-44 -41.5l-47 -37q-11 -9 -22 -17l-96.5 -64.5l-99.5 -63.5q-11 -5 -20.5 -12t-20.5 -14q-8 -5 -18 -12t-20.5 -13.5l-18.5 -11.5 t-11 -6h1q-28 -17 -59 -27t-63 -10h-17q-54 7 -91 48l-90 99q-31 22 -51 54.5t-23 69.5zM181 398q4 -43 32 -75.5t72 -39.5q29 -2 58.5 7.5t55.5 25.5q30 15 57 34t56 36l94.5 61.5l93.5 62.5l47.5 37t45.5 40t37 45.5t22 53.5q-2 31 -20.5 52.5t-37.5 41.5q-56 48 -117 87 l-124 77q-29 14 -57.5 30t-57.5 30t-60 25t-64 14q-21 -2 -39 -12t-32 -25t-23 -34.5t-12 -39.5q-3 -14 -3 -30q0 -15 3.5 -29t11.5 -26t22 -19l133.5 -77l131.5 -77l-142 -100l-143 -98q-22 -14 -30.5 -34.5t-10.5 -43.5z" />
<glyph unicode="?" horiz-adv-x="1172" d="M126 1026v5q7 52 29.5 97.5t55.5 84t74 69.5t85 54h-1q77 44 164 66.5t175 22.5h26q37 -1 74.5 -7t73 -17t68.5 -29t60 -43q30 -26 52 -63l80 -85q46 -51 66 -119t16 -139v-7q-12 -56 -38 -101.5t-62 -83.5t-79.5 -70.5t-90.5 -61.5l60 -67q1 -4 4.5 -16t5.5 -16 q2 -17 7 -34.5t3 -40.5q-3 -26 -14 -49.5t-27.5 -44.5t-38 -39t-43.5 -33q-6 0 -17.5 -0.5t-17.5 -0.5q-11 0 -22 -1t-25 -3q-17 -1 -38 -1h-38h-60l68 -74q23 -26 35 -58t10 -72l-2 -13q-4 -41 -21.5 -80.5t-45.5 -71t-66 -51t-82 -19.5h-7q-45 2 -88 15.5t-81 40.5 q-7 5 -14 11.5t-12 12.5l-88 97q-4 4 -5 4q-39 29 -61 74t-18 98q0 2 -1 4t-1 5l2 10q3 34 17 63.5t36 53.5t50 41.5t59 27.5l-80 89q-19 15 -36 32.5t-29 38.5t-18.5 45.5t-3.5 52.5l2 5q4 45 24.5 82t51.5 66q-1 2 -2 3.5t-1 3.5l-92 97q-34 21 -52.5 58.5t-14.5 80.5z M169 1031q-3 -23 3.5 -45t20 -38.5t33.5 -26t44 -8.5q37 2 68.5 25t48.5 55l39 58t48 52q44 24 92 35t96 9q21 -2 45.5 -3.5t47 -8t38 -20t18.5 -38.5q-6 -24 -21.5 -42t-36 -32t-42.5 -25.5t-42 -23.5q-67 -32 -133 -67.5l-132 -70.5q-25 -15 -50 -34t-46 -41.5t-36 -48.5 t-18 -57q-5 -33 6 -59.5t31 -48t46 -37.5t52 -27q58 -23 120.5 -35t128.5 -10h37t38 2q20 2 38 2.5t37 2.5q17 11 33 24.5t28.5 29.5t20.5 34.5t9 39.5q2 20 -3.5 39.5l-10.5 37.5q-27 6 -53.5 9.5l-55.5 7.5q-29 0 -58.5 1.5t-59.5 3.5l130 75.5t130.5 84.5t108.5 104 t63 134q4 69 -18 135t-72 112q-48 45 -115 64t-135 21q-88 5 -175.5 -16.5t-167.5 -66.5q-39 -21 -75.5 -48.5t-66 -61.5t-50 -73.5t-26.5 -84.5zM258 169q-3 -42 14 -79t49 -61t70 -35.5t80 -13.5q37 -2 68.5 14t55 42.5t37.5 60t17 67.5q7 42 -7.5 76t-43 57t-66.5 35 t-76 9q-35 3 -70.5 -9.5t-64.5 -35.5t-47 -56t-16 -71z" />
<glyph unicode="@" horiz-adv-x="1638" d="M108 649l1 13q7 78 28 154.5t56 148t83 136t110 118.5q60 52 127.5 91.5t139.5 65t147 38.5t149 13h34q63 0 124.5 -13t117.5 -38.5t104 -62.5t84 -86q4 -6 10 -12.5t11 -14.5l66 -72l14 -16.5t13 -17.5l-1 2q38 -46 64.5 -100t42.5 -112.5t21 -120.5t0 -123l-4 -26 q-8 -100 -45.5 -197.5t-109.5 -175.5l-2 -2q-38 -45 -84.5 -79.5t-99 -58t-108 -35t-110.5 -11.5h-12q-43 0 -86 3q17 -26 14 -60q0 -2 -1.5 -5.5t-1.5 -6.5q-3 -35 -21 -66t-44.5 -54t-59.5 -36.5t-67 -13.5q-120 0 -229 46.5t-187 130.5l-67 70q-22 20 -43 41.5t-39 45.5 v-2q-83 107 -117 237t-22 264zM150 649q-10 -127 19.5 -246.5t105.5 -214.5q36 -50 82.5 -88.5t101 -64.5t115.5 -40t124 -14q27 0 53 10.5t47 28.5t35 42.5t17 51.5q5 21 -1 39.5t-19.5 31.5t-32 19t-38.5 3q-96 -9 -172.5 27.5t-126.5 102t-70 151t-3 174.5q4 50 15 101 t32 101t54 97t80 89q40 32 85 53t92.5 33.5t96.5 17.5t97 5q84 7 151 -26t111 -91.5t61.5 -134.5t3.5 -154q-2 -42 -11.5 -89.5t-30 -89t-53.5 -73t-82 -42.5q31 58 47 121.5t23 126.5q8 78 -3.5 154t-52.5 141q-19 33 -47 58t-62 41.5t-72 24.5t-77 7q-27 1 -53 -8.5 t-47 -27t-35 -42t-17 -51.5q-2 -27 6.5 -53.5t34.5 -37.5q27 -2 51.5 -9.5t50.5 -12.5q31 -9 50 -36t25 -58q-75 2 -150.5 -12.5t-144.5 -50.5q-33 -17 -63 -41t-53 -54t-36.5 -64.5t-14.5 -71.5q-2 -44 16 -78.5t46.5 -61.5t64.5 -46.5t71 -34.5q77 -31 160 -47.5 t169 -14.5q51 0 103 11t100.5 33t92 53.5t78.5 73.5q36 39 63 84t45 93.5t28 99t12 100.5q11 117 -18 229.5t-101 200.5q-33 45 -77.5 80t-96.5 58.5t-109 35.5t-116 12q-75 3 -151 -7.5t-148.5 -35t-140.5 -63t-127 -90.5q-60 -52 -106.5 -114.5t-79.5 -132t-52.5 -143.5 t-24.5 -149zM611 777q35 17 70 28t70 19l-50 53q-2 4 -6 5q-51 -49 -84 -105zM657 526q16 27 41.5 39.5t55 17t60 4t56.5 2.5q16 -2 30 -6t28 -6q-13 -36 -31 -71t-47 -61q-29 0 -57 7t-52 17q-23 9 -48 20.5t-36 36.5zM1190 971l6 -10q-1 2 -1 7q-4 0 -5 3z" />
<glyph unicode="A" horiz-adv-x="1333" d="M67 210l1 20q5 65 24.5 123t44.5 113l31 74l33 73q5 5 6.5 11t5.5 11l19 41l9 22t10 22h2l47.5 143.5l51.5 143.5q8 26 22 61q5 17 11 32.5l11 29.5l14 31q20 43 43 87t53 81.5t70.5 64.5t94.5 36q58 0 108 -21t88 -56q34 -31 61 -70l79 -87q27 -29 46.5 -65t35.5 -76 q8 -29 13.5 -53l10.5 -45q4 -17 7.5 -35t7.5 -36l64 -325.5t57 -328.5h2q2 -9 5 -27t5 -41q3 -11 5.5 -24t4.5 -27q5 -26 5.5 -49.5t-1.5 -46.5q-2 -11 -3 -20t-2 -17v-4q-5 -26 -18.5 -48.5t-32 -40t-41 -30t-46.5 -16.5q-8 -1 -18 -2t-22 -1q-33 0 -63 9.5t-49 31.5 l-98 106q-6 5 -14 10.5t-15 13.5q-17 30 -25 64.5t-12 66.5q-27 -2 -55.5 -7l-57.5 -10h-2q-4 -2 -9 -2t-9 -2q-34 -8 -67.5 -17.5t-60.5 -29.5h1q-11 -11 -16 -27t-8 -31q-1 -5 -2 -11.5t-1 -11.5q-4 -23 -10.5 -47t-16.5 -46q-21 -35 -52.5 -48.5t-63.5 -13.5h-21 q-33 5 -59.5 21t-46.5 39l-85 92q-40 26 -63 68q-44 70 -44 154zM109 213q0 -35 10 -68.5t28 -62.5q19 -29 47 -51.5t64 -28.5q25 -3 52.5 5t41.5 34q13 23 17 49l8 52q5 22 11.5 45t26.5 40q37 29 81 40l88 21q46 9 92 15t94 6q18 2 35 -2t33 -10q7 -32 11 -64l8 -64 q4 -33 9.5 -67.5t22.5 -63.5q22 -25 55.5 -30.5t65.5 -0.5q39 6 68.5 34t37.5 67v6q5 30 5.5 59.5t-3.5 58.5q-7 29 -10 58.5t-11 57.5q-26 166 -57.5 329l-64.5 327q-11 41 -19 82t-19 83q-17 44 -40.5 83.5t-58.5 68.5q-32 29 -74 48t-88 19q-51 -9 -88 -39.5t-65 -71 t-49.5 -87l-41.5 -86.5l-73 -199.5t-69 -201.5l-57 -124.5l-57 -126.5q-26 -58 -45 -117.5t-22 -121.5zM529 585v17l2 19q4 51 18.5 102t32.5 100q20 50 43.5 97.5t55.5 91.5l24.5 -90.5t23 -91.5t17 -93t5.5 -95q0 -16 -9 -27t-22 -18t-28 -9.5t-28 -2.5h-29q-26 2 -53 2 t-53 2v-4z" />
<glyph unicode="B" horiz-adv-x="1347" d="M114 410l4 30q4 53 12 104t17 101q14 60 26 120t20 117l2 16q1 17 1 32v33l2 6q-2 12 -1 24.5t3 25.5q1 5 0.5 10.5t-0.5 11.5l3 24q0 4 -1 9t1 10l2 19q0 14 2 26.5t5 25.5v4q8 40 28.5 73t48.5 59t60.5 46t65.5 35q64 27 132.5 41t136.5 15h23q66 0 129 -14t120 -45 q40 -20 74.5 -49t56.5 -69l75 -82l-1 2l6 -5q30 -32 47 -72.5t15 -88.5l-4 -20q-8 -95 -59 -178l63 -68q22 -24 39.5 -51.5t31.5 -56.5q30 -55 41.5 -116.5t6.5 -127.5v-1q-9 -71 -43 -131t-83 -109.5t-107.5 -89t-116.5 -70.5q-66 -35 -132.5 -62t-135.5 -49q-4 -1 -10 -2 t-10 -3q-53 -15 -105 -28t-105 -13h-21q-9 0 -18 2q-38 2 -69 19.5t-54 43.5l-85 92q-42 27 -67 70.5t-41 88.5q-20 63 -26.5 129.5t-4.5 135.5zM157 411q-2 -64 3.5 -126.5t25.5 -122.5q10 -28 25 -56.5t35 -52t46.5 -39t60.5 -17.5q31 -3 63 -0.5t63.5 9t62.5 15.5l62 18 q67 22 133 48t130 60q54 29 108.5 66t100 82.5t77.5 100t40 119.5q6 61 -5.5 117.5t-37.5 108.5q-26 53 -65.5 98.5t-94.5 70.5q37 50 59.5 106.5t23.5 116.5q2 34 -8.5 64t-30 55t-45.5 44.5t-54 32.5q-57 32 -122 45.5t-132 11.5q-63 -2 -127.5 -14.5t-125.5 -38.5 q-27 -13 -55.5 -30t-52.5 -39t-42 -49t-24 -60q-6 -35 -7 -68t-5 -68q-1 -35 -1 -69t-5 -69q-8 -61 -20.5 -120.5t-26.5 -118.5q-11 -58 -19.5 -115.5t-12.5 -115.5zM439 393q2 33 11 65.5t24.5 62.5t39 56t53.5 44q62 40 129.5 54t136.5 14l3 -6q21 -21 32.5 -49t8.5 -59 q-8 -62 -48 -110.5t-92 -80.5q-53 -36 -111.5 -58t-120.5 -21q-18 -1 -32 6.5t-22 20t-11.5 29t-0.5 32.5zM507 872v53q5 56 15 109q4 24 19.5 41.5t35.5 28t43 14.5t44 3q16 1 35 -1.5t34 -10t24.5 -21t7.5 -33.5q-3 -21 -14 -38t-26 -31.5t-32.5 -26.5l-33.5 -22 q-35 -22 -73.5 -38t-78.5 -27zM618 367q26 11 49 23.5t46 27.5q62 37 98 91q-30 -7 -57 -18t-53 -28q-28 -18 -48.5 -42.5t-34.5 -53.5z" />
<glyph unicode="C" horiz-adv-x="1287" d="M97 642l2 13q11 129 58.5 252.5t122.5 232.5v-2q36 55 82 107.5t100.5 93t117 65t132.5 24.5h10q49 0 94.5 -11.5t87 -32.5t78 -50t66.5 -63q13 -14 24.5 -29l23.5 -32l71 -77q59 -65 95.5 -147.5t32.5 -176.5v-12q-2 -30 -16 -55t-35 -43.5t-47.5 -28.5t-54.5 -10h-11 q-5 0 -11 2q-38 0 -70 14.5t-55 40.5l-92 99q-18 13 -33.5 31t-24.5 39l-19 51q-25 -10 -47.5 -28t-42 -41t-35 -49t-27.5 -51q-38 -72 -59 -149.5t-28 -157.5q-4 -35 0 -70t17 -68q30 -11 65 -11h3q44 2 85 19.5t76 45.5q31 26 64.5 49t73.5 37h12q29 0 54.5 -17.5 t41.5 -44.5v-2l93 -100l4 -4q6 -6 10.5 -14t8.5 -16q13 -21 16.5 -46.5t1.5 -49.5l-1 -12q-12 -71 -53.5 -129.5t-95.5 -102.5l-1 -2q-52 -45 -116.5 -74t-131.5 -32q-8 0 -14.5 -0.5t-14.5 -0.5q-56 0 -109.5 13t-102 36.5t-91.5 56.5t-79 73l-63 68q-52 43 -94 99 q-78 100 -119 223t-30 257zM140 647q-6 -63 1.5 -125t26 -120t48 -111.5t66.5 -101.5q36 -47 81.5 -87t99 -68t113.5 -42t124 -9q60 2 117.5 29t105.5 68q51 40 87.5 92.5t47.5 114.5q3 22 0.5 44.5t-14.5 40.5q-6 22 -25.5 36t-42.5 12q-33 -11 -62.5 -31.5t-55.5 -43.5 q-42 -32 -89 -53t-98 -22q-60 -2 -110.5 25.5t-79.5 78.5q-32 46 -42.5 101.5t-6.5 113.5q8 84 31 165.5t63 156.5q16 35 39 71t52.5 64.5t65.5 46.5t78 18q29 -2 47 -24.5t28 -47.5q12 -35 25.5 -67t24.5 -67q15 -35 48 -56t73 -21q25 -5 49 1.5t43.5 21.5t31 37t11.5 49 q2 88 -33.5 166t-91.5 138q-28 31 -61.5 57.5t-71 46t-79 30.5t-86.5 11q-65 2 -123.5 -20.5t-109.5 -60.5t-93.5 -87t-76.5 -100q-74 -107 -119.5 -226.5t-56.5 -244.5z" />
<glyph unicode="D" horiz-adv-x="1324" d="M113 227l8 96q0 13 2.5 22.5t4.5 18.5v3q2 13 4.5 27l4.5 26l1 27q0 7 2 13t2 14q1 7 0.5 13.5t0.5 14.5l5 70q2 9 2 20v22q2 22 3.5 43.5t3.5 43.5q4 43 9 87.5l10 87.5q5 26 8 52t7 52l15 94t20.5 96t31.5 96.5t49 97.5q48 18 94.5 27.5t93.5 14.5v2q49 9 100.5 14.5 t104.5 7.5h15q4 0 8.5 1t8.5 1q65 0 125.5 -16.5t113 -46.5t97 -71.5t77.5 -92.5l60 -67q76 -82 114 -191t28 -227l-4 -39q-7 -80 -31 -158.5t-61 -152t-85.5 -141.5t-105.5 -127h-2q-50 -56 -110.5 -106.5t-129 -88t-142.5 -59.5t-150 -22q-17 0 -32.5 1t-29.5 2 q-48 4 -88.5 24.5t-71.5 54.5l-84 92q-51 37 -80.5 97.5t-26.5 129.5zM155 229q-1 -44 13.5 -85t41 -73t63.5 -52.5t82 -23.5q79 -10 156.5 7t150 53.5t137 88.5t117.5 112q58 60 106.5 128t85 142t58 152t25.5 158q8 73 -4 143.5t-41.5 133.5t-74.5 116t-102.5 90 t-126 55.5t-144.5 13.5q-49 -3 -97.5 -8.5t-98.5 -14.5q-43 -5 -85.5 -13.5t-83.5 -23.5q-31 -51 -49 -106.5t-29 -114t-19 -117.5t-18 -116q-5 -43 -9.5 -86.5t-8.5 -86.5q-4 -42 -6 -85t-6 -85l-4 -56t-5 -55q-2 -25 -7.5 -49t-7.5 -48q-4 -23 -5.5 -47t-3.5 -47z M454.5 455q1.5 62 8.5 125q6 87 14.5 172t24.5 170q5 24 8 48t5 49q3 9 5.5 20t6 21.5t9 20t15.5 15.5q25 1 49 1.5t49 3.5q26 2 52 2t50 1q20 -1 41 -3t41 -7t37.5 -15t30.5 -26q12 -17 17 -37t6 -41t0 -42.5t-1 -41.5q-5 -47 -20.5 -91.5t-37.5 -87.5t-49.5 -83t-56.5 -78 q-29 -36 -61 -71.5t-68.5 -66t-77.5 -52.5t-88 -30q-11 62 -9.5 124zM616 457q33 30 63.5 63.5t57.5 68.5v-2q52 67 92.5 142t49.5 155q0 8 1 18t1 21q1 3 0.5 6.5t-0.5 7.5h-8t-8 2q-13 -2 -26 -2h-27q-13 0 -24 -1t-22 -1l-34 -2t-34 -1q-4 0 -7.5 -1t-7.5 -1 q-3 -4 -4 -10t-3 -12l-3.5 -14t-3.5 -10q-2 -6 -2.5 -13.5t-0.5 -12.5q-2 -17 -4.5 -34t-4.5 -34q-13 -67 -21 -132.5t-13 -131.5z" />
<glyph unicode="E" horiz-adv-x="1283" d="M119.5 338.5q-0.5 88.5 3.5 176.5q5 32 8 63.5l6 63.5q8 89 19 179.5t31 181t54 180.5t88 179q75 27 151.5 38t154.5 15q40 4 80 6t82 2q40 0 79.5 -2l79.5 -4q50 -3 93.5 -29t66.5 -70l87 -94q25 -27 37 -62t9 -73v-5q-1 -5 -0.5 -9.5t0.5 -9.5q-2 -20 -9 -39t-18 -36 q-14 -29 -43 -44.5t-58 -15.5q2 -2 2 -4q0 -1 2 -3l87 -95q23 -25 35 -56t7 -69l-1 -17q-3 -40 -23 -66.5t-48 -43.5t-60.5 -25.5t-61.5 -12.5q24 -8 42.5 -25t29.5 -39l92 -100q20 -22 29 -53.5t7 -64.5q0 -7 -1.5 -12t-4.5 -14h2q-6 -32 -20.5 -63t-39.5 -59 q-33 -33 -70 -59t-76.5 -47t-80.5 -39l-82 -35l2 -1l-6 -3t-4 -1q-1 0 -3 -0.5t-6 -2.5l-46 -19q-78 -27 -158.5 -51t-165.5 -24h-20q-19 3 -38.5 8t-39 12.5t-37 18.5t-32.5 27l-5 7q-2 2 -4 2q-1 0 -1 2l-9 8l-75 82q-8 5 -15 11.5t-12 14.5q-30 29 -45 62.5t-24 66.5 q-1 2 -2 4.5t-1 4.5q-20 93 -20.5 181.5zM162.5 346q-0.5 -84 16.5 -165l25 -70t40 -62q23 -28 58.5 -39.5t71.5 -18.5q45 -1 89 6t88 19.5t87.5 28l86.5 30.5l87 37.5t86.5 40.5t81.5 48t73 60q20 22 31.5 48t18.5 55q6 25 2 50.5t-16.5 45.5t-33.5 31t-50 7 q-73 -6 -143.5 -32.5t-136.5 -62.5q-64 -34 -129.5 -63.5t-136.5 -37.5q-11 42 -19 84t-3 87q0 37 15.5 70t41 59t58.5 43.5t68 23.5q78 11 156 17.5t156 14.5q25 3 53.5 10t53.5 20.5t42 35t18 52.5q6 36 -5 66t-33.5 51.5t-54 32.5t-64.5 9q-54 2 -106 0.5t-106 -5.5 t-108 -7t-108 -7v14q2 35 13 68t24 65q115 4 228 1.5t226 -11.5q20 0 39.5 9.5t27.5 29.5q25 33 22 77q4 33 -6 62t-30 51t-48.5 35t-60.5 14q-77 6 -156 6.5t-160 -8.5q-71 -4 -141 -13.5t-139 -34.5q-57 -92 -89 -191.5t-50 -202.5t-27.5 -208t-20.5 -207 q-3 -85 -3.5 -169zM599 387l47.5 22t46.5 24q4 2 7 4t8 3q43 23 90 45t96 36q-40 -5 -78 -9t-75 -9q-49 -8 -88.5 -40t-53.5 -76z" />
<glyph unicode="F" horiz-adv-x="1140" d="M125.5 504q-0.5 80 4.5 167q11 134 40.5 264t78.5 258q22 51 58.5 93.5t86.5 72.5q5 0 8.5 0.5t8.5 2.5q3 2 7 2q5 0 9 1q1 2 3 2q3 0 5 2q40 11 83.5 20.5t87.5 13.5q42 9 80.5 12t78.5 5q8 0 16 1t16 1h12q2 0 5.5 0.5t8.5 0.5q33 -1 66 -9.5t62.5 -23.5t53.5 -36.5 t39 -49.5l88 -96q24 -27 37 -60.5t9 -75.5l-2 -10q-2 -29 -15.5 -51t-33.5 -38t-43.5 -26.5t-45.5 -16.5q-8 -2 -16.5 -3.5t-14.5 -3.5q36 -25 58 -61l87 -94l7 -7q14 -15 25 -34t16 -41l-2 2l8 -25.5t2 -27.5l-1 -2q-4 -31 -19.5 -55.5t-37 -43t-47.5 -30.5t-52 -19 q-66 -22 -130.5 -31t-130.5 -15l-22.5 -4t-21.5 -3h-2q-33 -5 -66 -9.5t-62 -12.5q-3 -15 0 -29q0 -14 -1 -29.5l-2 -30.5q0 -40 -1.5 -81t-3.5 -81q-5 -51 -14 -101t-29 -99l-2 2q-8 -23 -21 -46t-32 -41t-42 -29.5t-50 -11.5h-17q-24 4 -48 15t-41 31l-92 101 q-15 10 -28.5 24t-22.5 32q-18 53 -25 106t-9 107q0 4 -1 7t-1 7q0 20 -1.5 40t-3.5 40q-2 81 -2.5 161zM167.5 510.5q0.5 -79.5 3.5 -160.5q7 -74 11.5 -149.5t27.5 -145.5q11 -25 34 -39t50 -18q22 -3 41 5t34 23t26.5 34.5t17.5 38.5q20 45 28 92.5t13 95.5q2 40 2.5 80 t2.5 80q3 29 3 58t2 58q51 21 103.5 27t106.5 14q63 7 126 15.5t125 29.5q21 6 42.5 15.5t39.5 23.5t30.5 32.5t15.5 42.5q2 11 -1 19.5l-6 17.5q-8 29 -25 51.5t-41 38t-52 23.5t-58 7q-42 2 -84 -2t-85 -7l-87.5 -7.5t-86.5 -5.5l2 22q5 42 12.5 83.5t30.5 76.5q6 2 13 2 h14q33 -2 66.5 -2.5t66.5 -2.5q45 -2 90.5 2t90.5 15q19 4 38.5 13t35.5 22t26 30t9 39q4 43 -12.5 76t-46 56.5t-67.5 36t-77 14.5l-107.5 -6t-107.5 -15q-51 -5 -100 -17l-98 -25q-41 -23 -70.5 -59t-45.5 -78q-48 -125 -77 -252.5t-41 -257.5q-5 -81 -4.5 -160.5z M1123 1215l3 -3z" />
<glyph unicode="G" horiz-adv-x="1377" d="M109 717v7q11 123 63 237.5t130 216.5q37 48 83 93.5t99 81t113 56.5t125 21h10q103 0 194.5 -33t169.5 -86q1 -3 5.5 -7l4.5 -4l5 -3l46.5 -41t38.5 -49l86 -93q19 -19 30.5 -43.5t13.5 -56.5q-5 -29 -18.5 -49.5t-27.5 -37.5q-11 -13 -26.5 -24t-33.5 -19q2 -2 2 -3 l87 -91q40 -44 54 -108t9 -126l-3 -39q-3 -19 -5.5 -37.5t-6.5 -35.5q-3 -5 -3.5 -9t-0.5 -7q-19 -108 -70.5 -209t-128.5 -190q-37 -44 -81 -83t-93.5 -68t-103.5 -46.5t-111 -17.5h-14q-95 0 -171.5 42t-135.5 106l-65 72q-49 40 -87 89t-65 102q-64 109 -96.5 233.5 t-21.5 258.5zM152 724q-13 -129 18.5 -250.5t95.5 -226.5q29 -52 67.5 -101t86.5 -86.5t105.5 -59.5t123.5 -20q53 -1 103.5 15t96.5 43t86.5 63.5t74.5 77.5q72 84 121 180.5t69 200.5l8.5 49t6.5 51q7 46 2 95.5t-25 90.5t-56 67t-90 26q-66 -4 -129.5 -19.5l-129.5 -32.5 q-30 -9 -61.5 -17.5t-62.5 -18.5t-61 -23.5t-56 -33.5q-11 -12 -14.5 -26.5t-5.5 -28.5q-2 -29 3 -57.5t21 -51.5q15 -25 41.5 -39t55.5 -14q35 0 68 5.5t68 14.5q34 7 67 16.5t66 16.5q0 -17 1.5 -32.5t-1.5 -32.5q-5 -53 -22 -104t-47 -97q-15 -23 -35 -42.5t-43.5 -34.5 t-49.5 -23.5t-53 -7.5q-36 -2 -69 8.5t-60 30t-47.5 47t-32.5 59.5q-31 62 -35.5 132t0.5 141q5 82 32 163t80 149q24 35 56.5 62.5t69.5 46t77.5 27.5t81.5 6q34 -2 63 -15.5l58 -27.5l63 -28t67 -16q20 2 36 13t29 25q11 13 22 28t14 33q0 23 -9.5 41.5t-24 34t-32 29 t-32.5 26.5q-75 53 -164 85.5t-187 31.5q-59 0 -114 -19t-104 -51.5t-92 -75t-77 -88.5q-74 -96 -123 -204.5t-60 -225.5zM574 423.5q3 -59.5 23 -112.5q14 -7 29.5 -9.5t32.5 -2.5h13q40 0 76.5 26t62.5 61v-2l17 31q-17 -2 -34.5 -3t-34.5 -1q-30 0 -58.5 13t-48.5 35 l-77 84q-4 -60 -1 -119.5zM783 928l16 4v2q4 1 8 1q5 0 9 2q26 6 51.5 12.5l52.5 13.5h-5q-70 0 -132 -35z" />
<glyph unicode="H" horiz-adv-x="1306" d="M120.5 270.5q-0.5 37.5 2.5 81.5l4 91.5t6 92.5l5 53q2 13 3.5 26t3.5 27q2 11 3.5 23.5t1.5 25.5q2 13 3.5 25t3.5 25q13 100 24 203q5 28 8 55l6 56q4 28 7.5 57.5t5.5 58.5q7 31 16.5 62t24.5 62q18 39 46.5 70.5t74.5 40.5q7 2 16 2h17q50 0 91 -25t64 -67q2 -2 2 -4 q0 -1 1 -3l84 -90q7 -8 12 -15.5l10 -15.5l4 -2q26 -40 37.5 -87t6.5 -97l-2 -19q-2 -35 -8.5 -61l-13.5 -55q-2 -3 -2 -10h14q12 0 23.5 -1t22.5 -1h5q3 42 2.5 85t-2.5 87q-1 44 -0.5 88t2.5 92q2 31 8 63.5t23 60.5q15 36 48 60t73 24h12q53 -7 88.5 -35.5t58.5 -70.5 l80 -85q28 -31 46.5 -71.5t31.5 -80.5q18 -69 28.5 -139.5t6.5 -142.5l-21 -220l-4 -116.5t1 -118.5q1 -45 0.5 -89t-4.5 -92q-1 -12 -3 -24.5t-4 -23.5v-5q-6 -34 -16 -67t-30 -65v2q-18 -36 -45.5 -68t-71.5 -41l-2 1q-7 -2 -14.5 -3.5t-12.5 -1.5q-31 0 -58.5 13 t-47.5 35l-94 101q-33 23 -51 60q-23 39 -30 84t-11 90v21t1 26q0 5 -0.5 9.5t0.5 9.5q0 7 1 14.5t-1 16.5h-8l-63 -5q-16 -2 -30 -2t-28 -2q4 -59 5.5 -120.5t-0.5 -128.5q-3 -37 -10 -75t-28 -77q-6 -18 -17.5 -35.5t-26.5 -31.5t-33.5 -23t-39.5 -9q-3 0 -9 1t-9 1 q-37 5 -69 23t-55 44l-85 93q-17 11 -30 24.5t-23 28.5q-25 35 -40 74.5t-20 79.5q-2 35 -2.5 72.5zM164.5 280q0.5 -36 2.5 -73q8 -77 51 -135q21 -30 51.5 -50t68.5 -25q16 -3 31 2.5t27 16.5t21.5 26t14.5 30q17 32 22.5 66.5t9.5 69.5q3 72 -1 142.5t-9 141.5 q52 5 102 6q31 4 62.5 5t62.5 6q23 0 45 -1t45 -1q17 -66 14 -132q2 -32 1 -64t-1 -64q2 -41 9 -81.5t27 -75.5q14 -33 47.5 -52.5t71.5 -10.5q34 7 55.5 33t35.5 54q17 29 25.5 59t15.5 61q8 57 10 112.5t0 112.5q-2 60 -0.5 119t3.5 118l9 113q2 29 6 55t4 54 q5 69 -4.5 136.5t-26.5 131.5q-10 30 -23.5 61t-32.5 57.5t-45 44.5t-62 23q-27 3 -50 -13.5t-34 -42.5q-13 -25 -19 -53t-8 -55q-3 -45 -3.5 -88.5t1.5 -88.5t2 -91q0 -45 -4 -92q0 -18 -3 -36q-73 3 -146 1t-146 -2q2 38 11.5 75.5t17.5 76.5l18 74t13 74q8 49 -2.5 96 t-36.5 85q-21 38 -61 59t-85 13q-32 -7 -52 -30.5t-33 -51.5q-14 -27 -23.5 -57t-15.5 -59q-3 -29 -6.5 -56t-7.5 -55q-2 -29 -5 -56.5t-8 -56.5q-8 -75 -17.5 -150l-18.5 -150q-8 -74 -14 -144.5t-8 -144.5q-2 -37 -1.5 -73z" />
<glyph unicode="I" horiz-adv-x="1258" d="M148 160v6q3 26 16 45t31.5 32t39.5 19.5t41 8.5q22 0 45 1t46 3l17.5 161t21.5 161l21.5 159t19.5 159q-17 1 -34 5t-31 10l-1 2q-18 4 -32.5 13.5t-25.5 22.5l-91 97q-28 15 -45 44t-15 67l2 17q18 40 44.5 68t57 48.5t64 34t66.5 25.5l8 2t9 3t10 3.5t9 3.5 q71 22 143 34t145 12h24q43 0 84.5 -10t81.5 -23q36 -15 71 -38.5t57 -61.5l89 -98q11 -11 19 -26t15 -32q-11 -48 -40 -91.5t-80 -65.5l-53 -10q-19 -4 -38 -6.5t-38 -7.5l-4 -35q-2 -17 -3 -34.5t-4 -34.5q-1 -9 -2 -16.5t-3 -15.5l-4 -36l-4 -36l-2 -30 q-4 -42 -6.5 -80.5t-3.5 -80.5q-3 -40 -6.5 -81t-7.5 -79q0 -23 -2 -48t-5 -48l-1 -24h10q2 0 5 1t7 1q62 0 119 -26q13 -13 22 -24.5t14 -24.5l79 -84q4 -2 6.5 -5.5t5.5 -6.5q26 -31 32.5 -61.5t4.5 -61.5q0 -6 -1.5 -12.5t-1.5 -11.5v-3q-4 -18 -12 -37t-20.5 -35 t-30 -27t-40.5 -14q-90 -17 -180 -23.5t-182 -6.5q-42 0 -85 1t-85 4q-29 1 -58 6.5t-56.5 15.5t-52 25t-43.5 36l-85 94q-23 16 -43 37.5t-31 49.5q-9 16 -11.5 35.5t-2.5 39.5zM191 164q0 -14 2 -28.5t10 -27.5q12 -32 35 -54.5t52.5 -37t62.5 -21.5t65 -9 q133 -9 264 -3.5t263 29.5q30 4 46 28t21 50q5 30 2 63.5t-34 63.5q-27 13 -59 17t-63 2q-14 -2 -29 -2.5t-29 -3.5q-14 0 -29 -1.5t-29 0.5l-13 -2l-17 2q-7 35 -7.5 72t2.5 74.5t6.5 75t5.5 73.5q4 40 6.5 80t4.5 80q3 42 5.5 81.5t5.5 81.5q2 35 6.5 69t8.5 69 q7 33 9.5 65.5t7.5 65.5q40 9 78.5 16l78.5 15q35 15 56 47t29 67q-14 36 -45 58t-67 36q-36 11 -74 20t-78 9q-76 3 -150.5 -9.5t-148.5 -34.5l-67 -25t-67.5 -30t-59 -41.5t-41.5 -59.5q-4 -17 0 -32t13.5 -27t23 -20t28.5 -11q32 -13 67.5 -14t70.5 -1h7l17 3l19 3 q8 0 16 2l16 4q4 -36 2.5 -73t-5.5 -73q-8 -88 -20 -174.5t-23 -174.5q-13 -85 -22.5 -169l-18.5 -169q2 -5 1 -10.5t-3 -10.5q-32 -2 -65 -5t-65 -3q-13 -2 -27.5 -6t-26.5 -12t-21 -19.5t-10 -27.5z" />
<glyph unicode="J" horiz-adv-x="1270" d="M67 648q-2 17 0 35q2 28 20.5 52t44.5 40.5t55.5 26t54.5 9.5q58 0 102 -32.5t72 -78.5l77 -86h-1l3 -1q18 -20 32 -43t24 -48l19 -80q5 -26 10.5 -51l10.5 -48q2 9 5.5 19t7.5 20q2 4 2 8t2 8q1 1 2 3.5t3 4.5q14 66 20 117t10 102q7 90 10.5 180.5t-1.5 179.5 q-5 1 -10.5 3.5t-11.5 4.5q-30 11 -50 31l-94 104q-32 20 -47 53.5t-12 71.5l1 12q3 32 18.5 61.5t39.5 52t54.5 36t63.5 13.5h2q22 2 44 2h45q78 0 159.5 -5.5t167.5 -18.5q43 -10 75.5 -36.5t52.5 -62.5l84 -90q34 -40 49 -85h2q2 -5 3.5 -10t3.5 -9l2 -4l-2 2 q4 -8 6 -16.5t4 -24.5v-5q-5 -35 -23.5 -56t-43.5 -32.5t-51.5 -16t-46.5 -6.5h-16h-12q-5 0 -6 2l-4 -31q11 -109 16 -222t-6 -229l-3 -44q-6 -63 -14.5 -128t-25.5 -128.5t-43.5 -125t-68.5 -116.5q-23 -31 -52.5 -53t-63 -36.5t-69 -21.5t-69.5 -7q-80 0 -141.5 35 t-109.5 88l-68 75q-48 37 -84 85.5t-65 98.5q-58 97 -97.5 200.5t-62.5 212.5v5q-3 17 -5 34zM109 683q-1 -16 2 -33t5 -32q23 -107 60 -207t92 -191q25 -44 57 -86.5t71 -77t86.5 -55.5t104.5 -21q30 0 61 6t60 18t54.5 31t44.5 45q39 52 64.5 110t41.5 119.5t24.5 124.5 t14.5 124l4 44q9 112 4.5 223.5t-15.5 220.5l4 45q3 13 11 18.5t18.5 8t22 2t20.5 0.5q16 1 37 4t40 11t32.5 22.5t16.5 37.5q-2 16 -5.5 24t-8.5 23q-15 43 -45.5 78t-75.5 45q-80 12 -160 17.5t-161 5.5h-44q-21 0 -43 -2h-3q-24 0 -46.5 -10t-40.5 -27t-29.5 -38.5 t-13.5 -45.5l-2 -12q-2 -31 13.5 -58t44.5 -38q35 -11 69 -15t70 -4q5 -2 7 -6.5t6 -8.5q23 -122 20.5 -247t-13.5 -251q-4 -52 -10.5 -105t-20.5 -119q-6 -17 -11.5 -37.5t-14 -39.5t-21.5 -33.5t-35 -19.5q-26 1 -44.5 13.5t-32.5 31t-23.5 40.5t-16.5 43 q-18 61 -30.5 120t-27.5 121q-10 25 -25.5 48.5t-36 41t-45.5 28t-54 10.5q-18 0 -40 -6t-40.5 -17.5t-32 -27t-15.5 -34.5zM763 971q0 -3 3 -3z" />
<glyph unicode="K" horiz-adv-x="1265" d="M133 160v6q0 37 1 74t3 74v14t1 15q0 7 -0.5 13t0.5 13v26t2 28v50q0 13 1 27l2 29l9 99q2 14 3 28t4 28q1 14 3.5 27t4.5 26l2 28q2 17 2.5 33.5t2.5 34.5q0 18 1.5 39t3.5 41q2 26 3.5 53t3.5 53l4 39.5t5 40.5q2 7 3 14t3 15q0 5 4 15q7 37 16.5 76t27.5 74.5t47.5 65 t77.5 47.5q6 2 15 2h17q44 0 82.5 -21t55.5 -61l84 -92l61 56q53 40 114 69.5t124 29.5h19q10 0 18 -1q43 -3 75 -26t50 -58l89 -96q22 -24 33.5 -57t7.5 -69v-7q-5 -55 -35 -99t-68 -75l-46 -31l-68 -45.5t-67 -47.5l-20 -16q-23 -17 -44.5 -35.5t-29.5 -41.5q5 -40 25 -74 l42 -69q14 -24 26 -41l-2 2l43 -63.5l44 -63.5l43.5 -61l43.5 -61l30.5 -57t27 -59.5t17.5 -62.5t3 -65v-16q-5 -24 -16 -47.5t-28 -42.5t-39 -31.5t-48 -14.5q-7 -2 -16 -3t-20 -1q-42 0 -77 18.5t-59 44.5l-89 96q-29 22 -48 48q-11 14 -16 22.5t-9 16.5q-5 11 -10.5 17 t-10.5 17q-2 3 -4.5 9t-4.5 8l2 -2l-24 39l-22 35l-24 36l-2 -85.5t-3 -83.5q-4 -42 -16 -86.5t-40 -89.5q-35 -44 -76.5 -58.5t-84.5 -14.5h-20q-9 0 -17 1q-38 13 -58 38l-87 95q-25 13 -40.5 33.5t-24 44.5t-12 49t-5.5 49q0 2 -1 5t-1 5zM176.5 245q-0.5 -38 0.5 -76 l6 -48t10.5 -47.5t21.5 -40.5t39 -26q20 -3 41 -2t41.5 7t41 19.5t38.5 36.5q22 34 31.5 72.5t13.5 76.5q2 42 3.5 85t3.5 87t3 86t3 86l106 -157.5l106 -159.5l47 -78.5l47 -78.5q24 -33 64.5 -54t87.5 -11q20 1 36.5 10.5t29 24t20.5 32.5t11 36q5 32 0.5 62t-15 58.5 t-24.5 55l-29 52.5l-89.5 127.5l-89.5 127.5q-14 24 -29.5 47.5t-29 48.5t-23 51.5t-12.5 55.5q4 20 15 36.5t26 31t32 27l33 24.5q44 34 88 64l89 61q36 29 64 68t30 87q3 25 -4 49.5t-22 43.5t-36.5 30.5t-48.5 11.5q-31 5 -61.5 0t-59.5 -16.5t-56.5 -28.5t-52.5 -35 l-102.5 -94l-100.5 -94q0 51 -0.5 101.5t-5.5 101.5q-4 24 -17 42t-32.5 29t-43 14t-47.5 -1q-40 -16 -63.5 -47t-37.5 -69t-21.5 -78.5t-15.5 -75.5q-6 -45 -9.5 -89.5t-5.5 -89.5q-4 -47 -5.5 -91t-6.5 -90q-4 -26 -7.5 -53t-7.5 -53q-3 -24 -5 -49.5l-4 -49.5 q-2 -27 -1.5 -53t-1.5 -53q-2 -26 -2 -51t-2 -51q-2 -38 -2.5 -76z" />
<glyph unicode="L" horiz-adv-x="1242" d="M125 490q0 24 3 53q2 11 2 22v26l3 40q8 87 20.5 170.5t29.5 167.5q11 62 29 120.5t41 113.5l5 16q2 4 2.5 6.5t2.5 6.5l23 53t27.5 51t37 42.5t50.5 27.5q20 5 28 6t15 1q38 0 67.5 -20.5t44.5 -51.5l91 -99q19 -22 28.5 -52t7.5 -62v-2q-3 -37 -4.5 -74t-6.5 -72 q-2 -26 -4.5 -52t-5.5 -52q-2 -29 -5.5 -57.5t-7.5 -55.5q-5 -29 -8 -56t-4 -53q-5 -32 -9 -64t-7 -64q-2 -23 -3 -46.5t-4 -46.5v-20t-1 -19v-1q-2 -16 -3 -32t-1 -32q9 2 17 4.5t17 4.5q7 2 15 3.5t16 3.5l48 12v-2l14 3q51 12 102.5 22t101.5 14h7q42 0 77 -17.5 t61 -40.5l-1 -1q25 -24 46 -52l89 -97q17 -20 28.5 -46.5t8.5 -55.5v-14q-5 -27 -21 -45.5t-35 -31.5q-31 -22 -64 -38.5t-67.5 -29.5t-70 -23.5l-70.5 -20.5q-14 -5 -28.5 -8.5t-27.5 -7.5q-75 -19 -149.5 -30.5t-149.5 -11.5h-37q-53 4 -94.5 27t-74.5 58l-79 87 q-44 31 -74.5 77t-46.5 97q-29 75 -38 156t-4 165zM167 493q-4 -80 4.5 -157.5t36.5 -149.5q12 -36 32 -70.5t47 -61.5t61 -45t75 -21q82 -4 163.5 8.5t162.5 32.5l81 23.5t81 25t78 31.5t74 43q13 9 24 20.5t14 28.5q6 31 -9 58.5t-37 44.5q-23 20 -53 34.5t-63 13.5 q-54 -5 -108.5 -16t-108.5 -24q-58 -11 -114 -24.5t-113 -19.5q-20 32 -28.5 68t-10 73.5t0.5 76l4 75.5l8 111.5t12 110.5q5 56 13.5 110.5t12.5 110.5q8 63 13 124.5t7 124.5q3 24 -3 47.5t-20 40.5t-35.5 25.5t-48.5 2.5q-28 -10 -48 -30t-34 -45t-25 -52.5l-21 -51.5 q-45 -106 -67 -224q-19 -93 -32 -185.5t-21 -186.5q2 -25 -1.5 -50.5t-3.5 -50.5z" />
<glyph unicode="M" horiz-adv-x="1712" d="M131.5 450.5q2.5 104.5 11.5 209.5l2 24q8 91 23.5 176.5t38.5 172.5q15 53 33.5 104t44.5 100l7 11q13 25 28.5 50.5t36.5 48t50 39.5t69 25l-2 -1h16q58 0 100 -32.5t70 -77.5l77 -85q27 -29 46 -65.5t28 -72.5q2 -17 4.5 -32.5t5.5 -30.5l46 75l46 75l9.5 12l9.5 12 q5 8 11 16t14 20q21 32 44.5 64t51.5 59t62 47t76 28q76 -8 129 -42.5t88 -85.5l85 -93q34 -38 55.5 -87.5t33 -103.5t15 -109.5t0.5 -105.5q0 -10 -0.5 -23t-2.5 -24q-2 -16 -3 -31t-4 -31q0 -6 -1.5 -12.5t-1.5 -11.5q-5 -32 -9 -63l-8 -63q-5 -66 0.5 -133t14.5 -135 l-2 2l4 -21q10 -72 16.5 -141.5t3.5 -138.5l-1 -13q-11 -27 -30 -47.5t-42.5 -34.5t-49.5 -22t-51 -11h-13q-9 0 -18 -0.5t-20 -0.5q-17 0 -36 2.5t-39 7.5q-4 4 -8.5 7.5t-8.5 7.5l-97 108h-2q-17 12 -28 24.5t-18 25.5t-11 26l-8 26q0 2 -1 3t-1 2q-1 2 -1 7 q-14 60 -24.5 122.5t-15.5 125.5l-20.5 -55t-18.5 -55q-14 -32 -25.5 -61.5l-22.5 -57.5q-1 -4 -3 -7.5t-4 -8.5h2l-2 -3q0 -2 -1 -2v0q-8 -18 -19.5 -36t-26.5 -33t-34 -25.5t-43 -12.5q-4 0 -9.5 -1t-9.5 -1q-45 0 -82.5 18.5t-65.5 49.5l-21 23q2 -3 3.5 -5.5t3.5 -5.5 l-51 58q1 -19 1 -39q0 -19 2 -41v-16q0 -9 -2 -18q-2 -29 -12 -58t-27.5 -52.5t-43 -38.5t-58.5 -15q-7 0 -11.5 0.5t-12.5 3.5l2 -2q-42 4 -77.5 21t-61.5 45l-85 94q-20 14 -36 32.5t-27 41.5q-38 79 -41 174q-11 100 -8.5 204.5zM175.5 457.5q-1.5 -101.5 7.5 -201.5 q0 -85 37 -164q18 -38 55 -61t82 -28q33 -6 56 7t38 37t21.5 53t5.5 55q2 25 -0.5 49t-4.5 49q-2 24 -5.5 48t-3.5 49q-1 28 1 57l4 57q0 22 2 43t3 43q5 22 6 44t5 44v14l17.5 -101t14.5 -100q9 -51 20.5 -98t30.5 -94q11 -26 28.5 -48.5t40.5 -38.5t50.5 -24t58.5 -5 q18 1 32 10t25 22t19.5 28t15.5 29q11 33 24 67t27 66q47 131 105 254.5t134 240.5q-2 -41 -1.5 -80.5t-3.5 -81.5q-7 -151 -2.5 -300t40.5 -292q8 -26 17.5 -51.5t31.5 -42.5q24 -8 50 -7.5t52 2.5q21 2 42.5 8.5t40 17.5t33 26.5t23.5 36.5q2 69 -5 136.5t-16 136.5 q-9 73 -16 146t-1 149q3 32 7 64t10 64l8 63t4 63q3 46 1 97t-11 100.5t-26.5 95t-46.5 81.5t-70 59t-96 28q-43 -8 -77 -33.5t-62.5 -59t-53 -71t-49.5 -70.5l-104 -170l-101 -171q-5 19 -13.5 38t-12.5 39q-18 78 -32.5 156l-30.5 158q-8 33 -24.5 65.5t-40.5 58t-56 39 t-72 7.5q-27 -5 -47.5 -20t-37 -35.5t-30 -44l-25.5 -45.5q-26 -46 -43.5 -95t-31.5 -99q-24 -91 -40 -182t-23 -184q-9 -101 -10.5 -202.5zM865 218l4 -1v1h-4z" />
<glyph unicode="N" horiz-adv-x="1350" d="M125 317.5q-2 103.5 3 209.5l7 87q2 14 3.5 29t3.5 28q10 102 30.5 198.5t49.5 193.5l12.5 37t11.5 38q2 3 2.5 6.5t2.5 5.5l22.5 69t28 68.5t41 65t61.5 58.5q74 -11 122 -48t80 -86l80 -86q40 -44 66 -99t48 -112q7 -20 14 -37.5t14 -31.5l-2 46q0 43 0.5 86.5 t2.5 86.5q5 40 12.5 82t25.5 80q7 21 21 40t32.5 34t40 23.5t44.5 8.5h14q50 -5 86 -31.5t59 -64.5l89 -95q20 -23 33.5 -50.5t21.5 -57.5t10.5 -61.5t0.5 -61.5q-1 -49 -3.5 -98t-4.5 -98q-2 -24 -3.5 -50t-3.5 -51q-3 -24 -4 -48.5t-3 -48.5l-10 -121q-3 -31 -5.5 -60.5 t-4.5 -59.5q-2 -20 -2.5 -41.5t-3.5 -41.5q-2 -38 -7 -75.5l-10 -74.5q-6 -38 -21 -75t-37 -72q-24 -38 -58.5 -70.5t-81.5 -40.5h-10q-60 0 -103.5 24.5t-78.5 62.5l-76 82q-45 32 -77 79t-61 95l-16 23l-13 20l-12.5 26.5t-12.5 27.5q0 -13 -1 -25.5t-1 -23.5 q0 -45 -0.5 -91.5t-2.5 -91.5l-2 -19q-3 -32 -9.5 -68t-21.5 -67t-42.5 -51t-73.5 -20h-3q-34 2 -64 18t-54 36l-97 108q-7 4 -12.5 8t-10.5 9q-17 24 -29 48.5t-18 55.5q-27 98 -29 201.5zM167.5 328.5q1.5 -100.5 28.5 -195.5q5 -26 15.5 -48t24.5 -44q19 -17 42 -29 t50 -14q36 0 56.5 19.5t31 48.5t14.5 61.5l7 58.5q2 45 2.5 89.5t0.5 89.5q0 47 2.5 92.5t4.5 92.5q2 29 7.5 58t16.5 58l94.5 -203.5l94.5 -203.5l50.5 -80.5t59 -79t73 -60.5t94.5 -24q36 7 63.5 33.5t47.5 57.5t33 64.5t18 68.5q9 58 14.5 115.5t9.5 114.5q4 61 9.5 121 t9.5 120l7.5 99t5.5 97q5 49 6.5 98.5t4.5 98.5q2 40 -4.5 83t-25 79t-49.5 60.5t-77 29.5q-17 3 -33.5 -2.5t-30 -16t-23.5 -25.5t-15 -31q-18 -35 -25 -73t-11 -75q-4 -63 -3 -126.5t1 -126.5q3 -64 1.5 -128t-6.5 -128q-1 -14 -1.5 -30t-5.5 -30q-28 51 -51 105.5 t-42 109.5l-38.5 111.5l-38.5 110.5q-16 34 -31 72.5l-31 77t-35.5 75t-44.5 66t-57.5 50t-75.5 26.5q-36 -27 -58.5 -64t-38 -79t-27 -85.5t-26.5 -82.5q-27 -97 -47.5 -193t-31.5 -196q-5 -35 -8 -69t-5 -69q-5 -100 -3.5 -200.5z" />
<glyph unicode="O" horiz-adv-x="1295" d="M119 719v11q14 120 55 241.5t120 233.5v-4q35 49 80.5 90.5t98 72t110.5 47.5t118 17h26q107 0 195.5 -50t145.5 -134l77 -82q18 -20 34 -43t29 -49l-1 2q54 -97 72.5 -207.5t10.5 -222.5v-2q-11 -133 -47.5 -262.5t-107.5 -247.5h-2q-33 -59 -78 -115.5t-99.5 -100.5 t-118.5 -71t-136 -27h-15q-84 0 -151.5 35.5t-118.5 90.5l-71 78q-53 43 -92 100t-65 119q-47 109 -63.5 230.5t-5.5 249.5zM162 730q-11 -123 4.5 -243t62.5 -229q22 -53 55 -103.5t77 -89.5t98.5 -62t119.5 -22q67 -2 127 23t111 66.5t93.5 95t74.5 109.5q69 115 104 240 t46 253q4 54 2 107.5t-11.5 106t-26.5 102.5t-43 95q-24 48 -60 87t-81 66t-97 41.5t-108 12.5q-58 2 -114.5 -14t-107.5 -46t-94.5 -71.5t-76.5 -90.5q-69 -98 -106.5 -209t-48.5 -225zM433.5 571.5q1.5 57.5 6.5 114.5q4 41 11 89t20 96t33 93t49.5 80t70 57t95.5 24 q48 -3 74 -30.5t37.5 -67.5t12.5 -85.5t-2 -83.5q-6 -86 -23 -171.5t-48 -169.5q-14 -36 -33.5 -76t-46.5 -74t-62 -56t-80 -23q-30 3 -48.5 19t-30.5 40t-18.5 53.5t-10.5 58.5q-8 55 -6.5 112.5zM589 450q-2 -55 5 -110q25 11 45.5 32t37 47.5t29.5 55t23 54.5 q28 75 44.5 153t23.5 156l2 20q0 22 0.5 47t-0.5 49q-39 -9 -68.5 -31.5t-51 -55t-36 -71.5t-24 -80.5t-15 -82t-8.5 -75.5q-5 -53 -7 -108z" />
<glyph unicode="P" horiz-adv-x="1164" d="M138 160q3 17 4.5 32.5t4.5 32.5q1 25 4.5 47.5t7.5 44.5q15 86 24 173q2 20 3.5 40t1.5 40l1 22q5 43 5.5 85t-1.5 86v99q-2 57 -2 113t5 116q2 14 3.5 27.5t3.5 26.5v7q0 2 -1 4t-1 5l2 10q4 52 29 98t64 80t87.5 53.5t101.5 19.5q6 0 11.5 0.5t12.5 0.5h9q5 0 11 2 q33 2 70 3.5t70 1.5h7q94 0 181 -35.5t152 -105.5h-2l16 -21.5l16 -21.5l75 -80h-1l7 -9q59 -64 88 -149.5t23 -176.5q-2 -6 -1 -13.5t-1 -13.5q-5 -51 -23 -98.5t-46.5 -90t-65.5 -79.5t-79 -67h-1q-88 -63 -184.5 -99t-196.5 -56l-2 -15l-2 -67t-1 -66h2q1 -7 0.5 -15 t0.5 -14q2 -29 1.5 -57.5t-2.5 -57.5q1 -8 0.5 -13t-0.5 -9q-3 -37 -21 -68t-45 -53.5t-61 -35t-68 -12.5q-20 0 -42 5q-27 3 -48.5 13.5t-37.5 27.5l-97 106q-21 13 -35 33.5t-22.5 44t-12 49t-2.5 50.5zM181 159q-1 -26 4.5 -52.5t17.5 -49t31.5 -37.5t47.5 -18 q34 -11 69 -3.5t63.5 28t46 52t15.5 69.5q3 35 1.5 69.5t-1.5 69.5q-2 35 -1 70t3 70q2 11 2.5 23.5t2.5 23.5q106 18 206.5 54t189.5 100q41 29 76.5 66t62 79.5t42 89.5t15.5 96q7 86 -21.5 167t-85.5 140q-57 62 -136.5 92.5t-165.5 29.5q-47 0 -91 -3.5t-90 -5.5 q-46 1 -89 -17t-76.5 -48.5t-53.5 -72.5t-20 -89v-10q-11 -69 -11.5 -138.5t1.5 -138.5q-2 -73 0 -145.5t-6 -147.5q-2 -66 -9.5 -130t-19.5 -130q-8 -38 -11 -76.5t-9 -76.5zM486 884q-5 51 0 104q1 45 25 78.5t60 54.5t78 29.5t80 3.5q13 0 23 -6t18 -15.5t14 -20.5 l11 -21q9 -23 17 -46.5t5 -49.5q-2 -25 -14.5 -46t-30 -38t-38 -31.5t-39.5 -26.5q-45 -27 -94.5 -46t-100.5 -25q-9 51 -14 102zM642 872q10 5 19.5 11l21.5 13v-3q28 17 54 39.5t34 52.5q-23 -4 -45 -13t-40 -23t-29.5 -33.5t-14.5 -43.5zM724 1109l25 -29q-2 0 0 4z" />
<glyph unicode="Q" horiz-adv-x="1256" d="M104 635q11 126 46.5 248t95.5 237q31 57 73 112t94.5 98.5t115 70.5t133.5 27h16q45 0 84.5 -12.5t74 -34.5t63 -52t51.5 -64l70 -75q32 -38 56.5 -81.5t40.5 -91.5h2q38 -106 49.5 -221t2.5 -231q-10 -102 -34.5 -203t-82.5 -190q9 -14 18.5 -27t18.5 -27l31 -50h-2 q21 -31 37.5 -66t12.5 -77l-2 -14q-5 -27 -19 -51t-34.5 -43.5t-45.5 -33.5t-53 -19q-10 -1 -25.5 -2t-44.5 -1l-111 121q-37 -33 -83.5 -51.5t-97.5 -18.5h-5q-78 0 -140.5 33.5t-110.5 86.5l-68 73q-49 38 -85.5 89.5t-62.5 106.5v-1q-49 97 -68.5 208t-10.5 227zM147 635 q-9 -109 9.5 -214t65.5 -199q22 -47 52.5 -91t70 -78t88 -54.5t105.5 -20.5q59 -2 112.5 26.5t88.5 79.5q35 -36 64 -74.5t52 -82.5q22 0 43 3q21 4 40.5 14.5t35 25.5t26.5 34t15 40q7 38 -7 70t-33 60l-42 63t-40 63q31 43 52.5 91t36 98.5t23.5 101.5t14 102 q8 112 -3 223t-48 214q-16 50 -44 97t-67 83.5t-88 57.5t-107 18q-63 1 -119.5 -23.5t-104.5 -65t-86.5 -91.5t-66.5 -103q-60 -111 -94 -229t-44 -239zM393.5 452q1.5 44 2.5 80q8 89 24.5 177.5t43.5 174.5q14 35 28.5 76.5t35.5 78.5t51 64.5t75 33.5q27 -3 43.5 -19.5 t26 -40.5t13.5 -54t7 -60q5 -49 3 -99.5t-6 -100.5q-4 -51 -10 -103t-18 -104q-31 31 -69.5 51.5t-85.5 20.5q-20 3 -39.5 -3.5t-35.5 -19.5t-25.5 -31.5t-8.5 -39.5q-2 -33 9 -62.5t28 -55.5l38.5 -51.5t35.5 -52.5q-8 -20 -26 -38.5t-42 -15.5q-44 9 -65 39.5t-28 70.5 t-5.5 84zM592 669q26 -4 48 -12.5t44 -21.5q5 33 8.5 65t5.5 63l2 24q2 35 3.5 71t-0.5 72q-24 -27 -41 -65.5t-31 -76.5q-2 -11 -6.5 -21.5t-8.5 -18.5l-11.5 -39.5t-12.5 -39.5z" />
<glyph unicode="R" horiz-adv-x="1403" d="M140 188q0 22 1 44l2 44q3 25 6.5 50t5.5 51q2 13 3.5 25t3.5 25l2 29q2 8 2.5 15t2.5 15q13 78 24 153l22 153q2 44 0 89t-8 94q-5 48 -2 97t7 102q4 38 19.5 77t41 72t60.5 55t80 27q97 13 193.5 16.5t195.5 3.5h5q82 0 149.5 -39t113.5 -99q4 -5 6 -9t6 -8l80 -87 q5 -7 10.5 -14t10.5 -14q45 -60 68 -132.5t19 -150.5l-2 -10q-6 -69 -40.5 -129.5t-82.5 -111.5q-35 -36 -73 -68t-80 -56q14 -12 26 -24.5t25 -23.5q7 -10 17 -17q5 -4 14.5 -13t14.5 -13h-5l39 -44t38 -48l68 -73q29 -32 55.5 -70.5t43.5 -86.5v-19q0 -5 1 -7t1.5 -5.5 t0 -11.5l-1.5 -24q-1 -13 -2.5 -19.5l-3.5 -14.5v-2q-3 -23 -13 -45.5t-25.5 -42t-37 -32.5t-47.5 -16q-9 -2 -17.5 -3t-21.5 -1q-49 0 -90.5 21t-70.5 54l-82 87q-14 12 -27.5 25t-25.5 28l-52 72l-52 72q-28 26 -59 51l-62 51v-10q-3 -33 -3 -65q-3 -17 -3.5 -32.5 t-0.5 -32.5l-2 -19q-2 -41 -7.5 -82.5t-19.5 -86.5q-12 -29 -27.5 -54t-34.5 -44.5t-42 -30.5t-49 -11h-12q-6 0 -12 2q-35 4 -62 18.5t-48 34.5l-88 97q-24 15 -41 37.5t-28 49t-16 56t-4 59.5zM183 189q-2 -33 6 -65t25 -58.5t43 -43.5t62 -20q22 -5 41.5 2.5t36.5 23 t31 37.5t24 48q14 44 18.5 87l9.5 88q1 34 2.5 66t3.5 66q0 20 3.5 40.5t8.5 41.5l142 -117t133 -126l63.5 -87l62.5 -88q32 -40 80 -62.5t103 -11.5q19 3 34.5 13t26.5 25t17.5 33t8.5 35q5 22 5 44q0 23 -2 45q-11 33 -29 61t-39.5 53.5t-46 50l-47.5 48.5 q-55 54 -113.5 103.5t-121.5 96.5q64 24 121 64.5t106 90.5q45 48 77.5 105.5t34.5 121.5q5 72 -15.5 138t-62.5 122q-21 27 -47 49.5t-56 39t-64 25.5t-70 8q-97 0 -192 -3.5t-192 -16.5q-35 -3 -63 -21t-48.5 -44.5t-33 -59t-16.5 -63.5q-4 -48 -5.5 -94.5t0.5 -94.5 q7 -49 8.5 -96.5t0.5 -98.5q-12 -77 -22.5 -153.5t-23.5 -153.5l-18.5 -146.5t-10.5 -147.5zM524.5 932q2.5 53 7.5 107q5 14 5.5 28.5t5.5 28.5q-2 2 -2 5q0 4 -2 7l4 3q62 2 123 3.5t122 1.5q17 1 29.5 -7t20 -20.5t10 -27.5t-0.5 -30q-5 -25 -18 -45t-31.5 -36t-39.5 -29 l-41 -25q-45 -24 -92 -43t-98 -27q-5 53 -2.5 106zM690.5 941q0.5 -2 0.5 -4v-9q4 4 7 6l3 0.5t6 2.5v0q1 0 1 2v1q3 2 5.5 3.5t6.5 3.5h-27q-3 -4 -2.5 -6z" />
<glyph unicode="S" horiz-adv-x="1297" d="M125 246v8q1 18 9.5 33.5t22 27t30 18.5t33.5 8q20 -2 31 -4.5t22 -5.5q5 -2 9.5 -2.5t9.5 -2.5q4 -2 9.5 -3.5l12.5 -3.5t13 -2.5t11 -2.5q2 -2 3 -2l16 -5q15 -5 31 -9t32 -6q4 0 9 -1t10 -1h24q32 0 66.5 3t68 11t65 20.5t56.5 32.5h-84q-39 0 -78 4t-77 14t-73 26.5 t-66 42.5l-6 5q-10 8 -16 17l-83 90l-14 10.5t-12 10.5h3q-27 24 -43 54.5t-24 63.5t-9.5 68t1.5 70l2 20q11 107 63 207.5t132 180.5q39 42 85.5 76t97.5 59t105 38.5t109 13.5h16q56 0 112.5 -11.5t107.5 -34.5t95 -57.5t75 -80.5l82 -90q26 -29 44.5 -61.5t29.5 -70.5 q6 -13 7 -27.5t3 -28.5q-2 -2 -1 -6.5t1 -7.5q-2 -23 -13.5 -39t-28 -26.5t-35.5 -15t-37 -4.5q-5 0 -10 1t-9 1q-74 10 -144 41q-29 11 -59.5 19.5t-61.5 12.5h-8q-44 0 -89 -13.5t-85 -39.5q-7 -4 -12 -6.5t-9 -6.5l35 4t39 2h17q85 0 162.5 -34t125.5 -102q5 -7 8 -12.5 t7 -11.5l75 -80q5 -7 11.5 -13.5t11.5 -14.5q24 -32 38.5 -68t21.5 -74.5t7.5 -78.5t-2.5 -79v-2q-7 -59 -32 -112.5t-61.5 -100t-82 -86.5t-94.5 -71q-91 -58 -191 -91.5t-202 -33.5q-9 0 -18.5 1t-18.5 1q-72 7 -140.5 32t-134.5 60l-106 116q-5 2 -8 4t-7 5 q-16 49 -27.5 100.5t-11.5 109.5zM167 249q2 -48 11.5 -92.5t22.5 -89.5q58 -31 120 -53.5t128 -28.5q107 -7 210 24.5t196 91.5q45 29 87.5 65.5t76.5 79.5t57 92.5t30 103.5q3 36 2.5 73t-6.5 73t-19 69t-35 62q-44 61 -115.5 91.5t-149.5 29.5q-32 1 -63 -5t-65 -11 q-31 -5 -62.5 -11t-63.5 -6q-15 -3 -27.5 3t-20.5 16.5t-11 24.5t-1 28q1 27 11.5 51.5t27 46.5t37.5 40.5t44 32.5q46 29 99 44t106 14q35 -4 69 -13t65 -23q62 -28 134 -38q13 -2 29 0t29.5 8.5t22 18.5t6.5 30q0 11 -2 23t-7 23q-18 64 -59 111t-95.5 78t-118.5 46 t-128 14q-103 2 -198.5 -44t-168.5 -122q-78 -75 -128.5 -169.5t-60.5 -197.5q-5 -34 -5 -69t7.5 -68.5t23 -63t42.5 -51.5q27 -23 59.5 -38t67.5 -24t71.5 -12.5t72.5 -4.5q38 0 77 1.5t77 3.5q38 3 77.5 5l77.5 4l9 -5l1 -16q-1 -13 -3.5 -24.5t-6.5 -24.5 q-6 -49 -29 -84.5t-57 -60.5t-76 -40t-86.5 -23t-88.5 -9.5t-81 0.5q-26 3 -50.5 10.5l-48.5 15.5q-24 5 -47.5 13t-49.5 11q-20 -2 -35.5 -16t-14.5 -34z" />
<glyph unicode="T" horiz-adv-x="1323" d="M152 1239q6 31 23.5 54t41 38t50.5 23.5t52 10.5q107 12 214.5 22.5t215.5 17.5q42 4 83.5 5t83.5 1t85 -0.5t84 -2.5q36 -11 67.5 -27t55.5 -45l21.5 -26t19.5 -28l72 -77l20.5 -25t19 -28t14 -31.5t4.5 -36.5l-2 -2q0 -4 1 -7.5t1 -6.5q-3 -30 -18 -53.5t-37 -40 t-47.5 -26.5t-49.5 -14q-45 -8 -85.5 -11t-78.5 -3h-23q-11 0 -23 2q-26 -204 -57 -405.5t-66 -403.5q-9 -42 -22.5 -84.5t-33.5 -86.5q-10 -20 -23 -41.5t-30.5 -39.5t-40 -30.5t-51.5 -14.5h-10q-42 0 -79.5 16t-64.5 45l-88 97q-38 23 -59 62.5t-17 89.5l2 5q4 51 11 99 t18 94q5 34 11.5 68t14.5 67l2 15.5t3 15.5q9 49 19 97.5t15 95.5q5 57 8.5 116.5t1.5 122.5l-58 -4t-58 -3q-17 2 -27.5 8t-18.5 14l-99 107q-19 9 -28.5 23.5t-14.5 29.5l2 -1q-2 1 -2.5 3t-0.5 4l-9 20q-10 27 -14.5 56t-0.5 60zM193 1234q-3 -46 14 -91q4 -8 8 -18.5 t9 -19.5t12 -16t18 -9q67 4 132 7.5t131 4.5q11 -102 8.5 -204t-11.5 -205q-11 -93 -30.5 -183t-36.5 -181q-11 -46 -17 -93t-10 -95q-5 -35 7.5 -63t35.5 -48t53.5 -30.5t62.5 -8.5q20 1 36.5 11.5t30 25.5t24 32.5t18.5 34.5q18 39 31 79t22 82l68 420t60 421 q55 -2 111.5 -1.5t125.5 13.5q21 3 42.5 12t39 23t28 33t8.5 43q1 29 -15.5 53t-34.5 44q-18 23 -43.5 36.5t-53.5 21.5q-82 3 -164 4t-164 -7q-109 -7 -215 -17.5l-215 -21.5q-19 -2 -39.5 -8t-38 -16.5t-31 -26.5t-17.5 -38z" />
<glyph unicode="U" horiz-adv-x="1237" d="M143 502l5 66q5 45 9.5 90.5t9.5 90.5l17 123q3 29 9 62l4 30.5l4 30.5q3 26 4 53.5t-4 55.5v38q-2 14 -1.5 30.5t1.5 35.5l2 16q7 41 33 74.5t58 61.5q29 20 65.5 35t82.5 23q40 -15 66 -39t43 -55l86 -92q27 -30 40.5 -68t18.5 -79t4 -82.5t-4 -79.5q-4 -48 -9.5 -95.5 t-12.5 -95.5q-4 -23 -6.5 -47.5t-5.5 -47.5q-4 -18 -6 -36l-4 -36q-7 -44 -11.5 -87l-9.5 -87q0 5 2 7q13 35 20 74t11 81l2 15q0 4 1.5 8.5t1.5 8.5q4 35 8.5 68.5t6.5 66.5l4 34q0 9 1.5 17.5t1.5 16.5l4 40q1 10 3 19t2 20q2 29 5.5 59.5t7.5 59.5q7 54 16 103.5t20 94.5 q8 33 22.5 70.5t37 69.5t55.5 53.5t78 21.5q2 0 4 -0.5t5 -0.5h10q37 -7 66.5 -27.5t49.5 -42.5q11 -12 21.5 -25t19.5 -28l82 -89q19 -22 33.5 -48t12.5 -61v-7q-6 -31 -19 -60q-9 -10 -12 -17t-8 -15h-2q-3 -12 -9 -19q-4 -17 -5 -32t-3 -29q-2 -8 -2 -16v-18 q-3 -44 -3 -87v-30q0 -15 -2 -32q-2 -13 -2 -29v-31q0 -25 -3 -56l-4 -24q-8 -99 -26.5 -198.5t-56.5 -199.5q-28 -71 -67.5 -136.5t-90 -116t-111.5 -80.5t-132 -30h-14q-81 0 -152 34t-123 91l-71 78q-57 40 -91 101v-2q-57 88 -78.5 187t-15.5 199zM186 503 q-7 -94 11.5 -184t68.5 -165q23 -39 55.5 -72t71.5 -56t84 -35.5t93 -10.5q64 -2 120 25.5t102.5 74t82.5 108t62 128.5q37 95 55 192t27 195q4 36 4 70t3 70q2 36 2 72t5 71q-2 29 1.5 56t9.5 55q9 14 15.5 29.5t17.5 28.5q5 11 9 23t6 23q0 30 -14 53t-34 43 q-17 20 -40.5 37t-52.5 21q-37 4 -63.5 -12.5t-45.5 -44t-31.5 -60.5t-20.5 -62q-11 -48 -19.5 -95t-16.5 -96q-6 -49 -10 -98.5t-10 -98.5l-9.5 -101t-12.5 -102l-14 -99.5t-24 -98.5q-7 -22 -18.5 -45t-28 -41.5t-37.5 -30.5t-47 -12q-34 9 -49 34t-19.5 57.5t-2.5 67.5 t2 64q7 72 15.5 143.5l17.5 143.5q9 71 19 141.5t17 141.5q3 43 3.5 92.5t-9 95t-34 82t-71.5 53.5q-32 -5 -61.5 -18.5t-56.5 -31.5q-26 -20 -44.5 -46.5t-23.5 -57.5q-4 -28 -2 -56t0 -56q4 -29 3 -57.5t-3 -57.5l-16.5 -123l-17.5 -122q-8 -62 -14 -122.5t-10 -122.5z " />
<glyph unicode="V" horiz-adv-x="1242" d="M164 1193v14q0 9 2 20q3 21 10.5 37t18 29.5t23 24l24.5 20.5q30 22 59 32.5t56 15.5h15q48 0 75.5 -22.5t44.5 -54.5l85 -94q24 -27 37 -65t21 -70q11 -57 17 -106.5t8 -96.5l35 103q24 66 54 128l62 123q6 8 11.5 14t5.5 13q2 2 2.5 4t2.5 4q12 22 26 43.5t32 41 t41.5 35t55.5 24.5q47 -12 80.5 -41.5t56.5 -62.5l83 -93q18 -18 28 -35l34 -67t19 -75l-2 -14q-3 -32 -14.5 -63.5t-28.5 -60.5l-32 -53t-29 -53q-23 -45 -43 -96l-39 -102q-3 -8 -5.5 -15.5t-4.5 -15.5h-2q-9 -24 -17 -49l-16 -48l-25.5 -74.5t-26.5 -72.5 q-27 -73 -60 -143.5l-68 -139.5q-21 -39 -49.5 -78t-64 -70.5t-77.5 -51t-91 -19.5h-10q-30 2 -55.5 14t-45.5 32l-92 101q-31 21 -50 55q-11 27 -19.5 57.5t-12.5 65.5q-13 57 -21.5 116t-12.5 119l-7 84l-7 51q-2 27 -5 55.5t-5 55.5q-13 134 -35 266l-45 263zM208 1203 l48.5 -284t37.5 -286q4 -62 11.5 -123t13.5 -123q4 -62 13.5 -120.5t20.5 -118.5q3 -28 11 -55.5t18 -53.5q12 -24 36 -39t53 -17q44 -2 82 15t69.5 45.5t57 64.5t45.5 71l69 137.5t58 140.5q24 62 44.5 123l42.5 123l43.5 117.5t50.5 114.5l31 54l32 54q15 27 25.5 56 t11.5 60q-1 36 -15 66.5t-31 59.5q-18 29 -42 51.5t-59 30.5q-27 -8 -47 -26t-36 -41t-29.5 -48t-28.5 -47q-31 -58 -59 -116.5t-50 -119.5q-27 -77 -51 -153.5l-47 -155.5l-18 -60l-18 -61q-5 -12 -9 -25.5t-8.5 -26.5t-11.5 -25t-17 -22q-12 10 -18 24t-9 30t-4.5 32.5 t-3.5 31.5q-5 80 -7 160l-4 161q-1 75 -6.5 150.5t-20.5 161.5q-6 24 -14 51t-21.5 50t-33.5 37.5t-50 13.5q-25 -5 -50.5 -13.5t-47.5 -23.5q-19 -16 -36.5 -34.5t-21.5 -44.5q-1 -11 0 -24z" />
<glyph unicode="W" horiz-adv-x="1517" d="M135.5 396.5q-0.5 58.5 2 117.5t5.5 117q2 5 1 8.5t-1 7.5l2 17q9 104 30 207t57 206l10.5 23.5t10.5 25.5q16 43 35 88t45 84.5t62.5 70.5t89.5 46h22q42 0 68.5 -19.5t42.5 -48.5l92 -101q5 -9 10.5 -17t9.5 -19q12 4 22.5 6.5t24.5 2.5h8q47 0 88.5 -24.5t61.5 -68.5 l70 -75q3 32 8 65t13 65q0 8 3 19q0 6 0.5 10.5t3.5 9.5l6 28q8 28 17.5 55.5t25 49.5t39 37.5t58.5 19.5q56 -8 97 -37.5t67 -73.5l80 -89q11 -11 20.5 -25t15.5 -28q22 -42 30.5 -89t10.5 -93v-6q-2 -13 -2 -26q0 -12 -1 -25q-2 -18 -5 -37.5t-5 -37.5l-10 -74.5t-8 -75.5 l-3 -34q-2 -12 -2 -23q0 -10 -1 -22q0 -10 -1 -20t-1 -21q0 -23 -2 -46.5t-3 -46.5q-12 -93 -36 -186t-68 -181h1q-20 -43 -47 -88.5t-62.5 -84t-80.5 -66t-101 -33.5h-14q-58 0 -102 24t-79 62l-68 75q-21 -34 -46 -66t-55.5 -56.5t-67 -39t-79.5 -14.5h-8q-57 4 -104 29 t-82 65l-81 87q-38 29 -67 69.5t-47 87.5q-14 57 -20 115.5t-6.5 117zM178.5 417.5q0.5 -61.5 6 -122t20.5 -119.5q13 -36 35 -68t51 -57t64.5 -41t76.5 -19q49 -2 89 20.5t72 58t56.5 78.5t43.5 82q15 -40 37 -81t53 -73.5t71 -52t90 -16.5q48 5 87.5 29t71 59.5t56 77 t42.5 81.5q42 85 65.5 174.5t33.5 180.5q3 23 4.5 44.5t2.5 44.5q0 22 2 44.5t2 44.5q4 48 9.5 94.5t12.5 93.5q5 30 7.5 60.5t4.5 61.5q-2 44 -9 87.5t-27 81.5q-20 40 -54 67.5t-81 33.5q-24 -2 -40 -16.5t-26.5 -36t-18 -48.5t-16.5 -53l-15.5 -92.5t-11.5 -93.5 q-6 -73 -14 -145.5t-17 -145.5q-15 -148 -56 -292q-15 63 -21 127.5t-6 131.5q2 51 1 103t-1 104q-3 49 -8 97.5t-25 93.5q-15 36 -49 56.5t-73 18.5q-40 1 -73 -23.5t-49 -60.5q-15 -37 -22.5 -75t-18.5 -77q-17 -62 -32.5 -125t-33.5 -125.5t-40.5 -123.5t-53.5 -119 q-7 32 -8 66t3 67q8 93 31.5 184t50.5 181q5 17 11.5 33.5t10.5 33.5q14 44 23.5 87.5t15.5 88.5q5 29 4 63t-12 62.5t-34 45.5t-62 13q-49 -15 -82.5 -49t-57.5 -77.5t-41.5 -91l-33.5 -89.5q-35 -99 -55.5 -199t-29.5 -202q-3 -62 -6.5 -123.5t-3 -123z" />
<glyph unicode="X" horiz-adv-x="1289" d="M125 166l1 15q7 67 34 125t58 112l4 4l12 18l106 159q9 17 14.5 26t12.5 17q8 10 13.5 20t13.5 21q9 11 13 17.5t6 11.5q2 1 2.5 2t2.5 3q-14 37 -27 67t-24 59l-63 154l-25.5 61t-22 64t-15.5 68t-5 73q2 31 17.5 56.5t38 44t50 30t54.5 14.5q11 2 21.5 2.5t24.5 0.5 q11 0 23.5 -2t27.5 -6q21 -11 32 -25t23 -31v3q2 -4 5 -7.5t5 -6.5l84 -92l11.5 -16t10.5 -16l5 -5q8 -17 19 -33q19 34 40 68t46.5 65.5t57 59t71.5 50.5q51 -5 95 -34.5t70 -73.5l86 -92q26 -27 40 -61.5t14 -71.5q-8 -65 -31.5 -125.5t-55.5 -118t-70.5 -112 l-77.5 -107.5l-43 -56q23 -48 48 -94t48 -94l58 -116q8 -13 14.5 -26.5l12.5 -26.5q26 -50 49 -100.5t38 -107.5v-19q-8 -31 -27.5 -53.5t-44.5 -40.5q-23 -18 -48 -31.5t-54 -17.5h-12q-42 0 -74.5 20t-56.5 46l-79 86q-24 17 -43.5 39.5t-34.5 45.5q-3 3 -4.5 5.5 t-4.5 4.5q-2 4 -4.5 8t-3.5 6l1 -2q-9 13 -16.5 25.5l-15.5 25.5l-34.5 -65l-33.5 -64q-5 -7 -9.5 -14l-9.5 -15q-16 -26 -34 -52t-40.5 -48t-50.5 -36t-65 -16q-32 6 -61 17t-50 34l-93 104q-30 17 -47 51q-15 29 -18.5 56t-3.5 54q0 2 -0.5 4.5t-0.5 7.5zM169 176 q2 -29 3.5 -58.5t15.5 -54.5q13 -28 40.5 -40.5t56.5 -19.5q33 1 58 17.5t45.5 40t37.5 51.5l33 52q36 63 66 127.5l62 128.5q32 -73 69.5 -146t87.5 -151l31 -40.5t35 -39.5t41.5 -29.5t51.5 -10.5q23 5 44.5 16t40.5 25q20 14 35 31.5t21 40.5q-17 69 -48 130l-62 124 l-83 161.5l-80 163.5l89 121t85.5 124.5t68.5 131t39 140.5q1 30 -10 58t-30.5 49.5t-46 35.5t-56.5 17q-46 -27 -81 -67.5t-64.5 -86.5t-56 -95t-54.5 -92l-62.5 143.5t-72.5 137.5q-9 16 -19 30t-26 22q-17 6 -37 5t-39 -4q-20 -2 -40.5 -9.5t-37.5 -20.5t-28.5 -30.5 t-13.5 -39.5q-1 -33 5 -65.5t15.5 -63.5t22 -61l24.5 -60q29 -75 61 -148t58 -150q-9 -14 -16 -28.5t-18 -28.5l-82.5 -123l-82.5 -122l-32.5 -57t-30 -59t-22.5 -60.5t-11 -62.5z" />
<glyph unicode="Y" horiz-adv-x="1169" d="M158.5 950q-4.5 71 1.5 146q2 19 5 38l6 38q3 35 17 69.5t37.5 63t55.5 48t72 24.5q7 3 13.5 3.5t14.5 0.5q38 0 64 -21.5t41 -52.5l89 -95q20 -23 31 -53.5t15 -59.5v-24v-71q4 2 5 6q3 8 6.5 15.5l7.5 15.5t8.5 16t8.5 16q17 32 30.5 64t29.5 64q4 12 12 28q1 4 4.5 9 t5.5 10t6 9t6 9q15 29 32.5 57t45.5 53q22 17 46 26t50 9q5 0 13 -0.5t14 -2.5q48 -8 85.5 -35t59.5 -67l86 -93q24 -26 38.5 -60t14.5 -73v-8q-3 -40 -15 -77t-28.5 -71.5t-36.5 -67.5l-40 -64q-13 -18 -24 -35l-22 -35l-69 -105t-64 -105l-84.5 -185t-74.5 -180 q-8 -16 -12.5 -30t-12.5 -30h-2l-23 -62.5t-25 -62.5q-2 -2 -3 -5.5t-4 -5.5v1q-11 -21 -24 -43.5t-31 -42t-41 -32.5t-54 -15h-5q-42 0 -76 16.5t-59 43.5l-83 92q-47 29 -70.5 78.5t-18.5 107.5l2 15q4 47 16 92t29.5 88.5t38.5 85.5l44 84l-45 50q-28 22 -50.5 50t-39 59 t-28 64.5t-18.5 66.5q-20 67 -24.5 138zM200.5 996.5q1.5 -86.5 23.5 -170.5q11 -42 28 -84t42 -78t59.5 -62.5t79.5 -38.5l-51.5 -94t-47 -96t-37 -99t-19.5 -102q-6 -36 3 -70.5t30 -61t52 -42t69 -13.5q24 1 42 13.5t32.5 30.5t26 39l22.5 40q19 45 36 89.5l35 89.5 q35 94 76 184.5l85 182.5q41 73 87.5 143.5l93.5 141.5l38.5 62.5t35 64.5t26.5 68t14 71q-1 31 -12.5 58.5t-30.5 49t-45 35.5t-55 19q-22 5 -44 -2t-40 -20q-31 -26 -49 -62t-38 -70l-35.5 -78t-37.5 -77q-16 -31 -30.5 -62l-29.5 -62q-10 -13 -18 -27.5t-17 -28t-21 -24 t-29 -14.5q-24 1 -38.5 15t-22.5 33.5t-11 42.5t-5 42q-3 62 -4 123.5t-1 123.5q-3 21 -10.5 43.5t-20.5 40t-31.5 27t-43.5 5.5q-33 -2 -59 -17t-45.5 -38.5t-30.5 -52t-14 -57.5q-14 -88 -12.5 -174.5z" />
<glyph unicode="Z" horiz-adv-x="1280" d="M157 145q7 56 25 108.5t43 102t54.5 97.5l60.5 95l13 21.5l14 22.5l15.5 23.5l15.5 24.5l104 157l109 157q-40 0 -81 2t-79 13q-27 5 -56 16.5t-49 31.5l-93 101q-25 15 -39.5 38.5t-12.5 58.5l2 16q10 33 30 56.5t45 41t52.5 30t53.5 22.5q51 19 105 30t107 12h17t18 2 q11 0 21 1l20 2h87q45 0 93.5 -8t93 -25.5t82 -45t61.5 -67.5l85 -94q27 -29 42 -67t13 -87l-2 -12q-6 -78 -38 -149.5t-69 -136.5q-54 -91 -113 -173.5l-120 -164.5h-1l-29 -43q6 2 12.5 3t14.5 4l43 5h17q22 0 45 -5t43.5 -15.5t36.5 -25.5t25 -36l92 -101 q14 -15 22 -35.5t5 -46.5q0 -4 -0.5 -6.5t-0.5 -6.5l-2 -4q-8 -46 -35 -84t-69 -61q-102 -42 -205.5 -63.5t-207.5 -38.5q-42 -5 -82.5 -8.5t-83.5 -3.5h-32t-31 2q-38 4 -67.5 23t-53.5 43q-2 3 -5 4.5t-5 4.5l-84 92q-15 10 -27 24q-25 23 -44 55.5t-21 70.5zM201 148 q2 -29 17.5 -54t35.5 -45q21 -20 46 -36t57 -20q53 -4 107.5 -1t108.5 11q102 17 203.5 38t198.5 61q32 18 54 48.5t27 66.5q7 31 -4.5 52.5t-33.5 35t-49.5 18t-52.5 0.5l-32 -6q-85 -24 -171 -40t-174 -23q44 78 97 148.5l105 143.5l117.5 164.5t110.5 170.5 q39 66 70.5 136t35.5 145q1 62 -28.5 105t-77 69.5t-104.5 38t-109 11.5q-20 2 -41 1t-41 -1q-20 -2 -40 -3l-40 -2q-101 -3 -198 -40q-22 -8 -45.5 -18.5t-44.5 -24.5t-37.5 -32.5t-22.5 -43.5q-4 -21 4.5 -36t23 -25.5t32.5 -16.5t35 -9q43 -13 88 -14t90 -1q20 0 40 0.5 t40 0.5q22 3 43.5 3.5t41.5 0.5q26 1 49.5 -1.5t49.5 -3.5l-177.5 -247.5t-172.5 -251.5l-71 -112.5t-70 -114.5t-57.5 -119t-33.5 -127z" />
<glyph unicode="[" horiz-adv-x="1009" d="M135 215q2 45 3 90.5t4 90.5l2 58.5t3 60.5q1 14 1 29v29q3 47 5.5 93.5t6.5 92.5l4 36q0 9 1.5 18t3.5 18q2 17 3.5 33.5t3.5 33.5q14 111 32.5 222t62.5 215q3 2 4 4t3 4q13 20 28 38t44 29q50 10 103 15t110 5q93 0 176 -15l-2 -2q38 -8 67.5 -30.5t47.5 -53.5l87 -95 h-2l3 -2q23 -26 36.5 -58.5t13.5 -67.5l-2 -5q-2 -31 -19 -56t-39 -45l-17 -8q-18 -11 -36.5 -20t-45.5 -9h-11q-5 0 -11 1q-33 4 -65.5 5.5t-65.5 3.5l-2 -12q-7 -72 -12.5 -141.5t-13.5 -140.5q-8 -73 -14.5 -145l-12.5 -145q-2 -26 -5 -52t-5 -50h1h13q7 0 16 1h9 q42 0 79.5 -19.5t55.5 -56.5l95 -103q14 -17 22 -39.5t6 -49.5v-5q-3 -32 -17.5 -62.5t-37 -55t-51.5 -41.5t-62 -23q-50 -11 -103 -17.5t-110 -6.5q-49 2 -98 13t-93 38q-4 2 -7 6t-5 8l-90 99q-3 1 -6.5 3t-5.5 4q-53 46 -73 108.5t-16 126.5zM177 217q-4 -56 12 -109 t57 -89q37 -23 82 -33t90 -12q51 0 102.5 7t102.5 17q26 4 49 18t40.5 33.5t28.5 43.5t13 50q4 24 -4.5 43.5t-24.5 33t-37 20t-43 6.5q-18 -3 -34 -2t-34 -2q-34 -1 -67.5 -0.5t-65.5 2.5q-2 18 -0.5 35t3.5 35q3 26 4.5 49.5t5.5 49.5q5 26 7.5 52t4.5 52q5 73 11.5 145 t14.5 145q8 72 14.5 142.5t12.5 142.5q3 12 6.5 23.5t5.5 22.5q44 0 86.5 -1.5t86.5 -6.5q23 -5 44 6t41 23q15 15 29 33t14 40q0 24 -8 47.5t-22 43t-35 32.5t-46 17q-91 17 -182.5 15t-183.5 -20q-17 -6 -27 -20t-19 -28q-25 -58 -41 -119t-26.5 -123t-18 -124.5 l-14.5 -123.5q-11 -78 -14.5 -156t-6.5 -156l-8 -150.5t-6 -149.5z" />
<glyph unicode="\" horiz-adv-x="976" d="M121 1333l2 12q3 23 14 42.5t27.5 34.5t37 24.5t42.5 12.5q7 3 15 3.5t14 0.5q44 0 80 -25.5t57 -60.5q0 -1 -1 -2t1 -1l88 -97q8 -8 13.5 -15.5t10.5 -15.5l36.5 -71.5t33.5 -71.5l-1 1q45 -99 87 -201.5t78 -213.5q14 -48 29 -94.5l31 -92.5q6 -23 14.5 -47l16.5 -47 l-2 2l9.5 -27.5l9.5 -27.5l61 -181q15 -55 28 -108.5t8 -113.5l-2 -19q-5 -22 -14.5 -43t-24.5 -38.5t-36 -30t-48 -16.5q-40 2 -69.5 18t-49.5 39l-86 94q-41 26 -63.5 66.5t-41.5 83.5l-19 37q-93 223 -175 452.5t-151 467.5q-2 5 -3.5 9.5t-3.5 9.5q-2 9 -4 19t-6 19 l-4.5 13t-4.5 14q-4 13 -8.5 25t-8.5 26q-1 2 -1 5v5q-2 2 -2 9q-7 28 -11.5 56t-2.5 60zM166 1345q-5 -35 1 -67.5t14 -64.5q9 -35 20.5 -67t20.5 -67q69 -235 151 -463t175 -452q14 -28 28 -61.5t33.5 -62t45.5 -48.5t64 -21q35 7 56.5 34.5t28.5 61.5q8 59 -3.5 113 t-27.5 108q-19 60 -39.5 117.5l-40.5 116.5l-45.5 140.5t-43.5 141.5q-36 106 -77.5 207.5t-87.5 201.5q-14 36 -31.5 71.5l-35.5 70.5q-17 31 -49.5 50.5t-69.5 12.5q-15 -1 -30 -7t-27 -15.5t-20 -22.5t-10 -28z" />
<glyph unicode="]" horiz-adv-x="1014" d="M121 133q5 31 21 60t42 46q25 23 54.5 32t61.5 9l66 -6t69 -3q2 2 1 4t1 5l12.5 138t14.5 140q8 73 13.5 145t12.5 145l8 82q0 5 1 10.5t3 10.5v8q-9 0 -17 -1t-16 -1h-3q-29 0 -58.5 13t-49.5 35l-90 99q-29 18 -47.5 47.5t-15.5 67.5l2 8q2 33 17 64.5t38 56.5 t53.5 41.5t63.5 20.5q50 11 102 17.5t106 7.5q51 -2 96 -8.5t71 -23.5q18 -16 32.5 -31t25.5 -32l94 -103q22 -23 36 -49t22 -53t11 -54.5t3 -54.5l-12 -302q-2 -60 -4.5 -121.5t-7.5 -121.5q-2 -18 -4.5 -35t-4.5 -35l-2 -18t-3 -18l-14 -118t-18 -118t-27 -118t-40 -118 q-1 -3 -3.5 -5.5t-4.5 -5.5q-13 -19 -27.5 -35t-40.5 -23q-100 -20 -207 -20q-48 0 -90.5 3.5t-86.5 11.5q-27 4 -50.5 17t-38.5 33l-91 99q-37 24 -58.5 65.5t-21.5 89.5zM164 135q0 -25 8 -48.5t22 -42.5t34.5 -32t46.5 -17q90 -16 182 -15.5t185 20.5q18 4 28.5 19 l20.5 29q24 60 40 121t27 122.5t18.5 123.5l15.5 124q9 78 12.5 156t7.5 155l11 302q1 55 -13.5 108t-56.5 88q-36 25 -81 33.5t-90 11.5q-51 -2 -102 -7.5t-101 -18.5q-25 -3 -48 -16t-40.5 -32t-28.5 -43t-13 -49q-5 -23 3.5 -42.5t24.5 -33.5t37 -21.5t43 -6.5q17 2 34 2 t34 1q35 0 68 -0.5t67 -2.5q0 -18 -2.5 -35t-2.5 -35q-3 -26 -5.5 -51t-5.5 -51q-2 -26 -6 -51.5t-6 -51.5l-11.5 -145t-13.5 -145q-15 -141 -27 -282q-3 -11 -5.5 -23.5t-6.5 -23.5q-44 0 -87 2t-87 6q-23 0 -45 -6.5t-39 -23.5q-18 -12 -31 -32t-15 -40z" />
<glyph unicode="^" horiz-adv-x="944" d="M111 761q11 78 42 140t67 120h-2l11 17.5t10 17.5l17 28l28 38t25 39q18 27 37.5 53t43 51t52.5 47t67 40q62 -20 100 -55.5t67 -77.5l72 -77q26 -31 46.5 -65.5t38.5 -69.5l25 -53l9.5 -21.5l9.5 -21.5l28 -67t23.5 -69t14.5 -72.5t1 -77.5v-7q-4 -30 -19.5 -54t-38 -42 t-50 -28t-54.5 -11q-4 0 -7 -1t-7 -1q-32 0 -59.5 14t-48.5 37l-90 96q-3 3 -5 3q-9 -19 -17 -38t-17 -38q-8 -20 -20.5 -32.5t-27.5 -20t-32 -10t-33 -2.5h-17q-31 2 -58 12.5t-48 28.5l-3 3q-5 4 -11 10l-11 11l-82 90q-8 3 -11 9q-29 19 -45.5 46.5t-20.5 60.5zM154 770 q4 -25 15.5 -45.5t31.5 -33.5q18 -15 40.5 -24.5t48.5 -11.5q12 -1 25 0t26 5.5t23.5 13t16.5 22.5l51.5 113l52.5 113q15 -45 28 -90.5t28 -90.5q6 -20 18 -38t28.5 -31t36.5 -19.5t43 -3.5q21 0 41 7.5t37 20.5t28.5 31t14.5 40q4 43 -2 83.5t-18.5 80t-28.5 77.5l-31 76 q-19 34 -37.5 71.5t-41 72t-51.5 61t-69 37.5q-37 -17 -66 -44.5t-54 -60t-47.5 -68t-46.5 -66.5q-20 -36 -42.5 -71.5t-42 -72.5t-35 -75t-21.5 -79z" />
<glyph unicode="_" horiz-adv-x="1369" d="M94 89q7 37 27.5 62t47.5 42t57 27.5t56 18.5q64 13 116 17.5t105 6.5h21h26q14 0 25 -2t20 -2h21h9l52.5 -2t52.5 -1q32 0 66 -0.5t66 -2.5q31 -2 65 -3t66 -1l40.5 -20t41.5 -25t37 -31t28 -38l91 -97q19 -21 28.5 -45.5t6.5 -55.5q-1 -7 -1.5 -14t-4.5 -15l-2 2 q-8 -24 -24.5 -42.5t-37 -31t-43.5 -19t-45 -6.5q-89 -5 -178.5 -6t-178.5 -1q-99 0 -202 1t-203 4q-24 4 -46.5 15t-40.5 31l-5 5v-2l-88 98l-13.5 10t-10.5 10v-2q-48 51 -48 115zM137 90q0 -44 30 -76q14 -17 33.5 -26t41.5 -14q189 -4 375.5 -5t375.5 7q17 1 35 5.5 t33.5 13.5t28 22t18.5 31q8 32 -2 57t-30 44t-46 33t-49 25q-62 0 -126 3q-32 2 -64 2.5t-64 0.5q-29 0 -57 1t-57 3q-27 0 -55 2.5t-56 0.5q-51 -2 -102 -6.5t-115 -17.5q-21 -6 -45 -14t-45.5 -20t-37.5 -29.5t-20 -42.5z" />
<glyph unicode="`" horiz-adv-x="568" d="M184 1695l2 -2l2 20q3 26 15 51t31 44t43.5 30.5t51.5 11.5h6q47 -2 76.5 -28.5t47.5 -60.5l84 -88q17 -20 29.5 -43.5l23.5 -45.5l6 -10q18 -45 28.5 -93.5t6.5 -101.5l-2 -10q-3 -19 -12 -38.5t-22.5 -35.5t-33 -26.5t-43.5 -12.5q-42 2 -73 17t-55 41l-85 94 q-30 19 -51 48t-35.5 62t-23 68.5t-13.5 68.5q0 5 -1 16t-3 24zM229.5 1687q3.5 -12 0.5 -26q7 -37 19 -78.5t32 -77t51.5 -59t77.5 -24.5q15 1 27 8.5t21 18.5t14.5 24t8.5 27q5 49 -4.5 94.5t-27.5 89.5l-19.5 40.5t-24 39.5t-32 30t-42.5 13q-20 1 -37.5 -6t-31 -20.5 t-22 -31t-10.5 -36.5q-4 -14 -0.5 -26z" />
<glyph unicode="a" horiz-adv-x="1278" d="M89 193l3 36q11 115 37 221t55 210l72 226.5t89 219.5q25 51 56.5 106.5t73 102t94.5 78.5t122 37h5q72 0 123.5 -35t85.5 -89l80 -86q36 -41 59 -94.5t35 -106.5h1q23 -93 35 -184.5t18 -184.5l-1 2q1 -5 1 -12v-12q8 -80 15 -159.5t26 -164.5h2q0 -3 1 -7t2 -7 l16.5 -53t14.5 -54.5t9 -56t0 -58.5q0 -9 -1 -18t-3 -16q-6 -33 -20 -64.5t-36.5 -57t-52.5 -43.5t-67 -23h-1l-18 -2t-20 -1q-29 0 -55.5 9.5t-46.5 31.5l-94 101q-9 6 -17.5 13.5t-16.5 18.5h-2q-24 29 -33 62.5t-11 68.5h-23q-28 0 -55.5 -1t-58.5 -5l-11.5 -35.5 l-10.5 -34.5q-9 -23 -17 -48l-16 -48q-9 -22 -21.5 -46t-30.5 -44.5t-41.5 -34t-54.5 -13.5h-9q-33 2 -64.5 18t-54.5 42l-87 95q-20 12 -34 29t-27 38q-11 26 -16.5 60.5t-2.5 72.5zM131 195q-1 -32 4.5 -65t16.5 -62q18 -28 47 -45t64 -20q24 -2 42 8.5t32.5 27.5t25 38 t18.5 39l32 94l32 94q36 6 71 8t71 2q22 2 43.5 0t43.5 -2t42.5 -0.5t42.5 0.5q2 -35 4.5 -72t2.5 -73q2 -32 8.5 -63.5t25.5 -55.5q20 -29 53.5 -35t68.5 -1q29 3 53 18t42 36.5t29.5 48.5t15.5 54q6 33 4 64t-8.5 62t-16 60.5l-19.5 59.5q-19 88 -27.5 176.5t-14.5 179.5 q-8 93 -19.5 184t-33.5 180q-10 44 -28.5 89.5t-47.5 82t-69.5 59t-92.5 22.5q-58 -4 -104 -33.5t-83 -72.5t-65.5 -94l-52.5 -97q-49 -107 -86.5 -217l-72.5 -222q-31 -113 -59 -226.5t-35 -230.5zM505 570q12 64 26 129.5t34 129.5t47.5 125.5t68.5 117.5 q27 -56 36.5 -117.5t16.5 -123.5q4 -66 8.5 -130.5t6.5 -130.5q-62 -2 -122 -1t-122 1zM695 613h8v25q-2 -6 -4.5 -12.5t-3.5 -12.5z" />
<glyph unicode="b" horiz-adv-x="1359" d="M132 297.5q-1 3.5 1 7.5l2 18q2 29 7 55t12 52q0 8 3 19q0 5 1.5 10t3.5 9q23 107 33 208q10 133 13.5 269.5t3.5 267.5q51 69 119 116t143 67q67 20 135 27t137 7q37 -1 75 -4t75.5 -10t72.5 -19.5t67 -32.5h-2q55 -35 89 -93l82 -87q40 -44 58.5 -102t14.5 -121l-1 -16 q-5 -63 -31 -118.5t-60 -106.5l27 -31q56 -60 82 -139q18 -49 25.5 -102.5t2.5 -107.5l-2 -21q-7 -72 -39 -135t-80 -115.5t-107.5 -93t-121.5 -67.5q-94 -42 -192 -63t-197 -21q-32 0 -63 1.5t-60 5.5q-36 5 -68 22.5t-57 44.5l-85 93q-25 17 -45.5 40.5t-31.5 52.5h-2 q-24 45 -32.5 98.5t-6.5 107.5q0 4 -1 7.5zM176 294q0 -48 7 -95.5t30 -89.5q17 -44 54 -75t86 -37q124 -16 249 1.5t243 71.5q57 25 112.5 63t99.5 86t74 105.5t36 122.5q8 56 2 110.5t-26 104.5q-17 53 -49 98t-79 76q43 57 75 120.5t35 132.5q2 36 -4.5 70.5t-21 65.5 t-37 57t-52.5 44q-59 36 -128.5 48t-139.5 14q-66 0 -130.5 -6.5t-130.5 -26.5q-66 -18 -124.5 -57.5t-100.5 -96.5q0 -131 -4 -261.5t-15 -263.5q-5 -56 -14 -109.5t-20 -109.5q-8 -41 -17 -81.5t-10 -81.5zM447.5 309.5q-1.5 21.5 1.5 43.5q2 32 5.5 64t8.5 64 q29 34 65 60.5t74 47.5q42 20 84.5 34.5t86.5 16.5q27 3 47 -8.5t32 -31t16 -43.5t-1 -48q-4 -51 -25.5 -89.5t-55 -66.5t-75.5 -46t-87 -28t-90 -13t-85 0q0 22 -1.5 43.5zM498 836q2 31 2.5 62.5t2.5 62.5q5 40 25 76.5t56 56.5q37 20 77.5 23.5t82.5 5.5h41q13 1 23 -5 t16 -16t8 -22.5t-1 -24.5q-12 -55 -48.5 -90.5t-85 -59t-101.5 -39t-98 -30.5zM611 319q33 7 65 19t59 29t47.5 40.5t31.5 53.5q-22 -7 -41 -15.5l-39 -17.5h2q-34 -18 -65 -40t-58 -50z" />
<glyph unicode="c" horiz-adv-x="1273" d="M113 613l1 10q12 134 55.5 263t118.5 242v-2q36 59 84 113.5t105 96.5t122.5 67t136.5 25h12q46 0 89 -12.5t81 -34t71 -50t61 -61.5q6 -11 14 -20t16 -19l77 -84q5 -5 5 -9q27 -31 51 -66.5t41 -74.5t25.5 -81.5t5.5 -87.5q3 -15 0 -22q-2 -28 -12.5 -55t-29 -48.5 t-44 -35t-56.5 -13.5h-11t-12 1q-35 0 -66 14.5t-54 38.5l-89 96q-19 13 -34 30.5t-24 39.5v-2l-12.5 27t-12.5 29q-31 -7 -56 -27.5t-45.5 -48.5t-35 -60.5t-24.5 -62.5q-28 -81 -42.5 -164.5t-22.5 -170.5q2 -9 1 -21l-2 -23q-2 -11 -3 -21.5t1 -21.5q38 4 74.5 16 t65.5 34q22 17 48 35l53 38q27 11 50 16t44 5h6q2 0 3.5 0.5t3.5 0.5q38 0 62 -19t37 -46l92 -100q20 -22 27.5 -52t5.5 -59q0 -5 -1 -10.5t-3 -13.5l-2 -10.5t-1 -10.5q-2 -5 -2.5 -11.5t-0.5 -11.5q-15 -37 -38.5 -68t-51.5 -56.5t-60 -46.5t-64 -38l2 -1 q-62 -35 -128.5 -58t-137.5 -24h-11q-85 0 -157 36t-126 95l-65 72q-38 29 -69 66t-54 79v-2q-55 107 -75.5 221.5t-12.5 229.5zM155 613q-8 -109 10 -213t67 -197q24 -47 58 -88t77 -71.5t94 -47.5t107 -15q65 2 127 23t119 54q60 31 112.5 76t78.5 108l4.5 20t2.5 20 q6 22 4 46t-11.5 43.5t-28 30t-46.5 6.5q-18 0 -36.5 -3t-36.5 -11l-47.5 -33.5t-44.5 -36.5q-53 -37 -114.5 -50.5t-121.5 -8.5q-40 9 -57.5 37t-23 65t-3 77t3.5 73q8 89 22.5 176.5t43.5 173.5q13 37 32.5 77t45.5 74t61 56t80 23q36 -1 63.5 -22.5t40.5 -50.5 l25.5 -65.5t29.5 -64.5q17 -33 48 -54.5t71 -18.5q28 -5 51 6t39 31.5t24 46t6 49.5q2 42 -6 80.5t-24 74.5t-38 69t-47 63q-51 59 -120 101t-153 44q-66 3 -128 -20t-116 -62t-98.5 -91t-77.5 -107q-75 -112 -116.5 -237.5t-52.5 -255.5z" />
<glyph unicode="d" horiz-adv-x="1258" d="M128 304l5 61q3 36 6.5 73.5t7.5 73.5l3 43q2 10 3.5 21t3.5 21q13 76 24 150.5t20 150.5q3 14 4.5 27t2.5 26q2 18 3 35.5t1 35.5l3 28q2 26 4.5 52t7.5 52q4 45 23 90.5t50 83t73.5 62t95.5 27.5l58.5 4t61.5 2q55 0 109 -6t105 -20.5t99 -38.5t90 -59 q17 -18 33.5 -37.5t30.5 -39.5l77 -84q43 -47 69.5 -104.5t40 -120t16.5 -128t-1 -128.5l-4 -29q-13 -146 -71 -283t-157 -253h1q-44 -56 -98.5 -104.5t-117 -85.5t-130.5 -58t-138 -21q-17 0 -34 1t-31 4q-42 5 -78 24.5t-62 48.5l-84 92q-53 37 -78 92q-27 49 -38.5 105 t-9.5 114zM171 305q-2 -51 9 -101.5t35 -94.5q20 -46 61 -78.5t96 -37.5q72 -11 143.5 5t137.5 50.5t124 85t104 108.5q49 58 88.5 122.5t67.5 134t45 141.5t21 145q4 65 0.5 132t-19 130t-45 119t-78.5 100q-49 41 -108 66t-123 36.5t-131 12t-131 -6.5q-43 -2 -78.5 -22.5 t-61 -52.5t-40.5 -71t-18 -78q-7 -32 -9.5 -63t-6.5 -63q-1 -32 -3 -64t-7 -64q-9 -76 -20.5 -151t-25.5 -151q-7 -72 -15 -144.5t-12 -144.5zM452 465q0 63 4 126q7 64 12.5 129.5t13.5 130.5t21 129.5t35 127.5q22 -2 43.5 0.5t43.5 2.5l45 -2t45.5 -4t43.5 -10.5 t38 -22.5q15 -17 23 -37t11.5 -41.5t4.5 -44l2 -44.5v-35q0 -17 -2 -34q-8 -82 -31 -164.5t-71 -154.5q-21 -36 -50 -68t-64 -56t-75 -38t-82 -15q-11 62 -11 125zM608 439q29 22 52.5 49t40.5 58q43 63 64.5 138t28.5 152q1 16 1 30v30v5q-2 3 0 9q-1 8 -1 15q0 8 -2 17 h-15q-6 0 -14 2h-2q-6 0 -12.5 0.5t-11.5 0.5h-16q-7 0 -16 -1q-7 -2 -13 -2h-13q-27 -90 -38 -183.5t-20 -190.5q-2 -27 -5 -53t-5 -52z" />
<glyph unicode="e" horiz-adv-x="1304" d="M128 464l2 22q10 125 33.5 244.5t49.5 238.5q13 62 29.5 125.5l33.5 125.5q25 42 58.5 70.5t71.5 47t78.5 30.5t78.5 21q3 0 5.5 1t6.5 3q3 1 7 2t9 3q64 13 128.5 20t133.5 7q22 0 44.5 -1l44.5 -2q48 -4 88 -30t61 -68l87 -93q45 -48 42 -117v-11q-3 -24 -13.5 -45.5 t-27.5 -38.5t-39 -28t-46 -15q7 -8 11.5 -16.5t8.5 -17.5l87 -94q20 -20 29.5 -45.5t6.5 -56.5l-1 -21q-3 -32 -18 -58.5t-38 -46.5t-51.5 -33.5t-58.5 -18.5l-105.5 -12t-106.5 -10q-1 0 -3.5 -1t-4.5 -1q-48 -6 -92.5 -14t-78.5 -30q-26 -15 -41 -40.5t-24 -55.5 q26 14 52 26q4 2 9 5.5t13 8.5l20 10q67 35 138.5 61.5t146.5 30.5h12q53 0 99 -24.5t72 -69.5l89 -97h-2l3 -2q9 -10 17.5 -22.5t13.5 -26.5l3 -28l-1 -17q-24 -44 -56.5 -77t-69.5 -60t-77.5 -49l-80.5 -44l-48.5 -27t-48.5 -28q-15 -6 -28.5 -12.5t-29.5 -12.5l2 -2 l-91.5 -43t-94.5 -37.5t-98.5 -26.5t-103.5 -11q-35 5 -71.5 19t-62.5 43l-9 10l2 -3l-82 88q-11 8 -20.5 16t-17.5 18q-26 29 -37 61t-19 64q0 5 -2 9l-3 15q-18 72 -22 146t-2 149zM171 466q-3 -72 1 -143t21 -140q9 -34 19.5 -68.5t33.5 -61.5q20 -29 52 -41.5t67 -16.5 q56 1 110 14t106.5 33.5t104 45.5l102.5 49q47 28 98.5 54t99.5 55.5t90 65.5t69 86l2 5l-4 13q-8 22 -24 39t-36 28.5t-43.5 16t-47.5 3.5q-70 -4 -138 -29.5t-132 -58.5l-125.5 -64t-130.5 -54q-11 45 -12.5 91.5t0.5 94.5q1 24 7 49t17 48.5t27.5 43.5t38.5 35 q47 28 97.5 37t100.5 16q53 4 105 9.5t105 12.5q24 4 47 15t41.5 27.5t30 38t11.5 47.5q6 29 -3.5 53.5t-28 42t-44.5 26.5t-54 8q-54 1 -107 -6.5t-106 -17.5l-107.5 -23.5t-107.5 -16.5v11q2 18 5.5 35t8.5 35q10 40 43 65t71 40q38 14 77.5 19t79.5 5q42 -1 83.5 -0.5 t83.5 4.5q19 3 35.5 11.5t29 22t19.5 30.5t7 36q1 28 -9.5 52.5t-28.5 42.5t-42 29t-50 13q-86 7 -171.5 0.5t-171.5 -24.5l-76 -20.5t-77.5 -26t-69.5 -39t-54 -59.5l-33 -123t-30 -123q-27 -125 -50.5 -248.5t-32.5 -249.5z" />
<glyph unicode="f" horiz-adv-x="1099" d="M121 230l2 19q2 12 2.5 24t2.5 22q2 11 2.5 20t2.5 18l2 20q0 5 1.5 10.5t1.5 10.5l10 64t7 65l2 29q2 30 3.5 58.5t3.5 58.5q2 45 5 89t7 88q6 72 13.5 144t18.5 144q2 5 3 10.5t1 10.5q1 11 1.5 18.5t3.5 13.5q7 30 23.5 55.5t39 46.5t49.5 37.5t55 28.5q7 1 13 3t11 3 q46 14 93 25.5t90 19.5l-2 -2q33 8 63 13.5l55 10.5v-2q3 0 6 2q5 0 8.5 1t5.5 2q5 0 12.5 1t16.5 3q16 2 32.5 2.5t39.5 0.5h18t21 -1l-2 1q48 -9 83.5 -32t60.5 -55q8 -9 15 -18t14 -19l68 -75l10 -10.5t7 -10.5q23 -28 41.5 -61t18.5 -77v-5q-3 -29 -18 -48t-36.5 -30.5 t-45.5 -17t-44 -7.5q-53 0 -107.5 -4.5t-108.5 -10.5q-21 -2 -41 -7.5t-40 -16.5q40 -2 80 -9.5t77 -33.5q14 -11 25.5 -24t19.5 -29l87 -95l5 -3q27 -30 36 -69.5t5 -81.5v-12q-3 -22 -13 -42t-26 -36t-35.5 -26.5t-41.5 -14.5q-34 -4 -66 -4.5t-67 -0.5q-13 -2 -27 -2h-26 h-2q-41 -2 -79.5 -5.5t-72.5 -20.5q-8 -35 -10.5 -70.5t-6.5 -70.5l-10 -121v-24q0 -11 -2 -24q-4 -36 -9 -70.5t-13 -66.5q-6 -23 -18.5 -45.5t-29.5 -40.5t-39.5 -29t-49.5 -11h-10t-12 2q-35 4 -60 18t-46 36l-88 98q-28 18 -47 46t-30.5 61t-15.5 68.5t-3 69.5zM164 232 q-2 -37 4.5 -76.5t22.5 -72.5t44 -56.5t70 -28.5q21 -5 39.5 2t32.5 21t24 33t15 38q11 44 17 87t7 87q7 74 12.5 145.5t18.5 143.5q27 18 57 26t60.5 11t61.5 3q32 0 62 2q33 0 65.5 0.5t65.5 4.5q15 3 29.5 11t25.5 19.5t17.5 26t6.5 30.5q5 42 -6 82.5t-44 64.5 q-33 25 -75 29.5t-84 6.5q-26 2 -52 0.5t-52 -3.5q-27 -4 -53.5 -5t-52.5 -6q2 36 11 72.5t22 71.5q12 24 31 41.5t41.5 29.5t47.5 19.5t49 10.5q54 6 108.5 10.5t108.5 4.5q15 1 33.5 4.5t34.5 11.5t27 20.5t12 31.5q0 35 -16 63.5t-37 52.5q-19 27 -45.5 45.5t-61.5 24.5 q-35 7 -70.5 3t-71.5 -6q-36 -7 -74.5 -13.5t-73.5 -15.5q-48 -9 -95 -21t-93 -25q-45 -18 -82 -52.5t-51 -82.5q-3 -12 -3 -25q0 -12 -4 -23q-11 -72 -18.5 -142.5l-14.5 -142.5q-6 -73 -9.5 -146.5t-8.5 -147.5q-3 -50 -10.5 -99.5t-13.5 -99.5q-3 -26 -6.5 -50.5 t-5.5 -50.5z" />
<glyph unicode="g" horiz-adv-x="1300" d="M114 654v17q13 137 64.5 268.5t145.5 243.5h-1q46 57 102.5 102t119.5 76t130.5 47.5t135.5 16.5h25q13 0 24 -2q27 0 55 -6.5t53.5 -18.5t47 -30t35.5 -42l94 -102q18 -21 28 -48.5t8 -61.5q2 -10 0 -18q-2 -22 -10 -43.5t-22 -38.5t-34 -27.5t-45 -10.5h-15h-11 q31 -14 56.5 -37.5t42.5 -52.5l88 -92q22 -25 36.5 -55t19.5 -63q4 -25 4.5 -48t-1.5 -46q-4 -42 -11.5 -80.5t-13.5 -76.5q-6 -31 -14 -65q-23 -97 -65 -187.5t-111 -169.5q-31 -40 -71 -74.5t-85.5 -60t-94.5 -40t-99 -14.5h-18q-93 0 -170.5 39.5t-135.5 103.5l-68 72 q-40 33 -72.5 74.5t-57.5 87.5q-58 102 -79 221.5t-10 241.5zM157 654q-11 -116 9 -230.5t76 -211.5q26 -51 64 -94.5t85 -75t102 -48.5t116 -14q47 -1 92.5 12.5t87 37t78 55.5t65.5 70q64 74 103.5 160.5t61.5 177.5l22.5 108t15.5 109q4 42 -2 85q-5 31 -19.5 59 t-36.5 49.5t-50 35t-61 15.5q-42 -2 -83 -11.5t-81.5 -23.5t-80.5 -31.5l-79 -34.5q-19 -8 -37 -20t-32.5 -27.5t-24 -34t-10.5 -39.5q-6 -27 1 -50.5t23 -41t39 -26t49 -5.5q45 3 94 14q22 6 44.5 10.5l44.5 8.5q0 -14 -1 -28.5t-3 -28.5q-3 -51 -15.5 -111.5t-40 -113 t-72 -87.5t-110.5 -34q-65 1 -101 35.5t-52.5 86t-18.5 110.5t3 109q5 52 14 105t24.5 104t38.5 99.5t57 92.5q31 45 73 77.5t90 53t100 29t103 4.5l12 -2l13 -1q21 -3 36.5 5.5t25.5 24t14.5 34.5t3.5 36q3 35 -12.5 61t-41 43.5t-57.5 26t-63 8.5q-67 6 -135.5 -6 t-132.5 -40.5t-121 -71t-102 -97.5q-94 -109 -145 -242t-60 -270zM572 370q-1 -44 8 -87q4 -1 14 -1h2q34 0 60.5 13t46.5 35.5t35 51.5t25 62h-12q-31 0 -57 12t-45 32l-60 65q-4 -26 -7.5 -51t-6.5 -50q-2 -38 -3 -82z" />
<glyph unicode="h" horiz-adv-x="1312" d="M130 294l5 49q2 40 7 79.5t13 77.5l18 104.5t13 102.5q2 6 1 11.5t-1 11.5l3 26q2 11 1 23t1 23q3 25 3.5 49t1.5 48q0 27 1.5 54t3.5 56l4 44q2 11 3.5 23t1.5 23q8 38 18 76t28 76h-2q10 22 22.5 45.5t29.5 44t39.5 35.5t53.5 20q16 3 36 3q47 0 78 -21.5t50 -54.5 l89 -98h-2l4 -1q18 -20 29 -46t17.5 -55.5t8 -59.5t-0.5 -58q-1 -8 -3 -16t-2 -14l-10 -88l-10 -88l34.5 2t35.5 3l6 66q2 13 3 24t3 22l1 18q3 37 0 81v4v24q2 5 1 11t1 13q-2 35 -0.5 70t3.5 70q0 2 -0.5 4.5t-0.5 5.5l1 12q3 31 13.5 64.5t30 61t48.5 45.5t67 18 q2 0 3.5 -0.5t3.5 -0.5h8q54 -3 92 -29.5t62 -66.5l84 -92q37 -42 52 -99t11 -113q-2 -10 -1 -19t-1 -18q0 -21 -1.5 -43t-3.5 -44l-3 -35q-2 -20 -3.5 -41.5t-1.5 -41.5q-3 -20 -3.5 -41t-0.5 -41q-11 -156 -13 -308.5l-4 -307.5v-62l-3 -25q-6 -29 -22.5 -53t-39.5 -42 t-50 -29.5t-54 -15.5l-2 2q-8 -3 -12.5 -3.5t-9.5 -0.5q-28 0 -49 11.5t-38 29.5l-90 99q-30 17 -49.5 50t-27.5 66q-14 64 -16.5 121.5t-0.5 112.5h-135q-5 -29 -8 -55.5l-6 -53.5l-3 -24q-2 -18 -1 -33.5t1 -33.5v-24t-2 -27q2 -14 2 -39t-2 -48v-36l-1 -17 q-2 -26 -13.5 -47.5t-29.5 -37t-40.5 -24.5t-46.5 -9q-7 0 -16 1.5t-18 5.5l1 -2q-35 5 -60.5 20t-44.5 35l-91 99q-34 23 -54.5 58.5t-31 77.5t-14 86t-2.5 84zM172 295q-1 -43 3.5 -91t20 -91t45.5 -74t80 -39q20 -7 41 -3t38 16.5t27.5 31.5t9.5 42q2 31 3 61.5t-1 59.5 q1 32 0 62.5t1 62.5q3 44 9.5 87t14.5 87q31 -3 60 -3.5t60 -0.5q53 0 105 1.5t103 5.5q-2 -40 0 -79.5t-2 -78.5q-2 -54 0 -110.5t16 -123.5q5 -21 14.5 -41.5t24 -36t34 -23.5t44.5 -2q21 3 41.5 12.5t38.5 23.5t31.5 32t18.5 40l2 17q1 171 2.5 340.5t14.5 340.5 q2 42 5 83t5 82q4 40 6 79.5l4 79.5q3 38 -4.5 78t-25.5 73t-48.5 54.5t-73.5 23.5q-34 5 -58 -10.5t-39 -41t-22 -57t-7 -57.5q-2 -35 -3.5 -69t0.5 -69q-2 -35 -1 -68t-1 -68q-2 -17 -3 -33.5t-6 -33.5q0 -17 -1.5 -33.5t-3.5 -33.5q-1 -9 -0.5 -17.5t-0.5 -17.5l-79.5 -6 t-79.5 -3q-32 0 -64 -0.5t-64 3.5l22.5 173t20.5 172q6 39 4 86.5t-18.5 87.5t-48.5 62.5t-86 12.5q-20 -2 -35.5 -13.5t-28 -27.5t-22 -34.5t-16.5 -35.5q-18 -35 -28 -72t-18 -74l-9.5 -96.5t-4.5 -96.5t-3 -98.5t-7 -97.5q-4 -53 -13 -105t-20 -105q-9 -51 -14.5 -101 t-9.5 -101z" />
<glyph unicode="i" horiz-adv-x="679" d="M121.5 261.5q-0.5 59.5 4.5 122.5q3 48 7 96t9 97l8 97t10 97q5 47 9.5 95.5t9.5 96.5q4 28 7 58t7 59q2 21 4.5 40t3.5 39q0 2 2 3.5t2 3.5q2 5 2 8v5q5 29 10.5 58t21.5 58q8 20 19 40.5t27 38.5t37 32t50 22h10q3 0 4.5 1t4.5 1q45 0 80.5 -25.5t57.5 -63.5l87 -95 q11 -11 18.5 -24t14.5 -27q28 -81 20 -166l-10.5 -110.5t-13.5 -111.5q-2 -19 -3.5 -38t-3.5 -37l-9.5 -75.5t-7.5 -74.5q-4 -38 -4.5 -76t-2.5 -76q-1 -23 -1 -45v-42q-2 -17 -3 -33.5t-1 -33.5q0 -32 -1 -66.5t-6 -67.5l-1 -29q-4 -44 -16 -85t-30 -81q-9 -23 -23 -45.5 t-33 -41t-43 -31t-52 -15.5h-6q-32 0 -53.5 11t-37.5 27l-90 100q-18 9 -30 22.5t-20 27.5q-22 47 -28.5 80.5t-8.5 64.5q-8 55 -8.5 114.5zM165.5 271q0.5 -57 6.5 -114q4 -29 9.5 -58t16.5 -56q7 -12 16 -24t20.5 -21t24.5 -14t29 -4q21 2 39 12t32.5 25t25.5 33.5 t18 36.5q17 38 28.5 76t13.5 78q8 57 9 113.5t3 113.5q3 60 3.5 120t5.5 122q5 57 12 113.5l14 113.5q8 55 13 110t9 110q4 38 0 76.5t-17 73.5q-16 36 -49.5 60.5t-75.5 18.5q-18 -5 -32.5 -15.5t-25.5 -24.5t-19.5 -30.5t-14.5 -32.5q-16 -31 -22.5 -64.5l-13.5 -66.5 l-21.5 -191l-21.5 -191l-17.5 -192t-14.5 -192q-4 -58 -3.5 -115z" />
<glyph unicode="j" horiz-adv-x="1277" d="M92 712l2 17q4 38 28.5 62t53.5 38q22 11 50 17.5t57 6.5q42 -10 66 -32.5t38 -49.5l87 -93q22 -25 32.5 -55t17.5 -56q2 -5 3.5 -15t1.5 -18h2q5 -18 9 -38.5t6 -38.5q4 -20 9 -38.5l10 -37.5q0 -19 7 -36q1 11 2 23.5t3 24.5l2 15q0 26 3 55v25l2 26q1 6 0.5 12.5 t0.5 12.5l2 22q0 14 1 27.5t3 27.5q8 94 12 189.5t-1 192.5q-17 9 -32.5 20t-26.5 26l-91 96q-23 17 -42 40t-28 54q-11 42 -8 78l1 6q2 22 12 40.5t25.5 32t35 22t40.5 10.5q48 4 95 5.5t96 1.5q100 0 198 -7.5t195 -23.5q29 -4 51 -23.5t36 -42.5l92 -101q5 -6 9 -12.5 l8 -12.5q2 0 2 -1t1 -1h-1q14 -22 23 -46t9 -50l-2 -15q-4 -45 -26 -73t-54.5 -43.5t-69.5 -21.5t-71 -7q-3 -60 -3.5 -119t-0.5 -118q2 -29 1 -56t-1 -55q-2 -85 -5.5 -172t-11.5 -173l-5 -55q-5 -63 -27.5 -131.5t-62.5 -125.5t-98 -93.5t-135 -36.5h-13q-91 0 -161 39 t-124 99l-68 72q-52 42 -92 97t-69 113q-62 106 -91.5 227.5t-19.5 250.5zM134.5 600q4.5 -62 19 -121.5t37 -116t51.5 -108.5q28 -52 64 -101.5t82 -88.5t101.5 -62.5t121.5 -21.5q69 -2 121 31.5t87.5 86t55 116t24.5 121.5q21 196 21 390q2 98 1 195t4 194q30 0 68 2.5 t72 14t57.5 35t24.5 66.5q0 22 -7 42t-19 37q-10 15 -24 29t-34 17q-143 23 -286 28.5t-289 -4.5q-27 -2 -49.5 -20.5t-22.5 -48.5q-1 -15 0.5 -31t6.5 -32q10 -33 33.5 -54.5t53.5 -35t64 -19.5t66 -8q11 -129 7.5 -257.5t-14.5 -258.5q-2 -26 -3 -51t-4 -51 q0 -26 -1.5 -51.5t-3.5 -51.5q-1 -27 -5 -53l-8 -53l-2 -3v-17q-3 -4 -5 -8.5t-4 -8.5q-40 0 -72.5 21t-51.5 52q-23 35 -38 75t-24 82q-10 38 -16.5 76t-17.5 76l-13 48t-17.5 49t-27.5 40.5t-43 23.5q-22 0 -43.5 -6t-41.5 -15t-36.5 -25.5t-17.5 -39.5q-7 -63 -2.5 -125z " />
<glyph unicode="k" horiz-adv-x="1324" d="M135 290l4 108.5t6 108.5l15 167q2 14 3 28t3 28l11 120q0 6 1 11.5t3 12.5q2 13 2.5 25.5t2.5 25.5q7 46 15.5 91t16.5 92l9 46q18 57 60 145l3 8q2 3 2 4q0 2 2 5q15 28 37 54t67 36h12q2 0 4.5 1t5.5 1q41 0 78 -19.5t55 -57.5v2q0 -2 1 -3t1 -2l92 -99q6 -7 10 -13.5 l9 -14.5l8 -20l39 38l46 41q22 21 46 41.5t51 37.5t58 29t67 16q51 -5 88 -32t59 -67l87 -94q29 -31 42.5 -69.5t13.5 -80.5v-7q-4 -42 -33 -70.5t-62 -43.5q-20 -11 -31 -16.5t-20 -10.5q-17 -8 -30.5 -15t-26.5 -16q-69 -45 -128 -103.5t-111 -121.5q12 -17 26.5 -33.5 l28.5 -33.5l38 -48q20 -28 42.5 -54l45.5 -55l76 -91.5t67 -96.5t50.5 -105t25.5 -117v-10q-6 -31 -22 -59t-38.5 -49t-51.5 -34.5t-61 -16.5q-39 0 -67 16t-50 39l-84 92q-26 17 -44.5 41t-33.5 48l-21 26l-21.5 33l-21.5 33l-39 67l-36.5 55t-35.5 57q0 -18 -3 -36 q-2 -13 -3 -25t-4 -22q-1 -11 -2 -20t-3 -18l-2 -17q-1 -20 -3 -39.5t-2 -37.5l4 -1q1 -8 0.5 -16.5t0.5 -16.5q3 -55 0 -112q2 -7 1 -13t-1 -11q-2 -23 -12 -45.5t-26 -40t-37.5 -28.5t-46.5 -11q-13 0 -28 5l2 -2q-36 5 -62.5 20t-46.5 37l-104 114q-29 25 -47 59.5 t-28 72.5t-13 77.5t-1 75.5zM177 294q-1 -43 3.5 -91.5t21 -90.5t47 -73t80.5 -39q22 -6 41.5 1.5t33.5 23t21 36t5 40.5q3 56 0 114q0 29 -0.5 58t2.5 58q1 27 5.5 53t6.5 53q5 27 9 54l8 53q29 -9 52.5 -26.5t43.5 -39t37.5 -46t35.5 -46.5l81 -131.5l81 -131.5 q15 -19 29 -40.5t31.5 -40t38.5 -30.5t49 -12q25 2 47.5 12.5t40 27.5t29.5 39t16 46q-6 77 -37.5 143.5t-75 126.5t-93 116.5t-92.5 114.5l-56.5 69l-54.5 70q59 72 124.5 138t143.5 118q28 17 57 30.5t55 30.5q13 6 26 14t23.5 18.5t17 23.5t7.5 28q0 31 -10 61 t-28.5 54.5t-44.5 40.5t-57 19q-36 -4 -68 -20t-60.5 -38t-55 -47.5t-53.5 -47.5l-122.5 -119.5t-125.5 -116.5q0 14 1.5 28.5t3.5 28.5q2 20 6.5 40t10.5 40q3 20 9.5 40t7.5 40q5 38 2 74t-20 68q-16 31 -47 44t-66 9q-17 -5 -29.5 -15.5t-22 -24t-17.5 -28.5t-16 -28 q-14 -29 -25.5 -60t-20.5 -63l-23.5 -111.5t-17.5 -111.5q-3 -25 -5.5 -48.5t-6.5 -47.5q0 -24 -3 -47.5l-6 -48.5q-4 -57 -9.5 -110.5t-10.5 -110.5q-4 -54 -6.5 -107.5t-4.5 -107.5zM582 125q0 -2 1 -2h1z" />
<glyph unicode="l" horiz-adv-x="1101" d="M129.5 295q0.5 21 0.5 43q1 5 0.5 10.5t-0.5 11.5l3 22q3 29 6.5 57.5t7.5 57.5q2 9 4.5 18t2.5 17l1 16q0 5 2 9.5t2 9.5l19.5 114.5t17.5 117.5q3 36 5 71.5t2 73.5l2 3q-3 20 0 48q0 20 1.5 41.5t3.5 42.5q2 28 5 56.5t7 57.5q3 34 15.5 69t34.5 65.5t53.5 52.5 t72.5 30q10 2 16 2.5t14 0.5q47 0 78 -21t50 -54l91 -101q18 -20 29.5 -47t17 -56.5t6.5 -60.5t-2 -59l-2 -24q-9 -72 -22 -143.5l-27 -143.5l-10 -51q-16 -76 -28 -150.5t-20 -146.5l97 44l22 11q3 1 4.5 2l4.5 3l12 5q27 14 58 27t68 17q8 2 14 2h12q42 0 77.5 -20.5 t53.5 -56.5l96 -102q15 -18 23 -41t6 -51q0 -7 -1.5 -13t-3.5 -15h1q-15 -51 -45.5 -89.5t-70 -69t-83.5 -54.5l-86 -46q-75 -35 -155 -60t-164 -25h-24t-22 1q-48 7 -93 23.5t-76 51.5l-94 103q-25 19 -46 49q-22 48 -30.5 98t-10.5 100q-4 25 -3.5 46zM172 296 q0 -21 4 -43q2 -47 9 -92.5t27 -87.5q26 -40 70.5 -58.5t91.5 -24.5q44 -5 88 0t87.5 16.5t86 28t83.5 35.5l77.5 42t76.5 49.5t64 62t41 78.5q9 30 1 54.5t-26.5 40.5t-44.5 23t-53 2q-35 -5 -67 -20.5l-64 -31.5l-143 -64t-148 -40q-4 44 -4.5 88t3.5 88q8 86 21 170.5 t30 170.5l33 168.5t25 168.5q6 37 4.5 83.5t-15.5 85.5t-44 63t-82 17q-32 -5 -57 -22.5t-42.5 -42.5t-27.5 -54.5t-12 -58.5q-5 -49 -10.5 -97t-7.5 -97q-1 -51 -2.5 -100t-5.5 -100q-8 -59 -17.5 -117.5t-20.5 -116.5l-17.5 -111.5t-11.5 -111.5v-44z" />
<glyph unicode="m" horiz-adv-x="1536" d="M136.5 282q-3.5 89 1.5 181l4 58t5 59q18 221 71 435q11 60 28 113t39 106q13 28 30.5 57.5t40.5 55t52.5 43.5t65.5 23h11q2 0 5.5 1t6.5 1q46 0 78.5 -25.5t52.5 -61.5l85 -94q34 -37 50 -89l22 -88l22 -88q5 14 11 27.5t11 27.5q8 17 14.5 33.5t14.5 33.5l20 37t20 39 q17 37 36 74t43.5 69t57.5 58t78 40q54 -8 93 -36t65 -66l91 -99q28 -31 46 -70t29 -77h-2q25 -69 32 -143t2 -147v-23t-1 -22q-2 -11 -3 -21.5l-2 -20.5l-4 -26.5t-3 -26.5l-6 -45.5t-4 -45.5l-4 -22.5t-3 -23.5v-37t1 -36q0 -20 1 -39.5t-1 -39.5q2 -51 2 -102 q0 -50 -5 -104q-2 -22 -4.5 -45.5t-7.5 -43.5q-8 -37 -29 -84q-2 -2 -2.5 -3t-4.5 -15q-9 -15 -20.5 -31.5t-25 -30.5t-29.5 -24t-34 -13l-2 1q-9 -2 -14 -2.5t-10 -0.5q-35 0 -66 15t-53 40l-89 97q-29 19 -49 48t-28 63q0 8 -3 19q-56 -104 -143 -198q-43 0 -74 15t-51 38 l-92 99q-4 0 -5 3v-39l-4 -40q-1 -23 -5.5 -47.5t-18.5 -49.5q-19 -35 -50 -48t-64 -13h-13t-14 1q-62 9 -99 52l-91 99q-31 19 -50.5 49t-25.5 63q-26 84 -29.5 173zM180.5 292q3.5 -86 26.5 -167q13 -41 42 -74.5t75 -38.5q13 -2 27.5 -1.5t28 4.5t25.5 12t20 22 q13 29 16.5 60t5.5 62q2 35 0 68t-3 66l-4 69.5t2 69.5q4 63 9.5 125.5t16.5 125.5q14 -61 23.5 -121t20.5 -122l23 -119.5t32 -117.5q7 -22 17.5 -44t26 -39.5t36 -28.5t46.5 -11q64 67 110 147.5t83.5 166.5t70 175t69.5 172q10 -131 3 -261q-2 -63 -6.5 -126.5 t-8.5 -126.5q-3 -31 -4.5 -61.5t2.5 -59.5q5 -24 19 -46t34 -37t44.5 -22.5t51.5 -2.5q26 5 44 26.5t31 43.5l20 49t15 50q14 72 16 143.5t0 143.5q2 38 -1 77.5t-1 77.5l8 69t9 69q3 35 8.5 69.5t5.5 69.5q4 71 -3.5 140.5t-29.5 135.5q-9 31 -23 63t-34.5 59t-48 45 t-63.5 23q-45 -14 -76.5 -46.5t-55.5 -73t-43.5 -84.5t-40.5 -81l-84 -202.5l-84 -202.5q-17 151 -49 296t-72 290q-6 22 -17.5 43.5t-28 37.5t-38.5 24.5t-49 4.5q-28 -4 -51 -19t-41.5 -36t-32.5 -46t-25 -49q-22 -53 -39 -104.5t-26 -106.5q-35 -136 -54.5 -272 t-25.5 -273q-4 -86 -0.5 -172z" />
<glyph unicode="n" horiz-adv-x="1283" d="M123 147q4 46 9 88.5t11 81.5q9 39 16.5 77.5t9.5 76.5v18t2 18q1 9 0.5 18t0.5 18q2 53 3.5 105.5t1.5 105.5q2 14 2 28q0 15 2 29q2 31 3 62t4 61q2 26 5 52t7 52q5 41 16.5 83.5t25.5 85.5q2 2 3.5 7.5t0.5 4.5q3 3 3 5v3q0 3 2 5q6 9 8 17q2 3 2.5 5.5t3.5 5.5 q8 21 17.5 41.5t22.5 38.5t30.5 32t41.5 22q9 3 17.5 3.5t15.5 0.5q24 0 44 -8t37 -20.5t30.5 -29t24.5 -34.5l82 -91q11 -11 20 -23.5t16 -25.5l-2 1q18 -31 30 -64.5l25 -66.5l2 -2q2 -8 4.5 -17t5.5 -17l15 -48q2 42 2.5 82.5t4.5 79.5l3 31q4 41 11.5 87t27 86t54.5 67 t95 30q47 -4 73 -29t41 -57l74 -80l2 -1l6 -6q18 -20 30 -45.5l23 -49.5q14 -42 22.5 -86.5t6.5 -92.5q-2 -13 -3.5 -24.5t-3.5 -21.5l-12 -144q-4 -108 -5 -214.5t-1 -213.5q5 -119 -9 -244l-3 -46q-5 -35 -17.5 -72t-34.5 -68.5t-54 -54.5t-75 -31q-51 5 -88 25.5 t-64 51.5l-77 86q-44 29 -73 73t-55 90l-7 14l-13 19.5t-12 19.5q-5 -51 -11.5 -100.5t-19.5 -98.5q-9 -33 -22 -65t-31 -57.5t-42.5 -41.5t-56.5 -16q-2 0 -8.5 1t-10.5 1q-67 11 -112 62l-86 93q-40 26 -64 67t-26 89zM166 155q2 -27 13.5 -53t29.5 -46.5t42 -35t51 -18.5 q25 -5 45.5 7t35.5 33t26 49t19 57q13 49 19.5 97.5t11.5 97.5q4 75 7 147.5t7 147.5q40 -99 83 -195.5l89 -193.5q23 -35 45 -77t49 -78.5t61.5 -63t83.5 -30.5q34 6 59.5 25t43.5 45.5t28 57.5t14 61q8 71 10.5 142t-0.5 142q2 108 2.5 215.5t4.5 216.5l9 99q4 23 6 46 l4 47q2 43 -5.5 83.5t-20.5 79.5l-16 37t-20 35t-28.5 27t-39.5 13q-48 -2 -74.5 -29.5t-39.5 -67t-18 -83.5l-9 -78q-7 -85 -7 -170q0 -84 1 -169q0 -47 1 -91.5t1 -91.5q-70 124 -123 256q-24 66 -45.5 132.5l-44.5 132.5l-28 82t-37 78q-9 17 -21 33t-28 28t-35 17.5 t-41 1.5q-22 -7 -36.5 -22.5t-25 -35.5t-19 -41.5t-18.5 -40.5l-27.5 -88t-18.5 -89q-10 -69 -14 -139l-8 -139q0 -71 -3 -142t-5 -142q-3 -41 -10 -80.5t-16 -79.5q-8 -40 -12 -79.5zM1130 1249q2 0 2 -1z" />
<glyph unicode="o" horiz-adv-x="1336" d="M116 666l2 8q10 129 55.5 252t126.5 231v2q39 55 88.5 104t106.5 85.5t120.5 58t130.5 21.5h10q53 0 100 -15t86.5 -41t73 -60.5t59.5 -74.5l65 -68q31 -33 55 -71t42 -77q52 -105 73.5 -222t10.5 -238l-2 -15q-10 -125 -58.5 -243.5t-123.5 -223.5q-39 -53 -87 -100.5 t-103.5 -83.5t-117.5 -57.5t-129 -21.5h-14q-84 0 -150 34.5t-116 89.5l-74 79q-48 40 -84 91t-62 107q-48 104 -71.5 216.5t-12.5 232.5zM160 674q-11 -115 10.5 -226t68.5 -211q24 -48 56 -94t73.5 -82t92.5 -58t111 -22q64 -3 123.5 16.5t113 53.5t100 79.5t83.5 96.5 q75 104 120.5 221.5t53.5 240.5q10 116 -10 228.5t-69 212.5q-23 49 -55.5 95t-74.5 82t-93 57.5t-111 21.5q-63 2 -123 -17t-113.5 -53t-99.5 -80t-81 -98q-77 -103 -121 -221.5t-55 -242.5zM424 550q0 66 6 133q7 69 24 138t48 133q15 31 37 59t50 49.5t61 34t69 11.5 q29 2 54.5 -8t46 -28t34.5 -42.5t20 -51.5q11 -57 9 -114t-6 -115q-4 -42 -9 -83.5t-13.5 -84.5t-21.5 -87t-33 -90q-13 -29 -33.5 -56t-46.5 -47.5t-57 -32t-64 -9.5q-35 -2 -62.5 11.5t-48 36.5t-33.5 52.5t-18 60.5q-13 64 -13 130zM578.5 425.5q-0.5 -63.5 10.5 -123.5 h5h17q24 0 46.5 9.5t42 26t35 37t24.5 43.5q39 89 53.5 170t22.5 161l1 17q3 45 4 88.5t-5 87.5h-11q-28 0 -54 -10.5t-48 -28.5t-40 -41.5t-30 -49.5q-29 -59 -45.5 -125t-22.5 -132q-5 -66 -5.5 -129.5z" />
<glyph unicode="p" horiz-adv-x="1125" d="M133 203l4 84.5t6 84.5q7 71 17 143.5t21 143.5q4 18 5.5 33.5t2.5 32.5q5 57 7 114t0 115q0 4 -0.5 8t0.5 9l2 15v38q2 20 2.5 42.5t2.5 42.5l4 37t6 37q13 67 53 113.5t94 75t114.5 42t114.5 14.5h37q85 0 168.5 -19t154.5 -69q22 -18 40.5 -38.5t32.5 -45.5l74 -80 q0 2 -1 2h-1l5 -4q28 -31 47.5 -67.5t31 -76t16 -81.5t2.5 -84v-10q-5 -53 -25 -101t-50 -92t-68 -83t-78 -72q-84 -69 -175 -120t-191 -87q0 -10 2 -13q-2 -67 -3 -135t-6 -135v-20q-2 -29 -13 -58.5t-29.5 -54t-44 -40t-58.5 -15.5h-11t-14 2q-36 2 -66.5 19.5t-53.5 43.5 l-88 97q-17 11 -30 24.5t-23 28.5q-21 36 -30.5 76.5t-7.5 82.5zM176 205q-2 -36 6 -71t26 -64q20 -29 49.5 -50t66.5 -23q31 -7 54.5 6t39 36t23 52t6.5 54q8 78 8.5 155t0.5 154q103 35 198.5 86t180.5 122q38 31 74.5 68t65 79t47 88t21.5 96q2 44 -4 88.5t-20.5 85.5 t-38.5 76.5t-58 62.5q-72 49 -159.5 66.5t-175.5 13.5q-48 -2 -102 -13t-101.5 -35.5t-83 -63.5t-46.5 -95q-8 -55 -10.5 -110.5t-4.5 -111.5q2 -57 0 -115.5t-7 -116.5q-2 -18 -3 -35t-5 -35q-20 -113 -33 -225t-15 -225zM476 761q0 49 4 99l8 99q3 29 7.5 59t13.5 59 q14 27 43 41t57 12q34 0 65 -6.5t62 -19.5q13 -6 26 -14t23.5 -18.5t16.5 -24t4 -30.5q-4 -27 -18 -49t-32.5 -40.5t-40 -34.5l-41.5 -31q-45 -32 -94.5 -59.5t-103.5 -41.5zM650 896l1.5 1t3.5 2q3 3 7 5t9 6l33 26t30 28h-17q-17 0 -33.5 -7.5t-24.5 -22.5q-4 -9 -5.5 -19 t-3.5 -19z" />
<glyph unicode="q" horiz-adv-x="1280" d="M112.5 520.5q-1.5 59.5 3.5 119.5l2 14q10 125 44 247t96 236q33 57 78 110t100 93.5t119 65t133 24.5h22q48 0 91 -13t80 -35.5t68 -54t56 -67.5l72 -79q29 -33 53.5 -72t40.5 -82l-2 2q45 -103 60 -215t7 -225q-11 -116 -42.5 -228.5t-90.5 -215.5q6 -17 14.5 -31 t19.5 -27q0 -3 3 -3q17 -26 27.5 -56t8.5 -62q0 -4 -1 -7t-1 -7l-2 -7q-7 -26 -22.5 -49t-36.5 -41t-46.5 -30.5t-52.5 -17.5l-17 -2l-19 2l-36 9l-8 3l-21 19l-29 31q-37 -26 -81 -40.5t-88 -14.5h-15q-93 0 -174 38.5t-139 103.5l-76 83q-72 60 -115 144q-28 51 -46 106.5 t-27 113.5t-10.5 117.5zM159 640q-9 -115 7 -227t70 -210q25 -50 63.5 -92t86 -72t102.5 -46t114 -13q51 0 100 21t86 57q8 -17 19 -32.5t19 -32.5l12 -12l14 -5l13 -3l17 -2l14 2q21 4 40.5 13.5t36 23.5t28.5 32t18 38q6 29 -2 56t-22 50q-17 20 -30 41.5t-20 47.5 q62 102 94 214.5t43 227.5q7 109 -7 217t-58 206q-19 49 -49 94.5t-70.5 80t-90 54.5t-107.5 19q-64 3 -123.5 -18t-111.5 -58.5t-95.5 -87.5t-74.5 -104q-62 -114 -94.5 -235t-41.5 -245zM418 494q-2 40 0 79t4 72q6 73 16.5 148t39.5 146q14 34 37.5 64t54 51.5t66 33 t72.5 8.5q28 -1 48 -14t34.5 -35t23.5 -50.5t15 -59.5q7 -57 6 -115t-6 -115q-5 -60 -16 -117.5t-40 -113.5q-11 17 -24.5 33.5l-26.5 33.5t-31.5 28.5t-38.5 15.5q-21 -1 -40 -11.5t-34 -26.5t-24.5 -36t-12.5 -40q-3 -28 5.5 -52t22 -46t30 -42l31.5 -39q-14 -11 -30 -17 t-33 -6q-43 6 -71 26.5t-45 51t-24 68t-9 77.5zM584 602q18 12 37 19t41 9q29 -5 54.5 -22t42.5 -41q2 -2 2 -3t2 -3q9 36 15 73t9 73q5 54 5.5 109t-5.5 111q-54 -7 -96 -41.5t-61 -85.5q-20 -48 -30.5 -97.5t-15.5 -100.5zM899 -138v-2l43 -44z" />
<glyph unicode="r" horiz-adv-x="1384" d="M140 311q0 23 2 47.5t5 49.5q2 24 4.5 49t7.5 50l2 15.5t3 16.5q0 8 1 16.5l2 17.5l2 9l10 60.5t7 60.5q4 40 4.5 78.5t2.5 78.5v19t2 20q1 11 0.5 20t0.5 20l7 83q2 8 1 15.5t1 13.5l2 26q2 24 5.5 48t7.5 47q4 28 14 57t25.5 55.5t38 48.5t52.5 36q37 20 71.5 28 t70.5 14q2 0 4.5 1t5.5 1h5q9 2 20 3t29 6q26 2 57 4t73 2h24q40 0 81 -2.5t80.5 -10.5t77.5 -22t73 -36q21 -17 38.5 -37t31.5 -42l80 -87q52 -57 70.5 -133t13.5 -153v-6q-3 -39 -16 -75.5t-33 -69.5t-44.5 -63.5t-49.5 -57.5q-47 -51 -101 -93.5t-114 -73.5l20 -29 t21 -29h-2q4 -8 9.5 -16.5l10.5 -16.5q11 -6 20.5 -12t20.5 -11q14 -9 28 -16.5t25 -12.5l15 -8.5t11 -5.5h-2l30.5 -17.5t20.5 -13.5v2q20 -11 35 -28.5t27 -38.5l85 -94q20 -22 32 -49t9 -58l-2 -14q-5 -31 -22 -56t-41 -43t-52 -28.5t-55 -13.5h-2q-9 -2 -20 -3t-23 -1 q-39 0 -76 10t-70.5 28t-63 41.5t-54.5 50.5l-70 75q-16 13 -29.5 27t-26.5 29q-5 4 -7.5 8t-4.5 8l-103 128q-1 -31 -1 -61v-60v-41v-44t-2 -43q2 -8 1 -14.5t-1 -11.5q-2 -25 -9.5 -51.5t-22 -48t-37 -35.5t-54.5 -14h-15q-34 5 -59 19t-46 36l-85 94q-32 22 -54.5 55.5 t-34.5 69.5q-20 48 -27 99t-5 104zM183 314q0 -49 5.5 -96.5t23.5 -92.5q7 -22 19 -43t27.5 -38t36 -29t46.5 -15q28 -3 46.5 9.5t29 33.5t15 46t3.5 46q2 32 1 63t-1 63q2 32 2 64t2 64q1 23 4 45.5l6 45.5q22 -12 38.5 -29.5t34.5 -34.5l111 -136l108 -137 q25 -29 56.5 -53.5t67.5 -42t75.5 -24.5t81.5 -1q22 2 44.5 10t41.5 21.5t32.5 33t18.5 43.5q6 35 -12 65t-46 47q-29 22 -61.5 37t-63.5 35q-42 23 -77.5 57.5t-62.5 73.5l-56.5 81.5l-57.5 81.5q71 28 132.5 74t114.5 103q25 25 48 54t41.5 60.5t30 65t14.5 68.5 q2 41 -2 82t-17 79.5t-34.5 71.5t-54.5 57q-33 21 -71 33.5t-78 19.5t-81.5 9t-81.5 1q-32 0 -65 -2.5t-65 -6.5q-24 -5 -48 -8t-48 -7.5t-47.5 -12t-44.5 -20.5q-23 -11 -40.5 -28.5t-30.5 -39t-20.5 -45.5t-10.5 -47q-12 -58 -15 -114.5t-9 -114.5q-2 -59 -3.5 -118 t-6.5 -119q-4 -50 -12.5 -99.5t-15.5 -100.5q-8 -48 -12 -94.5t-6 -94.5zM475 914.5q3 51.5 8 102.5q2 12 2.5 24.5t-0.5 23.5q1 13 6.5 27.5t22.5 16.5q31 0 61.5 3l59.5 6q32 0 64 3.5t64 1.5q12 1 24 -1t22 -8t15.5 -15.5t3.5 -23.5q-5 -58 -37.5 -109t-83.5 -80 q-51 -35 -108.5 -51.5t-115.5 -20.5q-11 49 -8 100.5zM637 944q0 -2 0.5 -3t0.5 -2v-45l29 16t29 18l13 9.5l13 9.5q-26 -2 -46 -2.5t-39 -0.5z" />
<glyph unicode="s" horiz-adv-x="1300" d="M126 261l2 14q2 22 12 44.5t26.5 39.5t38 28t46.5 11q2 0 3 -1t4 -1h7q28 -2 56 -11.5t54 -26.5v2q9 -5 18 -9.5t17 -9.5l17.5 -9.5t17.5 -8.5q3 -5 12 -7q5 -2 7.5 -3.5t6.5 -3.5v-2q32 -13 67 -18.5t71 -5.5q38 0 77 6t70 27v1q22 20 34 40t19 42q-4 -1 -7 -2t-5 -1 q-7 -2 -11.5 -3.5l-10.5 -3.5q-45 -13 -88.5 -23.5t-87.5 -10.5h-17q-63 0 -117.5 26t-94.5 70l-78 85q-36 26 -62.5 62t-40.5 78q-24 64 -30.5 133t0.5 140q1 15 2.5 32t4.5 33q5 46 23 88.5t45 80.5t62 71t74 60h-1q88 60 181 87t186 27q63 -1 121.5 -14.5t111.5 -44.5 q32 -20 61 -45.5t49 -58.5l82 -89q26 -29 42 -65t14 -80v-12q-3 -31 -18 -52.5t-37.5 -35t-48.5 -20t-51 -6.5q-5 0 -12 0.5t-12 0.5q-30 3 -56.5 11t-51.5 17q-6 2 -17.5 7t-16.5 8l2 -4l-2 2q-26 9 -50 15.5t-46 6.5h-6q-34 0 -66.5 -12.5t-63.5 -33.5q-13 -9 -24.5 -21 t-19.5 -25l1 2q2 0 4 1t5 2l10 5q44 20 90.5 34t97.5 14h3q41 0 79 -11.5t72 -32t62 -48t48 -58.5q0 -2 2 -2l65 -75l10 -8l5 -4q9 -10 17 -20.5l16 -21.5q35 -61 52 -128t11 -140l-2 -17q-11 -103 -54 -200t-117 -174l-1 2q-35 -41 -78.5 -75t-92 -58t-100 -37t-103.5 -13 h-5q-78 0 -150.5 22t-138.5 60q-31 17 -61 38.5t-55 48.5l-76 84q-45 35 -76.5 81.5t-33.5 112.5zM171 265q0 -37 14.5 -68t37.5 -56.5t52 -46.5t58 -38q62 -35 130 -55.5t141 -20.5q49 -1 97 10.5t93 33.5t86 53t74 70q69 73 109 163.5t51 187.5q8 71 -7 137.5t-51 123.5 q-18 29 -43 53.5t-54.5 42.5t-63.5 28t-71 10q-42 0 -84.5 -13.5t-84.5 -31.5l-66 -26t-70 -18q-12 1 -21 6t-15.5 13t-11.5 17l-10 18q-19 41 -19 86q5 41 28.5 77.5t56.5 60.5q36 26 76.5 40.5t82.5 12.5q32 0 62 -9t59 -20l59.5 -21.5t61.5 -12.5q21 -3 45.5 0t44.5 13 t33 28t11 46q1 29 -8.5 54.5t-26 47t-38 39t-44.5 31.5q-48 29 -102 41t-111 14q-85 0 -169 -23t-159 -74q-36 -24 -69.5 -54.5t-59.5 -65.5t-44 -74.5t-23 -82.5q-14 -81 -10 -162.5t32 -156.5q13 -38 37.5 -70.5t57 -56t72 -35.5t83.5 -10q45 -2 88 9.5t86 24.5l87 25 t88 12q9 0 16 -2t15 -6q9 -27 10 -56.5t-3 -58.5q-3 -22 -7 -44.5t-12 -46t-22.5 -46t-38.5 -44.5q-40 -29 -88 -38t-95 -9q-82 0 -157 30l-45.5 25.5t-46.5 24.5q-22 15 -46 22.5t-51 9.5q-18 3 -34.5 -3.5t-28.5 -19.5t-19 -30.5t-5 -34.5zM1164 705l5 -5zM1169 700l2 -2 q1 0 3 -2z" />
<glyph unicode="t" horiz-adv-x="1275" d="M119 1159l2 17q10 40 33 66t52.5 43t62.5 27.5t62 18.5q35 8 78.5 17l78.5 16l-2 -2q76 17 148 29t141 20q32 3 62.5 5t65.5 2h26q14 0 25 -1q34 -4 68.5 -13t66.5 -25t59 -38.5t45 -53.5l85 -94q31 -33 45 -82v-17q-5 -22 -14.5 -42.5t-24 -37.5t-34 -29t-43.5 -16 q-14 -2 -30 -3.5t-34 -1.5q-11 0 -22 1t-22 1t-22 1t-22 1q-9 0 -17 0.5t-17 0.5q-12 0 -22.5 -1t-22.5 -4l-1 -30q-5 -26 -7 -53q-17 -120 -31 -237.5t-26 -237.5l-8 -89.5t-9 -89.5l-5 -50q-2 -30 -5 -62.5t-7 -63.5q-5 -33 -13 -71.5t-25.5 -73t-48 -60.5t-78.5 -32 q-77 10 -120 58l-89 99q-39 26 -59.5 68t-28.5 90t-7.5 99t2.5 95q0 6 -1 12.5t1 12.5q2 36 7 68.5t13 64.5q2 8 2.5 15.5t2.5 15.5q2 7 2.5 14.5t2.5 14.5q0 5 2 11.5t3 14.5q0 4 2 7.5t2 7.5q11 51 20 100.5t16 100.5l2 51.5t-1 51.5q-10 -3 -19 -3.5t-20 -0.5h-22 q-65 0 -120 29l2 -1q-20 9 -34 25l-94 101q-33 20 -47.5 52.5t-12.5 70.5zM164 1171q-7 -31 5 -58.5t39 -40.5q29 -16 61 -21.5t66 -2.5q23 2 44 6t44 6q25 8 49 10.5t47 6.5q10 -73 11.5 -146.5t-3.5 -148.5q-8 -56 -18 -109.5l-21 -109.5l-21 -106.5t-15 -106.5 q-2 -50 -3 -110.5t11 -115.5t44 -95.5t95 -48.5q36 4 58.5 25.5t35.5 51t19 63t10 61.5l10 88t7 88q5 45 9 88.5l8 88.5l27 238.5t31 237.5q4 27 7.5 55t6.5 55q27 13 55.5 14t56.5 -1q36 0 73 -3t72 5q36 5 57 32.5t27 59.5q-10 37 -33 63.5t-53.5 43.5t-66.5 26.5 t-71 13.5q-41 2 -83.5 0.5t-84.5 -5.5q-75 -9 -150.5 -21.5t-150.5 -29.5l-68 -13.5t-68 -14.5l-53 -15.5t-53 -22t-44 -33t-26 -48.5z" />
<glyph unicode="u" horiz-adv-x="1295" d="M139.5 610.5q2.5 64.5 8.5 128.5q3 20 5 37.5t4 37.5q14 121 34.5 245t67.5 247q26 48 69 75.5t92 31.5q8 2 13 2h12q38 0 66 -20.5t44 -51.5l90 -99q13 -15 21.5 -35t12.5 -40l2 -2q9 -44 10 -86t-3 -84l-2 -24q-9 -78 -21 -155l-25 -154q-13 -72 -23.5 -143t-15.5 -140 l-5 -48q48 1 82 28t56 68.5t33.5 90.5t15.5 94l4 23q8 97 8.5 196t-8.5 200q-3 38 -4 82t-1 88q0 3 -1 5.5t-1 6.5l2 12q2 29 12 59.5t28 55t44.5 40.5t61.5 16q5 0 12 -0.5t14 -3.5q45 -6 75.5 -31.5t52.5 -58.5l90 -97q21 -23 34.5 -51t24.5 -57q19 -67 29 -135.5t13 -137 t0.5 -137.5t-8.5 -138v-10q-11 -115 -49.5 -227.5t-101.5 -214.5h2q-31 -52 -71.5 -103t-90 -91.5t-107 -65.5t-123.5 -25h-21q-90 0 -168 37t-136 100l-78 85q-45 40 -79.5 89t-53.5 107q-23 60 -34 123t-14 127t-0.5 128.5zM182.5 614q-2.5 -63 0.5 -124.5t14 -122 t32 -118.5q20 -59 57 -109.5t86.5 -87t109.5 -56t126 -16.5q59 -1 111.5 22.5t98 61t83 85t67.5 95.5q60 100 97 211t46 224q11 137 7 271.5t-39 262.5q-8 24 -20 48t-29.5 43.5t-40 32.5t-50.5 16q-31 5 -53 -8t-36 -35.5t-20 -50.5t-6 -52q0 -42 0.5 -83t4.5 -83 q11 -100 10 -201.5t-10 -202.5q-3 -53 -17 -114.5t-43 -114t-75 -87t-114 -31.5q-17 1 -35.5 3t-35 7.5t-30 14.5t-22.5 26q-15 31 -15.5 67.5t2.5 72.5q5 80 16.5 158t25.5 156q13 78 24.5 154t21.5 154q5 46 4.5 91.5t-9.5 90.5q-2 19 -10.5 36.5t-22 29.5t-31 17.5 t-38.5 1.5q-40 -1 -74 -22.5t-54 -57.5q-26 -66 -42.5 -134.5t-28 -138t-19.5 -139.5l-16 -139q-6 -62 -8.5 -125zM679 1167q0 -1 1 -1h1z" />
<glyph unicode="v" horiz-adv-x="1133" d="M161 1155q-1 7 1 21q0 2 1 7t3 13q4 26 12.5 55.5t23.5 56.5t37.5 48t54.5 30q8 9 17.5 15.5t26.5 6.5q36 0 64 -23.5t45 -55.5l87 -93q18 -20 29.5 -43.5t16.5 -45.5q7 -32 9 -61.5t2 -58.5v-26t1 -28l4 -67t6 -65l26 93v-2q16 63 36.5 132t47.5 146q2 7 5.5 13.5 t7.5 17.5q13 30 27 58t32.5 51t43.5 38t61 20q49 -7 83 -31.5t54 -62.5l88 -94q26 -31 39 -71t11 -82l-3 -26q-5 -48 -13 -97t-25 -97l-70 -207h2q-20 -73 -42 -144l-45 -143h1q-10 -37 -21 -69.5t-21 -70.5l-15.5 -39.5l-15.5 -42.5l-36 -96.5t-47 -93t-67.5 -77.5 t-96.5 -50q-22 1 -45 2.5t-45 6.5t-42.5 14.5t-36.5 24.5l-99 107q-5 4 -11.5 8t-11.5 9q-28 32 -46 70.5t-29 78.5q-24 78 -38 158t-25 164q-4 39 -6 79l-4 80l-2 -2v9q0 5 -1 10l-4 74.5t-7 74.5q-1 14 -3 28l-4 28l-5 56l-12 110.5t-6 120.5q0 1 -1 5.5t-3 9.5l2 3 q-2 5 -3 12zM205 1176q-2 -13 0.5 -23.5t2.5 -24.5q3 -86 13.5 -169.5t19.5 -168.5q8 -81 10.5 -161t13.5 -161q10 -80 24 -159.5t37 -156.5q9 -36 24.5 -70.5t40.5 -62.5q13 -13 30 -20.5t35.5 -11.5t38 -5.5t37.5 -1.5q56 16 93 57t63 92.5t44.5 108t37.5 103.5l67.5 216 t63.5 218l70 208q14 45 23 92.5t13 93.5l2 26q2 30 -5 59t-22.5 52.5t-39.5 39t-56 19.5q-30 -4 -50 -20t-35 -39.5t-27 -52.5l-25 -58q-23 -65 -42.5 -134l-37.5 -136l-63 -242q-8 -30 -13 -59.5t-10.5 -58.5t-12.5 -57.5t-19 -56.5q-9 39 -20.5 79l-22.5 80.5t-20.5 81 t-13.5 81.5q-8 81 -19.5 161.5t-17.5 161.5q-3 42 -2.5 84t-7.5 85q-4 16 -12.5 34t-20 32.5t-26.5 24t-33 9.5q-5 0 -11.5 -8.5t-11.5 -9.5q-25 -4 -43 -20t-30.5 -38t-20 -47t-10.5 -47q-1 -5 -1 -10t-2 -9z" />
<glyph unicode="w" horiz-adv-x="1584" d="M164 456q0 13 1 26l2 27l4 35t5 35v13q1 4 2 8.5t1 8.5q2 5 3 11t1 11q1 5 1.5 11.5t3.5 12.5v-1q4 22 6.5 42.5t5.5 40.5l3 41q3 32 3.5 65t0.5 67q-2 9 -1 18.5t1 20.5q-2 9 -2 18v18q0 31 1.5 62.5t3.5 66.5q2 25 5.5 50t6.5 49q0 3 1 7.5t2 8.5v-2q0 5 2 9l3 6 l14.5 39.5t25.5 39.5q8 11 18 23t22.5 22t28.5 16.5t36 6.5h7q2 0 4 1t5 1q50 0 89.5 -27.5t62.5 -71.5l85 -91q18 -19 30.5 -43.5t19.5 -51.5q20 42 46.5 81t62.5 78q19 11 33.5 16t32.5 8h21q33 0 64 -15.5t54 -39.5q2 -5 4 -9.5t4 -9.5l89 -97q3 36 3 73q0 9 1 20.5 t1 22.5q2 11 2.5 21.5t2.5 21.5q4 26 12.5 52.5t37.5 52.5q32 14 52.5 19t37.5 5h15l-1 2q31 -7 62.5 -17.5t51.5 -37.5l7.5 -11.5t6.5 -12.5l100 -107q28 -42 43 -87.5t21.5 -94t7.5 -98.5t0 -99v-77v-5q-2 -13 -2 -27q0 -13 -1 -26q-8 -93 -25.5 -181.5t-39.5 -176.5 q-27 -98 -59 -195.5t-88 -193.5q-15 -23 -33.5 -45.5t-40.5 -41t-48 -31t-57 -15.5h-9q-32 0 -56.5 12.5t-42.5 33.5l-88 97q-31 20 -51 49t-31 60q-13 32 -24 65l-22 68l-23.5 -46l-24.5 -48q-12 -19 -22 -38t-21 -38l-41.5 -72.5t-45.5 -64.5t-56.5 -50t-73.5 -28 q-42 5 -75 24t-58 46l-87 95q-44 32 -71 81t-40 100q-23 67 -29 138.5t-3 143.5zM208 459q-2 -71 4.5 -140.5t26.5 -135.5q10 -32 24.5 -64t35.5 -58t49 -44t65 -22q43 8 74 35.5t56 65.5t48 82.5t49 86.5q42 79 77 159.5l70 162.5q22 -126 56.5 -248t78.5 -240 q7 -19 17.5 -38.5t25.5 -35t34.5 -24.5t43.5 -8q24 3 45.5 13.5t39.5 26.5t33.5 35.5t29.5 39.5q52 88 82.5 184.5t57.5 192.5q26 100 44.5 201t23.5 203q-1 56 0.5 114t-3 115t-18.5 110.5t-45 99.5q-13 17 -34 23.5t-41 10.5q-17 2 -36.5 0.5t-49.5 -14.5 q-17 -15 -21.5 -35.5t-8.5 -41.5q-3 -19 -4 -37t-3 -38q-5 -146 -22 -291.5t-40 -291.5q-5 50 -11.5 98.5t-11.5 99.5q-13 81 -29.5 159t-35.5 156q-5 23 -14 44t-20 42q-17 17 -39 26.5t-47 7.5q-14 -2 -27 -3.5t-26 -10.5q-29 -33 -52.5 -69.5t-44 -75.5t-39 -78.5 l-38.5 -78.5l-82 -178t-73 -182q5 137 14 271.5t20 271.5q3 31 5.5 61.5t-1.5 59.5q-5 25 -19 46.5t-34 37.5t-44.5 24t-51.5 5q-23 0 -40.5 -17.5t-31.5 -34.5q-17 -17 -22 -40t-13 -43q-9 -56 -13.5 -111.5t-2.5 -110.5q-2 -58 0 -116t-5 -116q-2 -38 -9 -76t-13 -76 q-4 -38 -9 -73.5t-5 -73.5z" />
<glyph unicode="x" horiz-adv-x="1326" d="M121 188q9 71 42.5 130t73.5 112h1t1 2q2 1 4 4t4 4h-1q4 7 9 14l10 14q4 6 9.5 12.5t10.5 14.5h-2l25.5 33l26.5 33h-2l48 66.5l47 65.5q0 1 14 31q2 4 3.5 6.5t3.5 5.5q-4 8 -7.5 16t-8.5 16l-10 23l-13 32l-42.5 87.5t-39.5 89.5q-3 6 -5 12l-3 3t-1 4l-23.5 58.5 t-19.5 60.5t-12 63t-1 67v5q4 31 19 55.5t37 42t48.5 27t52.5 12.5v1q6 2 14 2h20q33 0 64.5 -11.5t53.5 -36.5q4 -6 6.5 -11.5t6.5 -10.5l99 -109q14 -25 23.5 -44.5t17.5 -39.5l31 53q2 4 2.5 7t2.5 7l25.5 45.5t17.5 32.5v-1q2 4 6 10t2 2l9 13q2 0 2 1v1v2h1q0 1 2 3 q9 15 19 30t23 27t30 20t41 10q53 -5 94 -33.5t64 -72.5l84 -90q26 -29 40.5 -64.5t14.5 -75.5q-10 -60 -33.5 -113.5t-55.5 -103t-70 -96l-77 -92.5q-14 -17 -26 -33l-25 -33l107 -213l60.5 -118l59.5 -118q19 -40 36 -81.5t12 -92.5v-3q-5 -31 -22.5 -56t-41.5 -44 t-53 -30t-57 -14q-45 2 -77 18t-55 42l-85 92q-36 24 -60 62t-44 76q-7 12 -13.5 22t-8.5 14q-8 16 -19 46q-9 -14 -16.5 -27.5l-14.5 -26.5q-13 -23 -24 -45.5l-22 -45.5l-23 -47.5t-25 -46.5l-12 -20l-1 2q-10 -19 -22 -38t-27.5 -35t-35.5 -27.5t-45 -14.5 q-38 3 -68 18.5t-52 39.5l-88 96q-47 31 -70 84.5t-21 113.5zM164 188q-2 -33 7 -65.5t27 -58.5t45 -42.5t62 -19.5q21 2 37 14t29 28.5t23.5 35l20.5 34.5q24 45 45.5 91.5t46.5 91.5q26 48 54.5 94t63.5 89l62 -148l61 -148q16 -27 33 -59t38 -59t48 -45.5t65 -18.5 q22 2 45 10.5t42 22.5t32.5 33t18.5 43q4 44 -11 81.5t-33 73.5l-119 235.5l-119 235.5q42 54 89 108t88.5 111t73 118.5t43.5 130.5q0 31 -11 60t-30.5 51.5t-46.5 37t-59 16.5q-18 -2 -32 -12.5t-24.5 -24.5t-20 -30.5t-18.5 -29.5q-22 -35 -40 -70.5l-37 -70.5 q-20 -38 -42.5 -74t-48.5 -70q-19 60 -41 118.5t-42 118.5l-23 56.5t-28 53.5q-20 22 -50 31t-61 3q-20 -2 -40.5 -8.5t-38 -18.5t-29 -29.5t-14.5 -39.5q-3 -35 2 -68t14.5 -65t22.5 -63.5l25 -61.5l64 -139.5l65 -139.5q-10 -17 -19 -34.5t-20 -34.5l-88.5 -126 l-90.5 -125l-38 -53t-35 -55.5t-27.5 -58t-15.5 -61.5z" />
<glyph unicode="y" horiz-adv-x="1172" d="M177 1188q2 14 3.5 29t3.5 29q3 24 13 50.5t27 50t41 40t54 19.5v2h2q5 2 10.5 2.5t18.5 0.5q40 0 74.5 -25.5t55.5 -62.5l85 -92q15 -17 25.5 -38t17.5 -41q2 -42 7 -80.5l10 -78.5l51 83l49 81q25 45 51 86l55 86q27 34 62 57.5t70 23.5q1 0 3.5 -1t4.5 -1h9 q42 -4 71.5 -27t49.5 -58l87 -94q29 -32 42 -76t11 -86v-4q-8 -36 -24 -66.5t-36 -61.5l-7.5 -11.5t-7.5 -12.5l-28 -38l-27 -37l-26.5 -36.5l-26.5 -36.5h-2q-58 -84 -110 -170.5t-95 -177t-76 -184.5t-53 -193q-7 -34 -23.5 -76t-36.5 -73l-2 2q-22 -36 -50 -46.5 t-60 -10.5h-21q-33 0 -60 12t-44 31l-92 101q-35 19 -51 55t-12 81v5q1 22 1.5 46t3.5 47q6 69 21 142t42 146q-32 41 -52.5 81.5t-35.5 82.5t-25.5 85.5l-21.5 90.5q-17 82 -25.5 170.5t-0.5 177.5zM218 1046.5q8 -100.5 28 -193.5l22 -94.5t26.5 -87.5t37 -81.5 t54.5 -77.5q-38 -91 -54.5 -192.5t-19.5 -198.5q-3 -25 2.5 -47t19 -38.5t34 -26t47.5 -9.5q31 -2 57 3t43 35q10 13 18 29.5t15 34.5t12 36t8 33q21 100 55 196.5t78 188.5t97.5 180.5t112.5 174.5l53 74l53 73l42.5 66t25.5 71q2 28 -3.5 57.5t-19.5 53.5t-36 40.5 t-53 18.5q-29 5 -55.5 -9.5t-43.5 -37.5q-31 -45 -59 -90l-54 -91l-108.5 -176t-101.5 -179q-28 72 -46 147.5t-32 152.5q-5 48 -10.5 95t-10.5 96q-5 22 -17 41.5t-29 33t-38 18.5t-45 -1q-21 -2 -38 -14t-29.5 -29.5t-19.5 -38t-9 -39.5q-17 -97 -9 -197.5z" />
<glyph unicode="z" horiz-adv-x="1316" d="M171 171q9 54 27.5 103t42.5 95t52.5 89.5l58.5 87.5q8 11 13.5 20.5t13.5 20.5q11 17 20.5 29t20.5 29q9 11 18.5 26.5t18.5 26.5h-1l75 109.5l80 115.5q-62 -12 -125 -15q-9 -2 -19 -2h-22q-35 0 -69.5 9t-56.5 34l-95 104q-26 14 -40 39t-12 63l2 17q25 49 61.5 81.5 t78.5 54t87 35t89 24.5v2q14 4 29.5 7.5t28.5 7.5q78 18 156.5 27t155.5 9q29 0 59 -1.5t59 -3.5q44 -7 74 -17.5t51 -23.5q28 -23 54 -47.5t43 -53.5l70 -78l1 -2l12 -10q18 -22 32 -45.5t16 -50.5l-3 -19q-38 -87 -93 -168.5t-114 -160.5h2l-53.5 -72.5l-52.5 -74.5 l-52.5 -74.5l-51.5 -75.5h-2q-2 -4 -5 -7q13 3 26.5 5l26.5 4h10q62 0 123 -43q9 -8 16.5 -19t14.5 -24l94 -100q15 -17 24 -40.5t7 -51.5v-11q-5 -41 -28.5 -74.5t-55.5 -56.5q-20 -14 -42 -25t-45 -19q-8 -5 -16 -7.5t-17 -6.5l-134.5 -51t-138.5 -44.5t-141.5 -31 t-143.5 -11.5h-26t-23 1q-27 4 -48.5 16.5t-36.5 29.5l-89 98q-20 13 -34 28t-24 33q-16 26 -26 60t-8 77zM213 169q-1 -29 8.5 -57t22.5 -52q14 -23 35 -42t50 -23q74 -5 148.5 5t148.5 29.5t146.5 45.5l143.5 53q27 13 56 25t55 30t44.5 43.5t22.5 56.5q5 26 -5.5 50 t-30.5 39q-44 32 -101 29q-37 -2 -71.5 -12.5t-68.5 -24.5q-35 -16 -69 -28.5l-69 -26.5q-35 -13 -69.5 -27.5t-63.5 -37.5q29 66 67 126t80 120l89 125.5l90 125.5l80.5 114.5l82 113.5t77 116.5t64.5 122.5q-4 38 -26.5 64.5t-48.5 48.5q-29 20 -62.5 33.5t-69.5 17.5 q-101 11 -205.5 2.5t-207.5 -31.5q-45 -13 -94.5 -25t-96 -31t-85.5 -48t-63 -75q-6 -32 7.5 -51.5t37 -29t51.5 -11.5t52 1q56 3 112 14l112 22q57 12 112.5 19t112.5 9l-178.5 -253l-178.5 -253q-34 -56 -72 -111t-72.5 -111.5t-61.5 -116t-38 -123.5zM1270 1195q1 0 1 -2 z" />
<glyph unicode="{" horiz-adv-x="945" d="M79 650v2q3 36 19 64t40.5 48t54.5 33t61 20q-35 53 -55.5 114t-15.5 131l1 8q9 80 44.5 153.5t95.5 133.5q24 26 53 47.5t61.5 36.5t67 23.5t69.5 8.5q13 0 21.5 -1t17.5 -3h4q40 -4 75.5 -22.5t64.5 -47.5q11 -11 22 -25t19 -29l78 -84q25 -27 41.5 -61.5t15.5 -76.5 l-2 -7q-2 -26 -14.5 -47.5t-32 -36.5t-43 -23.5t-47.5 -8.5q-6 0 -11 0.5t-16 3.5q-2 1 -7 1h-8q-6 1 -17 2.5t-22 3.5l-19 3.5t-9 2.5q-23 -2 -41 -16.5t-20 -36.5v-3q2 -16 12 -31l21.5 -26t20.5 -27h2l14 -15q20 -20 32 -38l7 -7l36 -40t33 -44t25 -49t12 -56 q-3 -26 -11.5 -48.5t-21.5 -41.5q13 -18 22.5 -41t6.5 -52q-6 -28 -19 -53t-30 -48t-36.5 -43.5l-38.5 -39.5l-2 -2l-26 -29l-17 -17q35 -19 50 -53l92 -100q15 -17 23.5 -39t7.5 -48q-2 -4 -3 -7t-1 -7v-3q-6 -30 -20 -59t-35 -53.5t-48 -42t-59 -25.5q-14 -2 -28.5 -3.5 t-31.5 -1.5q-60 0 -114 19.5t-101 54.5q-33 23 -63 54l-71 79q-28 19 -52 45t-41 57.5t-26 67t-6 74.5l2 12q5 54 25 105.5t51 99.5l-75 83q-32 20 -50.5 51t-13.5 77zM121 650q-3 -35 13.5 -58t42.5 -37.5t58 -20t60 -3.5q9 -3 24.5 -1.5t28.5 1.5q-31 -32 -60 -67.5 t-51.5 -74.5t-37 -81t-16.5 -86q-2 -35 6.5 -67t25.5 -60t41 -51.5t51 -40.5q51 -38 115 -55t131 -6q25 6 46.5 20t38 33.5t27.5 43.5t16 48q6 22 0 42.5t-20.5 34.5t-34.5 20.5t-42 1.5q-44 -4 -80.5 13.5t-71.5 37.5q23 51 61 92.5l75 83.5q36 36 69.5 76.5t45.5 89.5 q1 26 -12 47t-31 36q17 18 30 40.5t14 46.5q-2 28 -12 52.5t-24.5 46.5t-32.5 42l-35 38q-15 18 -32.5 35.5t-33 36t-27.5 39.5t-16 45q-1 24 10 43.5t29 33t40 19t44 1.5q17 -2 34.5 -6l35.5 -8q18 -5 38.5 -0.5t37 16t27.5 29t11 39.5q2 35 -13 65t-40 53q-22 23 -52 38.5 t-64 19.5q-35 6 -70 1t-68.5 -18.5t-63.5 -34t-55 -47.5q-54 -53 -85 -120t-40 -138q-5 -42 2 -81t22.5 -75t38 -68.5t48.5 -60.5q-32 0 -68.5 -6t-68.5 -21.5t-54.5 -41.5t-25.5 -66zM783 563l12 -13q-4 4 -6 7.5t-6 5.5z" />
<glyph unicode="|" horiz-adv-x="650" d="M121 179q4 131 10 261.5t17 260.5l9 93l4 52t6 52q8 55 12 107l15.5 125.5t12.5 125.5q2 14 4.5 29t5.5 31q4 29 9.5 59.5t16.5 59.5t30.5 56t50.5 50q13 4 24 6.5t22 2.5q39 0 66.5 -23t44.5 -54l86 -94q22 -24 35 -56.5t18 -61.5q5 -44 5.5 -79.5t2.5 -68.5 q0 -16 1 -30t1 -28q2 -109 -1.5 -219t-14.5 -222v-1q-2 -20 -3.5 -37t-2.5 -35q-2 -18 -4.5 -37.5t-4.5 -37.5l-4 -35l-4 -35l-4 -35.5t-3 -34.5l-19 -215q-3 -27 -6.5 -52.5t-7.5 -48.5q-1 -8 -3 -17t-2 -17l-16 -69t-23 -69q-7 -19 -16 -38.5t-22 -37.5t-31.5 -32.5 t-44.5 -23.5h-11q-26 0 -44.5 9.5t-32.5 23.5l-95 102q-18 10 -30.5 25.5t-20.5 33.5t-13 37.5l-9 36.5l1 -1l-5 10q-4 5 -2 10q-5 42 -6.5 90t-3.5 96zM164 183q2 -45 3.5 -90.5t6.5 -90.5l11 -43t16.5 -43t27.5 -32.5t44 -11.5q17 5 30 16.5t22.5 26.5t16.5 31.5l13 31.5 q14 32 22 65l16 66q5 38 11 76t7 76q3 25 7 48t2 48l8 97q5 35 8.5 71t8.5 71q5 37 8.5 73t7.5 73q10 111 13 219.5t0 217.5l-2 101t-6 101q-4 22 -13 47t-24.5 44.5t-37.5 29t-51 0.5q-30 -22 -45 -52t-23 -63.5t-12 -68t-11 -65.5q-5 -62 -12 -124t-15 -124l-14.5 -127 t-12.5 -127q-14 -143 -20.5 -284t-10.5 -284z" />
<glyph unicode="}" horiz-adv-x="944" d="M111 118v7q3 27 17 48.5t35 36t45.5 22t47.5 7.5q7 0 15 -0.5t16 -2.5q10 -5 19.5 -7t17.5 -4h2l2 2q4 -3 12 -3q3 -2 12 -2q5 -2 8 -2q22 0 40.5 14.5t21.5 35.5q-8 28 -28 51l-41 46q-9 8 -21.5 21.5l-19.5 21.5h2l-37 41t-34.5 45t-26 51t-11.5 59q2 24 10.5 45.5 t21.5 39.5q-14 20 -22.5 43t-6.5 51q12 51 41.5 91t64.5 75q4 4 10 12q4 2 7 6l21 24q2 3 4 5.5t4 5.5q7 5 12 10l12 12q-15 8 -22 20l-94 103q-29 17 -45.5 46.5t-12.5 67.5v14q6 32 20 62.5t35.5 55t49 42.5t59.5 24q14 2 30.5 3.5t35.5 1.5q60 0 114.5 -17.5t99.5 -52.5 v2q28 -20 53.5 -45.5t43.5 -57.5l78 -83q36 -40 58 -91t18 -111l-2 -8q-4 -54 -24 -103.5t-50 -96.5q11 -12 16 -24l87 -94l7 -6q15 -17 22 -40t5 -53v-3q-3 -37 -19.5 -65.5t-41.5 -48.5t-55.5 -33t-62.5 -19q37 -51 59 -112.5t16 -131.5l-2 -10q-9 -78 -42 -151t-91 -132 l-2 2q-51 -54 -119 -84.5t-138 -30.5h-21q-9 0 -17 2h-2q-38 6 -74 25.5t-60 46.5l-87 95q-12 8 -22.5 17.5t-18.5 20.5q-26 27 -41.5 61.5t-11.5 78.5q0 1 -1 2t-1 3zM155 113q-4 -36 12.5 -65.5t39.5 -52.5q22 -25 52 -41t65 -21q34 -4 69.5 1t69 18t64.5 33t57 47 q51 54 82.5 121t40.5 139q5 42 -2.5 80.5t-23 74.5t-38.5 68t-49 60q32 -1 69 5.5t69 22.5t54 42.5t25 66.5q4 35 -12.5 57.5t-42.5 35.5t-57.5 18.5t-58.5 5.5q-9 2 -25.5 0.5t-27.5 -0.5q31 31 59.5 67t50.5 75t35.5 81t16.5 86q3 35 -6 67.5t-25.5 61t-40 52t-49.5 41.5 q-51 38 -116 54.5t-131 3.5q-25 -5 -46.5 -19t-38 -33.5t-28 -43t-15.5 -47.5q-5 -23 1.5 -42.5t21 -34t34.5 -21t42 -1.5q22 2 41.5 -2t38.5 -11.5t36.5 -17l34.5 -19.5q-23 -51 -61 -93.5l-75 -83.5l-35.5 -38t-34.5 -40t-28 -43.5t-18 -47.5q-3 -27 11.5 -47t32.5 -37 q-18 -18 -31.5 -39.5t-16.5 -45.5q2 -27 12.5 -51.5t25.5 -47t33 -42.5l35 -38q15 -17 32.5 -34t33.5 -35.5t28 -39.5t17 -45q1 -24 -10 -43.5t-29 -33t-40.5 -20t-44.5 -2.5l-35 7.5t-35 8.5q-19 3 -40 -1t-38 -14.5t-28 -27.5t-9 -39zM324 404q3 -2 4 -5.5t5 -5.5z M360 563q3 -2 4.5 -3.5t4.5 -3.5z" />
<glyph unicode="~" horiz-adv-x="1285" d="M138 729l2 13q3 37 19.5 66.5t40.5 53.5t53 43.5l56 36.5v-5l2 2l4 2t4 3q51 26 103.5 46t108.5 20h13q42 0 72 -16.5t58 -36.5q18 -13 37 -24.5t38 -14.5q25 4 49.5 13t44.5 25q33 18 70 32t75 14h5q53 -4 99 -29t69 -70l90 -97q35 -38 39 -87l-1 -18q-3 -26 -15.5 -48 t-30.5 -39t-39.5 -29.5t-42.5 -19.5q-22 -9 -44 -20t-45 -24l-5 -2q-54 -22 -108 -40.5t-116 -21.5q-42 0 -76.5 16.5t-65.5 38.5h-1l-38.5 26t-38.5 17q-23 -3 -44.5 -13.5t-42.5 -26.5t-40 -36t-35 -40h-29q-3 0 -5.5 0.5t-4.5 0.5q-34 4 -61 18.5t-47 36.5l-87 96 q-9 6 -18.5 13.5t-15.5 16.5q-25 22 -38.5 49.5t-16.5 58.5zM183 737q2 -26 13 -48t31 -39q17 -18 37.5 -30t46.5 -14q5 0 9 -1t9 -1q17 21 37.5 41t44 36t49 26.5t52.5 12.5q29 -4 51.5 -19l44.5 -30q26 -20 56.5 -34t65.5 -14q57 2 110.5 21.5t106.5 41.5q21 13 44 23.5 l43 19.5q18 6 36.5 16.5t33 24.5t23.5 31.5t8 38.5q-3 27 -16 48.5t-33 36.5t-45 24t-51 10q-34 2 -66.5 -11t-61.5 -28q-26 -18 -55.5 -29t-60.5 -15q-29 2 -53 16t-46 30q-26 17 -53.5 32.5t-61.5 13.5q-27 0 -54 -6t-53.5 -16t-52.5 -22.5l-51 -24.5l-47 -30t-44 -35.5 t-33 -43t-14 -53.5zM582 642q2 -2 3 -2l2 2h-5z" />
<glyph unicode="&#x85;" horiz-adv-x="1384" d="M97 147q2 23 10.5 43t21 38t27.5 33l30 29q29 29 64.5 46.5t77.5 21.5h8q38 0 69.5 -20.5t46.5 -52.5l26 -29l15 20t16 19q29 32 67.5 54.5t80.5 22.5t79 -21.5t58 -58.5l39 -41q4 8 9 14.5t10 14.5h-2q23 32 56.5 54.5t71.5 22.5h10q44 0 80 -21.5t60 -53.5l2 1 q4 -8 8.5 -14.5t8.5 -14.5l102 -112q21 -30 30.5 -67t5.5 -75l-2 -15q-5 -39 -25.5 -71t-51 -55t-67 -35.5t-71.5 -12.5h-5q-28 0 -54.5 11t-45.5 31l-50 55q-24 -42 -66.5 -68t-90.5 -26q-4 0 -6.5 1t-7.5 1h-8q-40 0 -71.5 18.5t-53.5 42.5l-34 38q-8 -24 -22 -46 q-32 -36 -64.5 -47t-63.5 -11h-10q-42 1 -77.5 17.5t-61.5 45.5l-88 97l-18.5 14t-15.5 15q-30 29 -44 66.5t-13 80.5zM140 148q-2 -35 10.5 -66t37.5 -53q22 -23 52 -37t64 -16q24 -2 50.5 6.5t55.5 39.5q14 20 16.5 44t6.5 47q0 35 -1 70.5t-14 67.5q-8 29 -34 48t-58 17 q-32 -3 -61 -18.5t-53 -38.5q-25 -22 -47.5 -49.5t-24.5 -61.5zM483 150q-4 -33 6.5 -63t32.5 -55q20 -22 47 -37.5t59 -13.5q30 -4 58.5 6.5t50.5 30t35.5 46.5t12.5 57q7 38 -1 73.5t-25 66.5q-11 32 -40.5 50t-64.5 18q-32 0 -60 -16.5t-51 -39.5q-22 -27 -40 -57.5 t-20 -65.5zM840 148q-2 -32 2.5 -64.5t21.5 -59.5q14 -25 38.5 -37.5t53.5 -10.5q29 0 58.5 10t54 28t41 43.5t20.5 56.5q5 35 -1.5 70t-25.5 62q-20 28 -50.5 48t-67.5 20q-29 4 -53 -11.5t-39 -37.5q-21 -26 -36.5 -55.5t-16.5 -61.5z" />
<glyph unicode="&#x2026;" horiz-adv-x="1384" d="M97 147q2 23 10.5 43t21 38t27.5 33l30 29q29 29 64.5 46.5t77.5 21.5h8q38 0 69.5 -20.5t46.5 -52.5l26 -29l15 20t16 19q29 32 67.5 54.5t80.5 22.5t79 -21.5t58 -58.5l39 -41q4 8 9 14.5t10 14.5h-2q23 32 56.5 54.5t71.5 22.5h10q44 0 80 -21.5t60 -53.5l2 1 q4 -8 8.5 -14.5t8.5 -14.5l102 -112q21 -30 30.5 -67t5.5 -75l-2 -15q-5 -39 -25.5 -71t-51 -55t-67 -35.5t-71.5 -12.5h-5q-28 0 -54.5 11t-45.5 31l-50 55q-24 -42 -66.5 -68t-90.5 -26q-4 0 -6.5 1t-7.5 1h-8q-40 0 -71.5 18.5t-53.5 42.5l-34 38q-8 -24 -22 -46 q-32 -36 -64.5 -47t-63.5 -11h-10q-42 1 -77.5 17.5t-61.5 45.5l-88 97l-18.5 14t-15.5 15q-30 29 -44 66.5t-13 80.5zM140 148q-2 -35 10.5 -66t37.5 -53q22 -23 52 -37t64 -16q24 -2 50.5 6.5t55.5 39.5q14 20 16.5 44t6.5 47q0 35 -1 70.5t-14 67.5q-8 29 -34 48t-58 17 q-32 -3 -61 -18.5t-53 -38.5q-25 -22 -47.5 -49.5t-24.5 -61.5zM483 150q-4 -33 6.5 -63t32.5 -55q20 -22 47 -37.5t59 -13.5q30 -4 58.5 6.5t50.5 30t35.5 46.5t12.5 57q7 38 -1 73.5t-25 66.5q-11 32 -40.5 50t-64.5 18q-32 0 -60 -16.5t-51 -39.5q-22 -27 -40 -57.5 t-20 -65.5zM840 148q-2 -32 2.5 -64.5t21.5 -59.5q14 -25 38.5 -37.5t53.5 -10.5q29 0 58.5 10t54 28t41 43.5t20.5 56.5q5 35 -1.5 70t-25.5 62q-20 28 -50.5 48t-67.5 20q-29 4 -53 -11.5t-39 -37.5q-21 -26 -36.5 -55.5t-16.5 -61.5z" />
<glyph horiz-adv-x="628" d="M138 1318q6 32 25 54t45.5 36.5t56 21t56.5 7.5q38 -15 64.5 -42t44.5 -60l77 -82q28 -31 46.5 -68.5t33.5 -75.5q3 -9 7 -16.5t7 -15.5l25 -64.5t21 -66.5t14 -69.5t3 -72.5v-4q-3 -27 -17.5 -51.5t-36 -43.5t-48.5 -30.5t-57 -12.5q-27 9 -48.5 24t-38.5 33l-85 90 q-44 31 -68.5 77t-44.5 94q-2 5 -5 10t-5 10l-9 21q-28 66 -48.5 139t-14.5 158zM179 1314q-3 -36 2 -71.5t14 -70t21.5 -68l25.5 -65.5l27 -61t31 -62t40 -53.5t56 -34.5q21 0 40.5 8.5t35 22.5t25.5 32.5t13 38.5q3 69 -17 132.5t-44 125.5l-24.5 59.5t-29 60t-38 51.5 t-52.5 35q-18 0 -39 -4.5t-39 -14t-31 -24.5t-17 -37z" />
<glyph unicode="&#x2018;" horiz-adv-x="628" d="M138 1318q6 32 25 54t45.5 36.5t56 21t56.5 7.5q38 -15 64.5 -42t44.5 -60l77 -82q28 -31 46.5 -68.5t33.5 -75.5q3 -9 7 -16.5t7 -15.5l25 -64.5t21 -66.5t14 -69.5t3 -72.5v-4q-3 -27 -17.5 -51.5t-36 -43.5t-48.5 -30.5t-57 -12.5q-27 9 -48.5 24t-38.5 33l-85 90 q-44 31 -68.5 77t-44.5 94q-2 5 -5 10t-5 10l-9 21q-28 66 -48.5 139t-14.5 158zM179 1314q-3 -36 2 -71.5t14 -70t21.5 -68l25.5 -65.5l27 -61t31 -62t40 -53.5t56 -34.5q21 0 40.5 8.5t35 22.5t25.5 32.5t13 38.5q3 69 -17 132.5t-44 125.5l-24.5 59.5t-29 60t-38 51.5 t-52.5 35q-18 0 -39 -4.5t-39 -14t-31 -24.5t-17 -37z" />
<glyph horiz-adv-x="620" d="M118 956q6 72 33 137.5t61 130.5q6 10 12.5 19t11.5 17q1 4 3 7.5t3 7.5q14 25 30 51t35.5 47.5t43.5 38t55 22.5q48 0 80.5 -23t49.5 -56l89 -97q26 -27 36 -65t8 -73v-14q-8 -84 -42 -164t-84 -154l-3 -5t-6 -12l-29 -40.5t-33.5 -37t-41.5 -28.5t-53 -15 q-31 2 -54 13.5t-40 31.5l-90 97q-21 12 -36 30.5t-24.5 40t-13 45.5t-1.5 48zM160 956q-2 -24 3.5 -48.5t18 -44.5t32.5 -33t47 -14q24 3 43.5 15t36 29.5t30 37.5l27.5 39q49 71 80.5 149.5t36.5 161.5q1 24 -4 49.5t-17.5 46t-32.5 34t-48 13.5q-33 -7 -56 -27.5 t-41.5 -47.5t-34 -56.5t-32.5 -54.5l-56.5 -122t-32.5 -127z" />
<glyph unicode="&#x2019;" horiz-adv-x="620" d="M118 956q6 72 33 137.5t61 130.5q6 10 12.5 19t11.5 17q1 4 3 7.5t3 7.5q14 25 30 51t35.5 47.5t43.5 38t55 22.5q48 0 80.5 -23t49.5 -56l89 -97q26 -27 36 -65t8 -73v-14q-8 -84 -42 -164t-84 -154l-3 -5t-6 -12l-29 -40.5t-33.5 -37t-41.5 -28.5t-53 -15 q-31 2 -54 13.5t-40 31.5l-90 97q-21 12 -36 30.5t-24.5 40t-13 45.5t-1.5 48zM160 956q-2 -24 3.5 -48.5t18 -44.5t32.5 -33t47 -14q24 3 43.5 15t36 29.5t30 37.5l27.5 39q49 71 80.5 149.5t36.5 161.5q1 24 -4 49.5t-17.5 46t-32.5 34t-48 13.5q-33 -7 -56 -27.5 t-41.5 -47.5t-34 -56.5t-32.5 -54.5l-56.5 -122t-32.5 -127z" />
<glyph horiz-adv-x="971" d="M166 1189q-4 38 0 79v9q7 34 26.5 56t46 35t56.5 19t57 9q33 -14 55.5 -36t37.5 -49l2 13q4 33 21 54.5t40.5 34.5t50 18.5t50.5 5.5h21q37 -15 61 -39.5t41 -52.5l79 -85v-4l8 -5q23 -27 39 -58.5l31 -62.5l2 -2q6 -14 13.5 -28.5t13.5 -27.5q0 -3 1 -5.5t1 -4.5h2 l23.5 -61t20.5 -63.5t13.5 -66t1.5 -69.5v-2q-5 -29 -20 -53t-36.5 -42t-48.5 -28t-55 -10q-27 8 -47.5 21.5t-36.5 30.5l-41 42q0 -2 1 -3.5t1 -3.5l-2 -8q-3 -28 -15 -51t-31.5 -39.5t-43.5 -25.5t-51 -9h-19q-26 11 -45.5 25t-36.5 32l-84 90q-22 15 -39 34t-30.5 40.5 t-24.5 45l-22 46.5q-5 6 -8.5 12t-4.5 8h1q-8 15 -13 26l-27 66.5t-22.5 69t-13.5 73.5zM208 1273q-4 -36 0.5 -71.5t14 -69.5t22 -67l25.5 -65q15 -29 29.5 -61.5t32.5 -61.5t41.5 -53t56.5 -37q21 -2 41 4t35.5 18.5t25.5 30t11 39.5q-2 72 -25 138.5l-45 131.5 q-14 27 -25.5 57t-25.5 58.5t-34 52t-50 35.5q-19 -2 -40 -6t-39.5 -13t-32.5 -23.5t-18 -36.5zM490 1324q-1 -38 6 -74.5t18 -72t24.5 -70.5l26.5 -69q14 -28 26.5 -60t28.5 -61t37.5 -52t54.5 -32q20 0 39.5 7.5t35.5 20t27 30.5t14 39q2 34 -3 67t-14.5 65t-21.5 63 l-24 61q-14 28 -27 59t-29.5 60t-38 52.5t-52.5 36.5q-17 1 -38.5 -1t-40.5 -10t-32.5 -22.5t-16.5 -36.5zM811 1256v4v-4z" />
<glyph unicode="&#x201c;" horiz-adv-x="971" d="M166 1189q-4 38 0 79v9q7 34 26.5 56t46 35t56.5 19t57 9q33 -14 55.5 -36t37.5 -49l2 13q4 33 21 54.5t40.5 34.5t50 18.5t50.5 5.5h21q37 -15 61 -39.5t41 -52.5l79 -85v-4l8 -5q23 -27 39 -58.5l31 -62.5l2 -2q6 -14 13.5 -28.5t13.5 -27.5q0 -3 1 -5.5t1 -4.5h2 l23.5 -61t20.5 -63.5t13.5 -66t1.5 -69.5v-2q-5 -29 -20 -53t-36.5 -42t-48.5 -28t-55 -10q-27 8 -47.5 21.5t-36.5 30.5l-41 42q0 -2 1 -3.5t1 -3.5l-2 -8q-3 -28 -15 -51t-31.5 -39.5t-43.5 -25.5t-51 -9h-19q-26 11 -45.5 25t-36.5 32l-84 90q-22 15 -39 34t-30.5 40.5 t-24.5 45l-22 46.5q-5 6 -8.5 12t-4.5 8h1q-8 15 -13 26l-27 66.5t-22.5 69t-13.5 73.5zM208 1273q-4 -36 0.5 -71.5t14 -69.5t22 -67l25.5 -65q15 -29 29.5 -61.5t32.5 -61.5t41.5 -53t56.5 -37q21 -2 41 4t35.5 18.5t25.5 30t11 39.5q-2 72 -25 138.5l-45 131.5 q-14 27 -25.5 57t-25.5 58.5t-34 52t-50 35.5q-19 -2 -40 -6t-39.5 -13t-32.5 -23.5t-18 -36.5zM490 1324q-1 -38 6 -74.5t18 -72t24.5 -70.5l26.5 -69q14 -28 26.5 -60t28.5 -61t37.5 -52t54.5 -32q20 0 39.5 7.5t35.5 20t27 30.5t14 39q2 34 -3 67t-14.5 65t-21.5 63 l-24 61q-14 28 -27 59t-29.5 60t-38 52.5t-52.5 36.5q-17 1 -38.5 -1t-40.5 -10t-32.5 -22.5t-16.5 -36.5zM811 1256v4v-4z" />
<glyph horiz-adv-x="944" d="M131 949v10q7 71 35.5 135t63.5 126q3 5 5 10.5t6 10.5q0 5 3 9.5t7 9.5l31 52.5t36.5 49.5t47 42t61.5 30h12q2 0 6.5 0.5t6.5 0.5q38 0 64.5 -20t41.5 -50l60 -70q18 22 41.5 37.5t57.5 19.5q46 0 78.5 -22.5t49.5 -56.5l90 -99q23 -27 34 -62t7 -71l-1 -19 q-7 -85 -40.5 -162.5t-81.5 -146.5q-5 -5 -11 -13.5t-11 -13.5h-2l-28.5 -38t-32 -35t-38.5 -28t-47 -17h-11q-31 0 -60 13t-49 35l-77 82q-17 -18 -40 -30t-52 -14h-7q-29 0 -52.5 11.5t-40.5 29.5l-91 99q-40 22 -58.5 65t-13.5 90zM174 952q-3 -24 2.5 -48.5t19 -43.5 t33.5 -30.5t47 -10.5q23 2 42 13.5t35 28.5t30 36.5l27 37.5q50 74 81.5 155t39.5 168q4 24 0 49.5t-16.5 45.5t-33 31t-49.5 7q-32 -10 -55.5 -31t-43 -47.5t-35.5 -56t-32 -55.5q-32 -59 -60 -121t-32 -128zM454 831q-2 -23 7.5 -41t25 -31t36 -19.5t40.5 -5.5 q24 4 43 17.5t36 31t31.5 37.5t29.5 38q51 70 83 148.5t37 162.5q2 25 -4 50t-19 45t-33.5 32.5t-47.5 12.5q-24 -3 -42.5 -17t-32.5 -33.5t-25.5 -41.5l-21.5 -41q-18 -51 -39 -100t-39 -100l-21.5 -48t-24.5 -47q-8 -12 -14.5 -24.5t-4.5 -25.5z" />
<glyph unicode="&#x201d;" horiz-adv-x="944" d="M131 949v10q7 71 35.5 135t63.5 126q3 5 5 10.5t6 10.5q0 5 3 9.5t7 9.5l31 52.5t36.5 49.5t47 42t61.5 30h12q2 0 6.5 0.5t6.5 0.5q38 0 64.5 -20t41.5 -50l60 -70q18 22 41.5 37.5t57.5 19.5q46 0 78.5 -22.5t49.5 -56.5l90 -99q23 -27 34 -62t7 -71l-1 -19 q-7 -85 -40.5 -162.5t-81.5 -146.5q-5 -5 -11 -13.5t-11 -13.5h-2l-28.5 -38t-32 -35t-38.5 -28t-47 -17h-11q-31 0 -60 13t-49 35l-77 82q-17 -18 -40 -30t-52 -14h-7q-29 0 -52.5 11.5t-40.5 29.5l-91 99q-40 22 -58.5 65t-13.5 90zM174 952q-3 -24 2.5 -48.5t19 -43.5 t33.5 -30.5t47 -10.5q23 2 42 13.5t35 28.5t30 36.5l27 37.5q50 74 81.5 155t39.5 168q4 24 0 49.5t-16.5 45.5t-33 31t-49.5 7q-32 -10 -55.5 -31t-43 -47.5t-35.5 -56t-32 -55.5q-32 -59 -60 -121t-32 -128zM454 831q-2 -23 7.5 -41t25 -31t36 -19.5t40.5 -5.5 q24 4 43 17.5t36 31t31.5 37.5t29.5 38q51 70 83 148.5t37 162.5q2 25 -4 50t-19 45t-33.5 32.5t-47.5 12.5q-24 -3 -42.5 -17t-32.5 -33.5t-25.5 -41.5l-21.5 -41q-18 -51 -39 -100t-39 -100l-21.5 -48t-24.5 -47q-8 -12 -14.5 -24.5t-4.5 -25.5z" />
<glyph horiz-adv-x="855" d="M135 707l3 41q6 61 33.5 119.5t71 104t100 73t121.5 27.5h19q55 0 101.5 -25.5t81.5 -63.5q15 -18 25 -38l89 -93q31 -38 51.5 -84.5t15.5 -101.5l-2 -17q-7 -71 -31.5 -138.5t-72.5 -123.5h-2q-23 -31 -52 -56t-62.5 -43t-70.5 -27.5t-74 -9.5h-11q-46 4 -80.5 21 t-59.5 44l-87 94q-33 23 -55 56.5t-35 73.5t-16.5 83t-0.5 84zM178.5 624.5q5.5 -53.5 26 -98.5t58 -75.5t94.5 -34.5q69 -2 132.5 31.5t106.5 90.5q45 55 69 121t28 135q4 46 -13.5 86.5t-46.5 73.5q-29 32 -68 53.5t-85 21.5q-62 5 -116 -20t-95 -68.5t-65 -99.5t-25 -114 q-6 -49 -0.5 -102.5z" />
<glyph unicode="&#x2022;" horiz-adv-x="855" d="M135 707l3 41q6 61 33.5 119.5t71 104t100 73t121.5 27.5h19q55 0 101.5 -25.5t81.5 -63.5q15 -18 25 -38l89 -93q31 -38 51.5 -84.5t15.5 -101.5l-2 -17q-7 -71 -31.5 -138.5t-72.5 -123.5h-2q-23 -31 -52 -56t-62.5 -43t-70.5 -27.5t-74 -9.5h-11q-46 4 -80.5 21 t-59.5 44l-87 94q-33 23 -55 56.5t-35 73.5t-16.5 83t-0.5 84zM178.5 624.5q5.5 -53.5 26 -98.5t58 -75.5t94.5 -34.5q69 -2 132.5 31.5t106.5 90.5q45 55 69 121t28 135q4 46 -13.5 86.5t-46.5 73.5q-29 32 -68 53.5t-85 21.5q-62 5 -116 -20t-95 -68.5t-65 -99.5t-25 -114 q-6 -49 -0.5 -102.5z" />
<glyph horiz-adv-x="954" d="M138 708q17 49 47 77t66.5 42t77 18.5t77.5 6.5q4 0 7.5 0.5t8.5 0.5h13l56.5 -2t56.5 -1q31 -1 68 -4.5t72 -14.5t63.5 -31.5t42.5 -53.5l90 -97q16 -17 26 -40t8 -54v-9q-6 -27 -22 -51t-38 -42t-48.5 -29.5t-53.5 -13.5l-132 -6t-132 -3q-20 0 -39.5 1t-39.5 1 q-58 2 -99 44l-92 99q-24 15 -39 38q-23 22 -35 54.5t-10 69.5zM181 705q-3 -27 8 -51t28 -41q14 -21 35.5 -32t47.5 -13q85 -2 170 0.5t170 6.5q21 2 41 10.5t37 22.5t29.5 32t17.5 39q0 42 -22.5 67t-56 38.5t-72 18t-71.5 4.5q-29 0 -56.5 1t-54.5 3q-33 -3 -71.5 -5.5 t-74 -12t-64 -30t-41.5 -58.5z" />
<glyph unicode="&#x2013;" horiz-adv-x="954" d="M138 708q17 49 47 77t66.5 42t77 18.5t77.5 6.5q4 0 7.5 0.5t8.5 0.5h13l56.5 -2t56.5 -1q31 -1 68 -4.5t72 -14.5t63.5 -31.5t42.5 -53.5l90 -97q16 -17 26 -40t8 -54v-9q-6 -27 -22 -51t-38 -42t-48.5 -29.5t-53.5 -13.5l-132 -6t-132 -3q-20 0 -39.5 1t-39.5 1 q-58 2 -99 44l-92 99q-24 15 -39 38q-23 22 -35 54.5t-10 69.5zM181 705q-3 -27 8 -51t28 -41q14 -21 35.5 -32t47.5 -13q85 -2 170 0.5t170 6.5q21 2 41 10.5t37 22.5t29.5 32t17.5 39q0 42 -22.5 67t-56 38.5t-72 18t-71.5 4.5q-29 0 -56.5 1t-54.5 3q-33 -3 -71.5 -5.5 t-74 -12t-64 -30t-41.5 -58.5z" />
<glyph horiz-adv-x="1347" d="M147 695v17q21 46 52.5 72t69 39.5t77 18.5t77.5 8q4 0 11 1t15 2h244q59 0 117.5 -0.5t117.5 -2.5q33 -1 70.5 -5t73.5 -15.5t65.5 -32t45.5 -55.5l90 -97q16 -17 25.5 -37.5t12.5 -47.5l-2 -7q-3 -32 -18.5 -57t-39 -42.5t-51.5 -28.5t-55 -14q-23 -1 -47 -2.5 t-47 -4.5l-63 -5q-91 -8 -183.5 -13t-184.5 -7h-14q-44 0 -88 6.5t-88 17.5q-40 11 -73.5 28t-56.5 42l-85 92q-35 22 -53.5 54t-14.5 76zM189 703q-5 -27 4.5 -48.5t29 -38t46.5 -28.5t57 -21q44 -11 89 -17.5t92 -5.5q91 2 181.5 7.5t183.5 13.5q38 2 77.5 6t79.5 6 q21 3 42.5 11t39.5 21t30 31t14 41q-4 41 -28 65.5t-58.5 37.5t-73.5 17.5t-73 5.5q-58 3 -115.5 3.5t-117.5 0.5q-59 2 -118 1t-119 -1l-73 -6.5t-75.5 -13t-67 -30t-47.5 -58.5z" />
<glyph unicode="&#x2014;" horiz-adv-x="1347" d="M147 695v17q21 46 52.5 72t69 39.5t77 18.5t77.5 8q4 0 11 1t15 2h244q59 0 117.5 -0.5t117.5 -2.5q33 -1 70.5 -5t73.5 -15.5t65.5 -32t45.5 -55.5l90 -97q16 -17 25.5 -37.5t12.5 -47.5l-2 -7q-3 -32 -18.5 -57t-39 -42.5t-51.5 -28.5t-55 -14q-23 -1 -47 -2.5 t-47 -4.5l-63 -5q-91 -8 -183.5 -13t-184.5 -7h-14q-44 0 -88 6.5t-88 17.5q-40 11 -73.5 28t-56.5 42l-85 92q-35 22 -53.5 54t-14.5 76zM189 703q-5 -27 4.5 -48.5t29 -38t46.5 -28.5t57 -21q44 -11 89 -17.5t92 -5.5q91 2 181.5 7.5t183.5 13.5q38 2 77.5 6t79.5 6 q21 3 42.5 11t39.5 21t30 31t14 41q-4 41 -28 65.5t-58.5 37.5t-73.5 17.5t-73 5.5q-58 3 -115.5 3.5t-117.5 0.5q-59 2 -118 1t-119 -1l-73 -6.5t-75.5 -13t-67 -30t-47.5 -58.5z" />
<glyph horiz-adv-x="1476" d="M195 1261q-3 22 0 45q6 24 19.5 41t31.5 28.5t38.5 17.5t39.5 6l102.5 10t102.5 13h9q19 1 39 2.5t37 3.5q11 0 21.5 1t21.5 3t22 2t22 1q42 0 77 -27q33 22 67 22q40 0 68.5 -23t43.5 -54l70 -76q5 8 6.5 11.5t5.5 10.5q9 20 18.5 39t23 34.5t31.5 26t43 14.5 q24 -1 43.5 -9t34.5 -20t27 -27t22 -31l82 -90q15 -17 26 -35.5t20 -36.5q14 -38 25 -80t9 -86l-5 -68q-3 -13 -5 -27q-3 -12 -4.5 -23t-2.5 -20v-32l3 -36l-5 -55q-2 -10 -2 -19v-20q-1 -15 -4 -31.5t-9 -33.5q-4 -18 -12 -34.5t-17 -30.5v-1q-16 -21 -37.5 -38.5 t-44.5 -25.5q-8 -2 -13.5 -2.5t-10.5 -0.5q-22 0 -41 9t-33 23l-66 72q-11 -15 -25 -30.5t-31 -29.5q-30 0 -50 9.5t-36 25.5q-14 -36 -43 -63.5t-73 -27.5h-7q-26 0 -44 9.5t-32 24.5l-93 101q-6 2 -12 6t-10 9v-1q-2 -7 -4.5 -11.5t-3.5 -9.5h1q-4 -15 -7.5 -25t-12.5 -21 q-6 -12 -14 -25t-19.5 -23.5t-26.5 -17.5t-34 -7h-7q-28 0 -51.5 10.5t-40.5 30.5l-90 97q-30 17 -48.5 47.5t-16.5 70.5l1 27q2 8 1 14.5t-1 14.5q3 20 5.5 39.5t5.5 38.5q8 35 13.5 69.5t10.5 69.5l1 24l2 18l-92 99q-20 9 -30.5 24t-15.5 33q-7 15 -10 37zM237 1300 q-1 -14 1.5 -28.5t7.5 -27.5q2 -13 9 -23t20 -14q29 0 58 0.5t58 0.5q2 -46 -1.5 -92t-8.5 -92l-10 -69t-13 -69q-5 -32 -7.5 -66t-4.5 -66q0 -20 7.5 -37.5t21 -30t32 -19t38.5 -5.5q22 0 36.5 18t23.5 35q5 9 9 21.5t12 34.5q1 8 3 16t2 17q11 102 27 203t34 203 q35 -2 69 4.5t69 19.5q-19 -82 -29 -164.5t-17 -166.5q-4 -38 -5 -77t-1 -77q2 -17 7 -34t15 -31t24.5 -22.5t34.5 -7.5q21 -2 38 8t28.5 26t17.5 35.5t7 37.5q2 17 2 33q0 17 1 34v35t2 35l2 12l10.5 -65t13.5 -65q5 -27 22 -48.5t46 -21.5q29 26 52 59t42 68.5t36 72 l34 71.5q-3 -33 -4.5 -65.5t-5.5 -65.5q-5 -29 -7.5 -57.5t0.5 -56.5q1 -31 22.5 -53t53.5 -16q18 5 31 15.5t24 24.5l18 29t11 32q13 36 13.5 72.5t5.5 74.5q0 19 -2 36.5t0 36.5q2 18 5 35t5 35l7 68q0 39 -9 76.5t-23 72.5q-7 16 -16.5 33t-21.5 30.5t-28 22.5t-37 9 q-19 -2 -32 -14.5t-23 -30.5t-19 -40t-21 -44q-20 -38 -36.5 -78.5l-33.5 -80.5q-11 60 -25 117.5t-37 114.5q-9 29 -32 51.5t-55 22.5q-19 0 -37 -10.5t-29 -27.5q-12 20 -32.5 31.5t-44.5 11.5q-42 -3 -83 -7.5t-83 -6.5q-52 -8 -103.5 -13t-104.5 -9q-26 0 -53 -13.5 t-34 -43.5z" />
<glyph unicode="&#x2122;" horiz-adv-x="1476" d="M195 1261q-3 22 0 45q6 24 19.5 41t31.5 28.5t38.5 17.5t39.5 6l102.5 10t102.5 13h9q19 1 39 2.5t37 3.5q11 0 21.5 1t21.5 3t22 2t22 1q42 0 77 -27q33 22 67 22q40 0 68.5 -23t43.5 -54l70 -76q5 8 6.5 11.5t5.5 10.5q9 20 18.5 39t23 34.5t31.5 26t43 14.5 q24 -1 43.5 -9t34.5 -20t27 -27t22 -31l82 -90q15 -17 26 -35.5t20 -36.5q14 -38 25 -80t9 -86l-5 -68q-3 -13 -5 -27q-3 -12 -4.5 -23t-2.5 -20v-32l3 -36l-5 -55q-2 -10 -2 -19v-20q-1 -15 -4 -31.5t-9 -33.5q-4 -18 -12 -34.5t-17 -30.5v-1q-16 -21 -37.5 -38.5 t-44.5 -25.5q-8 -2 -13.5 -2.5t-10.5 -0.5q-22 0 -41 9t-33 23l-66 72q-11 -15 -25 -30.5t-31 -29.5q-30 0 -50 9.5t-36 25.5q-14 -36 -43 -63.5t-73 -27.5h-7q-26 0 -44 9.5t-32 24.5l-93 101q-6 2 -12 6t-10 9v-1q-2 -7 -4.5 -11.5t-3.5 -9.5h1q-4 -15 -7.5 -25t-12.5 -21 q-6 -12 -14 -25t-19.5 -23.5t-26.5 -17.5t-34 -7h-7q-28 0 -51.5 10.5t-40.5 30.5l-90 97q-30 17 -48.5 47.5t-16.5 70.5l1 27q2 8 1 14.5t-1 14.5q3 20 5.5 39.5t5.5 38.5q8 35 13.5 69.5t10.5 69.5l1 24l2 18l-92 99q-20 9 -30.5 24t-15.5 33q-7 15 -10 37zM237 1300 q-1 -14 1.5 -28.5t7.5 -27.5q2 -13 9 -23t20 -14q29 0 58 0.5t58 0.5q2 -46 -1.5 -92t-8.5 -92l-10 -69t-13 -69q-5 -32 -7.5 -66t-4.5 -66q0 -20 7.5 -37.5t21 -30t32 -19t38.5 -5.5q22 0 36.5 18t23.5 35q5 9 9 21.5t12 34.5q1 8 3 16t2 17q11 102 27 203t34 203 q35 -2 69 4.5t69 19.5q-19 -82 -29 -164.5t-17 -166.5q-4 -38 -5 -77t-1 -77q2 -17 7 -34t15 -31t24.5 -22.5t34.5 -7.5q21 -2 38 8t28.5 26t17.5 35.5t7 37.5q2 17 2 33q0 17 1 34v35t2 35l2 12l10.5 -65t13.5 -65q5 -27 22 -48.5t46 -21.5q29 26 52 59t42 68.5t36 72 l34 71.5q-3 -33 -4.5 -65.5t-5.5 -65.5q-5 -29 -7.5 -57.5t0.5 -56.5q1 -31 22.5 -53t53.5 -16q18 5 31 15.5t24 24.5l18 29t11 32q13 36 13.5 72.5t5.5 74.5q0 19 -2 36.5t0 36.5q2 18 5 35t5 35l7 68q0 39 -9 76.5t-23 72.5q-7 16 -16.5 33t-21.5 30.5t-28 22.5t-37 9 q-19 -2 -32 -14.5t-23 -30.5t-19 -40t-21 -44q-20 -38 -36.5 -78.5l-33.5 -80.5q-11 60 -25 117.5t-37 114.5q-9 29 -32 51.5t-55 22.5q-19 0 -37 -10.5t-29 -27.5q-12 20 -32.5 31.5t-44.5 11.5q-42 -3 -83 -7.5t-83 -6.5q-52 -8 -103.5 -13t-104.5 -9q-26 0 -53 -13.5 t-34 -43.5z" />
<glyph unicode="&#xa2;" horiz-adv-x="1070" d="M70 708q8 87 42.5 165.5t83.5 147.5q23 31 50.5 60.5t59 55t67.5 46t78 32.5q1 14 3 27.5t3 28.5q5 29 11 55.5t20 52.5v-2q0 2 1 3t1 2v6q11 26 30 50t57 33h14q44 0 86 -20.5t62 -62.5l90 -99q11 -12 18 -25t11 -30q5 -20 7 -41l4 -41q15 -14 29 -29t25 -32 q3 -5 5.5 -8.5t5.5 -5.5l68 -75q19 -21 36 -45q35 -45 56 -101.5t19 -118.5l-2 -12q-2 -26 -12 -50.5t-27.5 -43.5t-41.5 -30.5t-54 -11.5h-7q-22 0 -40.5 4t-35.5 15l9 -12.5t8 -13.5l95 -104q21 -22 28 -53t5 -60l-2 -13q-8 -46 -31 -81t-55 -61.5t-69.5 -45.5t-74.5 -34 l-4 -34q-6 -43 -15.5 -84.5t-27.5 -83.5q-6 -20 -16 -42t-25 -41.5t-36 -35t-51 -21.5h-5q-28 0 -54.5 11.5t-45.5 31.5l-91 101q-23 13 -38 33.5t-20 46.5q-4 29 -4.5 54.5t-0.5 49.5q0 4 -1 7.5t1 7.5q0 3 -1 6.5t-1 7.5l2 7q-2 5 -2 12v17l-0.5 1t-0.5 2q-28 24 -52 52 l-68 75q-52 39 -89 93q-50 69 -73.5 146.5t-16.5 157.5zM113 708q-7 -73 13 -141t62 -125q41 -60 98.5 -105t129.5 -67q0 -29 -0.5 -56t-0.5 -55q0 -34 -1 -68t4 -67q4 -17 13.5 -30.5t23 -22.5t29.5 -13.5t33 -3.5q19 4 33.5 16.5t25 28.5t18.5 34t14 35q17 38 25.5 77.5 t15.5 79.5q1 14 2.5 29t3.5 29q35 13 72 31t69 42t55 55t31 72q3 19 0.5 40t-10.5 38t-23 27.5t-38 8.5q-38 -4 -70.5 -20t-61.5 -39q5 53 11.5 104t10.5 104q5 46 6.5 91t5.5 91q24 -56 45 -114q14 -27 40.5 -43.5t58.5 -16.5q23 -2 41.5 7.5t31.5 25.5t20 36.5t7 41.5 q3 56 -16.5 106.5t-51.5 91.5q-31 47 -75.5 81t-98.5 51q0 40 0.5 78.5t-10.5 76.5q-5 21 -17 36t-29 24.5t-37 14t-40 3.5q-24 -4 -35.5 -25t-20.5 -41q-12 -22 -17 -45t-9 -46q-2 -23 -5 -45t-5 -45q-41 -6 -77.5 -23.5t-68.5 -42.5t-60 -55t-52 -63q-46 -65 -78.5 -138 t-40.5 -151zM353 674q3 31 13.5 61t25.5 57.5t34 54l38 51.5l-18.5 -184.5t-17.5 -184.5q-15 14 -29 30t-24.5 34t-16.5 38t-5 43zM857 633q1 0 3 -1l4 -2q-2 1 -2 5l-4 3z" />
<glyph unicode="&#xa3;" horiz-adv-x="1457" d="M96 804l1 8q14 47 42 74.5t62.5 42t73 19.5t73.5 8q12 73 28 133.5t34 120.5l6 27q27 43 62 71t73.5 45t78.5 27t78 18l26 5q55 11 111 15t114 4q32 0 63 -1.5t62 -3.5q45 -5 84 -29.5t61 -63.5l90 -99q20 -23 31.5 -51.5t11.5 -60.5l-2 -14q-2 -24 -12.5 -46 t-27.5 -38.5t-38.5 -27.5t-45.5 -14q-22 -3 -45 -4t-49 -1q-18 0 -37 0.5t-37 0.5h-29q-46 0 -94.5 -11t-80.5 -42q14 -10 25 -22.5t19 -28.5l92 -100q18 -20 26.5 -46t6.5 -62l-2 -7q-2 -26 -13.5 -49t-29.5 -41t-42 -30t-50 -16q-29 -3 -60.5 -3.5t-60.5 -1.5h-4 q-4 -27 -7 -53t-5 -52l35 18t37 20q6 2 16 9l5 1v2q66 37 137.5 63.5t148.5 30.5h16q24 0 49 -6t47 -18t40.5 -29t30.5 -39l90 -99q12 -13 21 -29.5t14 -33.5v-4q1 -4 0.5 -6t-0.5 -4l-6 5l2 -29q-25 -42 -57 -74t-69 -58.5t-77 -48.5l-80 -44l-96 -51q-18 -8 -36 -17.5 l-35 -18.5l-90 -43t-91 -38t-94 -29t-99 -15q-42 3 -80 15t-65 41l-91 99q-11 7 -19.5 15.5l-17.5 17.5q-20 24 -29 49.5t-16 51.5q-1 2 -1 5q0 4 -2 6q-2 5 -2.5 8.5t-2.5 7.5l-4 15q-14 75 -19.5 151.5t-0.5 155.5q2 5 1 11.5t1 12.5l1 24l4 33q-4 2 -7 5.5t-5 6.5l-91 99 q-13 8 -23.5 17.5t-18.5 22.5q-17 25 -27 54t-7 61zM138 809q-2 -26 6 -49.5t22 -42.5q11 -21 33 -32t45 -13q23 -1 46 -0.5t46 0.5l-15.5 -107.5t-9.5 -107.5q-5 -75 0 -148t18 -145q11 -34 19.5 -67.5t30.5 -60.5t55.5 -38t68.5 -13q57 4 111.5 19.5t108 37.5t105.5 48 l104 50q47 28 98.5 54t100 55.5t91 66t72.5 85.5q-2 4 -2 7t-2 7q-6 24 -21.5 42t-36.5 29t-46 16t-49 3q-70 -4 -137 -29t-130 -60l-126 -65.5t-131 -56.5q-11 46 -14 92.5t2 94.5q4 48 9 95.5t11 95.5q42 2 80.5 2.5t78.5 4.5q19 3 36.5 12t31 23.5t21.5 32.5t8 38 q4 44 -16.5 70.5t-53.5 41t-72.5 18.5t-72.5 3q8 23 11.5 46t12.5 46q14 42 44 67.5t67.5 39t79 17t77.5 1.5q42 -2 82 -2t80 5q19 2 36 11t30 22.5t20 31t6 36.5q0 27 -10.5 51t-29 42t-42.5 29t-51 13q-84 8 -167.5 5t-168.5 -19q-36 -8 -76 -16t-78 -22t-71 -36.5 t-55 -58.5l-43 -154t-30 -155q-32 -3 -69.5 -6t-73 -13t-64 -31t-41.5 -59z" />
<glyph unicode="&#xa5;" horiz-adv-x="1224" d="M121 275q5 29 17.5 50.5t29.5 36.5t38.5 24t44.5 15l-31 32q-40 23 -61 65.5t-17 88.5q2 26 13 47t27 37t36.5 28t42.5 21q-41 132 -56 243q-5 54 -7.5 110t2.5 118q1 14 2.5 29t4.5 28q2 24 12 49t26.5 46t39.5 36t53 19v1q6 2 15 3t22 1q43 0 77 -24t53 -61l86 -93 q28 -31 39 -76q2 -40 6.5 -78t8.5 -76q4 6 9 10l8 16l-2 -2l4 5l8 10l-1 -1q35 54 66 108l63 108q11 13 15 20.5t9 15.5v-2q0 2 1 3t1 3l18 32.5t20 26.5q23 25 53.5 42.5t63.5 17.5q7 0 12.5 -0.5t11.5 -2.5q40 -5 69 -27t47 -54l91 -97h-2l3 -2q27 -29 39.5 -70.5 t10.5 -82.5v-4q-7 -38 -26 -73t-41 -68q-4 -4 -5.5 -8t-4.5 -8h2l-28 -38l-27 -37l-26.5 -36.5l-26.5 -36.5h-1l-44.5 -66.5l-44.5 -66.5l75 -82q18 -20 26.5 -44t5.5 -55l-1 -19q-3 -27 -15 -50.5t-31 -41.5t-43 -30.5t-50 -17.5l67 -73q15 -17 22.5 -41t4.5 -55v-12 q-5 -33 -24 -60t-45 -46t-57 -30t-60 -14q-35 -2 -70 -2t-70 -1q-9 -26 -24.5 -51t-36.5 -44t-47 -30.5t-57 -11.5h-10q-31 0 -55 11.5t-41 29.5l-94 102q-9 7 -16.5 14t-14.5 15q-11 7 -21 14t-16 17l-87 94q-38 24 -61 67t-23 92zM164 275q1 -26 9.5 -49.5t23.5 -42 t36 -31t47 -15.5q14 0 27.5 -3t27.5 -3q-3 -26 1 -51.5t16.5 -46.5t33 -34.5t49.5 -13.5q30 -3 54.5 8.5t43 31.5t30.5 45t17 51q43 0 85 1t84 3q24 2 48.5 10.5t45.5 23t35.5 34.5t17.5 46q7 43 -12 68t-51 38.5t-70.5 17t-69.5 2.5h-48l16.5 42.5t17.5 41.5q61 3 125 3 q24 -1 48.5 6.5t44 22.5t32 36.5t13.5 47.5q6 33 -5.5 57.5t-32.5 41t-48.5 25.5t-55.5 11q30 55 64 107.5l70 103.5l52.5 74l52.5 73l43 69t27 73q1 28 -5.5 56t-21 51.5t-37.5 38.5t-53 18q-27 5 -51.5 -7.5t-42.5 -32.5q-18 -22 -30.5 -47t-29.5 -48l-64 -108.5 t-67 -108.5l-69 -114.5t-65 -115.5q-31 71 -47 147l-31 151q-5 48 -10.5 95.5t-10.5 95.5q-5 22 -17 40.5t-29 30.5t-38 16.5t-45 -1.5q-22 -2 -39 -13t-29 -27t-19 -35t-9 -38q-13 -68 -10.5 -136t10.5 -135q11 -71 27.5 -140.5t39.5 -137.5q-21 -5 -43 -13t-41 -20.5 t-32 -30.5t-16 -42q-1 -24 6 -47t21.5 -41t35 -29.5t45.5 -12.5q27 -2 55.5 -3.5t56.5 -3.5q-5 -19 -12 -38.5t-13 -39.5l-62.5 -4.5t-66 -11.5t-55.5 -28t-31 -55z" />
<glyph unicode="&#xa9;" horiz-adv-x="1623" d="M101 493l3 29q6 70 25.5 139t51.5 134t74.5 125.5t94.5 113.5q50 56 109.5 103t126 81.5t138.5 54t146 19.5h26q67 0 129.5 -17.5t118 -48.5t102.5 -75t83 -96l67 -72q20 -20 36.5 -44l33.5 -48l2 -4q72 -106 100.5 -234.5t16.5 -263.5l-3 -34q-6 -60 -28 -117 t-55.5 -108.5t-77 -96t-93.5 -79.5q-100 -69 -213.5 -104.5t-230.5 -35.5h-15q-118 0 -226 38t-201 104q-56 37 -99 85l-60 63q-42 34 -77.5 77t-60 92.5t-37 105t-7.5 114.5zM143 493q-5 -59 9.5 -114t43 -103.5t68 -89.5t84.5 -72q91 -66 198.5 -101.5t224.5 -32.5 q111 0 218 33t202 100q47 33 87.5 74t71.5 88.5t51.5 100.5t26.5 109q17 137 -10 268t-99 240q-33 56 -79 103.5t-102 82t-120 53t-134 17.5q-72 3 -141.5 -14.5t-134.5 -50.5t-123 -79t-106 -100q-104 -106 -166.5 -238t-69.5 -274zM377 486q5 97 42.5 191t104.5 170 q31 39 70 72.5t83 57.5t92.5 37t97.5 12q47 1 90 -13t79.5 -39t64 -60t44.5 -76q38 -82 49 -174t1 -186q-5 -66 -45 -121.5t-100 -86.5q-61 -35 -125.5 -49t-130.5 -14q-74 0 -143 15.5t-130 50.5q-30 15 -57 36t-47.5 48t-31.5 59.5t-8 69.5zM432 553q-5 -62 14.5 -118.5 t62.5 -96.5q45 -42 101.5 -63t119.5 -21q45 0 88.5 10t87.5 24q38 12 67.5 42t33.5 71q3 24 -4.5 46t-22 38.5t-35 26t-44.5 9.5q-19 -2 -38 -5.5t-37 -10.5q-20 -8 -38.5 -10.5t-38.5 -4.5q-14 -1 -28.5 2t-25.5 10.5t-17.5 19.5t-3.5 29q7 32 29.5 59.5t45.5 51.5 q26 23 52.5 43.5t60.5 24.5q17 -4 32.5 -9.5t32.5 -7.5q23 0 45 10t40 27t29.5 39t13.5 46q2 31 -12.5 57t-38.5 42q-51 32 -115 32q-41 0 -81 -10.5t-77.5 -29t-72 -43t-64.5 -52.5q-30 -27 -58 -58.5t-50.5 -67t-36.5 -73.5t-17 -79z" />
<glyph unicode="&#xad;" d="M130 701l1 12q19 47 51 74t69.5 41t78.5 18.5t80 6.5h15q4 0 7.5 1t7.5 1q12 -2 21 -2h20q5 0 10.5 -0.5t11.5 -0.5h24q5 0 11.5 -1t12.5 -1h26q11 -2 20 -2h21q44 0 92.5 -2.5t101.5 -9.5q38 -9 75.5 -31.5t54.5 -62.5l91 -97q17 -18 25.5 -41t6.5 -54v-6 q-6 -29 -23.5 -52.5t-40.5 -41.5t-50.5 -28.5t-54.5 -13.5q-64 -4 -127.5 -5.5t-126.5 -1.5q-44 0 -88 1t-88 1h-58q-32 5 -60.5 18.5t-48.5 35.5l-91 98l-16 12.5t-13 14.5q-22 22 -37.5 52t-11.5 67zM172 705q-4 -27 9.5 -50.5t30.5 -41.5q34 -37 87 -45l240.5 -2t240.5 7 q22 2 43.5 10.5t39.5 22.5t30.5 32t17.5 40q2 25 -8 45t-27 34.5t-38.5 23.5t-42.5 14q-45 5 -90.5 8t-90.5 3q-23 0 -46 1.5t-46 1.5q-22 2 -44 2t-45 1q-34 -2 -73 -5t-76 -12.5t-67 -30.5t-45 -59z" />
<glyph unicode="&#xae;" horiz-adv-x="1691" d="M113 608l1 15q6 75 29.5 147t60.5 139.5t86 129t108 115.5v-2q54 52 115.5 95t129 74t139 48t145.5 17h24q70 0 136.5 -18t125 -51t108.5 -78.5t87 -100.5l67 -70q34 -38 61 -80l-2 2q78 -113 108 -247.5t17 -274.5l-2 -17q-6 -64 -28 -125t-55.5 -116.5t-77 -105 t-93.5 -89.5q5 -11 6.5 -25t0.5 -29v-9q-3 -28 -18 -50t-37 -37t-47.5 -23.5t-49.5 -10.5q-35 2 -70.5 5.5t-66.5 20.5q-127 -43 -259 -43q-65 0 -129.5 11.5t-124.5 35t-114 59t-98 83.5l-9 11q-4 2 -7.5 4.5t-5.5 7.5l-51 56q-14 11 -25.5 23t-22.5 25q-47 45 -80.5 101 t-53.5 117.5t-27 127.5t-1 132zM155 608q-5 -62 2 -124t25.5 -120t49 -110t73.5 -94q41 -46 92 -79.5t108.5 -56t119 -33.5t124.5 -11q66 0 132 12t129 35q29 -20 63.5 -24.5t69.5 -5.5q18 1 36.5 7t34.5 16.5t27 26t13 35.5q5 20 0 38t-17 32q52 38 98 86t81.5 102.5 t58.5 115t29 123.5q14 139 -13.5 271.5t-104.5 243.5q-35 55 -83 101.5t-106 80t-123 51t-135 16.5q-72 2 -143 -14t-138 -46.5t-128.5 -73.5t-113.5 -95q-54 -50 -100 -108.5t-80.5 -123t-55.5 -133.5t-25 -141zM389 604q8 100 56 191t123 159q-6 -15 -9 -31.5t-4 -33.5 q-7 -46 -9 -92t-3 -92q0 -47 1 -93.5t-3 -92.5q-2 -31 -6.5 -61.5t-10.5 -61.5q-4 -31 -7 -60t-8 -60q-39 26 -63.5 63.5t-38 81t-17.5 90.5t-1 93zM669 1036q63 38 132 62t139 22q48 2 91.5 -11.5t80 -38t65.5 -59t47 -74.5q37 -82 45.5 -174.5t0.5 -185.5q-4 -47 -22 -91 t-47.5 -82t-67 -69t-80.5 -53l-58 79.5t-56 82.5q53 22 97.5 58.5t86.5 76.5q37 42 67.5 89.5t34.5 102.5q3 32 0 65t-12.5 63.5t-27.5 56t-45 42.5t-57 26.5t-61.5 15t-64 7t-64.5 3.5q-57 0 -112 -1.5t-112 -12.5zM717 210q2 17 1 32.5t1 32.5l1 17q2 10 2.5 20t2.5 21 q35 -23 61 -55.5l50 -65.5q-17 -2 -33 -3t-33 -1h-27q-13 0 -26 2zM745.5 683.5q-1.5 36.5 3.5 74.5q0 11 -1.5 22t-1.5 22v5l15 10q51 0 99 6q26 1 50.5 3t50.5 2q14 1 25 -6.5t11 -21.5q-3 -41 -25.5 -79t-58.5 -61q-37 -23 -79 -35t-85 -16q-2 38 -3.5 74.5z" />
<glyph unicode="&#xb4;" horiz-adv-x="568" d="M176 1497q2 31 7 54q9 51 30 94.5t48 83.5q13 20 29 41t36.5 38.5t45.5 28.5t55 11h3q36 0 63 -19.5t43 -48.5l94 -102q17 -20 25 -44t5 -50v-5q-1 -8 -3.5 -15.5l-4.5 -13.5l2 -2l-3.5 -12.5t-1.5 -8.5q-14 -41 -35 -88t-51.5 -87t-72 -66t-96.5 -26h-5q-19 1 -35.5 9 t-27.5 21l-96 104q-26 14 -41 42.5t-13 60.5zM218 1498q-1 -26 15.5 -48.5t44.5 -24.5q46 -1 81 22t61 58t44 76.5t31 77.5q2 14 7 26.5t5 26.5q1 18 -5 35.5t-17 30.5t-27 20.5t-35 7.5q-22 0 -40 -9.5t-34 -23.5t-29 -32l-25 -34q-23 -38 -42.5 -77.5t-28.5 -81.5 q-3 -13 -3.5 -24.5t-2.5 -25.5z" />
<glyph unicode="&#x2000;" horiz-adv-x="925" />
<glyph unicode="&#x2001;" horiz-adv-x="1850" />
<glyph unicode="&#x2002;" horiz-adv-x="925" />
<glyph unicode="&#x2003;" horiz-adv-x="1850" />
<glyph unicode="&#x2004;" horiz-adv-x="616" />
<glyph unicode="&#x2005;" horiz-adv-x="462" />
<glyph unicode="&#x2006;" horiz-adv-x="308" />
<glyph unicode="&#x2007;" horiz-adv-x="308" />
<glyph unicode="&#x2008;" horiz-adv-x="231" />
<glyph unicode="&#x2009;" horiz-adv-x="370" />
<glyph unicode="&#x200a;" horiz-adv-x="102" />
<glyph unicode="&#x2010;" d="M130 701l1 12q19 47 51 74t69.5 41t78.5 18.5t80 6.5h15q4 0 7.5 1t7.5 1q12 -2 21 -2h20q5 0 10.5 -0.5t11.5 -0.5h24q5 0 11.5 -1t12.5 -1h26q11 -2 20 -2h21q44 0 92.5 -2.5t101.5 -9.5q38 -9 75.5 -31.5t54.5 -62.5l91 -97q17 -18 25.5 -41t6.5 -54v-6 q-6 -29 -23.5 -52.5t-40.5 -41.5t-50.5 -28.5t-54.5 -13.5q-64 -4 -127.5 -5.5t-126.5 -1.5q-44 0 -88 1t-88 1h-58q-32 5 -60.5 18.5t-48.5 35.5l-91 98l-16 12.5t-13 14.5q-22 22 -37.5 52t-11.5 67zM172 705q-4 -27 9.5 -50.5t30.5 -41.5q34 -37 87 -45l240.5 -2t240.5 7 q22 2 43.5 10.5t39.5 22.5t30.5 32t17.5 40q2 25 -8 45t-27 34.5t-38.5 23.5t-42.5 14q-45 5 -90.5 8t-90.5 3q-23 0 -46 1.5t-46 1.5q-22 2 -44 2t-45 1q-34 -2 -73 -5t-76 -12.5t-67 -30.5t-45 -59z" />
<glyph unicode="&#x2011;" d="M130 701l1 12q19 47 51 74t69.5 41t78.5 18.5t80 6.5h15q4 0 7.5 1t7.5 1q12 -2 21 -2h20q5 0 10.5 -0.5t11.5 -0.5h24q5 0 11.5 -1t12.5 -1h26q11 -2 20 -2h21q44 0 92.5 -2.5t101.5 -9.5q38 -9 75.5 -31.5t54.5 -62.5l91 -97q17 -18 25.5 -41t6.5 -54v-6 q-6 -29 -23.5 -52.5t-40.5 -41.5t-50.5 -28.5t-54.5 -13.5q-64 -4 -127.5 -5.5t-126.5 -1.5q-44 0 -88 1t-88 1h-58q-32 5 -60.5 18.5t-48.5 35.5l-91 98l-16 12.5t-13 14.5q-22 22 -37.5 52t-11.5 67zM172 705q-4 -27 9.5 -50.5t30.5 -41.5q34 -37 87 -45l240.5 -2t240.5 7 q22 2 43.5 10.5t39.5 22.5t30.5 32t17.5 40q2 25 -8 45t-27 34.5t-38.5 23.5t-42.5 14q-45 5 -90.5 8t-90.5 3q-23 0 -46 1.5t-46 1.5q-22 2 -44 2t-45 1q-34 -2 -73 -5t-76 -12.5t-67 -30.5t-45 -59z" />
<glyph unicode="&#x2012;" d="M130 701l1 12q19 47 51 74t69.5 41t78.5 18.5t80 6.5h15q4 0 7.5 1t7.5 1q12 -2 21 -2h20q5 0 10.5 -0.5t11.5 -0.5h24q5 0 11.5 -1t12.5 -1h26q11 -2 20 -2h21q44 0 92.5 -2.5t101.5 -9.5q38 -9 75.5 -31.5t54.5 -62.5l91 -97q17 -18 25.5 -41t6.5 -54v-6 q-6 -29 -23.5 -52.5t-40.5 -41.5t-50.5 -28.5t-54.5 -13.5q-64 -4 -127.5 -5.5t-126.5 -1.5q-44 0 -88 1t-88 1h-58q-32 5 -60.5 18.5t-48.5 35.5l-91 98l-16 12.5t-13 14.5q-22 22 -37.5 52t-11.5 67zM172 705q-4 -27 9.5 -50.5t30.5 -41.5q34 -37 87 -45l240.5 -2t240.5 7 q22 2 43.5 10.5t39.5 22.5t30.5 32t17.5 40q2 25 -8 45t-27 34.5t-38.5 23.5t-42.5 14q-45 5 -90.5 8t-90.5 3q-23 0 -46 1.5t-46 1.5q-22 2 -44 2t-45 1q-34 -2 -73 -5t-76 -12.5t-67 -30.5t-45 -59z" />
<glyph unicode="&#x202f;" horiz-adv-x="370" />
<glyph unicode="&#x205f;" horiz-adv-x="462" />
<glyph unicode="&#x20ac;" horiz-adv-x="1423" d="M68 510q3 30 15 52t30 38t40.5 26t46.5 17l-17 19q-38 22 -57.5 62t-14.5 87v10q9 42 33 69.5t56 45t69.5 26.5t73.5 14q36 85 84.5 160.5t111.5 140.5q31 33 69 60t80 46.5t86.5 30.5t89.5 11h22q46 -1 88 -14t79.5 -34.5t70.5 -50t62 -60.5l38 -46l70 -77q0 -2 1.5 -4 t3.5 -4q55 -62 92.5 -139t35.5 -168v-2q0 -4 0.5 -8t-0.5 -9q-2 -28 -12.5 -56t-29 -50t-44 -35.5t-56.5 -13.5h-11t-13 1q-35 0 -65.5 14.5t-53.5 38.5l-87 94q-44 26 -62 74q-8 11 -12.5 24t-11.5 27q-22 -7 -35 -16q5 -6 9.5 -13.5t7.5 -15.5l92 -99q19 -20 28.5 -47.5 t5.5 -63.5v-15q-3 -31 -18 -54.5t-36.5 -40t-48 -26t-52.5 -12.5l59 -65l14 -22q17 6 32.5 8.5l32.5 5.5h7q1 0 3 0.5t3 0.5h7q2 0 3.5 1t3.5 1q36 0 60 -17.5t36 -43.5l95 -103q18 -20 25.5 -49t5.5 -60q0 -11 -1.5 -19.5t-3.5 -14.5l-2 -2q0 -6 -0.5 -12t-4.5 -17v-3 q-15 -39 -38.5 -70.5t-52.5 -57t-60.5 -46.5t-61.5 -38q-62 -35 -127.5 -59t-137.5 -28h-7q-81 0 -153 30t-125 88l-78 85l-29 23.5t-26 27.5q-57 66 -92 147q-48 13 -77 50l-89 93q-37 23 -58 64.5t-17 87.5zM111 510q-2 -26 6.5 -49.5t24.5 -41.5t38.5 -29t48.5 -11 q19 -3 38 -3t38 -2q14 -78 47 -148.5t83 -128.5q49 -58 121 -88.5t151 -28.5q64 4 125 26.5t119 54.5q28 16 57 34.5t55 41t47 49t33 58.5q2 9 4.5 18t1.5 20q7 22 5.5 46.5t-11 44t-28 30.5t-45.5 7q-22 -3 -44.5 -7t-42.5 -19q-22 -11 -40.5 -27l-37.5 -31 q-52 -38 -113.5 -50.5t-120.5 -12.5q-19 1 -32 11t-21 25.5t-12.5 33.5t-6.5 34q40 2 79.5 0.5t77.5 6.5q19 3 37 11.5t32.5 21.5t23 30t8.5 37q6 45 -13.5 73.5t-52 44t-72.5 20.5t-74 4h-22q-10 0 -21 2q3 18 6.5 35t5.5 35q40 0 79.5 0.5t79.5 -0.5q24 -2 51 4t49 19.5 t36.5 34t13.5 49.5q5 44 -14.5 73.5t-52 47t-72.5 23.5t-76 3h-10q14 26 31.5 53.5t39.5 50t48.5 36.5t59.5 14q35 -2 62.5 -22.5t38.5 -51.5q15 -32 26.5 -64.5t29.5 -63.5q16 -33 49 -54.5t71 -18.5q28 -5 50.5 6t38.5 31t23.5 46t6.5 50q1 41 -8 79.5t-25.5 74.5 t-39.5 68t-48 61q-26 30 -55.5 55.5t-63.5 45t-71.5 31.5t-79.5 13q-43 3 -86 -5.5t-83.5 -26.5t-77.5 -44t-67 -58q-66 -67 -114.5 -145.5t-81.5 -163.5q-29 -4 -64 -10t-66.5 -19t-56 -35.5t-31.5 -58.5q-4 -24 2 -47t20.5 -41t35.5 -29t46 -11q10 1 21 -0.5t21 0.5 q0 -17 -2.5 -34t-3.5 -34q-26 -3 -56.5 -8.5t-57.5 -17.5t-46 -32t-23 -52zM266 333l5 -5q0 1 -1 1v0l-2 4h-2zM973 466l3 -3z" />
<glyph unicode="&#xe000;" horiz-adv-x="1415" d="M0 1415h1415v-1415h-1415v1415z" />
<glyph unicode="&#xfb01;" horiz-adv-x="1778" d="M1220.5 261.5q-0.5 59.5 4.5 122.5q3 48 7 96t9 97l8 97t10 97q5 47 9.5 95.5t9.5 96.5q4 28 7 58t7 59q2 21 4.5 40t3.5 39q0 2 2 3.5t2 3.5q2 5 2 8v5q5 29 10.5 58t21.5 58q8 20 19 40.5t27 38.5t37 32t50 22h10q3 0 4.5 1t4.5 1q45 0 80.5 -25.5t57.5 -63.5l87 -95 q11 -11 18.5 -24t14.5 -27q28 -81 20 -166l-10.5 -110.5t-13.5 -111.5q-2 -19 -3.5 -38t-3.5 -37l-9.5 -75.5t-7.5 -74.5q-4 -38 -4.5 -76t-2.5 -76q-1 -23 -1 -45v-42q-2 -17 -3 -33.5t-1 -33.5q0 -32 -1 -66.5t-6 -67.5l-1 -29q-4 -44 -16 -85t-30 -81q-9 -23 -23 -45.5 t-33 -41t-43 -31t-52 -15.5h-6q-32 0 -53.5 11t-37.5 27l-90 100q-18 9 -30 22.5t-20 27.5q-22 47 -28.5 80.5t-8.5 64.5q-8 55 -8.5 114.5zM1264.5 271q0.5 -57 6.5 -114q4 -29 9.5 -58t16.5 -56q7 -12 16 -24t20.5 -21t24.5 -14t29 -4q21 2 39 12t32.5 25t25.5 33.5 t18 36.5q17 38 28.5 76t13.5 78q8 57 9 113.5t3 113.5q3 60 3.5 120t5.5 122q5 57 12 113.5l14 113.5q8 55 13 110t9 110q4 38 0 76.5t-17 73.5q-16 36 -49.5 60.5t-75.5 18.5q-18 -5 -32.5 -15.5t-25.5 -24.5t-19.5 -30.5t-14.5 -32.5q-16 -31 -22.5 -64.5l-13.5 -66.5 l-21.5 -191l-21.5 -191l-17.5 -192t-14.5 -192q-4 -58 -3.5 -115zM121 230l2 19q2 12 2.5 24t2.5 22q2 11 2.5 20t2.5 18l2 20q0 5 1.5 10.5t1.5 10.5l10 64t7 65l2 29q2 30 3.5 58.5t3.5 58.5q2 45 5 89t7 88q6 72 13.5 144t18.5 144q2 5 3 10.5t1 10.5q1 11 1.5 18.5 t3.5 13.5q7 30 23.5 55.5t39 46.5t49.5 37.5t55 28.5q7 1 13 3t11 3q46 14 93 25.5t90 19.5l-2 -2q33 8 63 13.5l55 10.5v-2q3 0 6 2q5 0 8.5 1t5.5 2q5 0 12.5 1t16.5 3q16 2 32.5 2.5t39.5 0.5h18t21 -1l-2 1q48 -9 83.5 -32t60.5 -55q8 -9 15 -18t14 -19l68 -75l10 -10.5 t7 -10.5q23 -28 41.5 -61t18.5 -77v-5q-3 -29 -18 -48t-36.5 -30.5t-45.5 -17t-44 -7.5q-53 0 -107.5 -4.5t-108.5 -10.5q-21 -2 -41 -7.5t-40 -16.5q40 -2 80 -9.5t77 -33.5q14 -11 25.5 -24t19.5 -29l87 -95l5 -3q27 -30 36 -69.5t5 -81.5v-12q-3 -22 -13 -42t-26 -36 t-35.5 -26.5t-41.5 -14.5q-34 -4 -66 -4.5t-67 -0.5q-13 -2 -27 -2h-26h-2q-41 -2 -79.5 -5.5t-72.5 -20.5q-8 -35 -10.5 -70.5t-6.5 -70.5l-10 -121v-24q0 -11 -2 -24q-4 -36 -9 -70.5t-13 -66.5q-6 -23 -18.5 -45.5t-29.5 -40.5t-39.5 -29t-49.5 -11h-10t-12 2 q-35 4 -60 18t-46 36l-88 98q-28 18 -47 46t-30.5 61t-15.5 68.5t-3 69.5zM164 232q-2 -37 4.5 -76.5t22.5 -72.5t44 -56.5t70 -28.5q21 -5 39.5 2t32.5 21t24 33t15 38q11 44 17 87t7 87q7 74 12.5 145.5t18.5 143.5q27 18 57 26t60.5 11t61.5 3q32 0 62 2q33 0 65.5 0.5 t65.5 4.5q15 3 29.5 11t25.5 19.5t17.5 26t6.5 30.5q5 42 -6 82.5t-44 64.5q-33 25 -75 29.5t-84 6.5q-26 2 -52 0.5t-52 -3.5q-27 -4 -53.5 -5t-52.5 -6q2 36 11 72.5t22 71.5q12 24 31 41.5t41.5 29.5t47.5 19.5t49 10.5q54 6 108.5 10.5t108.5 4.5q15 1 33.5 4.5 t34.5 11.5t27 20.5t12 31.5q0 35 -16 63.5t-37 52.5q-19 27 -45.5 45.5t-61.5 24.5q-35 7 -70.5 3t-71.5 -6q-36 -7 -74.5 -13.5t-73.5 -15.5q-48 -9 -95 -21t-93 -25q-45 -18 -82 -52.5t-51 -82.5q-3 -12 -3 -25q0 -12 -4 -23q-11 -72 -18.5 -142.5l-14.5 -142.5 q-6 -73 -9.5 -146.5t-8.5 -147.5q-3 -50 -10.5 -99.5t-13.5 -99.5q-3 -26 -6.5 -50.5t-5.5 -50.5z" />
<glyph unicode="&#xfb02;" horiz-adv-x="2200" d="M1228.5 295q0.5 21 0.5 43q1 5 0.5 10.5t-0.5 11.5l3 22q3 29 6.5 57.5t7.5 57.5q2 9 4.5 18t2.5 17l1 16q0 5 2 9.5t2 9.5l19.5 114.5t17.5 117.5q3 36 5 71.5t2 73.5l2 3q-3 20 0 48q0 20 1.5 41.5t3.5 42.5q2 28 5 56.5t7 57.5q3 34 15.5 69t34.5 65.5t53.5 52.5 t72.5 30q10 2 16 2.5t14 0.5q47 0 78 -21t50 -54l91 -101q18 -20 29.5 -47t17 -56.5t6.5 -60.5t-2 -59l-2 -24q-9 -72 -22 -143.5l-27 -143.5l-10 -51q-16 -76 -28 -150.5t-20 -146.5l97 44l22 11q3 1 4.5 2l4.5 3l12 5q27 14 58 27t68 17q8 2 14 2h12q42 0 77.5 -20.5 t53.5 -56.5l96 -102q15 -18 23 -41t6 -51q0 -7 -1.5 -13t-3.5 -15h1q-15 -51 -45.5 -89.5t-70 -69t-83.5 -54.5l-86 -46q-75 -35 -155 -60t-164 -25h-24t-22 1q-48 7 -93 23.5t-76 51.5l-94 103q-25 19 -46 49q-22 48 -30.5 98t-10.5 100q-4 25 -3.5 46zM1271 296 q0 -21 4 -43q2 -47 9 -92.5t27 -87.5q26 -40 70.5 -58.5t91.5 -24.5q44 -5 88 0t87.5 16.5t86 28t83.5 35.5l77.5 42t76.5 49.5t64 62t41 78.5q9 30 1 54.5t-26.5 40.5t-44.5 23t-53 2q-35 -5 -67 -20.5l-64 -31.5l-143 -64t-148 -40q-4 44 -4.5 88t3.5 88q8 86 21 170.5 t30 170.5l33 168.5t25 168.5q6 37 4.5 83.5t-15.5 85.5t-44 63t-82 17q-32 -5 -57 -22.5t-42.5 -42.5t-27.5 -54.5t-12 -58.5q-5 -49 -10.5 -97t-7.5 -97q-1 -51 -2.5 -100t-5.5 -100q-8 -59 -17.5 -117.5t-20.5 -116.5l-17.5 -111.5t-11.5 -111.5v-44zM121 230l2 19 q2 12 2.5 24t2.5 22q2 11 2.5 20t2.5 18l2 20q0 5 1.5 10.5t1.5 10.5l10 64t7 65l2 29q2 30 3.5 58.5t3.5 58.5q2 45 5 89t7 88q6 72 13.5 144t18.5 144q2 5 3 10.5t1 10.5q1 11 1.5 18.5t3.5 13.5q7 30 23.5 55.5t39 46.5t49.5 37.5t55 28.5q7 1 13 3t11 3q46 14 93 25.5 t90 19.5l-2 -2q33 8 63 13.5l55 10.5v-2q3 0 6 2q5 0 8.5 1t5.5 2q5 0 12.5 1t16.5 3q16 2 32.5 2.5t39.5 0.5h18t21 -1l-2 1q48 -9 83.5 -32t60.5 -55q8 -9 15 -18t14 -19l68 -75l10 -10.5t7 -10.5q23 -28 41.5 -61t18.5 -77v-5q-3 -29 -18 -48t-36.5 -30.5t-45.5 -17 t-44 -7.5q-53 0 -107.5 -4.5t-108.5 -10.5q-21 -2 -41 -7.5t-40 -16.5q40 -2 80 -9.5t77 -33.5q14 -11 25.5 -24t19.5 -29l87 -95l5 -3q27 -30 36 -69.5t5 -81.5v-12q-3 -22 -13 -42t-26 -36t-35.5 -26.5t-41.5 -14.5q-34 -4 -66 -4.5t-67 -0.5q-13 -2 -27 -2h-26h-2 q-41 -2 -79.5 -5.5t-72.5 -20.5q-8 -35 -10.5 -70.5t-6.5 -70.5l-10 -121v-24q0 -11 -2 -24q-4 -36 -9 -70.5t-13 -66.5q-6 -23 -18.5 -45.5t-29.5 -40.5t-39.5 -29t-49.5 -11h-10t-12 2q-35 4 -60 18t-46 36l-88 98q-28 18 -47 46t-30.5 61t-15.5 68.5t-3 69.5zM164 232 q-2 -37 4.5 -76.5t22.5 -72.5t44 -56.5t70 -28.5q21 -5 39.5 2t32.5 21t24 33t15 38q11 44 17 87t7 87q7 74 12.5 145.5t18.5 143.5q27 18 57 26t60.5 11t61.5 3q32 0 62 2q33 0 65.5 0.5t65.5 4.5q15 3 29.5 11t25.5 19.5t17.5 26t6.5 30.5q5 42 -6 82.5t-44 64.5 q-33 25 -75 29.5t-84 6.5q-26 2 -52 0.5t-52 -3.5q-27 -4 -53.5 -5t-52.5 -6q2 36 11 72.5t22 71.5q12 24 31 41.5t41.5 29.5t47.5 19.5t49 10.5q54 6 108.5 10.5t108.5 4.5q15 1 33.5 4.5t34.5 11.5t27 20.5t12 31.5q0 35 -16 63.5t-37 52.5q-19 27 -45.5 45.5t-61.5 24.5 q-35 7 -70.5 3t-71.5 -6q-36 -7 -74.5 -13.5t-73.5 -15.5q-48 -9 -95 -21t-93 -25q-45 -18 -82 -52.5t-51 -82.5q-3 -12 -3 -25q0 -12 -4 -23q-11 -72 -18.5 -142.5l-14.5 -142.5q-6 -73 -9.5 -146.5t-8.5 -147.5q-3 -50 -10.5 -99.5t-13.5 -99.5q-3 -26 -6.5 -50.5 t-5.5 -50.5z" />
<glyph unicode="&#xfb03;" horiz-adv-x="2877" d="M2319.5 261.5q-0.5 59.5 4.5 122.5q3 48 7 96t9 97l8 97t10 97q5 47 9.5 95.5t9.5 96.5q4 28 7 58t7 59q2 21 4.5 40t3.5 39q0 2 2 3.5t2 3.5q2 5 2 8v5q5 29 10.5 58t21.5 58q8 20 19 40.5t27 38.5t37 32t50 22h10q3 0 4.5 1t4.5 1q45 0 80.5 -25.5t57.5 -63.5l87 -95 q11 -11 18.5 -24t14.5 -27q28 -81 20 -166l-10.5 -110.5t-13.5 -111.5q-2 -19 -3.5 -38t-3.5 -37l-9.5 -75.5t-7.5 -74.5q-4 -38 -4.5 -76t-2.5 -76q-1 -23 -1 -45v-42q-2 -17 -3 -33.5t-1 -33.5q0 -32 -1 -66.5t-6 -67.5l-1 -29q-4 -44 -16 -85t-30 -81q-9 -23 -23 -45.5 t-33 -41t-43 -31t-52 -15.5h-6q-32 0 -53.5 11t-37.5 27l-90 100q-18 9 -30 22.5t-20 27.5q-22 47 -28.5 80.5t-8.5 64.5q-8 55 -8.5 114.5zM2363.5 271q0.5 -57 6.5 -114q4 -29 9.5 -58t16.5 -56q7 -12 16 -24t20.5 -21t24.5 -14t29 -4q21 2 39 12t32.5 25t25.5 33.5 t18 36.5q17 38 28.5 76t13.5 78q8 57 9 113.5t3 113.5q3 60 3.5 120t5.5 122q5 57 12 113.5l14 113.5q8 55 13 110t9 110q4 38 0 76.5t-17 73.5q-16 36 -49.5 60.5t-75.5 18.5q-18 -5 -32.5 -15.5t-25.5 -24.5t-19.5 -30.5t-14.5 -32.5q-16 -31 -22.5 -64.5l-13.5 -66.5 l-21.5 -191l-21.5 -191l-17.5 -192t-14.5 -192q-4 -58 -3.5 -115zM1220 230l2 19q2 12 2.5 24t2.5 22q2 11 2.5 20t2.5 18l2 20q0 5 1.5 10.5t1.5 10.5l10 64t7 65l2 29q2 30 3.5 58.5t3.5 58.5q2 45 5 89t7 88q6 72 13.5 144t18.5 144q2 5 3 10.5t1 10.5q1 11 1.5 18.5 t3.5 13.5q7 30 23.5 55.5t39 46.5t49.5 37.5t55 28.5q7 1 13 3t11 3q46 14 93 25.5t90 19.5l-2 -2q33 8 63 13.5l55 10.5v-2q3 0 6 2q5 0 8.5 1t5.5 2q5 0 12.5 1t16.5 3q16 2 32.5 2.5t39.5 0.5h18t21 -1l-2 1q48 -9 83.5 -32t60.5 -55q8 -9 15 -18t14 -19l68 -75l10 -10.5 t7 -10.5q23 -28 41.5 -61t18.5 -77v-5q-3 -29 -18 -48t-36.5 -30.5t-45.5 -17t-44 -7.5q-53 0 -107.5 -4.5t-108.5 -10.5q-21 -2 -41 -7.5t-40 -16.5q40 -2 80 -9.5t77 -33.5q14 -11 25.5 -24t19.5 -29l87 -95l5 -3q27 -30 36 -69.5t5 -81.5v-12q-3 -22 -13 -42t-26 -36 t-35.5 -26.5t-41.5 -14.5q-34 -4 -66 -4.5t-67 -0.5q-13 -2 -27 -2h-26h-2q-41 -2 -79.5 -5.5t-72.5 -20.5q-8 -35 -10.5 -70.5t-6.5 -70.5l-10 -121v-24q0 -11 -2 -24q-4 -36 -9 -70.5t-13 -66.5q-6 -23 -18.5 -45.5t-29.5 -40.5t-39.5 -29t-49.5 -11h-10t-12 2 q-35 4 -60 18t-46 36l-88 98q-28 18 -47 46t-30.5 61t-15.5 68.5t-3 69.5zM1263 232q-2 -37 4.5 -76.5t22.5 -72.5t44 -56.5t70 -28.5q21 -5 39.5 2t32.5 21t24 33t15 38q11 44 17 87t7 87q7 74 12.5 145.5t18.5 143.5q27 18 57 26t60.5 11t61.5 3q32 0 62 2q33 0 65.5 0.5 t65.5 4.5q15 3 29.5 11t25.5 19.5t17.5 26t6.5 30.5q5 42 -6 82.5t-44 64.5q-33 25 -75 29.5t-84 6.5q-26 2 -52 0.5t-52 -3.5q-27 -4 -53.5 -5t-52.5 -6q2 36 11 72.5t22 71.5q12 24 31 41.5t41.5 29.5t47.5 19.5t49 10.5q54 6 108.5 10.5t108.5 4.5q15 1 33.5 4.5 t34.5 11.5t27 20.5t12 31.5q0 35 -16 63.5t-37 52.5q-19 27 -45.5 45.5t-61.5 24.5q-35 7 -70.5 3t-71.5 -6q-36 -7 -74.5 -13.5t-73.5 -15.5q-48 -9 -95 -21t-93 -25q-45 -18 -82 -52.5t-51 -82.5q-3 -12 -3 -25q0 -12 -4 -23q-11 -72 -18.5 -142.5l-14.5 -142.5 q-6 -73 -9.5 -146.5t-8.5 -147.5q-3 -50 -10.5 -99.5t-13.5 -99.5q-3 -26 -6.5 -50.5t-5.5 -50.5zM121 230l2 19q2 12 2.5 24t2.5 22q2 11 2.5 20t2.5 18l2 20q0 5 1.5 10.5t1.5 10.5l10 64t7 65l2 29q2 30 3.5 58.5t3.5 58.5q2 45 5 89t7 88q6 72 13.5 144t18.5 144 q2 5 3 10.5t1 10.5q1 11 1.5 18.5t3.5 13.5q7 30 23.5 55.5t39 46.5t49.5 37.5t55 28.5q7 1 13 3t11 3q46 14 93 25.5t90 19.5l-2 -2q33 8 63 13.5l55 10.5v-2q3 0 6 2q5 0 8.5 1t5.5 2q5 0 12.5 1t16.5 3q16 2 32.5 2.5t39.5 0.5h18t21 -1l-2 1q48 -9 83.5 -32t60.5 -55 q8 -9 15 -18t14 -19l68 -75l10 -10.5t7 -10.5q23 -28 41.5 -61t18.5 -77v-5q-3 -29 -18 -48t-36.5 -30.5t-45.5 -17t-44 -7.5q-53 0 -107.5 -4.5t-108.5 -10.5q-21 -2 -41 -7.5t-40 -16.5q40 -2 80 -9.5t77 -33.5q14 -11 25.5 -24t19.5 -29l87 -95l5 -3q27 -30 36 -69.5 t5 -81.5v-12q-3 -22 -13 -42t-26 -36t-35.5 -26.5t-41.5 -14.5q-34 -4 -66 -4.5t-67 -0.5q-13 -2 -27 -2h-26h-2q-41 -2 -79.5 -5.5t-72.5 -20.5q-8 -35 -10.5 -70.5t-6.5 -70.5l-10 -121v-24q0 -11 -2 -24q-4 -36 -9 -70.5t-13 -66.5q-6 -23 -18.5 -45.5t-29.5 -40.5 t-39.5 -29t-49.5 -11h-10t-12 2q-35 4 -60 18t-46 36l-88 98q-28 18 -47 46t-30.5 61t-15.5 68.5t-3 69.5zM164 232q-2 -37 4.5 -76.5t22.5 -72.5t44 -56.5t70 -28.5q21 -5 39.5 2t32.5 21t24 33t15 38q11 44 17 87t7 87q7 74 12.5 145.5t18.5 143.5q27 18 57 26t60.5 11 t61.5 3q32 0 62 2q33 0 65.5 0.5t65.5 4.5q15 3 29.5 11t25.5 19.5t17.5 26t6.5 30.5q5 42 -6 82.5t-44 64.5q-33 25 -75 29.5t-84 6.5q-26 2 -52 0.5t-52 -3.5q-27 -4 -53.5 -5t-52.5 -6q2 36 11 72.5t22 71.5q12 24 31 41.5t41.5 29.5t47.5 19.5t49 10.5q54 6 108.5 10.5 t108.5 4.5q15 1 33.5 4.5t34.5 11.5t27 20.5t12 31.5q0 35 -16 63.5t-37 52.5q-19 27 -45.5 45.5t-61.5 24.5q-35 7 -70.5 3t-71.5 -6q-36 -7 -74.5 -13.5t-73.5 -15.5q-48 -9 -95 -21t-93 -25q-45 -18 -82 -52.5t-51 -82.5q-3 -12 -3 -25q0 -12 -4 -23 q-11 -72 -18.5 -142.5l-14.5 -142.5q-6 -73 -9.5 -146.5t-8.5 -147.5q-3 -50 -10.5 -99.5t-13.5 -99.5q-3 -26 -6.5 -50.5t-5.5 -50.5z" />
<glyph unicode="&#xfb04;" horiz-adv-x="3299" d="M2327.5 295q0.5 21 0.5 43q1 5 0.5 10.5t-0.5 11.5l3 22q3 29 6.5 57.5t7.5 57.5q2 9 4.5 18t2.5 17l1 16q0 5 2 9.5t2 9.5l19.5 114.5t17.5 117.5q3 36 5 71.5t2 73.5l2 3q-3 20 0 48q0 20 1.5 41.5t3.5 42.5q2 28 5 56.5t7 57.5q3 34 15.5 69t34.5 65.5t53.5 52.5 t72.5 30q10 2 16 2.5t14 0.5q47 0 78 -21t50 -54l91 -101q18 -20 29.5 -47t17 -56.5t6.5 -60.5t-2 -59l-2 -24q-9 -72 -22 -143.5l-27 -143.5l-10 -51q-16 -76 -28 -150.5t-20 -146.5l97 44l22 11q3 1 4.5 2l4.5 3l12 5q27 14 58 27t68 17q8 2 14 2h12q42 0 77.5 -20.5 t53.5 -56.5l96 -102q15 -18 23 -41t6 -51q0 -7 -1.5 -13t-3.5 -15h1q-15 -51 -45.5 -89.5t-70 -69t-83.5 -54.5l-86 -46q-75 -35 -155 -60t-164 -25h-24t-22 1q-48 7 -93 23.5t-76 51.5l-94 103q-25 19 -46 49q-22 48 -30.5 98t-10.5 100q-4 25 -3.5 46zM2370 296 q0 -21 4 -43q2 -47 9 -92.5t27 -87.5q26 -40 70.5 -58.5t91.5 -24.5q44 -5 88 0t87.5 16.5t86 28t83.5 35.5l77.5 42t76.5 49.5t64 62t41 78.5q9 30 1 54.5t-26.5 40.5t-44.5 23t-53 2q-35 -5 -67 -20.5l-64 -31.5l-143 -64t-148 -40q-4 44 -4.5 88t3.5 88q8 86 21 170.5 t30 170.5l33 168.5t25 168.5q6 37 4.5 83.5t-15.5 85.5t-44 63t-82 17q-32 -5 -57 -22.5t-42.5 -42.5t-27.5 -54.5t-12 -58.5q-5 -49 -10.5 -97t-7.5 -97q-1 -51 -2.5 -100t-5.5 -100q-8 -59 -17.5 -117.5t-20.5 -116.5l-17.5 -111.5t-11.5 -111.5v-44zM1220 230l2 19 q2 12 2.5 24t2.5 22q2 11 2.5 20t2.5 18l2 20q0 5 1.5 10.5t1.5 10.5l10 64t7 65l2 29q2 30 3.5 58.5t3.5 58.5q2 45 5 89t7 88q6 72 13.5 144t18.5 144q2 5 3 10.5t1 10.5q1 11 1.5 18.5t3.5 13.5q7 30 23.5 55.5t39 46.5t49.5 37.5t55 28.5q7 1 13 3t11 3q46 14 93 25.5 t90 19.5l-2 -2q33 8 63 13.5l55 10.5v-2q3 0 6 2q5 0 8.5 1t5.5 2q5 0 12.5 1t16.5 3q16 2 32.5 2.5t39.5 0.5h18t21 -1l-2 1q48 -9 83.5 -32t60.5 -55q8 -9 15 -18t14 -19l68 -75l10 -10.5t7 -10.5q23 -28 41.5 -61t18.5 -77v-5q-3 -29 -18 -48t-36.5 -30.5t-45.5 -17 t-44 -7.5q-53 0 -107.5 -4.5t-108.5 -10.5q-21 -2 -41 -7.5t-40 -16.5q40 -2 80 -9.5t77 -33.5q14 -11 25.5 -24t19.5 -29l87 -95l5 -3q27 -30 36 -69.5t5 -81.5v-12q-3 -22 -13 -42t-26 -36t-35.5 -26.5t-41.5 -14.5q-34 -4 -66 -4.5t-67 -0.5q-13 -2 -27 -2h-26h-2 q-41 -2 -79.5 -5.5t-72.5 -20.5q-8 -35 -10.5 -70.5t-6.5 -70.5l-10 -121v-24q0 -11 -2 -24q-4 -36 -9 -70.5t-13 -66.5q-6 -23 -18.5 -45.5t-29.5 -40.5t-39.5 -29t-49.5 -11h-10t-12 2q-35 4 -60 18t-46 36l-88 98q-28 18 -47 46t-30.5 61t-15.5 68.5t-3 69.5zM1263 232 q-2 -37 4.5 -76.5t22.5 -72.5t44 -56.5t70 -28.5q21 -5 39.5 2t32.5 21t24 33t15 38q11 44 17 87t7 87q7 74 12.5 145.5t18.5 143.5q27 18 57 26t60.5 11t61.5 3q32 0 62 2q33 0 65.5 0.5t65.5 4.5q15 3 29.5 11t25.5 19.5t17.5 26t6.5 30.5q5 42 -6 82.5t-44 64.5 q-33 25 -75 29.5t-84 6.5q-26 2 -52 0.5t-52 -3.5q-27 -4 -53.5 -5t-52.5 -6q2 36 11 72.5t22 71.5q12 24 31 41.5t41.5 29.5t47.5 19.5t49 10.5q54 6 108.5 10.5t108.5 4.5q15 1 33.5 4.5t34.5 11.5t27 20.5t12 31.5q0 35 -16 63.5t-37 52.5q-19 27 -45.5 45.5t-61.5 24.5 q-35 7 -70.5 3t-71.5 -6q-36 -7 -74.5 -13.5t-73.5 -15.5q-48 -9 -95 -21t-93 -25q-45 -18 -82 -52.5t-51 -82.5q-3 -12 -3 -25q0 -12 -4 -23q-11 -72 -18.5 -142.5l-14.5 -142.5q-6 -73 -9.5 -146.5t-8.5 -147.5q-3 -50 -10.5 -99.5t-13.5 -99.5q-3 -26 -6.5 -50.5 t-5.5 -50.5zM121 230l2 19q2 12 2.5 24t2.5 22q2 11 2.5 20t2.5 18l2 20q0 5 1.5 10.5t1.5 10.5l10 64t7 65l2 29q2 30 3.5 58.5t3.5 58.5q2 45 5 89t7 88q6 72 13.5 144t18.5 144q2 5 3 10.5t1 10.5q1 11 1.5 18.5t3.5 13.5q7 30 23.5 55.5t39 46.5t49.5 37.5t55 28.5 q7 1 13 3t11 3q46 14 93 25.5t90 19.5l-2 -2q33 8 63 13.5l55 10.5v-2q3 0 6 2q5 0 8.5 1t5.5 2q5 0 12.5 1t16.5 3q16 2 32.5 2.5t39.5 0.5h18t21 -1l-2 1q48 -9 83.5 -32t60.5 -55q8 -9 15 -18t14 -19l68 -75l10 -10.5t7 -10.5q23 -28 41.5 -61t18.5 -77v-5 q-3 -29 -18 -48t-36.5 -30.5t-45.5 -17t-44 -7.5q-53 0 -107.5 -4.5t-108.5 -10.5q-21 -2 -41 -7.5t-40 -16.5q40 -2 80 -9.5t77 -33.5q14 -11 25.5 -24t19.5 -29l87 -95l5 -3q27 -30 36 -69.5t5 -81.5v-12q-3 -22 -13 -42t-26 -36t-35.5 -26.5t-41.5 -14.5q-34 -4 -66 -4.5 t-67 -0.5q-13 -2 -27 -2h-26h-2q-41 -2 -79.5 -5.5t-72.5 -20.5q-8 -35 -10.5 -70.5t-6.5 -70.5l-10 -121v-24q0 -11 -2 -24q-4 -36 -9 -70.5t-13 -66.5q-6 -23 -18.5 -45.5t-29.5 -40.5t-39.5 -29t-49.5 -11h-10t-12 2q-35 4 -60 18t-46 36l-88 98q-28 18 -47 46t-30.5 61 t-15.5 68.5t-3 69.5zM164 232q-2 -37 4.5 -76.5t22.5 -72.5t44 -56.5t70 -28.5q21 -5 39.5 2t32.5 21t24 33t15 38q11 44 17 87t7 87q7 74 12.5 145.5t18.5 143.5q27 18 57 26t60.5 11t61.5 3q32 0 62 2q33 0 65.5 0.5t65.5 4.5q15 3 29.5 11t25.5 19.5t17.5 26t6.5 30.5 q5 42 -6 82.5t-44 64.5q-33 25 -75 29.5t-84 6.5q-26 2 -52 0.5t-52 -3.5q-27 -4 -53.5 -5t-52.5 -6q2 36 11 72.5t22 71.5q12 24 31 41.5t41.5 29.5t47.5 19.5t49 10.5q54 6 108.5 10.5t108.5 4.5q15 1 33.5 4.5t34.5 11.5t27 20.5t12 31.5q0 35 -16 63.5t-37 52.5 q-19 27 -45.5 45.5t-61.5 24.5q-35 7 -70.5 3t-71.5 -6q-36 -7 -74.5 -13.5t-73.5 -15.5q-48 -9 -95 -21t-93 -25q-45 -18 -82 -52.5t-51 -82.5q-3 -12 -3 -25q0 -12 -4 -23q-11 -72 -18.5 -142.5l-14.5 -142.5q-6 -73 -9.5 -146.5t-8.5 -147.5q-3 -50 -10.5 -99.5 t-13.5 -99.5q-3 -26 -6.5 -50.5t-5.5 -50.5z" />
</font>
</defs>
</svg>
