<?xml version="1.0" standalone="no"?>
<!DOCTYPE svg PUBLIC "-//W3C//DTD SVG 1.1//EN" "http://www.w3.org/Graphics/SVG/1.1/DTD/svg11.dtd" >
<svg xmlns="http://www.w3.org/2000/svg">
<metadata>
This is a custom SVG webfont generated by Font Squirrel.
Copyright   : Copyright c Iconian FontsShyFonts Type Foundry 2000
</metadata>
<defs>
<font id="webfontlJ5n67xr" horiz-adv-x="894" >
<font-face units-per-em="2048" ascent="1638" descent="-410" />
<missing-glyph horiz-adv-x="768" />
<glyph unicode=" "  horiz-adv-x="768" />
<glyph unicode="&#x09;" horiz-adv-x="768" />
<glyph unicode="&#xa0;" horiz-adv-x="768" />
<glyph unicode="!" horiz-adv-x="456" d="M68 174q0 25 12 43q10 16 33 31q18 12 41 18q20 6 45 2q29 2 55 -10q16 -8 37 -37q14 -20 18 -51t-2 -55q-2 -20 -16 -41q-14 -23 -31 -33q-23 -16 -41 -21q-29 -8 -43 -6q-25 6 -47 23q-16 12 -35 37q-16 23 -22 47q-6 28 -4 53zM178 518v45q2 18 5 39t7.5 44.5 t6.5 37.5l20 123q18 68 25 133l4 34.5t2 33.5l6 65q2 14 5 43t5 43q4 35 27 82q12 33 22 47q18 25 33 35q25 16 39 18q18 2 41 -4q23 -16 33 -34q14 -25 16 -46q4 -33 4 -53q0 -10 -1 -26.5t-1 -24.5q-10 -109 -33 -201q-10 -41 -53 -198q-18 -43 -31 -92q-12 -47 -30 -95 q-23 -55 -41 -88q-25 -45 -64 -73q-25 6 -32 24q-12 25 -15 41v47z" />
<glyph unicode="&#x22;" horiz-adv-x="702" d="M207 1028q0 14 2 40t2 36q4 45 8 65q8 45 14 68q10 37 27 61q16 27 47 50q4 0 6 2q4 4 9 4l18 4q18 -2 33 -17q8 -8 16 -32q6 -18 6 -41q0 -14 4 -39q0 -35 -4 -96q-4 -66 -8 -97q-2 -8 -3 -26.5t-1 -26.5q-2 -18 -10 -55q-6 -27 -19 -51q-10 -20 -39 -39l-16 -2h-12 q-33 14 -54 47q-16 27 -22 67q-4 25 -4 78zM502 905q-2 18 2 60q2 20 2 55l4 39q4 14 4 43l6 67q0 34 6 68q2 4 4 14.5t2 14.5q4 20 9 30q6 16 14 27q9 12 25 18q18 6 28 5q23 -6 35 -22.5t19 -33.5q10 -33 12 -41l5 -20t3 -19q2 -31 -2 -90l-6 -92q-2 -12 -5 -25.5 t-5 -27.5q-8 -37 -15 -55q-10 -33 -22 -50q-14 -20 -41 -36q-16 -8 -31 -11q-27 6 -41 31q-8 14 -12 51z" />
<glyph unicode="#" horiz-adv-x="970" d="M133 711q6 33 25 45q29 20 47 24q37 8 55 8q10 0 27.5 1.5t23.5 1.5q2 14 5 41.5t3 39.5q2 23 11 82q-25 3 -49.5 0t-49.5 0q-18 4 -26 11q-16 12 -23 20q-8 8 -12 27q-4 16 0 32q14 29 33 39q29 16 45 21q18 4 51 8q37 4 51 6q2 14 10 47q6 25 20.5 49.5t31.5 38.5 q18 16 45 19q10 0 22.5 -4t18.5 -13l12 -18q4 -12 4 -23l-6 -47q0 -8 -2 -23.5t-2 -23.5q57 -4 83.5 -4t84.5 -4q0 10 2 22.5t4 22.5q2 14 10 43q10 31 22.5 51.5t34.5 16.5q20 0 31 -8q23 -14 29 -19l10 -10l10 -17l11 -14v-12q0 -8 -1 -20.5t-1 -20.5q0 -27 2 -41 q8 0 24.5 -3t20.5 -3q18 -2 47 -15q20 -8 35 -26q16 -20 16 -43q-4 -27 -21 -43q-18 -18 -43 -19h-45q-6 0 -22.5 1t-22.5 1l-6 -82q-4 -49 -8 -79q25 -4 41 -4q14 0 43 -5q23 -4 39 -16q14 -12 20 -33q-2 -16 -12 -32q-12 -20 -20 -31q-20 -18 -25 -23q-16 -10 -33 -12h-37 q-6 0 -18 -1t-18 -1q-2 -14 -11 -53q-2 -14 -5 -26.5t-5 -27.5q-4 -27 -22 -43q-23 -18 -48 -18q-29 0 -43 18.5t-20 40.5q-4 16 -4 54q0 8 6 51q-45 -4 -88 0q-43 2 -88 0q-2 -14 -2 -45q0 -18 -4 -47q-4 -20 -13 -29q-16 -16 -26 -23q-14 -8 -29 -14t-31 -6q-25 8 -36 29 q-8 14 -17 43q-6 25 -6 49v49q-70 4 -106 8q-27 4 -41 21q-16 18 -19 43zM473 788q31 2 90.5 2.5t89.5 2.5q0 2 6 81q0 14 2.5 41t2.5 41h-175z" />
<glyph unicode="$" horiz-adv-x="870" d="M76 555l4 14q6 4 12 10.5t8 8.5q8 4 17 4q16 -4 20 -4q2 0 6 -1t9.5 -3t7.5 -2l139 -47q55 -20 145 -27q23 0 35 2q23 4 37 12q16 10 27 21q12 12 12 35q4 31 -4 49t-27 41q-15 18 -37 30l-45 23l-110 31l-111 30q-6 2 -19.5 9.5t-19.5 9.5q-18 8 -35 24q-14 14 -24 35 q-8 14 -4 43q8 29 20 45q10 12 39 33q18 14 45 27l26.5 11t20.5 9q63 27 103 37q70 16 104 22q6 41 19 101q10 51 18 102l7 21.5t7 23.5q4 16 21 45q12 20 29 35q16 12 43 17q29 0 43 -5q18 -4 36 -20q15 -12 25 -31q8 -14 4 -43q0 -4 -12 -57q-2 -12 -17 -53l-16 -60 q-6 -16 -10 -57l6 -6q0 -2 2 -4t2 -4l16 -2h7q35 -6 59 -21q37 -20 53 -31q20 -12 30.5 -20t27.5 -25q14 -14 20 -30q8 -20 8 -37q-4 -14 -10 -19q-12 -8 -18.5 -10t-20.5 -2h-20q-33 4 -48 4q-27 0 -47 6q-14 4 -47 8q-16 2 -49 2h-24q-8 0 -25 -4q-14 -4 -23 -12 q-8 -6 -10 -22q4 -31 29 -54q25 -22 49 -37q16 -10 76 -43l74 -45l26 -26q15 -15 25 -31q12 -20 16 -33q6 -16 2 -41q-4 -29 -14 -47q-16 -29 -27 -41q-15 -18 -37 -37q-18 -16 -41 -28q-53 -35 -92 -52q-47 -20 -98 -26v-12q-2 -8 -2 -26.5t-2 -27.5q-4 -37 -4 -53v-51 q0 -20 -4 -53q-2 -10 -4.5 -28.5t-4.5 -29.5q-2 -27 -20 -55q-20 -31 -49 -39q-27 -8 -62 -8q-4 0 -11 1t-13 2t-13 3q-16 6 -26 23v20v21q2 20 5 38.5t5 34.5q6 43 14 72q2 6 13 76q2 12 4 22t3 16.5t2 15.5t3 24v2v4q-45 2 -92 16q-33 10 -84 37q-41 23 -72 55 q-29 31 -51 74q-4 10 -8 22q-4 17 -2 23z" />
<glyph unicode="%" horiz-adv-x="1218" d="M147 49q6 39 23 62q8 12 35 59q45 76 94 147l96 146l150 237l155 236l156 235l154 238q2 4 7 8t7 8l14 21q4 6 14.5 16.5t20.5 12.5q14 0 39 -9q14 -4 31 -20q12 -12 22 -33q6 -12 6 -39q-39 -94 -84 -170l-100 -164q-53 -80 -110 -157q-98 -141 -109 -158l-205 -303 l-203 -305q-6 -12 -18 -33q-2 -4 -6 -9t-7 -10.5t-5 -11.5q-14 -20 -19 -35q-2 -6 -9 -18t-9 -16q-8 -18 -23 -29q-12 -10 -35 -10q-23 4 -34 10q-14 8 -27 25q-14 18 -18 30q-7 16 -3 39zM170 995q0 18 4 52q8 45 25 98q14 47 47 92q29 47 76 76q49 29 98 35q28 3 55 0 q37 -4 55 -11q28 -9 50 -24q25 -18 36 -37q27 -47 33 -107q6 -55 0 -114q0 -51 -18 -111q-16 -55 -56 -102q-39 -49 -88 -72q-51 -25 -112 -18q-55 -2 -101 24q-49 29 -69 74q-16 25 -23 45q-8 33 -10 49t-2 51zM315 997q0 -14 9 -39q4 -12 20 -28q12 -12 35 -10 q29 -4 51 12q16 12 34.5 36.5t22.5 47.5q8 39 11 51q2 16 2 47q0 33 -2 47q-9 22 -31 31q-23 10 -47 6q-27 -2 -47 -22q-16 -16 -29 -41q-8 -18 -16 -52q-4 -14 -9 -49q-4 -25 -4 -37zM684 199q-8 47 2 104q6 51 23 117q14 55 53 106q43 49 100 68q66 20 119 20q55 4 96 -20 q43 -25 64 -70q23 -43 24 -90q2 -43 -4 -96q-6 -55 -26 -105q-23 -55 -56 -96q-33 -49 -82 -80q-51 -33 -104 -34q-61 -12 -105 12q-45 27 -69 67q-27 48 -35 97zM840 274q4 -33 10 -47q10 -23 28.5 -35t47.5 -6q22 0 37 13q20 16 26 28q8 14 15 39q4 16 8 37q4 29 4 49 q0 35 -4 51q-6 25 -21 39q-16 16 -45 17q-20 0 -47 -10q-23 -8 -37 -33q-10 -18 -14 -45q-2 -14 -6 -47q-4 -32 -2 -50z" />
<glyph unicode="&#x26;" horiz-adv-x="1050" d="M133 492q0 43 21 90q16 39 49 77q27 33 71 64q37 27 82 45q-29 25 -55 59q-23 27 -43 70q-8 16 -16 35q-6 12 -15 37q-4 12 -8 37q-2 12 2 41q2 29 17 63q10 25 32 59q16 25 45 54q23 23 54 43q57 45 118 65q68 23 131 23q27 0 84 -4q29 -2 82 -15q35 -8 76 -28 q29 -14 62 -52q4 -6 8 -18q6 -18 6 -20l-12 -37q-4 -12 -21 -33l-24 -31q-12 -16 -33 -18q-14 4 -43 8q-39 6 -41 6l-51 11t-45 10q-53 10 -99 8q-6 -2 -17 -4t-18 -2q-8 -2 -34 -15q-14 -10 -29 -22q-10 -10 -14 -31q-6 -45 4 -82q12 -43 43 -63q43 -25 76 -33 q20 -4 40.5 -10.5l40.5 -12.5q23 -4 44.5 -7t44.5 -7q33 -6 88 -14q4 18 12 32q12 20 20 29q14 14 29 21q20 8 35 6q25 0 43 -13q20 -14 31 -28q12 -18 18 -39q4 -14 0 -45q-10 -109 -39 -250l-51 -250q-8 -29 -19 -59q-8 -27 -22 -60q-12 -28 -31 -55q-18 -27 -41 -47 q-20 -18 -53 -33q-27 -12 -59 -18l-60 -11q-10 0 -29.5 -1t-29.5 -3q-43 -2 -96 9q-31 6 -88 30q-35 14 -78 47q-49 37 -70 60q-37 45 -53 71q-23 37 -41 80q-16 39 -27 88q-8 38 -4 93zM336 477q-4 -29 6 -53q14 -39 20 -47q20 -29 35 -41l43 -33q49 -29 99 -43 q45 -12 110 -12q14 0 43 4q10 2 20.5 3t20.5 3q10 47 33 176l29 176l-31 6q-6 2 -16.5 3.5t-16.5 1.5q-12 2 -33 6q-10 2 -32 2q-35 0 -101 -8q-41 -4 -96 -23q-20 -6 -45 -16.5t-41 -24.5q-23 -18 -33 -35q-14 -22 -14 -45z" />
<glyph unicode="'" horiz-adv-x="401" d="M195 1024q0 57 4 86l8 64q2 31 12 65q10 37 25 64q16 31 43 51q16 8 35 8q18 -2 30 -14q14 -14 21 -29l12 -35l8 -35l6 -75q4 -45 -2 -80q-4 -25 -8 -70q-2 -27 -14 -72q-10 -39 -27 -65q-16 -29 -49 -51q-6 -2 -16 -2q-8 0 -15 -3q-23 4 -30 11q-10 8 -19 24 q-8 14 -10 29q0 6 -4 16.5t-4 14.5q-6 55 -6 98z" />
<glyph unicode="(" horiz-adv-x="813" d="M115 598q9 108 37 215q25 96 75 209q16 33 54 98q23 41 63 97q33 45 76 88q35 35 88 73q41 31 82 47q43 18 94 15q20 -2 41 -17q18 -12 31 -30q8 -12 16 -41q6 -20 2 -45q-10 -18 -26 -25q-6 -2 -35 -16q-98 -45 -166 -115q-72 -76 -117 -162q-43 -84 -70 -188 q-27 -111 -32 -193q-6 -80 0 -162q6 -84 39 -151q37 -68 94 -119q61 -55 123 -90q6 -2 19 -7l23.5 -9t18.5 -9q20 -10 57 -22q8 -6 14.5 -14.5t2.5 -18.5q-2 -20 -12 -39q-6 -12 -27 -33q-10 -10 -35 -22q-23 -12 -39 -14q-23 -6 -51.5 -2t-46.5 8q-29 8 -45 16l-43 25 q-78 45 -141 123q-61 74 -99 163q-37 78 -57 179q-18 88 -8 188z" />
<glyph unicode=")" horiz-adv-x="811" d="M150 37q0 12 6 20q4 4 14 12.5t23 10.5q8 2 20 6q53 16 94 45q39 29 78 70q43 47 66 84q41 68 51 90q47 94 76 203q29 104 36 210q8 84 -12 164q-20 78 -65 148q-43 66 -109 117q-68 51 -143 75q-4 2 -11.5 4t-11.5 4q-8 2 -24 11q-12 6 -21 14q-6 6 -10 23q2 18 16 38 q8 12 33 29t39 21q2 0 17.5 5t23.5 7q76 10 162 -16q41 -25 59 -37q25 -16 51 -43q57 -53 103 -129q43 -70 67 -152q23 -76 33 -164q8 -84 0 -170q-6 -72 -20 -129q-12 -55 -41 -125q-37 -92 -52 -121q-33 -68 -63 -118l-68 -109q-37 -59 -82 -106q-41 -43 -102 -78 q-55 -31 -125 -25q-20 2 -39 13q-12 6 -33 22q-18 18 -26 35q-10 21 -10 41z" />
<glyph unicode="*" horiz-adv-x="757" d="M123 731q6 33 31 53q12 10 47 37q20 14 61 39q6 4 19.5 11.5l23.5 13.5t19 12q-4 4 -52 39q-33 25 -49 39q-20 18 -39 39q-20 25 -20 53q10 33 32.5 55.5t57.5 26.5h8l4 -1l4 -1l21 -10q41 -47 51 -55.5t51 -55.5q4 29 4 47q0 12 1 24.5t1 22.5l7 49q2 12 16 48 q10 23 29 38q23 18 47 19q27 -4 47 -21q20 -18 20 -43l-14 -84l-12 -82l41 33l45 33q14 10 43 27q14 8 45 12q31 -6 51 -26.5t20 -55.5q0 -14 -6 -28.5t-18 -22.5q-51 -25 -107 -62l-104 -65q43 -29 84 -60q39 -29 88 -57q14 -14 16 -24q4 -16 -2 -33l-6 -31q-6 -14 -16 -29 q-12 -18 -23 -24q-14 -10 -31 -10q-20 0 -41 14q-6 4 -17 12t-17 12q-23 23 -35 31q-18 12 -37 31q2 -18 2 -55v-56q-10 -39 -41 -55q-18 -10 -35 -16q-25 -8 -35 -9q-14 0 -24 11q-6 6 -14 22q-6 12 -7 27q0 6 -2 15t-2 13q-2 20 2 60q0 14 2 29.5l4 31.5l-51 -39l-53 -36 q-2 -2 -16 -7q-6 -2 -21 -2q-33 6 -61 25q-23 14 -27 20q-6 13 -10 31z" />
<glyph unicode="+" horiz-adv-x="729" d="M90 705q2 12 14 28q9 12 25 19q29 12 33 12l31 6q41 10 83 10q47 0 70 2q8 49 10 74q3 37 13 74q2 16 12 33q12 20 22 30q12 12 27 19q20 8 37 8q27 0 45 -21q20 -23 23 -49q-4 -57 -5 -88q0 -59 -4 -88q25 -2 74 -2t74 -6q12 -2 32.5 -10t30.5 -19q14 -14 19 -24 q6 -16 6 -35q0 -12 -8 -29q-6 -14 -19 -22q-16 -12 -24 -17q-16 -8 -29 -8q-14 0 -43 -1t-43 -1t-43 -1t-43 -1l-6 -78q0 -4 -3 -17.5t-3 -19.5q0 -25 -2 -39q-4 -18 -15 -32q-14 -18 -28 -27q-10 -8 -35 -16q-12 -4 -37 -9q-35 12 -47 41q-10 25 -15 62q-2 33 0 69 q4 49 5 66q-14 2 -39 2q-6 0 -19.5 -1t-19.5 -1q-14 2 -37 2h-39q-18 0 -33 10l-12 11l-12 12v2q-10 12 -17 33q-6 19 -6 37z" />
<glyph unicode="," horiz-adv-x="401" d="M51 -74q4 57 31 107q37 66 57 98q20 29 30.5 45.5t35.5 44.5q12 14 41 35q22 15 49 18q18 -4 27 -10q16 -12 20 -20q8 -16 10 -27q2 -14 0 -29v-16q0 -6 -2 -12q-4 -37 -10 -55.5t-23 -51.5q-14 -27 -30 -47l-33 -45l-29 -33q-20 -25 -30 -34q-4 -4 -35 -25 q-20 -14 -41 -16q-4 2 -12.5 2t-14.5 2q-27 6 -33 26q-8 29 -8 43z" />
<glyph unicode="-" d="M176 707q16 29 43 41q37 16 57 20q41 8 62 8q23 0 59 4q14 -2 45 -2q8 0 22.5 -1t22.5 -1q33 0 47.5 -2t45.5 -2q6 0 18 1t18 1q10 0 35 -4q39 0 60 -2q41 -4 59 -10q29 -10 51.5 -28.5t24.5 -51.5q-2 -12 -15 -29q-10 -12 -22 -22q-8 -6 -29 -15q-15 -6 -30 -6 q-120 -6 -240 -6q-160 0 -240 2q-25 0 -37 10q-4 2 -15 10.5t-15 12.5q-16 20 -23 33q-10 19 -4 39z" />
<glyph unicode="." horiz-adv-x="440" d="M109 106q-6 28 0 56q2 25 16 47q12 23 32.5 39t41.5 24q27 10 49 11q23 2 47 -9q22 -9 37 -24q12 -12 22 -37q10 -23 6 -47q-6 -63 -43 -109q-12 -14 -45 -39q-27 -20 -55 -16q-35 0 -55 14q-23 16 -35 37q-10 18 -18 53z" />
<glyph unicode="/" horiz-adv-x="761" d="M43 74q6 57 27 106q18 47 47 103l55 112q20 37 59 115l70 139q55 104 70 139l112 205q63 111 123 201q14 20 39 61q20 35 41 64q12 16 21 24q10 12 26 21q20 12 31 14q16 4 33 -2q12 -4 28 -10q15 -6 19 -25q-2 -29 -17 -63q-2 -6 -7 -19.5l-9 -23.5t-8 -18l-64 -132 q-92 -199 -229 -456l-252 -449q-4 -4 -34.5 -51t-37.5 -53q-23 -27 -45 -43q-25 -18 -57 -19q-16 2 -31 23q-12 21 -10 37z" />
<glyph unicode="0" horiz-adv-x="1019" d="M147 659q18 227 117 420q20 39 55 95q25 39 72 86q43 43 86 65q49 27 105 29q92 0 157 -33q72 -35 115 -88t76 -129q29 -72 45 -152q16 -86 16 -159q0 -88 -8 -154q-14 -117 -41 -207q-31 -104 -86 -194q-23 -39 -65 -88q-35 -39 -82 -72q-47 -31 -94.5 -49.5 t-104.5 -14.5q-59 0 -102 21q-49 23 -84 55q-29 27 -64 80q-23 35 -47 88q-43 98 -57 195q-17 110 -9 206zM344 538.5q0 -51.5 2 -77.5q4 -41 12 -78q10 -39 27 -68q16 -27 47 -51q25 -18 74 -22q33 -2 65 10q31 12 60 35q25 18 49 51q18 25 33 59q31 63 49 133 q14 55 22 138q6 74 7 147q0 80 -15 146q-14 53 -22 73q-16 35 -35 60q-20 27 -51 43q-29 16 -66 12q-39 -2 -70 -25q-27 -18 -51 -57q-23 -35 -37 -70q-27 -63 -28 -69q-23 -59 -45 -158q-18 -76 -25 -158q-2 -22 -2 -73.5z" />
<glyph unicode="1" horiz-adv-x="477" d="M170 1202q6 45 8 49q4 10 23 43q8 14 32 35q18 14 46 19q35 -6 65.5 -24.5t52.5 -47.5q29 -37 39 -59.5t23 -67.5q10 -80 0 -158l-19 -168l-20 -166q-16 -115 -27 -170q-14 -74 -20 -168l-6 -43q-2 -14 -2 -45q0 -27 -3 -41l-4 -40q-4 -25 -6 -39q-2 -16 -12 -37t-23 -33 q-14 -14 -34 -21q-28 -6 -56 7q-18 8 -43 36q-16 47 -14 89l6 90q8 98 17 151q4 37 10 76l12 76q18 115 23 155q4 25 10 76t10 78q0 23 4 59q2 18 2 58q0 2 -6 57q-2 27 -16 53q-2 2 -7.5 8.5t-10.5 10.5t-9 8q-8 8 -25 27q-14 18 -18 30q-4 14 -2 37z" />
<glyph unicode="2" horiz-adv-x="1056" d="M182 1026q0 29 4 43q10 45 31 78q16 27 55 61q31 28 68 49q33 18 76 37q84 35 161.5 47.5t165.5 8.5q25 0 50 -11q18 -8 38 -24q18 -15 31 -37q2 -4 8.5 -13.5t10.5 -16.5t6 -13q16 -39 26 -98q8 -45 2 -101q0 -31 -10 -71q-8 -35 -24 -70q-14 -33 -33 -66l-37 -63 l-98 -141l-101 -142q-14 -20 -41 -63q-10 -12 -39 -68q-12 -23 -28 -67q-12 -33 -19 -72q16 4 35 7l39.5 6t32.5 5q76 12 106 23q27 4 51.5 10l49.5 12q49 8 102 13h17q12 0 18 -2q16 -12 22 -21q4 -4 8.5 -12t8.5 -12q6 -8 14 -25q6 -14 4 -29q-27 -31 -65 -49 q-53 -27 -74 -33q-8 -2 -24.5 -8t-30 -10t-25.5 -6q-59 -14 -80 -21q-16 -4 -180 -30q-92 -14 -182 -6q-25 0 -47 14q-16 10 -29 33q-14 25 -16 45q-4 33 -2 49q6 72 41 145q37 76 75 135l113 164l111 162q23 35 43 72q14 25 38 74q18 39 31 75q12 43 19 78q4 23 0 41 q-2 18 -17 35q-10 14 -28 22q-14 8 -39 5q-57 0 -107 -21l-102 -43q-29 -20 -39 -45q-8 -14 -27 -55q-14 -33 -39 -49q-29 -18 -57 -19q-29 -4 -43 8q-16 14 -23 33q-6 20 -6 43z" />
<glyph unicode="3" horiz-adv-x="1030" d="M170 1057q8 27 12 30q14 27 43 54l49 47l58 39l57 37l30.5 15l31.5 15q41 20 61 29q39 16 66 20q45 8 65 9q51 0 92 -21q39 -18 76 -53q35 -35 53 -72q20 -43 19 -90q-4 -37 -15 -67q-16 -45 -28 -66q-25 -41 -39 -61l-41 -58q66 4 114 -20q49 -23 87 -70q35 -45 47 -100 q14 -63 0 -119q-6 -57 -25 -109q-18 -55 -49 -102q-33 -53 -68 -90q-43 -47 -82 -80q-49 -41 -90 -68q-47 -29 -100 -51q-61 -25 -107 -32q-55 -8 -108 -7q-29 2 -53 21q-14 10 -41 41q-16 27 -25 51q-10 29 -6 59q-4 16 8 26.5t27 14.5q2 0 8 1t8 1h19l61 5q41 4 61 10 q70 18 121 39q57 25 109 63q25 18 47 41t41 47q10 14 29 56q10 25 14 59q2 12 2 35q0 16 -10.5 32.5t-22.5 24.5q-14 8 -35 8q-100 0 -166 -12q-83 -15 -159 -55q-14 -10 -43 -23q-14 -6 -43 -22q-23 4 -39.5 16t-28.5 29q-8 10 -20 34q-10 20 -11 41q2 12 15 37 q6 12 24.5 30.5t30.5 27.5l17.5 12l17.5 12l94 58l44 25.5l52 31.5q41 31 74 78q31 47 37 96v23q0 16 -2 24q-4 14 -8 19q-8 8 -19 10q-29 -4 -53 -13q-16 -6 -49 -22q-23 -10 -47 -27q-41 -25 -47 -28q-35 -20 -72 -47q-31 -23 -76 -43q-14 2 -35 12q-12 6 -28.5 22.5 t-22.5 26.5q-8 15 -8 33z" />
<glyph unicode="4" horiz-adv-x="954" d="M88 707q6 59 27 114l43 111l53 110q25 53 59 109q6 10 14.5 20.5t16.5 24.5q20 33 31 47q16 25 37 41q23 20 45 31q20 2 41 -10q18 -12 32 -27q16 -10 27 -33q6 -12 10 -41q-18 -55 -45 -102l-55 -101l-29 -53l-28 -55q-10 -18 -27 -55q-12 -27 -18 -58l2 -16v2 q49 -4 71 -6q34 -3 68 -12l69 -13q33 -6 72 -6h17h4q18 90 24 184q4 53 17 181q8 49 8 77q0 37 12 76q2 14 12 35q8 16 23 31q16 16 29 20q20 6 36 4q29 -4 41 -12q20 -14 30.5 -28.5t17 -39t4.5 -45.5l-9 -110q-2 -33 -10 -113l-6 -94q-3 -46 -12 -92q0 -8 -1 -24.5 t-1 -24.5q0 -33 2 -47q31 -12 53.5 -41t17.5 -66q-4 -20 -8 -31q-2 -4 -16 -28q-8 -14 -23 -25q-12 -9 -30 -6l-13 -43q-4 -14 -8 -43q-4 -41 -4 -66q0 -23 -4 -63q0 -23 -4 -64q0 -10 -2 -31.5t-2 -31.5q-2 -18 -11 -45q-6 -22 -18 -43q-12 -20 -29 -35q-18 -15 -43 -18 q-18 -2 -34 0q-14 2 -31 12q-10 6 -22.5 22.5t-12.5 30.5q-12 31 -8 70l6 71q6 20 6 47t6 48l6 24.5t4 22.5l7 47q0 6 1 19.5t1 19.5v37q-31 6 -64 6q-20 0 -61 4q-76 6 -105 8q-37 2 -106 14q-52 9 -98 31q-45 20 -84 60q-12 16 -17 41q-4 33 -4 45z" />
<glyph unicode="5" horiz-adv-x="1042" d="M164 637q8 80 14 125l19 125q10 47 20 121q4 33 23 120q4 27 12 52q10 27 24 47q47 47 103 71q57 25 115 37q41 8 122 13q41 2 121 2q27 0 51 -7q27 -6 48 -18q43 -37 34 -94q2 -16 -10 -29q-14 -14 -24 -18q-18 -4 -25 -2q-12 4 -27 0q-31 2 -88 -2q-61 -4 -88 -9 q-16 -2 -47 -9t-37 -9q-41 -8 -82 -33q-4 -37 -14 -88q-4 -29 -16 -90l-17 -90q-8 -61 -10 -92l-2 -19l2 -10q31 49 74 92q39 39 94 74q51 31 106 47q51 14 113 14q72 6 125 -20.5t90 -75.5q33 -43 49 -110q14 -59 2 -127q-6 -61 -30 -121q-25 -58 -62 -111 q-45 -63 -82 -100q-51 -51 -94 -86q-51 -43 -102 -78q-45 -33 -111 -59q-59 -25 -119 -37q-61 -12 -121 -6q-20 4 -47 20q-18 10 -37 37q-12 20 -18 47q-4 16 -4 53q-2 20 8 41q14 25 35 27q8 2 26.5 2t26.5 2q18 2 55 2q18 2 58 2q31 0 55 8q68 23 111 62q57 49 92 90 q18 25 39 49q20 23 39 51q18 28 30 55q14 31 17 60q2 10 2 33q0 12 -8 32q-6 18 -17 25q-10 8 -30 8q-61 -6 -107 -35l-92 -63l-92 -74q-66 -49 -92 -74l-50 -28q-25 -16 -55 -13q-33 4 -51 23q-22 22 -31 49q-6 12 -14 57q-6 27 -2 62z" />
<glyph unicode="6" horiz-adv-x="970" d="M133 481q10 121 41 219q29 94 74 213q6 18 39 103l43 104q10 27 51 99q29 53 63 92q25 20 48 28q28 9 55 13h26q14 0 25 -9q6 -14 14 -30q6 -12 6 -23q2 -10 3 -28v-31l-54 -105l-57 -102l-64 -133q-29 -63 -45 -137q31 31 68 49q39 18 76 31q35 10 80 14q53 4 80 4 q65 -3 122 -25q57 -20 93 -75q35 -51 47 -109q10 -51 4 -119q-12 -102 -53 -182q-47 -96 -107 -160q-27 -31 -70 -67q-45 -39 -79 -56q-51 -25 -87 -34q-49 -12 -94 -11q-43 0 -82 13q-27 8 -71 36q-31 20 -61.5 53.5t-49.5 63.5q-45 68 -65 142q-25 85 -19 159zM342 336 q-2 -31 10 -53q14 -25 33 -35q27 -16 49 -21q31 -6 51 -4q55 -3 111 19q55 20 94 63q41 43 62 94q20 49 26 107q6 20 2 51q-4 29 -16 51.5t-34.5 34.5t-51.5 10q-45 0 -86 -14q-29 -10 -78 -43q-31 -18 -70 -53q-35 -31 -55 -70q-18 -31 -31 -67q-14 -41 -16 -70z" />
<glyph unicode="7" horiz-adv-x="950" d="M168 1106q6 47 28.5 80t59.5 63.5t74 46.5q23 10 82 29q86 22 172 25q100 4 174 -4q34 -3 73 -13q43 -10 74 -26q39 -20 58 -45q20 -27 24 -72q-23 -76 -33 -98q-14 -31 -39 -97l-145 -319l-149 -320q-16 -25 -27 -59q-16 -55 -19 -59q-8 -23 -14 -54q-2 -8 -5 -26.5 t-5 -28.5q-4 -14 -12 -47q-6 -25 -21 -45q-35 -23 -74 -23q-25 -2 -47 11q-22 12 -37 30q-10 12 -18 45q-6 29 -2 50q6 72 25 118q14 39 47 113l133 297q78 170 131 297q8 16 21.5 49t15.5 39q12 29 32 90q-12 0 -36.5 4t-36.5 4q-25 4 -39 4q-6 0 -18.5 1t-20.5 1 q-51 0 -92 -8q-46 -9 -86 -31q-18 -10 -39 -30l-11.5 -11.5t-13.5 -12.5t-10 -11q-20 -25 -25 -29q-14 -12 -34 -12q-43 -4 -84 18q-18 12 -27 27q-10 16 -4 39z" />
<glyph unicode="8" horiz-adv-x="989" d="M133 360q4 53 23 97q23 51 57 86q43 47 84 73q39 27 98 48q-35 10 -86 38q-37 20 -73 62q-33 35 -48 78q-16 47 -8 98q12 82 55.5 151.5t102.5 127.5q58 61 135 98q72 35 158 35q74 0 135 -31q63 -31 106 -84q41 -45 76 -113q31 -59 27 -135q0 -59 -19 -102 q-23 -51 -55 -90q-29 -35 -82 -70q-45 -29 -94 -45q41 -18 78 -45q41 -31 65 -64q27 -35 39 -79q14 -51 6 -95q-12 -80 -51 -143q-47 -78 -96 -123q-55 -53 -129 -88q-72 -35 -152 -31q-71 0 -135 25q-59 23 -112 76q-51 47 -78 110q-29 69 -27 135zM352 342q0 -28 13 -49 q12 -20 34 -37q18 -14 50 -20q27 -6 55 -7q59 -2 119 29q25 18 43 43t18 55q3 28 -6 56q-6 18 -31 47q-16 20 -43 33q-20 10 -53 10q-39 0 -70 -15q-34 -15 -61 -36q-33 -29 -45 -48q-21 -28 -23 -61zM426 981q-6 -27 4 -55q10 -31 25 -47q16 -20 43 -33q20 -10 53 -10 q35 0 70 18q34 18 61 43q23 31 41 59q18 31 18 68q2 23 -4 49.5t-22 44.5q-18 23 -37 33t-47 10q-37 0 -74 -16q-33 -14 -59 -41q-23 -23 -45 -57q-21 -33 -27 -66z" />
<glyph unicode="9" horiz-adv-x="966" d="M119 846q6 68 31 135q27 72 59.5 127t89.5 108.5t115 83.5q51 29 90 39q49 12 94 13q51 0 84 -11q43 -12 74 -32q39 -25 63 -49q29 -31 51 -64q47 -66 66 -145q18 -84 16 -164q-6 -63 -18 -125t-31 -123q-8 -27 -41 -121l-47 -121q-16 -33 -49 -106.5t-51 -108.5 q-31 -59 -68 -98q-43 -47 -94 -70q-29 -2 -47.5 16.5t-11.5 49.5l2 26q2 4 2 13q0 10 2 14q16 57 28 84l37 82l41 80l41 80l55 119q25 59 39 122q-31 -43 -71 -77t-86 -56q-49 -22 -99 -37q-55 -16 -100 -14q-65 0 -123 25q-57 25 -92 75q-39 51 -47 109q-10 66 -4 121z M307 791q4 -27 12 -48q10 -25 29 -36q20 -12 47 -11q49 0 90 21q25 12 80 49q31 20 68 57t55 72q4 6 31 66q16 35 18 67q4 31 -8 47q-12 18 -31 31q-12 8 -45 16q-16 4 -47 4q-53 6 -112 -18q-49 -20 -93 -64q-41 -41 -65 -92q-23 -49 -27 -110q-4 -35 -2 -51z" />
<glyph unicode=":" horiz-adv-x="423" d="M92 182q0 23 14.5 45.5t32.5 32.5q16 8 45 16q25 6 45 7q25 4 45 -2q25 -6 39 -19q15 -12 25 -31q8 -18 2 -45q-6 -31 -16 -59q-10 -33 -29 -53l-7 -11q-7 -10 -12 -14q-8 -8 -24 -20q-10 -8 -26.5 -14.5t-28.5 -6.5q-33 4 -54 21q-20 18 -32 41q-14 27 -17 55 q-2 20 -2 57zM176 748q2 10 14 45q10 27 21 45q12 20 33 34q16 10 45 15q20 0 41 -10q18 -10 30 -27q10 -16 15 -39q3 -22 0 -43q0 -8 -1 -25.5t-1 -25.5q0 -27 -11 -53q-8 -27 -32 -41q-23 -14 -51 -15q-31 4 -50 15q-23 12 -30 34q-18 23 -21 41q-2 17 -2 50z" />
<glyph unicode=";" horiz-adv-x="450" d="M72 -45q6 47 30 94q16 31 54 88q6 8 32 45q25 33 37 45q20 20 43 35q20 14 54 21q10 2 26 -7q12 -6 19 -18q8 -16 10 -26.5t-2 -30.5l-2 -19v-12q-2 -14 -15 -53q-12 -37 -22 -54q-20 -33 -33 -49l-33 -47l-28 -33q-20 -25 -29 -32q-14 -14 -34.5 -24.5t-41.5 -10.5 l-18 6l-10 2q-25 10 -31 33q-6 24 -6 47zM213 682q0 33 2 51q0 23 10 53q6 18 27 48q14 20 39 32q27 12 51.5 10t48.5 -20q25 -16 35 -39q16 -33 20 -51q6 -25 3 -53q0 -29 -8.5 -47.5t-26.5 -40.5q-12 -16 -39 -27q-23 -10 -47 -6q-18 2 -56 10q-23 6 -45 31q-14 20 -14 49 z" />
<glyph unicode="&#x3c;" horiz-adv-x="747" d="M82 676q6 25 20 45q10 14 35 35q2 2 16.5 14t22.5 18q4 2 18.5 12.5l22.5 16.5l50.5 31.5l41.5 25.5l94 58q8 6 24.5 14t25.5 15l15 10t17.5 11t16.5 9l51 23q31 12 55 14q29 -6 49 -27q23 -23 23 -53q0 -12 -4 -28q-2 -12 -21 -23q-121 -76 -161 -104l-164 -109l153 -82 q68 -35 156 -76q16 -10 20 -34q4 -27 -2 -46q-6 -28 -24 -49q-20 -25 -47 -26q-16 -2 -41 2q-16 2 -39 10q-6 2 -18.5 9t-16.5 9q-25 12 -35 19l-80 43q-20 12 -38.5 24.5t-36.5 22.5l-31 16l-16.5 8.5t-16.5 10.5q-29 20 -45 28q-27 12 -43 33q-2 2 -5 6l-3 4q-6 6 -8 11 q-12 8 -21 20q-6 9 -10 29z" />
<glyph unicode="=" horiz-adv-x="921" d="M174 539q-2 12 4 24q2 4 17 19q4 4 24 14q8 4 25 8q29 6 82 10q47 4 67 2q8 0 22.5 -1t20.5 -1q14 0 43 -4q29 -2 88 -2q4 0 13.5 -1t13.5 -1q16 0 24 2q4 0 11.5 1t11.5 1q16 0 25 -2h55q33 -4 57 -12q25 -10 41 -29q14 -18 8 -53q-4 -23 -14 -33q-14 -14 -29 -22 q-16 -10 -32 -13q-2 0 -15.5 -3t-19.5 -3q-100 -8 -228 -8q-102 0 -225 10q-20 0 -35 9q-16 8 -28 22q-12 12 -19 31q-8 25 -8 35zM207 819q-4 18 2 35q16 35 39 49q25 16 59 27q31 8 66 12q10 0 30.5 1t30.5 3h41q25 0 39 -2q10 0 20.5 -1t20.5 -1h41q14 4 27 0q8 -2 26 -2 q14 4 27 0h24q29 0 56 -6q37 -8 53 -16q23 -12 41 -33q14 -18 18 -49q2 -18 -6 -33q-8 -12 -20 -23q-10 -8 -30.5 -12t-31.5 -2q-86 2 -254 2q-170 0 -256 -2q-16 0 -30 6q-12 4 -23 19q-6 8 -10 28z" />
<glyph unicode="&#x3e;" horiz-adv-x="747" d="M182 399q0 8 8 29q6 14 21 21l164 112l164 117l-154 90l-154 86q-8 6 -14 14q-2 2 -3 6.5t-2 8.5t-1 6q-2 6 -2 22q0 8 4 21q8 29 23 49q18 25 47 27q68 -10 116 -39l109 -58q61 -33 117 -71q78 -53 112 -84q0 -2 4 -5t4 -6q4 -8 9 -10q14 -14 20 -22q8 -10 8 -27 q-6 -25 -20 -45q-16 -23 -33 -39q-20 -20 -41 -35l-39 -30l-94 -64q-72 -49 -92 -59l-51 -31q-33 -20 -50 -29q-29 -14 -53 -22q-28 -9 -55 -13q-29 6 -49 27q-19 18 -23 53z" />
<glyph unicode="?" horiz-adv-x="966" d="M166 1030q6 43 24 80q16 35 48 68q25 27 63 55q41 29 72 45q70 37 155 57q76 18 160 15q61 -2 123 -19q59 -14 107 -55q47 -43 65 -102q18 -55 14 -121q-16 -61 -43 -101q-31 -45 -69 -82q-49 -45 -88 -69l-99 -60l-102 -53l-96 -49q14 -8 35 -12q2 0 14 -3t20 -3 q6 0 18.5 -1.5t18.5 -1.5q10 0 35 -4q53 -4 80 -4q35 0 80 -10q4 -8 4 -25q0 -4 1 -11t1 -11q-4 -31 -21 -53q-20 -27 -43 -41q-23 0 -35 -2t-34 -2q-12 -2 -35 -2h-35q-76 0 -115 6q-61 10 -112 26q-8 2 -47 23q-25 12 -43 31q-20 20 -29 43q-9 25 -6 55q4 29 18 53 q14 23 35 43q23 23 45 37l16.5 12t15.5 10.5l17 10.5l131 67l134 68l45 25q10 4 43 28q16 12 34 37q14 20 21 47q0 34 -19 55q-14 16 -45 31q-25 10 -59 15q-41 4 -57 4q-45 0 -103 -11q-39 -6 -98 -36q-37 -27 -53 -50l-41 -59q-12 -29 -39 -51q-27 -25 -55 -27 q-10 0 -31 8q-15 6 -25 19q-12 16 -14 26q-4 21 -2 31zM254 170q0 37 12 59q14 27 39 45q29 20 53 29q31 8 58 6q33 4 63 -6q37 -10 57.5 -26.5t34.5 -47.5q12 -27 7 -63q-2 -23 -15 -57q-10 -31 -28 -50q-14 -18 -46 -32q-25 -12 -53 -13q-34 0 -67 13q-37 12 -60 28 q-29 23 -43 51q-14 31 -12 64z" />
<glyph unicode="@" horiz-adv-x="1437" d="M147 649q4 106 35 193q35 94 90 174q59 84 131 145q82 70 164 113q78 43 183 65q88 20 192 11q66 0 111 -11q47 -10 102 -34q49 -22 92 -56q43 -33 76 -75q70 -92 92 -191q25 -109 17 -217q-4 -66 -11 -94q-10 -51 -26 -92q-23 -55 -41 -88q-20 -35 -60 -78 q-27 -35 -71 -70q-40 -31 -86 -49q-51 -20 -95 -29q-55 -10 -98 -10q-74 -2 -156 10q-68 10 -151 39q-45 16 -68 29q-45 25 -63 41q-20 18 -43 55q-20 33 -17 74q0 25 15 61q12 31 31 56q12 16 45 45q12 10 55 34q66 33 125 48q70 16 129 16q25 0 37 -2t37 -2q0 18 -9 51 q-6 25 -20 49q-12 20 -33 39q-18 16 -47 27q-6 0 -18.5 2t-18.5 2q-4 0 -18.5 3t-22.5 5q-23 4 -33 23q-10 23 -8 40q4 23 13 41q8 16 26.5 30.5t36.5 21t39 6.5q27 0 72 -8q33 -6 65 -23q35 -18 57 -37q18 -16 41 -53q39 -63 48 -131q10 -78 2 -141q-6 -84 -29 -150 q-25 -74 -70 -137q27 0 58 6q20 4 57 20q25 10 51 31q16 12 41 45q35 55 47.5 110.5t18.5 119.5q14 84 -6 166q-23 84 -68 145t-121 98q-70 35 -164 29q-74 10 -145 -6q-74 -16 -137 -49q-70 -37 -123 -84q-57 -51 -96 -111q-45 -68 -64 -131q-23 -74 -23 -145 q-2 -31 -2 -93q0 -45 10.5 -92t26.5 -86q18 -43 45 -76q27 -37 64 -63.5t78 -44.5q39 -16 88 -27q47 -10 94 -6q27 4 45 -14.5t14 -45t-12 -38.5q-12 -18 -27 -33q-8 -8 -36 -22q-16 -8 -39 -9q-61 0 -119 13q-51 10 -111 39q-49 23 -96 63q-43 37 -78 84q-72 92 -98 205 q-29 114 -19 231zM623 526q6 -12 14 -20q6 -6 22 -14q18 -8 23 -11q8 -2 25 -10q25 -12 53 -18q18 -4 55 -9q31 31 47 62q23 41 33 72q-6 0 -14.5 2t-14.5 4t-14 4t-14 2q-18 -2 -56 -2q-25 0 -53 -6l-20 -2q-25 -6 -27 -8.5t-6 -2.5t-6 -2q-23 -8 -35 -20q-10 -11 -12 -21z " />
<glyph unicode="A" horiz-adv-x="1130" d="M106 217q4 61 21 117q10 33 45 110l55 125q12 29 60 123q18 66 63 193l66 188l39 82q14 35 45 84q27 45 57 72q34 31 80 43h11q36 0 69 -17q35 -16 65 -45q29 -31 52 -63q27 -43 36 -74q14 -35 21 -80q2 -18 16 -82l22.5 -102.5l26 -119.5t19.5 -103q35 -182 53 -328 l12 -55l5.5 -28.5t5.5 -27.5l4 -59q1 -7 0 -14q0 -22 -6 -43v-4q-4 -27 -25 -46q-23 -20 -45 -22q-4 0 -14.5 -1t-14.5 -1q-20 0 -28 2q-16 4 -25 8q-12 6 -18 19q-12 20 -17 53q-4 37 -8 55q-2 18 -5 36.5t-5 37.5q-4 49 -8 74q-27 10 -47.5 16t-47.5 2l-104 -6 q-53 -4 -100 -14q-61 -12 -93 -23q-45 -14 -88 -45q-23 -27 -32 -66l-17 -69q0 -15 -6 -31q-6 -14 -16 -29q-8 -10 -27 -18q-8 -3 -17 -3q-6 0 -14 1q-33 6 -53 24q-25 20 -35 46q-33 47 -33 108zM455 567l2 -12h35h32q25 -4 35 -4h37q6 -1 13 -1q11 0 34 3q29 4 49 12 q23 10 39 29q18 20 21 45q0 53 -11 115q-12 74 -20 110.5t-29 110.5l-30 106q-49 -49 -78 -100t-56 -115q-6 -14 -43 -121q-23 -61 -24 -124l-2 -13l2 -12q-2 -6 -2 -14q0 -3 -4 -15z" />
<glyph unicode="B" horiz-adv-x="1146" d="M158 414q2 55 12 114q10 70 20 115l25 119q10 49 21 117q6 68 6 69v70l6 67q0 23 8 68q18 63 61 100q45 39 99 60q47 18 114 28q39 6 113 11q15 1 29 0q49 0 92 -9q61 -12 113 -36q41 -20 49 -27q16 -12 41 -41q20 -25 28 -47q8 -25 9 -59q0 -31 -7 -66q-6 -39 -20 -66 l-37 -55q-18 -27 -41 -53q63 -18 105 -57q45 -43 71.5 -94.5t42.5 -108.5q10 -35 10 -73q0 -23 -4 -46q-10 -68 -37 -111q-35 -55 -71 -92q-41 -41 -94 -75q-63 -41 -103 -60q-72 -35 -123 -55q-86 -33 -129 -47q-51 -16 -121 -33q-47 -12 -91 -12l-31 2q-63 16 -97 57 q-35 45 -49 96q-16 55 -18 115q-2 41 -2 115zM371 395q-3 -11 -3 -22.5t3 -22.5q4 -14 20 -39q12 -18 33 -26q25 -10 45 -11h14q60 0 119 23q68 27 123 63q31 20 53 43q41 39 47 50q25 31 35 57q14 33 17 65q1 9 0 17q0 31 -11 55q-16 37 -39 60q-2 2 -6 5t-7 5l-3 2 q0 2 -4 4l-4 2q-4 0 -78 -6q-37 -3 -74 -12q-49 -12 -73 -23q-29 -12 -68 -37q-41 -29 -59 -49q-25 -28 -43 -61t-27 -68q-10 -41 -10 -74zM438 879q0 -16 4 -45q57 4 101 22q49 22 92 49q14 8 43 28.5t39 31.5q20 20 31 39q16 29 18 47q2 25 -10.5 47t-30.5 32 q-16 12 -43 17q-8 0 -24.5 2t-24.5 2q-2 0 -24.5 -2t-33.5 -4q-31 -6 -51 -23q-27 -12 -45 -37q-16 -20 -22 -51l-8 -55l-9 -55q0 -6 -1 -22.5t-1 -22.5z" />
<glyph unicode="C" horiz-adv-x="1083" d="M137 649q8 117 53 230q43 113 111 213q25 41 74 96q43 49 86 84q47 39 102 59q53 20 117 21q84 0 153.5 -39t120.5 -96q49 -49 86 -130q31 -68 31 -138v-13q1 -5 1 -10q0 -15 -7 -27q-10 -16 -23 -25q-20 -12 -34 -14q-25 -4 -35 -2q-35 4 -60 25q-29 25 -39 51l-24 67 q-6 14 -12.5 31t-12.5 35q-12 33 -37 53q-27 23 -59 23q-45 0 -84 -19q-35 -16 -71.5 -49t-59.5 -67q-29 -43 -45 -76q-46 -80 -74 -166q-25 -78 -35 -174q-1 -16 0 -31q0 -52 9 -98q12 -66 51 -113q31 -53 90 -84q51 -27 110 -27q6 0 13 1q33 0 74 10q39 10 69 26 q8 6 25.5 17.5t25.5 17.5q33 25 47 39q6 4 14.5 12.5t14.5 12.5q14 12 35 14q16 2 31 -8q10 -8 18 -27q4 -10 4 -35q0 -23 -2 -32q-12 -59 -43 -101q-31 -43 -82 -80q-45 -41 -92 -63q-49 -25 -104 -27q-16 -2 -33 -1q-42 0 -86 10q-55 12 -107 41q-59 33 -94 63 q-43 37 -78 84q-72 92 -108 203q-28 85 -28 174q0 29 3 59z" />
<glyph unicode="D" horiz-adv-x="1124" d="M156 229q2 14 2 47q0 4 6 48l6 49q4 33 6 47l6 55l4 55l7 80q4 53 4 78q0 12 4 39t4 41t4 41t4 39q12 74 16 113q2 16 5.5 35.5l7.5 42t6 36.5q12 74 22 113q14 49 37 108q59 16 82 21l84 16q16 2 47 5t47 5q61 8 92 11q18 2 35 1q52 0 101 -14q55 -16 116 -53 q49 -31 97 -84q45 -51 71 -108q27 -53 39 -127q6 -35 7 -72q0 -30 -5 -61q-8 -96 -24 -154q-23 -76 -56 -145q-34 -71 -79 -136q-43 -61 -101 -120q-57 -66 -112 -109q-49 -39 -132 -84q-63 -35 -143 -51q-50 -11 -94 -11q-28 0 -55 5q-45 4 -70 18q-39 23 -55 45 q-23 29 -35 64q-9 25 -9 54q0 8 1 17zM389 483q-1 -16 0 -30q0 -81 14 -156q47 0 98.5 20.5t88.5 49.5q41 31 78 71q45 49 67 76l66 84q25 35 55 92q27 49 41 96q14 45 21 101q2 25 1.5 49.5t-1.5 48.5q-2 49 -29 90q-16 20 -35 31q-22 12 -43 18q-14 4 -47 8.5t-49 4.5 q-16 -2 -49 -2t-49.5 -2.5t-49.5 -2.5q-8 0 -24.5 -1t-24.5 -1q-35 -41 -59 -102q-23 -57 -31 -115q-12 -84 -14 -120q-2 -41 -15 -119q-8 -130 -10 -189z" />
<glyph unicode="E" horiz-adv-x="1083" d="M166 416q0 35 4 112l6 113l21 168q8 84 24 168q16 86 43 164q28 80 74 153q84 29 135 35q90 12 135 14q51 4 154 5q68 0 153 -11q31 0 50 -8q20 -8 36 -29q18 -20 23 -40q6 -27 4 -50q0 -18 -2 -28q-4 -20 -8 -31q-2 -6 -17 -21q-10 -10 -28 -6q-154 12 -236 15 q-51 1 -98 1q-75 0 -141 -3q-18 -41 -31 -82q-16 -57 -18 -84q3 -12 0 -25q-2 -10 4 -22q76 0 112 4q72 8 115 10q57 6 113 6h112q29 0 51 -8q20 -8 43 -27q18 -16 29 -39q8 -18 4 -51q-8 -33 -22 -45q-25 -20 -41.5 -26.5t-50.5 -10.5q-37 -4 -52 -6q-47 -6 -155 -14 q-72 -6 -156 -23q-41 -10 -70 -28q-37 -25 -59 -52q-25 -31 -39 -65.5t-14 -75.5q-1 -14 -1 -27q0 -39 7 -75q8 -47 24 -101q25 0 74 9q29 4 72 20q33 12 69 29l33 17t35 17q35 20 135 66q68 31 146 37q22 3 37 -6q12 -8 22 -25q6 -10 10 -35q2 -9 2 -18t-2 -19 q-4 -14 -16 -43q-8 -18 -25 -38q-59 -59 -149 -103q-63 -31 -168 -72q-100 -39 -164 -57q-77 -23 -153 -23q-9 0 -17 1q-31 4 -59 14q-27 10 -52 35q-20 25 -32 53q-16 41 -21 61q-8 55 -12 113q-2 37 -2 113z" />
<glyph unicode="F" horiz-adv-x="933" d="M166 512q0 106 4 160q14 137 37 225q31 123 61 223q2 4 8.5 22.5t10.5 28.5q4 12 10 24.5l12 25.5q8 14 31 36q12 12 41 25q51 20 94 29q37 6 96 14q57 14 107 16q70 4 102 5q35 -4 64 -13q33 -10 57.5 -28.5t38.5 -44.5q16 -31 14 -64q0 -29 -22 -51q-18 -18 -53 -27 q-55 -12 -99 -12q-55 0 -82 2q-20 0 -65 4q-23 2 -66 2q-4 0 -12 -1t-12 -1q-14 0 -23 -2q-33 -43 -45 -98q-12 -49 -18 -107v-18l2 -17v-8l94 6q66 4 94 9l94 8q43 3 66 3l27 -1q14 0 47 -8q20 -4 43 -21q20 -14 34 -31q16 -20 23 -43q2 -2 2 -4v-6q2 -4 2 -12 q-4 -23 -16 -39q-12 -14 -33 -29q-18 -12 -39 -18q-29 -8 -41 -10q-20 -2 -63 -8.5t-64 -8.5q-47 -6 -127 -14l-53 -6q-23 -2 -53 -11q-39 -10 -52 -14q-31 -10 -51 -24v-66q0 -23 -4 -68q1 -11 1 -25q0 -8 -0.5 -25.5t-0.5 -26.5q0 -25 -4 -78q-4 -57 -8 -84 q-8 -53 -19 -80q-12 -43 -39 -70q-23 -23 -51 -23q-4 0 -8 1q-27 10 -33 12q-12 8 -22 27q-12 34 -19 67q-8 43 -10 72q-4 49 -4 71.5t-4 71.5q0 39 -1 78t-1 78z" />
<glyph unicode="G" horiz-adv-x="1175" d="M147 725q12 113 57.5 211t114.5 190q27 39 72 86q39 41 84 72q53 35 98 51q53 18 109 19h15q84 0 165 -29q90 -33 160 -84q6 -4 12 -9t13 -9q8 -6 24 -23l21 -26q6 -10 10 -33q0 -2 -1 -4t-1 -4v-9l-10 -14l-15 -10q-12 -22 -37 -31q-35 4 -65 18l-62 29q-18 10 -59 27 q-33 12 -68 16q-11 1 -21 1l-65 -7q-45 -10 -84 -31q-47 -25 -75 -49q-39 -33 -64 -65q-57 -70 -86 -160q-29 -86 -37 -174q-5 -38 -4.5 -75.5t4.5 -76.5q8 -72 41 -143q12 -33 37 -64q23 -29 55.5 -51t65.5 -31q35 -9 64 -8h14q33 0 57 8q37 12 55 23q28 15 50 37 q8 8 38 49q39 47 60 104q20 55 26 117q6 25 3 53l-7 52q-12 -2 -36.5 -7.5t-36.5 -7.5q-31 -4 -72 -16q-57 -12 -78 -16q-53 -8 -78 -11q-18 -2 -41 13q-18 12 -28 32q-12 20 -15 41q-4 29 -2 45q3 18 13 31q52 34 110 49l119 33q27 6 57.5 14.5t63.5 16.5q51 12 121 16 q47 0 75 -22q33 -27 47 -60q15 -37 19 -80q1 -19 1 -34q0 -25 -3 -46l-6 -49q-4 -33 -8 -49q-23 -106 -66 -188q-43 -84 -113 -170q-27 -33 -69 -74q-39 -37 -80 -59q-45 -27 -90 -41q-43 -14 -99 -15h-13q-52 0 -105 21q-51 20 -99 57q-45 37 -82 82q-31 39 -63 96 q-57 98 -88 215q-22 81 -22 170q-1 35 3 70z" />
<glyph unicode="H" horiz-adv-x="1107" d="M164 283q0 45 2 69q0 51 8 146q8 100 14 145q8 66 19 148l18 149q4 18 8 55l7 56q2 14 3 28.5t3 28.5q0 10 4 28.5t4 26.5q8 27 10 47q4 27 12 47q10 25 25 41q14 18 39 27q11 2 22 2q23 0 44 -8q31 -12 51 -39q14 -18 30 -63q11 -30 11 -60v-12l-2 -12l-2 -21v-4 q-2 -12 -7.5 -36.5t-7.5 -37.5q-4 -25 -16 -73l-19 -74q-8 -35 -12 -76q-2 -6 -2 -18q0 -2 1 -10.5t1 -10.5q55 0 166 4q25 1 56 1q19 0 56.5 -0.5t55.5 -0.5q10 2 16 12q4 6 8.5 18.5t4.5 20.5q0 4 1 11.5t1 9.5q2 31 2 90q0 57 -2 88t-2 90q0 57 2 88q0 12 4 41 q2 14 10 43q4 16 23 35q12 12 38 12q35 -4 56 -20q29 -25 39 -41q12 -20 26 -55q12 -33 19 -58q14 -51 20 -121q3 -34 4 -72q0 -24 -2 -53q0 -20 -4 -53l-6 -55l-8 -113l-6 -119q-1 -16 -1 -34q0 -29 3 -84q2 -37 2 -113q0 -47 -10 -113l-13 -49q-8 -33 -14 -49 q-8 -20 -27 -43q-14 -18 -43 -29q-20 -6 -39 0q-12 4 -30 19q-16 14 -25 29q-8 16 -14 34.5t-10.5 55.5t-4.5 59v57v60q1 19 2 34q0 24 -4 48q-8 53 -16 82q-35 0 -53.5 2t-53.5 2l-69 -6q-12 0 -35 -2.5t-35 -2.5q-68 -6 -69 -6q-20 0 -66 -4q4 -106 8 -155q4 -51 4 -154 l-6 -57q-3 -28 -12 -56q-12 -34 -31 -55q-12 -14 -28 -14q-6 0 -13 2q-37 8 -57.5 22.5t-40.5 42.5q-20 27 -28.5 53.5t-12.5 61.5q-4 45 -4 70z" />
<glyph unicode="I" horiz-adv-x="1038" d="M184 166q2 14 15 22q10 8 22 11q16 4 27 4h24q20 2 64 2q37 0 63 8v23q0 14 2 22q4 63 17 170l20 168l25 174q8 63 20 174q6 47 6 90q0 59 -4 90l-51 -8q-12 -2 -24.5 -3t-24.5 -3q-6 0 -24.5 -1t-28.5 -1q-39 0 -58 4q-29 6 -45 21q-18 16 -16 49q12 33 37 53 q27 25 53 37q41 20 64 26l63 21q63 20 137 27q56 5 101 4h37q20 -2 65 -7q39 -4 68 -12q41 -12 59 -24q25 -16 41 -50q-10 -39 -31 -59q-23 -23 -59 -33q-20 -2 -72 -10l-74 -12q-8 -49 -10 -74q-4 -49 -8 -74q-2 -12 -5 -37.5t-5 -37.5q-8 -49 -10 -74q-4 -41 -5 -64 q0 -41 -2 -61.5t-2 -63.5q0 -2 -6 -63q0 -49 -6 -100q-4 -35 -8 -101q-2 -25 -2 -50.5t2 -49.5q4 -57 18 -94q6 0 14.5 -1t14.5 -1q20 0 31 2h16l19 2h12q10 0 26 4q8 2 25 2q16 2 51 2q27 0 49 -12q27 -29 29 -56q1 -12 1 -22q0 -17 -3 -29q-4 -12 -10 -27q-6 -12 -21 -18 q-119 -23 -262 -29q-61 -3 -119 -2l-145 4q-14 2 -57 11q-37 8 -56 16q-27 14 -47 31q-18 16 -28 47q-2 8 -7 20q-2 7 -2 23z" />
<glyph unicode="J" horiz-adv-x="1060" d="M102 680q0 12 7 25q6 10 20 18q18 8 25 10q10 2 26 2q33 0 51.5 -10t38.5 -31q16 -16 29 -41q16 -35 20 -47l35 -118.5l35 -118.5q6 -27 19 -47q14 -25 30 -41q14 -14 39 -29q22 -12 49 -12q31 9 49 30q16 18 31 52q16 37 21 57q8 37 14 55q37 150 45 275q8 90 8 202 q0 104 -20 199q-2 8 -15 39q-8 18 -30 22h-27q-23 -4 -47 0q-23 2 -49 15q-23 10 -35 28.5t-6 47.5q0 18 8 34q10 20 21 31q14 16 30 21q15 5 26 4h9q46 1 86 1q64 0 121 -3q86 -6 201 -23q33 -12 57.5 -36.5t36.5 -57.5q0 -4 2 -14.5t4 -14.5q2 -8 2 -15.5t-2 -14.5 q0 -16 -16 -23q-12 -6 -29 -2q-14 -2 -47 -2t-47 -2q-23 -4 -39 -17q-16 -14 -17 -36q2 -10 2 -26.5t3 -25.5q12 -96 12 -239q0 -123 -12 -246q-4 -39 -17 -117q-12 -82 -22 -119q-14 -55 -37 -112q-20 -55 -60 -109q-37 -43 -88 -63q-49 -20 -104 -21q-59 0 -100 21 q-43 22 -80 55q-33 31 -66 76q-20 29 -53 82q-55 104 -84 184q-39 111 -57 197q-6 12 -7 24v27z" />
<glyph unicode="K" horiz-adv-x="1058" d="M176 248q0 51 2 76v49v51q0 10 1 26.5t1 26.5q0 35 2 53q4 33 4 50q0 18 4 51q2 8 4.5 25.5t4.5 25.5q4 37 8 51q6 46 6 92q0 59 4 90q0 23 2 45.5l4 43.5q2 33 10 88q8 41 13 63q2 16 16 66q8 33 27 59q18 29 47 45q17 5 29 5q5 0 10 -1q20 -4 35 -12q16 -10 26 -27 q9 -15 13 -37q4 -57 4 -84q0 -14 -1 -41.5t-1 -42.5q-2 -14 -2 -41q0 -6 2 -18t2 -20l149 133l152 133q33 27 77 37q22 5 42 4.5t40 -4.5q41 -4 62 -33q21 -30 21 -60q0 -26 -11 -51q-4 -8 -22 -37q-8 -12 -29 -32q-12 -12 -33 -29l-90 -59q-25 -16 -47.5 -33t-40.5 -29 q-55 -45 -70 -59q-31 -31 -41 -78q4 -33 13 -59q10 -33 22 -54q10 -18 31 -51q6 -8 16.5 -24.5t16.5 -24.5l88 -129l88 -125l28 -51q16 -27 25 -51q12 -37 16.5 -55.5t-0.5 -59.5l-6 -25q0 -4 -12 -20q-6 -10 -16 -17q-12 -8 -25 -8q-14 -4 -41 0q-16 2 -37 13q-6 4 -31 22 q-4 4 -24 29l-45 74q-8 14 -43 71l-133 201l-133 201q-10 -90 -13 -177l-6 -178q-2 -14 -2 -45v-47q-4 -37 -8 -57q-4 -25 -21 -60q-27 -43 -65 -55q-23 -8 -46 -8q-15 0 -28 4q-14 6 -24 25q-10 16 -13 32q-4 25 -4 37q0 10 -4 35q-1 11 -1 25q0 9 0.5 26t0.5 25z" />
<glyph unicode="L" horiz-adv-x="1038" d="M162 498q6 119 20 219q20 147 35 221q12 45 27 109q16 74 26 108q14 47 41 98q25 46 68 80q9 1 17 2q12 0 20 -4q18 -8 26 -18q12 -16 15 -31q3 -18 0 -37q-4 -82 -8 -123q-8 -82 -15 -123q-2 -16 -5 -48.5t-5 -49.5l-7 -47t-7 -51q-8 -63 -11 -101l-8 -100q0 -29 -4 -94 q-2 -25 -1.5 -50t1.5 -48q2 -43 16 -91q12 -45 41 -81q70 4 127 14q33 6 127 29q12 2 46 10t53 12q55 14 100 16q45 0 80 -26q33 -25 49 -66q2 -2 2 -7t2 -7q2 -3 2 -6t-2 -6l-18 -21l-25 -12q-80 -41 -145 -64q-88 -29 -152 -47q-49 -12 -151 -28q-51 -8 -101 -9 q-25 0 -51 3q-41 4 -70 20q-31 18 -55 43q-20 20 -41 57q-16 31 -26 68q-27 82 -31 139q-4 51 -4 91q0 30 2 57z" />
<glyph unicode="M" horiz-adv-x="1507" d="M170 446q0 104 8 193q6 94 21 168q20 111 32 166q16 47 33 108q12 45 35 105q16 41 49 86q25 35 76 57q25 2 51 -4q23 -6 43 -22q25 -20 35 -35q12 -16 22 -45q12 -35 25 -109q10 -66 21 -108l12 -72q8 -49 16 -70q4 -14 10 -30q6 -20 15 -33q12 -20 18 -27 q12 -12 27 -18l102 172l55.5 94l45.5 80q37 45 49 67q12 20 49 72q20 29 57 62q33 29 74 40q23 0 59 -12q27 -8 54 -28q20 -14 41 -43q18 -25 28 -56q20 -55 27 -119q8 -82 10 -122q6 -10 2 -23q-3 -12 0 -25l-6 -61q0 -2 -2 -26.5t-4 -36.5q-2 -16 -5 -33t-5 -33 q-4 -18 -9 -63q-4 -29 -4 -41q0 -27 -2 -41q0 -70 8 -125l19 -123q6 -39 14 -117q3 -32 4 -69q0 -23 -2 -50q-16 -29 -43 -41q-31 -14 -57 -16q-8 0 -22.5 -1t-22.5 -1q-31 0 -45 6q-16 12 -23 37q-8 29 -14 43q-18 90 -23 203q0 31 -2 64.5t-5 74.5t-5 65q-1 12 -1 28 q0 9 0.5 28t0.5 28q0 29 4 86q2 20 2 61.5t2 61.5q-2 20 -2 64q0 31 -6 59q-49 -57 -96 -131q-29 -45 -78 -143q-25 -49 -65 -148l-60 -149q-6 -16 -18 -58q-14 -45 -21 -57l-12 -24l-12 -25q-4 -8 -16.5 -20.5t-24.5 -14.5h-11q-46 0 -81 25t-56 73q-29 66 -39 115 q-10 47 -20 121l-19 123q-10 63 -30 121q-25 -31 -33 -64q-12 -45 -14 -69q0 -2 -3.5 -30t-3.5 -42q0 -4 -6 -72q-2 -20 -2 -63q0 -10 -1 -32t-1 -32l4 -49q4 -33 6 -47l7 -45q4 -25 0 -47q2 -12 -2 -43q-2 -18 -15 -43q-8 -18 -28 -31q-12 -8 -26 -8q-7 0 -15 2 q-39 2 -70 24q-29 20 -45 58q-12 29 -21 69l-12 68q-6 94 -6 188z" />
<glyph unicode="N" horiz-adv-x="1148" d="M168 336q-1 27 -1 57q0 45 3 137q2 10 2 33t2 35q4 49 8 70q12 102 21 153q16 102 26 154q12 43 27 102q20 84 25 99q15 46 36 86q25 45 58 69q37 0 59 -14q31 -18 47 -41q25 -33 35 -53l31 -56q12 -29 71 -190l72 -193q6 -18 14.5 -38.5l16.5 -38.5q20 -53 31 -78 q15 -37 36 -74q14 -25 48 -70q12 29 18 68q8 45 10 68q6 129 6 131q0 84 -2 127q-1 19 -1 42q0 14 0.5 41.5t0.5 41.5q0 82 2 124q4 27 7 58q2 23 14 63q8 29 28.5 49.5t55.5 20.5q35 -6 61 -29q23 -18 39 -53q15 -31 19 -68q3 -35 3 -49q0 -11 -1 -20q0 -66 -2 -96l-7 -99 l-12 -198q-2 -37 -10 -111t-10 -111l-21 -223l-2 -22q-6 -25 -16 -58q-12 -37 -23 -55q-20 -33 -37 -49q-23 -23 -51 -29q-57 4 -94 29q-41 29 -70 65q-27 37 -53 84q-16 31 -49 84l-98 207l-97 209q-20 -16 -32 -43q-12 -25 -19 -51q-8 -39 -10 -53q-4 -37 -6 -54 q-4 -57 -4 -84q0 -14 1 -41.5t1 -42.5q-4 -57 -4 -84q0 -10 0.5 -28t0.5 -27q0 -15 -1 -29q-4 -29 -4 -45q0 -18 -9 -51q-6 -20 -18 -41q-10 -14 -41 -18q-25 4 -41 10q-23 10 -33 23q-8 18 -18 36q-8 18 -12 41q-23 89 -27 191z" />
<glyph unicode="O" horiz-adv-x="1091" d="M160 731q10 109 43 213q34 104 98 197q29 43 72 86q37 37 88 67.5t100 44.5q44 13 90 13h19q51 0 100 -12.5t90 -39.5q47 -31 78 -63q33 -35 55 -84q47 -82 64 -186q10 -65 10 -137q0 -31 -2 -64q-14 -137 -43 -240q-34 -120 -98 -227q-28 -52 -68 -104q-41 -55 -88 -93 q-55 -45 -104 -65q-54 -23 -106 -23h-13q-57 0 -113 23q-52 22 -92 61q-47 47 -72 86q-31 51 -49 101q-43 98 -59 219q-7 51 -7 107t7 120zM365 559q2 -59 16 -127q6 -29 14 -55q10 -37 23 -55q18 -29 37 -46q20 -16 55 -20q41 0 84 25q39 23 68 57q31 39 51 78l39 80 q41 119 57 178q23 80 29 182q2 25 1.5 50t-1.5 48q-4 49 -21 93q-4 18 -18 40q-10 18 -30.5 35t-39 25t-47.5 8q-9 1 -17 1q-30 0 -57 -11q-35 -14 -65.5 -39t-55.5 -55q-20 -27 -38 -66q-37 -71 -56 -147q-18 -78 -24 -152q-5 -51 -5 -93q0 -17 1 -34z" />
<glyph unicode="P" horiz-adv-x="952" d="M174 162q8 49 10 73.5t11 73.5q18 125 18 131q2 23 5 66t5 65q0 16 2 46t3 53.5t1 46.5v147q-2 34 -1.5 69t1.5 71q4 90 9 139q2 4 2 12q0 10 2 14q3 34 18 68q14 33 43 57q27 23 66 33q49 12 71 16l90 7q57 4 91 4q80 0 155 -29q78 -29 127 -84t78 -131q22 -58 22 -122 q0 -15 -2 -32q0 -43 -16 -92t-43 -88q-29 -43 -63 -74q-49 -45 -76 -61q-86 -55 -189 -88q-96 -31 -200 -49l-6 -37q-4 -25 -5 -37q0 -18 -1 -36.5t-1 -35.5q0 -45 2 -69q2 -23 2.5 -68t-2.5 -67q0 -29 -8 -54q-8 -27 -30 -45q-41 -20 -66 -20q-39 0 -55 4q-23 2 -35 16 q-10 10 -20.5 30.5t-12.5 37.5q-2 14 -2 39zM410 985q-3 -31 -4 -62q0 -91 26 -180q63 4 121 25q49 18 113 53q25 12 49 31q16 12 43 39q14 14 35 47q12 20 16 55q0 61 -29 119q-25 39 -35 49q-22 22 -55 25q-16 2 -32 2q-27 0 -60 -6q-51 -10 -90 -37q-43 -31 -70 -68 q-24 -37 -28 -92z" />
<glyph unicode="Q" horiz-adv-x="1048" d="M137 551q2 14 2 43q0 27 2 41q8 113 41 227q31 115 88 215q25 49 62 99q35 45 80 88q39 37 96 63q53 25 113 25h13q46 0 87 -19q51 -25 80 -55q37 -41 59 -82q27 -51 41 -92q33 -104 41 -201q6 -65 6 -122q0 -46 -4 -89q-8 -63 -14 -102q-12 -66 -23 -101 q-18 -55 -37 -100q-14 -33 -59 -90q16 -37 51 -86l58 -80q12 -22 18 -43q6 -25 4 -47q-6 -31 -27 -51q-25 -25 -53 -27q-4 -2 -12 -2q-2 0 -7 -1t-7 -1q-37 66 -60 96q-34 46 -80 80q-16 -31 -34 -51q-14 -16 -48 -41q-20 -14 -55 -27q-25 -8 -57 -8q-55 0 -90 17 q-43 20 -74 45q-35 29 -62 63q-12 16 -47 76q-43 78 -67 162q-25 86 -25 178zM324 457q0 -59 8 -103q8 -47 37 -84q27 -37 82 -45q20 0 36 8q18 10 33 21q14 12 25 29q8 14 12 34q-16 29 -33 52l-37 51q-16 23 -30 53q-12 27 -13 62q0 12 7 24q2 4 16 19q8 8 22 12 q16 4 25 2q57 -4 98 -33q45 -33 66 -76q28 49 37 105q6 41 14 108q6 68 6 138q0 94 -6 139l-8 61q-6 39 -16 60q-12 29 -33 49t-54 26q-43 -6 -77 -34q-33 -27 -58 -64q-20 -33 -41 -78q-4 -8 -30 -78q-33 -86 -56 -180q-20 -88 -30 -182q0 -14 -1 -46t-1 -50z" />
<glyph unicode="R" horiz-adv-x="1196" d="M178 193q-1 13 0 25q0 58 10 120q8 47 21 145q12 78 22 154q4 37 10.5 75t12.5 79q2 25 1.5 48t-1.5 48l-6 98q-4 61 -4 92q0 29 8 94q4 37 10 52q10 27 25 47q15 22 37 37q20 14 51 18q102 12 190 18q76 5 140 5h53h11q58 0 110 -29q57 -33 90 -82q35 -47 57 -111 q16 -45 16 -97q0 -16 -2 -32q0 -35 -12 -65q-16 -41 -29 -60q-29 -43 -41 -55q-6 -6 -15 -16l-17 -18.5t-17 -14.5q-49 -49 -116 -88q-65 -37 -136 -49q61 -43 136 -103q72 -57 127 -110q16 -16 53 -49q27 -25 51 -52q14 -14 43 -57q18 -27 33 -65q5 -49 5 -52q0 -13 -7 -28 q-2 -18 -17 -43q-12 -23 -34 -29q-17 -5 -34 -5t-32 5q-29 8 -53 27q-16 12 -43 43q-16 18 -37 51q-29 41 -41 61.5t-45 57.5q-76 76 -156 143q-90 78 -164 129q-16 -31 -18 -63q-2 -12 -4 -35t-4 -35q-2 -20 -2 -64v-63q-4 -57 -8 -84q-6 -43 -19 -82q-16 -43 -39 -70 q-19 -22 -47 -21q-7 0 -14 1q-27 2 -54 16q-23 10 -36 37q-6 16 -15 49q-5 20 -5 38q0 8 1 14zM453 848q0 -18 8 -60q57 0 119 23q49 18 108 53l51 31q27 16 47 37q27 27 37 43q18 29 21 53q1 6 1 13q0 12 -3 32q-4 23 -15 39q-12 16 -30 27q-17 9 -35 8h-8q-31 2 -60.5 1.5 t-60.5 -1.5l-121 -4q-14 -4 -25 -19q-12 -16 -14 -26q-2 -4 -2 -16.5t-2 -16.5q-4 -20 -6 -29q0 -16 -2 -32.5t-4 -30.5q-4 -41 -4 -62v-63z" />
<glyph unicode="S" horiz-adv-x="1089" d="M160 254l4 12l12 6q29 -4 49 -12q8 -4 24.5 -9t22.5 -7q20 -8 47 -15q31 -8 52 -10q29 -2 90 -2q33 0 98 12q55 10 96 26.5t82 47.5q35 27 62 70q23 35 28 96q0 18 2 28.5t2 30.5q0 6 -10 27q-4 8 -24 12q-12 0 -38 -1t-40 -1q-31 0 -80 -4q-25 -2 -76 -2q-29 0 -78 -4 q-20 0 -65 4q-18 2 -66 10q-23 4 -63 21q-29 12 -53 33q-29 25 -39 49q-14 31 -19 55q-8 41 -8 63.5t4 63.5q8 96 57 184q47 84 117 158q23 23 76 64q35 27 84 51q35 18 92 32q33 9 72 9h22q63 0 119 -15q66 -16 111 -41q43 -23 88 -71q35 -37 55 -103q2 -6 6 -14 q2 -4 2 -16.5t-6 -18.5q-6 -4 -14 -8q-12 -4 -17 -4q-12 0 -16 2q-41 4 -68 14q-51 20 -63 27l-34.5 11t-33.5 11q-35 12 -69 13q-12 1 -25 1q-42 0 -94 -16q-55 -16 -111 -55q-39 -25 -49 -35q-23 -23 -41 -47q-14 -18 -28 -51q-10 -25 -15 -59q-4 -16 2 -41q6 -23 17 -35 q8 -10 32 -23q18 -10 41 -6q33 0 64 6q14 2 30.5 5t32.5 5q45 8 66 13q31 6 63 6q70 0 137.5 -28.5t106.5 -86t47 -119.5q5 -32 5 -65.5t-5 -67.5q-6 -53 -26 -96q-22 -46 -56 -86t-73 -74q-45 -39 -82 -59q-88 -57 -185 -84q-91 -25 -167 -26q-15 0 -29 1q-70 10 -117 29 q-74 29 -109 47q-16 72 -18 78q-10 33 -10 84z" />
<glyph unicode="T" horiz-adv-x="1112" d="M186 1231q3 15 13 24q6 6 22 15q14 8 27 10q4 2 12 2t12 2q55 8 220 27q70 8 217 16q82 6 161.5 6t159.5 -6q27 -4 43 -14q25 -16 35 -29q14 -14 27 -33q10 -16 14 -41q0 -27 -14 -43q-18 -20 -35 -28q-29 -12 -45 -15q-4 0 -20.5 -3t-24.5 -3q-29 -3 -63 -3q-21 0 -44 1 q-18 2 -53 2t-53 2l-33 -217l-33 -217q-14 -109 -31 -217q-12 -84 -34 -217q-12 -39 -17 -68q-6 -39 -18 -71q-12 -37 -33 -62q-18 -25 -57 -37q-10 -1 -19 -1q-18 0 -33 5q-25 9 -43 25t-28 39q-10 25 -4 51q2 39 10 92q8 57 16 88q25 123 39 185q22 92 31 184q6 72 10 223 q1 26 1 50q0 93 -11 169l-145 -6q-53 -2 -146 -10q-15 6 -18 18q-2 4 -5 12.5t-3 10.5t-2.5 6t-2.5 6q0 8 -1 16.5t-1 18.5v35z" />
<glyph unicode="U" horiz-adv-x="1026" d="M178 506q2 45 10 121l13 121l18 122q4 31 9 61l10 60l2 19l2 16v10q4 23 0 45l-4 47q0 6 -1 22.5t-1 23.5q0 33 2 47q8 31 18 43q12 16 37 32q37 29 90 39q43 -20 59 -49q18 -34 25 -74q5 -32 5 -61q0 -12 -1 -23v-41.5t-2 -39.5q-4 -35 -9 -69t-9 -65l-19 -131 q-2 -23 -8 -67.5t-8 -67.5q-12 -90 -17 -135q-1 -13 -1 -29q0 -10 0.5 -28.5t0.5 -28.5q0 -47 9 -86q2 -16 10 -39q4 -10 18 -35q8 -14 25 -26q14 -12 39 -13q53 6 84 37q29 29 51 74q20 41 33 90q12 47 20 86q10 61 39 270q14 96 33 271q0 4 4 32.5t8 45.5q10 49 23 75 q2 2 8 19.5t10 25.5q12 22 25 37q10 12 30 23q18 8 39 6q45 -12 74 -47q8 -8 25 -33q12 -20 10 -41q-2 -6 -17 -35q-4 -6 -10 -17t-8 -18q-14 -37 -16 -71l-9 -72q-2 -25 -2 -72q0 -45 -2 -69.5t-2 -71.5q0 -35 -6 -72q-12 -131 -26 -200q-23 -111 -60 -199 q-25 -57 -57 -108q-37 -57 -74 -95q-39 -39 -88 -63q-42 -21 -92 -21h-15q-11 -1 -21 0q-34 0 -65 9q-35 10 -77 34q-39 23 -68 52q-23 23 -49 67q-45 74 -64 158q-13 59 -13 117q0 28 3 55z" />
<glyph unicode="V" horiz-adv-x="1032" d="M201 1225q2 16 18 32l31 25q14 12 33 14q14 2 39 11q37 -4 57 -27t29 -55q10 -35 12 -68q4 -45 8 -65q0 -147 2 -222q4 -147 8 -221q4 -41 4 -59q0 -33 9 -58l8 -45q2 -18 10 -36q4 -10 16 -27q10 -14 27 -16q23 20 43 53q12 20 29 61q14 37 22 66q2 6 25 63l27.5 84 t21.5 70q33 102 47 153l43 111l47 109q2 4 7 12l9.5 15t8.5 16q20 43 24 47q14 23 33 39q14 14 41 24q29 -10 45 -28q4 -4 17.5 -18.5t19.5 -22.5q8 -12 22 -52q12 -33 15 -55q-2 -51 -35 -104q-14 -27 -30.5 -51.5t-30.5 -51.5l-43 -98l-39 -98q-4 -16 -50 -144 q-14 -37 -26 -72.5t-25 -68.5l-59 -139q-45 -100 -66 -135q-14 -29 -39 -64q-25 -37 -49 -57q-35 -31 -61 -43q-31 -14 -74 -15q-23 4 -41 18.5t-26 35.5q-2 6 -5.5 20t-5.5 23q-8 27 -10 45q-8 41 -20 118q-10 59 -13 119l-12 125q-4 45 -8 123q-14 141 -37 287 q-8 47 -53 282v15z" />
<glyph unicode="W" horiz-adv-x="1308" d="M174 528q2 23 2 68q0 23 4 68q12 111 23 167q23 119 35 168l34 109q18 51 39 98q22 46 56 80q35 35 82 49q5 1 9 1q24 0 38 -13q16 -16 22 -41t6 -49q0 -20 -4 -49q-4 -14 -8 -43t-8 -43q-2 -12 -23 -82l-12 -35q-8 -20 -12 -33q-27 -92 -49 -182q-23 -86 -33 -186 q-2 -18 -2 -38q0 -27 4 -61q8 -57 22 -96q49 59 80 125q33 72 53 139q6 18 37 144q25 98 39 143q3 31 13 61l9 30.5t9 31.5q2 12 12 28q12 20 21 29q12 12 28 19q20 8 31 6q45 0 71.5 -27t35.5 -61q12 -49 14 -78v-40t2 -36q2 -33 2 -100q0 -16 -1 -49t-1 -50 q4 -102 14 -178q12 -92 39 -170q25 43 37 74q10 27 23 80q6 23 14 82q2 14 7 40.5t7 41.5l20.5 176l20.5 176l8 86q2 27 15 84q6 18 10 47q4 27 10 37l6 14l9 17q4 4 11 10t9 8q6 6 12 4q41 -2 70 -29q33 -29 45 -57q16 -37 23 -74q4 -27 4 -75q-2 -8 -2 -29t-2 -29 q-4 -41 -9 -57q-2 -16 -5 -48t-5 -48q-4 -33 -8 -99q0 -29 -2 -43t-2 -45q0 -8 -2 -22.5t-2 -22.5q0 -14 -4 -43q-8 -76 -29 -168q-16 -76 -57 -164l-11.5 -23l-14.5 -28.5l-13 -25.5q-14 -27 -51 -72q-33 -39 -64 -57q-41 -23 -80 -29q-9 -1 -18 -1q-41 0 -78 23 q-45 29 -70 70q-35 57 -49 96l-37 101q-15 -46 -37 -99q-23 -55 -51 -98q-31 -47 -71 -76q-43 -31 -101 -30q-41 4 -65 16q-35 18 -58 37q-25 22 -43 49q-16 25 -26 59q-12 39 -19 84q-6 43 -6 84q0 14 -1 44t-1 44v84z" />
<glyph unicode="X" horiz-adv-x="1073" d="M162 145q0 2 1 8.5t1 8.5v16q8 53 31 107q10 27 51 98q18 33 59 94l62 94q23 37 47 72l45 74q-23 80 -56 151l-61 150l-25 59q-4 10 -11 29.5l-11 30.5q-12 31 -19 61q-8 41 -8 66q4 18 11 26q10 12 20 19q23 12 27 12q6 2 14 4t12 2l33 4q16 4 30.5 -4t20.5 -16 q4 -4 7 -10.5t8 -12.5q23 -35 36 -69l33 -72q39 -90 43 -100.5t43 -100.5q20 47 58 115l63 110l31 46q20 33 30 47q20 29 33 41q18 18 43 30q31 -4 45 -12q20 -12 35 -29q10 -12 23 -41q10 -25 10 -45q-12 -70 -43 -139q-33 -74 -70 -129q-41 -63 -88 -123l-88 -119 q35 -92 76 -168l86 -165l63 -123q29 -59 52 -127q-6 -14 -19 -27q-12 -10 -26 -20q-12 -12 -27 -19q-4 -2 -16.5 -5t-16.5 -5q-39 4 -61 20q-25 18 -45 45q-10 14 -37 58q-27 45 -35 55q-25 47 -70 141l-22 50.5l-18.5 42l-24.5 51.5l-68 -140l-65 -139q-15 -25 -31 -55 q-10 -20 -35 -57q-20 -29 -43 -48q-27 -20 -55 -22q-23 4 -37 12q-16 10 -27 23q-14 18 -18 30q-6 19 -6 39z" />
<glyph unicode="Y" horiz-adv-x="958" d="M193 995q0 86 12 174q4 25 12 45q10 25 23 39q14 16 34.5 30.5t42.5 16.5q27 0 39.5 -10t22.5 -30q6 -14 10 -37q4 -20 6 -39q0 -41 4 -123q2 -20 2 -61.5t2 -61.5q4 -33 9 -47q6 -25 18 -43.5t30.5 -30.5t45.5 -12q35 16 59 43q29 31 47 61q14 23 37 68q29 57 35 67 q25 45 35 70q6 12 11 24.5t9 20.5l13 25l36 67q12 23 46 64q10 10 28 14q14 3 24 3q5 0 9 -1q18 -2 43 -16.5t37 -28.5t22.5 -38.5t10.5 -47.5q-4 -37 -15 -67q-14 -37 -26 -64q-6 -12 -37 -63l-37 -62l-92 -137q-43 -63 -88 -143l-82 -183l-78 -184l-13.5 -37.5 t-17.5 -44.5l-30 -80q-6 -10 -19 -35l-18 -37q-10 -16 -27 -28q-20 -16 -35 -19q-31 0 -55 13q-23 12 -41 37q-18 27 -24.5 51t-2.5 57q6 55 25 111q23 68 41 106q23 47 53 103l55 100q-51 0 -86 18q-43 23 -67 54q-31 37 -47 75q-23 51 -29 82q-22 86 -22 172z" />
<glyph unicode="Z" horiz-adv-x="1058" d="M184 150q0 2 3 15t3 19q0 8 9 33q33 88 73 162q16 29 93 151l206 308l217 301q-8 2 -73 12q-32 5 -58 5q-11 0 -20 -1h-43q-12 0 -41 -4h-41h-39q-49 -4 -70 -4q-10 0 -33.5 2t-35.5 2q-29 4 -41 6q-20 4 -35 12q-12 8 -22 21q-8 12 -7 29q20 41 57.5 65.5t80.5 36.5 q47 14 88 16q31 2 84 11l82 4h41h40q66 -4 97 -11q43 -8 92 -32q41 -20 70 -60q27 -35 26 -90q-4 -80 -37 -149q-31 -66 -73 -138l-117 -176q-8 -12 -125 -170l-107 -149q-49 -72 -96 -160q104 6 205 25q94 16 201 47q4 2 12 2q4 0 12 4q18 4 41 0q20 -2 39 -12 q16 -8 26.5 -24.5t4.5 -41.5q-4 -23 -21 -49q-14 -25 -39 -37q-86 -37 -192 -59q-70 -14 -199 -35q-4 0 -45 -5t-63 -7q-14 -1 -30 -1q-36 0 -77 5q-20 2 -43 18q-2 2 -35 29l-15 15t-15 18q-11 16 -15 41z" />
<glyph unicode="[" horiz-adv-x="776" d="M170 217l6 152l6 149l6 156q4 88 15 155q2 20 7 60.5t7 60.5q2 25 9 68t10 51q10 63 24 121q15 58 37 117q2 2 4 6t4 6q2 6 8 8q102 25 185 27q92 4 182 -19q39 -10 57 -37q25 -37 23 -67q0 -16 -12 -29q-4 -4 -10.5 -10l-12.5 -12q-14 -10 -29 -17q-18 -6 -34 -4 q-98 16 -197 10v-4l-12 -37q-4 -12 -9 -36l-12 -144l-16 -141q-6 -45 -15 -145q-8 -92 -10 -146l-6 -49l-6 -51q-2 -8 -2 -24.5t-2 -24.5l-4 -52q-4 -33 -4 -49q0 -33 -2 -49q57 -8 81 -8q53 0 82 2q12 2 33 2q8 0 33 4q10 0 31 -4q16 -4 30 -14q14 -12 21 -25q4 -12 2 -31 q-2 -12 -10 -37q-6 -16 -19 -32q-14 -18 -31 -27q-20 -10 -36 -12q-78 -18 -156 -19q-92 0 -156 11q-12 2 -24.5 10t-20.5 12q-33 29 -45 78t-10 90z" />
<glyph unicode="\" horiz-adv-x="765" d="M158 1346q6 14 20 24q16 10 33 12q10 2 31 -2q16 -4 28 -12q12 -10 23 -22l18 -25l29 -64q8 -16 14 -32.5t13 -30.5l88 -199q49 -115 77 -204l43 -142l46 -141l41 -115l38 -112l13 -54l12 -53q6 -27 6 -53q0 -35 -2 -53q0 -23 -14 -37q-18 -18 -35 -23q-33 4 -53 21 q-22 18 -37 43q-12 20 -27 55q-8 20 -24 53q-88 209 -174 449q-90 252 -148 461q-14 37 -22 65q-6 16 -10.5 32.5t-8.5 33.5l-16 61q-6 29 -2 64z" />
<glyph unicode="]" horiz-adv-x="776" d="M135 137q-2 6 2 15q6 12 8 14t6.5 4t6.5 6l12 12q25 14 29 17q16 6 30 4q31 -4 101 -8q33 -2 100 -2v2q2 14 10 39q4 12 9 36q2 23 7 70t7 72q4 35 7 69.5t7 69.5q6 45 15 145l12 146l6 51q2 8 2 25.5t2 25.5l6 51q0 8 1 16.5t2 14.5t1 19q4 33 4 51v49q-80 12 -163 6 q-12 -2 -33 -2q-8 0 -33 -4q-10 0 -31 4q-16 4 -28 12q-12 9 -19 25q-6 16 -4 33q4 20 10 35q10 18 21 32q12 14 28 25q14 8 35 12q72 16 158 21q72 2 154 -11q10 -4 24 -8q16 -8 23 -14q12 -10 28 -35q12 -18 19 -41q6 -20 6 -45q0 -8 1 -23.5t1 -21.5l-6 -152l-6 -151 q0 -25 -4 -78t-4 -78q-3 -77 -13 -153q-18 -152 -33 -244q-16 -113 -63 -240q-2 -2 -4 -5t-2 -5q-2 -4 -10 -8q-96 -23 -185 -23q-98 0 -178 17q-39 10 -59 39q-23 32 -23 67z" />
<glyph unicode="^" horiz-adv-x="735" d="M147 770q4 25 21 74q12 35 31 69l11 21.5l13 25t13 21.5q12 18 21 36.5l15 31.5q22 28 43 61l41 64q25 35 50 59q28 28 61 43q31 -10 63 -39q25 -23 47.5 -57.5t36.5 -69.5q18 -43 33 -68q12 -35 27 -69q14 -33 24 -72q12 -49 15 -72q4 -51 0 -77q-2 -27 -31 -47 q-23 -16 -51 -21q-4 0 -12.5 -1t-12.5 -1q-8 0 -20 4q-6 2 -19 10q-10 6 -12 17q-25 88 -49 153l-55 150l-70 -152l-72 -153q-4 -10 -10 -15l-12 -6q-6 -2 -19 -2h-14q-25 4 -37 8q-15 6 -31 19q-33 20 -39 55z" />
<glyph unicode="_" horiz-adv-x="1157" d="M129 90q25 39 68 60q47 23 84 26q61 8 92 8q61 0 88 4q28 3 55 0q18 -2 55 -2q74 -4 113 -4h64q41 -4 61 -4q20 -2 61 -2h62q4 -2 18.5 -8t22.5 -10q29 -16 39 -27q20 -20 24 -37q6 -25 -4 -47q-16 -23 -35 -31q-22 -9 -43 -12q-375 -9 -749 0l-29 10q-18 8 -26 19 q-12 16 -17 26q-6 17 -4 31z" />
<glyph unicode="`" horiz-adv-x="346" d="M215 1690q0 14 2 22q0 20 21 41q16 16 43 21q33 -6 57 -33q23 -27 35 -60q8 -25 16 -69q2 -14 6 -33.5t6 -36.5v-26l-6 -25q0 -14 -10 -21q-16 -12 -20 -12q-37 0 -64 23q-29 25 -43 53q-16 33 -25 65q-14 57 -16 68q0 4 -1 12.5t-1 10.5z" />
<glyph unicode="a" horiz-adv-x="1064" d="M123 197q6 117 33 223q28 111 61 221l68 213q34 104 80 209q8 18 20 41.5l27 50.5q20 41 59 90q31 41 76 72q43 31 98 37q43 0 82 -22.5t61 -53.5q29 -41 43 -76q15 -40 25 -80q25 -104 33 -180l16 -182q4 -66 17 -180q9 -89 30 -179q4 -14 9.5 -28.5t9.5 -28.5t14 -57 q8 -37 8 -58q0 -29 -6 -59q-4 -29 -10 -43q-4 -8 -23 -37q-12 -18 -30 -31q-16 -10 -39 -14q-25 -6 -47.5 0t-36.5 21q-20 20 -29 34q-10 18 -10 43q1 14 1 28q0 35 -5 75q-4 31 -8 100q-25 -2 -50 -1l-49 1q-33 0 -49 2q-33 4 -51 2q-27 0 -84 -4q-61 -4 -88 -10 q-10 -39 -29 -90q-20 -57 -28 -88q-2 -8 -7.5 -17.5t-9.5 -19.5q-6 -14 -18 -39q-9 -18 -24.5 -30.5t-37.5 -12.5q-25 2 -51 16q-25 12 -37 37q-8 23 -12 51q-2 17 -2 54zM424 539q53 -2 160 -2h164q-2 25 -5.5 78t-5.5 77.5t-5 77.5t-5 78q-2 18 -5 36.5t-5 37.5 q-12 68 -12 71q-10 45 -23 70q-12 29 -37 59q-61 -61 -92 -129q-41 -88 -59 -145q-27 -98 -39 -156l-15.5 -77.5t-15.5 -75.5z" />
<glyph unicode="b" horiz-adv-x="1144" d="M170 295q6 66 8 80l19 80l18 110q8 43 14 111q9 129 13 258q6 258 6 260q43 55 94 84q47 27 117 47q70 18 121 23q61 6 122 6q41 0 127 -13q61 -8 115 -43q28 -15 49 -36q18 -18 33 -52q16 -35 21 -59q6 -35 4 -61q-2 -33 -13 -72q-8 -31 -28 -70q-16 -33 -41 -65 q-29 -41 -45 -60q52 -25 86 -67q33 -41 55 -97q18 -41 29 -104q4 -23 4 -49q0 -25 -4 -62q-10 -70 -37 -114q-35 -59 -72 -97q-49 -49 -96 -79q-61 -39 -107 -58q-113 -51 -231 -65q-58 -7 -114 -8q-63 0 -122 10q-47 6 -71 33q-25 29 -45 67q-14 33 -25 80q-5 23 -5 51 q0 14 1 31zM375 299q0 -20 4 -61q27 -2 54 -3q46 0 97 7q70 8 148 39q34 15 67 36q31 18 58 54q25 31 39 65q16 39 16 74q3 15 3 30.5t-3 30.5q-6 29 -22 56q-15 25 -43 37q-29 12 -60 10q-52 -3 -98 -19q-31 -10 -92 -39l-84 -53q-43 -27 -70 -69q-2 -10 -3 -21.5t-2 -25 t-1 -19.5l-6 -63q-2 -21 -2 -66zM422 793q74 25 117 36q66 18 120 45q61 29 103 70q47 47 61 109q2 9 2 18t-2 19q-2 18 -16 34q-10 12 -27 23q-10 6 -39 6q-63 0 -94 -2q-55 -4 -92 -18q-43 -14 -80 -56q-35 -39 -41 -86q-2 -6 -2 -16t-2 -17q0 -8 -2 -20t-2 -20 q-2 -14 -2 -41q0 -8 -1 -22.5t-1 -20.5v-41z" />
<glyph unicode="c" horiz-adv-x="1058" d="M147 614q8 121 50 242q37 113 108 225q33 55 74 103q39 45 92 88q49 41 107 61q51 19 104 19h16q76 -2 140 -41q57 -35 106 -97q51 -57 80 -120.5t29 -130.5v-13q0 -23 -4 -35q-8 -25 -14.5 -35t-26.5 -22q-15 -9 -37 -6q-35 0 -64 22q-23 16 -41 52q-6 10 -24 63 q-4 12 -14.5 37t-12.5 29q-20 37 -47 55.5t-64 18.5q-5 0 -10 -1q-47 0 -82 -20q-39 -23 -63 -53q-31 -37 -49 -72q-23 -43 -37 -76q-39 -94 -57 -170q-23 -92 -29 -174q-6 -43 -6 -84q0 -29 4 -82q2 -16 10 -59q6 -27 21 -53q10 -18 32 -37q20 -16 47 -17q9 -1 20 0l85 7 q45 6 100 32q29 14 45 29l43 37q16 14 49 29q28 12 56 12q18 2 30 -6q12 -9 19 -25q6 -14 6 -33q0 -12 -4 -32q0 -18 -6 -33q-14 -31 -31 -53q-23 -29 -43 -45q-39 -29 -49 -35l-51 -31q-49 -27 -109 -49q-53 -20 -117 -21h-13q-43 0 -87 15q-49 16 -86 45q-45 35 -72 69 q-35 47 -53 84q-47 90 -61 187q-10 65 -11 136q0 31 2 64z" />
<glyph unicode="d" horiz-adv-x="1042" d="M162 307q0 4 12 144q8 72 14 143q16 80 25 151l20 152q6 31 7 64q0 20 4 61l6 63l8 64q10 49 14 65q10 37 29 62q20 27 53 43q31 14 66 18q82 8 125 9q70 0 125 -8.5t118 -32.5q53 -20 103 -64q45 -39 74 -94q29 -53 43 -113q16 -61 18 -125q1 -28 1 -53q0 -40 -3 -74 q-6 -135 -63 -272q-53 -129 -146 -246q-37 -49 -98 -102q-53 -47 -117 -82q-59 -33 -131 -49q-40 -9 -79 -9q-29 0 -58 5q-46 6 -80 36q-31 29 -55 70q-16 41 -27 84q-9 41 -9 74q0 8 1 16zM377 422q4 -63 14 -113q11 -1 22 0q35 0 68 8q49 12 86 33t78 58q33 29 60 73 q57 76 86 170q25 82 34 185q2 12 2 34q0 6 -1 17.5t-1 17.5q0 12 -1 24.5t-1 26.5q0 18 -4 52q-2 18 -14 47q-8 18 -29 39q-43 33 -90 41t-102 8q-10 -2 -27 -2h-29q-8 -2 -24 -2q-4 0 -13.5 -1t-13.5 -1q-23 -41 -35 -86q-14 -53 -22 -90q0 -4 -12 -91l-13 -90 q-2 -31 -5 -61.5t-5 -59.5q-4 -39 -8 -120q-2 -29 -2 -58.5t2 -58.5z" />
<glyph unicode="e" horiz-adv-x="1083" d="M162 467q10 133 33 248q16 82 53 246q31 131 61 241q20 37 37 49q33 25 51 33q33 14 60 23l57 16q104 23 195 25q37 1 66 1q62 0 116 -6q16 0 41 -8q8 -2 33 -22q16 -14 22 -31q6 -20 4 -41q0 -16 -8 -31q-10 -16 -20.5 -24t-26.5 -15q-10 -4 -31 -4h-67q-45 0 -68 2 q-12 1 -23 1l-69 -7q-61 -12 -90 -24q-41 -18 -78 -52q-35 -33 -47 -77q-4 -12 -8 -37q0 -6 -2 -17.5t-4 -17.5v-23v-22q66 4 114 14q37 8 115 21q74 16 113 22q44 7 85 7q14 0 29 -1q27 0 39 -4q20 -6 35 -18q16 -14 22.5 -30.5t2.5 -41.5q-4 -31 -19 -49q-16 -18 -39 -31 q-25 -12 -51 -18q-14 -4 -49 -8q-37 -4 -74 -7.5t-74 -7.5q-66 -6 -147 -22q-45 -14 -70 -35q-37 -31 -55 -55q-23 -33 -35 -68q-14 -43 -14 -76q-2 -21 -2 -43q0 -30 4 -69q6 -59 18 -113q68 14 140 47q31 14 133 68l65 33q45 20 68 28q39 14 69 23q33 8 72 12q7 1 13 1 q34 0 61 -15q35 -18 49 -54v-6q-27 -41 -68 -75q-18 -16 -88 -58q-61 -37 -94 -51l-92 -47l-96 -45q-10 -4 -30.5 -13.5l-37 -16.5l-31.5 -13q-61 -23 -102 -33q-61 -14 -102 -14q-33 4 -57.5 14t-45.5 35q-12 20 -24 55q-4 14 -15 58q-16 63 -20 135q-3 64 -3 99q0 21 1 40 z" />
<glyph unicode="f" horiz-adv-x="882" d="M158 233l6 48l6 49l12 100q4 33 8 102q4 41 5 60q0 20 4 57q2 10 2 30.5t2 31.5l6 61q2 16 4 48t2 34t2 34t4 48q4 53 8 78q2 18 5.5 37.5t5.5 40.5q2 14 4 30l4 29q12 47 47 72q39 29 76 43q57 16 83.5 22l84.5 19q25 6 74 14t71 14q49 4 70 4q47 0 69 -4 q31 -6 49.5 -20.5t38.5 -36.5l29 -43q14 -25 12 -51q-6 -20 -16 -25q-14 -8 -29 -10q-20 -4 -30 -4q-20 0 -29 -2q-37 -2 -111 -2q-45 0 -106 -11q-23 -6 -51 -16q-27 -10 -48 -24q-20 -16 -40 -35q-16 -16 -27 -45q-14 -35 -25 -78q-9 -40 -12 -80q0 -4 -1 -8t-1 -6v-15 q39 0 59 2l62 6q10 0 29.5 2.5t29.5 2.5q31 3 62 0q25 0 69 -5q33 -2 68 -20q29 -23 37 -53q8 -29 8 -51q0 -10 -2 -19q-4 -18 -14.5 -32.5t-26.5 -16.5q-29 -8 -39 -8h-37q-27 -2 -84 -2q-29 0 -86 -4q-49 -4 -84 -15q-39 -12 -76 -37q-12 -37 -16 -94q-2 -27 -10 -94 q-4 -35 -8 -104l-7 -105q0 -6 -3 -21.5t-5 -23.5q-2 -18 -14 -47q-10 -23 -27 -37q-15 -13 -34 -13q-4 0 -9 1q-37 6 -57.5 26.5t-32.5 47.5q-16 37 -18 61q-2 22 -2 63z" />
<glyph unicode="g" horiz-adv-x="1085" d="M147 655q8 123 58 256q43 121 137 230q45 53 96 94q49 39 115 68q57 25 127 38q43 8 86 9l43 -2q23 0 51 -7q25 -6 47 -18q25 -14 35 -33q12 -22 12 -49q0 -2 -1 -10t-1 -12.5t-3 -12.5t-3 -10q-2 -10 -10 -18.5t-21 -8.5q-12 4 -18 5h-16q-24 3 -47 2q-30 0 -60 -5 q-53 -8 -106 -30q-47 -20 -97 -56q-43 -31 -79 -81q-70 -92 -105 -201q-31 -98 -41 -221q-4 -49 -4 -80q0 -41 6 -84q6 -47 21 -80q18 -45 39 -68q25 -27 57 -45q35 -18 84 -18h10q44 0 86 22q45 25 80 66q31 41 53 88q18 41 29 96q4 16 8 53t8 54q2 14 2 45q0 33 -2 47 q-33 -4 -51 -6q-29 -4 -53 -13q-8 -2 -26.5 -5t-26.5 -5q-31 -6 -54 -4q-20 -2 -37 4q-14 6 -26 19q-8 8 -17 30q-4 12 0 35l3 19l4 16l2 2q12 20 30 33q16 10 39 20q39 14 78 31q6 2 34 14.5t44 16.5q59 18 78 22q35 8 80 8q49 -6 86 -38q37 -35 49 -82l6 -43q1 -6 1 -13 q0 -10 -3 -30q-6 -57 -19 -109q-6 -27 -11 -53.5t-11 -52.5q-18 -90 -57 -166q-45 -90 -97 -150q-37 -45 -59 -65q-35 -33 -72 -54q-41 -23 -80 -34q-38 -11 -71 -11h-15h-15q-46 0 -95 15q-51 14 -96 47q-47 35 -80 71q-35 41 -60 91q-49 96 -67 200q-13 76 -13 150 q-1 34 2 67z" />
<glyph unicode="h" horiz-adv-x="1095" d="M164 299q0 55 8 98q12 66 14 101q20 88 35 209q8 66 8 98v98q0 2 7 94q2 27 10 95l12 63q8 45 16 66q16 39 31 59q18 25 51 39q11 2 21 1q30 0 51 -15q27 -20 39 -56q12 -33 12 -75q0 -39 -6 -72q-6 -70 -22 -187l-25 -186q29 -4 82 -8q12 -1 27 -1q9 0 27 0.5t28 0.5 q63 0 96 2t98 10q2 16 4.5 49t4.5 49.5t4 49t4 49.5q2 23 2 69v68q-2 23 -2 68q0 23 4 67q0 12 4 45q2 23 12 45q8 20 27 35q15 13 38 13q4 0 9 -1q33 -2 59 -22q23 -16 39 -47q10 -18 19 -62q3 -19 3 -38q0 -12 -1 -25q-2 -14 -2 -41t-2 -39l-6 -80q0 -29 -5 -82l-6 -80 l-6 -112q-4 -74 -4 -113q0 -37 -1 -112.5t-3 -112.5q-4 -147 -4 -226l-2 -24q-10 -33 -35 -49q-27 -18 -57 -25q-25 -6 -45 4q-14 8 -29 29q-12 18 -19 41q-4 14 -8 43q-4 61 -4 92q0 29 4 94l4 99q1 13 1 26q0 34 -5 74q-43 -6 -116 -10q-39 -2 -117 -2q-53 0 -78 2l-76 4 q-4 -16 -8 -51t-8 -54q-9 -52 -12 -104q-2 -20 -3 -62q0 -10 1.5 -30.5t1.5 -30.5v-61v-60q0 -16 -7 -29q-6 -14 -20 -20q-8 -4 -29 -8q-4 -1 -8 -1q-7 0 -18 3q-43 9 -68 37q-20 23 -35 65q-10 33 -14 80q-2 29 -2 80z" />
<glyph unicode="i" horiz-adv-x="466" d="M156 274q-1 14 -1 30q0 35 5 81q4 66 16 193l19 192l20 191l12 95t11 95q3 25 6 55q2 27 12 56q8 27 27 51q15 22 43 37q9 2 18 1.5t16 -1.5q16 -4 31 -14.5t23 -25t14 -28.5q8 -41 8 -83q0 -21 -2 -44q-4 -70 -8 -108q-12 -104 -12 -109l-13 -115l-12 -114 q-6 -61 -6 -121q0 -20 -1 -60.5t-1 -60.5q0 -18 -1 -56t-3 -57q-4 -74 -8 -112l-12.5 -66t-18.5 -69.5t-33 -57.5q-23 -27 -57 -35h-6q-23 0 -37 17q-25 29 -29 37q-2 12 -3 24t-3 25q-2 14 -10 47z" />
<glyph unicode="j" horiz-adv-x="1058" d="M125 727q4 18 16 29q10 8 27 14q15 6 31 6q6 0 16 1t14 1l15 -8l4 -4q31 -40 43 -86q8 -31 20 -96l31 -119q12 -51 41 -113q12 -27 27 -45q12 -18 39 -37q20 -14 47 -24q23 -8 55 -8q23 12 31 32q12 29 16 45q6 25 6 50q0 29 6 49q4 33 4 49q0 8 1 25.5t1 25.5q4 33 5 51 q0 35 2 51q10 123 14 275q1 23 0 46q0 106 -10 224q-45 8 -68 8q-31 0 -67 11q-27 8 -50 30q-14 14 -30 52q-6 12 -6 24q0 4 -1.5 12.5t-1.5 12.5q0 12 13 22q10 8 26 13q98 8 193 8q47 0 94 -2q117 -4 285 -31q27 -12 37 -37q17 -39 17 -62q0 -9 -5 -22q-6 -15 -19 -24 q-20 -14 -28 -19q-15 -6 -31 -6q-34 -6 -67 -6q-12 0 -35 -1t-35 -1q-6 -102 -6 -201q0 -33 -1 -99.5t-1 -101.5l-6 -204q-4 -109 -15 -203q-6 -63 -20 -109q-15 -52 -43 -104t-80 -80q-51 -27 -99 -27h-10q-59 0 -114 23q-47 20 -95 59q-45 39 -77 86q-37 55 -60 99 q-53 102 -80 213q-20 82 -20 164q0 34 4 69z" />
<glyph unicode="k" horiz-adv-x="1110" d="M172 246q-2 28 -2 54.5t2 53.5q0 33 4 94.5t8 92.5q2 37 11 96q8 61 10 94q2 8 3 23.5t1 23.5q4 33 4 47q4 29 4 45q0 23 6 45q12 51 19 109q6 55 18 111q10 51 35 104q20 45 65 88q14 3 25 3q20 0 33 -9q18 -14 33 -41q12 -25 12 -55q0 -41 -4 -58q-4 -25 -8 -41 q-10 -33 -11 -39q-8 -31 -10 -40l-6 -41q0 -6 -2 -17.5t-3 -21t-1 -17.5t-1 -26.5t-1 -28.5q37 20 76 49q12 8 69 62l68 65l65 66q37 33 55.5 51t55.5 51q20 18 61 43q31 18 68 25q20 -2 45 -17q18 -10 35 -30q12 -16 20 -46q8 -33 8 -47l-6 -16q-4 -4 -12 -16 q-23 -12 -35 -22.5t-37 -20.5l-20 -12.5t-21 -10.5l-39 -20q-92 -66 -155 -131q-80 -84 -137 -152q31 -47 61 -84l66 -78q27 -37 88 -110.5t90 -112.5q45 -61 73 -121q29 -61 39 -137q-4 -23 -10 -33t-22 -27q-12 -12 -29 -18q-8 -4 -33 -8q-29 4 -45 14t-35 33 q-20 25 -28 39q-4 8 -29 37l-82 135l-86 133l-37 49q-12 16 -41 45q-20 20 -47 37q-20 12 -57 21h-15q-10 0 -14 -2q0 -6 -1 -19.5t-2 -24t-3 -18.5q-2 -16 -5 -30.5t-5 -30.5q-4 -18 -9 -60q0 -2 -3 -25.5t-3 -33.5q-2 -20 -2 -60v-59q4 -74 4 -108q-4 -31 -16 -62 q-10 -12 -23 -12q-18 0 -26 2q-41 2 -72 32.5t-39 67.5q-6 39 -10 109z" />
<glyph unicode="l" horiz-adv-x="892" d="M166 342q2 35 10 111q8 74 17 112q10 45 20 115q4 20 8 59t8 58q6 51 7 100q0 31 4 100l6 97q2 31 10 96q4 33 8 45q4 14 21 43q10 18 30 35q12 10 43 18q11 2 20 2q30 0 48 -16q27 -23 35 -55q8 -31 8 -74q0 -29 -4 -70q-6 -57 -27 -168l-32 -168q-12 -66 -27 -170 q-16 -121 -23 -170q0 -16 -2 -53t-2 -53q-1 -9 0 -18q0 -44 13 -85h14q40 0 90 15q63 18 102 35q10 4 31 14t31 14q12 6 27.5 14.5l31.5 16.5q47 20 58 27q23 12 57 20q14 4 41 0q18 -2 35 -16q14 -10 20 -31q3 -9 3 -18q0 -12 -5 -23q-12 -37 -38.5 -71.5t-59.5 -57.5 q-31 -23 -72 -43q-55 -29 -72 -37q-77 -34 -159 -55q-58 -15 -115 -15q-24 0 -49 3q-37 2 -80 22q-37 16 -59 55q-18 43 -23 74q-4 27 -4 80q-4 29 -4 41v45z" />
<glyph unicode="m" horiz-adv-x="1320" d="M172 297q-2 41 -2 83.5t2 84.5q8 162 25 270q18 113 53 269q4 14 14 57t15 57q6 12 20 58q9 28 25 55q12 20 18 32.5t23 32.5q10 12 30.5 24.5t36.5 14.5q6 1 11 1q13 0 28 -5q16 -6 29 -20q10 -14 20 -33q6 -12 15 -37q49 -176 79 -338q33 -164 52 -348q27 47 49 102 l45 103l67 166q45 111 70 166l33 65l35 68l22 35q16 25 25 34q14 18 24 25q14 8 31 8q49 -12 76 -35q35 -27 51 -61q20 -43 29 -78q12 -57 14 -86t2 -88v-82q0 -37 -6 -70q-4 -20 -8 -69q-4 -20 -8 -70q0 -12 -4.5 -34.5t-4.5 -32.5v-80q0 -27 4 -80q0 -94 -2 -142 q-2 -63 -16 -141q-2 -6 -4 -18.5t-4 -18.5q-6 -25 -15 -39q-12 -25 -20 -34q-12 -16 -33 -25q-6 -1 -11 -1q-15 0 -30 5q-20 6 -35 19q-16 12 -26 28q-14 20 -17 37q-6 25 -2 55q2 10 2 28.5t2 29.5l13 162q8 106 8 159q0 55 -4 162q-4 84 -25 160q-45 -143 -71 -215 q-16 -43 -84 -213q-18 -37 -39 -88q-29 -72 -37 -88q-20 -39 -47 -84q-27 -43 -62 -72q-18 0 -34.5 10t-28.5 25q-8 10 -19 31q-8 16 -14 34q-8 31 -33 150l-28 151l-33 154q-15 77 -43 147q-25 -95 -37 -190q-8 -66 -16 -193q-1 -10 -1 -22q0 -8 0.5 -23t0.5 -22 q0 -23 4 -68t4 -67v-68q0 -12 -4 -33q-2 -6 -3 -17t-1 -17l-2 -19l-7 -14l-8 -15q-20 -14 -39 -14h-28q-4 2 -14.5 6t-16.5 4q-14 2 -27 19q-16 23 -26 61q-23 74 -27 160z" />
<glyph unicode="n" horiz-adv-x="1071" d="M160 158q0 39 6 78l12 75l17 84q9 40 12 80q4 94 4 141q0 23 1 70t1 72q0 23 3 68.5t5 70.5q4 80 15 139q6 25 14 74q8 59 14 80q8 35 29 72q20 39 51 57q18 4 37 -4q16 -6 29 -19q16 -16 22 -26q2 -4 8 -14.5t11 -14.5q20 -45 28 -70q4 -12 12.5 -31.5t14.5 -41.5 q14 -39 26.5 -79l24.5 -79q18 -61 57 -154q25 -61 68 -147q37 -74 88 -137q0 8 2 16t4 17q4 20 6 32q0 18 -1 53t-1 52q0 70 2 104q-2 55 -2 168q0 111 4 166q2 20 7 66q2 25 14 65q10 33 12 39q12 25 19 31q16 16 24 20q10 5 21 5q5 0 10 -1q18 -3 31 -12q20 -14 24 -23 q6 -10 15 -30q2 -4 6 -16.5t6 -16.5q15 -54 15 -118q0 -12 -1 -23l-4 -47q-2 -8 -3 -24.5t-1 -25.5q0 -14 -4 -47l-6 -49q-4 -143 -4 -217q0 -35 1 -108.5t1 -108.5q1 -19 1 -40q0 -33 -3 -99q-2 -47 -11 -142q-4 -23 -12 -47q-12 -33 -20 -47q-14 -25 -31 -39 q-16 -12 -45 -20q-37 4 -58 18q-33 25 -45 41q-20 27 -34 53q-6 10 -18.5 29t-14.5 23q-41 74 -90 174q-27 55 -72 166l-53 125l-53 122q-4 -39 -9 -112l-6 -113q-6 -55 -6 -108q0 -70 -4 -107q-2 -16 -5 -46t-3 -44q-4 -47 -15 -86q-2 -8 -7 -24.5t-7 -24.5q-2 -12 -18 -43 q-9 -18 -25 -31q-14 -12 -39 -8q-47 10 -71 41q-27 33 -33 78z" />
<glyph unicode="o" horiz-adv-x="1126" d="M156 674q10 129 49 229q45 119 112 211q41 59 76 94t94 76q49 35 107 53q45 15 96 15h19q57 0 104 -21q37 -16 86 -57q37 -33 70 -80q31 -45 51 -90q37 -86 61 -203q14 -70 15 -139q0 -37 -4 -74q-10 -121 -52 -227q-45 -115 -112 -209q-41 -59 -76 -94t-94 -76 q-49 -35 -107 -53q-45 -15 -95 -15h-19q-57 0 -104.5 20.5t-88.5 55.5q-33 27 -70 80q-20 29 -49 90q-45 92 -63 201q-10 58 -10 124q0 42 4 89zM350 592q0 -66 2 -98q2 -45 17 -97q12 -49 34.5 -81.5t61.5 -59.5q35 -25 90 -27q66 4 113 29q46 25 80 68q35 45 55 94 q18 45 37 110q14 49 20 111q2 10 6 48l6 56q4 49 5 82q0 57 -5 86q-6 45 -18 84t-35 72q-20 29 -57 49q-35 20 -84 23h-10q-25 0 -64 -13q-35 -12 -67 -34q-29 -20 -56 -54q-33 -41 -45 -63q-35 -63 -55 -146q-20 -86 -27 -149q-4 -57 -4 -90z" />
<glyph unicode="p" horiz-adv-x="911" d="M170 203q4 123 14 225q12 114 31 227q2 6 2 17.5t2 17.5t2 17.5t2 17.5l6 115q2 29 2 58t-2 58l7 111q4 74 8 111q12 47 43 82q29 31 75 51q49 20 89 28q45 8 90 13q55 0 84 -2q53 -4 82 -9q37 -6 77 -22q37 -16 70 -39q35 -25 55 -57q25 -39 35 -72q12 -40 19 -80 q4 -27 4 -82q-2 -47 -23 -92q-18 -45 -49 -84q-35 -47 -66 -74q-49 -45 -73 -65q-88 -70 -181 -117q-102 -53 -194 -78q0 -29 -1 -84t-1 -82q0 -55 -4 -166l-6 -43q-4 -25 -15 -43q-8 -20 -28 -26q-17 -5 -29 -5q-5 0 -10 1q-31 4 -56 20q-23 16 -36 39q-16 27 -23 55 q-3 17 -3 35q0 11 1 23zM399 725q29 0 64 10q41 12 61 23q41 20 60 33q45 29 55 34q25 16 51 37q25 18 49 43q20 20 37 47q12 20 21 58q0 20 -6.5 38.5t-16.5 30.5l-26 25q-16 12 -29 20q-29 14 -74 27q-41 10 -78 10q-25 -4 -37 -4q-14 0 -34 -10q-23 -14 -39 -37 q-12 -18 -25 -49q-12 -33 -14 -53l-6 -52q-4 -41 -9 -118z" />
<glyph unicode="q" horiz-adv-x="1064" d="M152 639q12 125 38 233q25 104 89 222q31 57 65 100q39 47 90 86q41 31 105 55q43 17 97 17h19q53 0 101 -19q45 -18 84 -53q41 -37 65 -76q18 -29 43 -90q41 -104 51 -194q9 -75 10 -136q0 -35 -3 -69q-8 -98 -43 -223q-31 -109 -97 -209q4 -29 17 -56q16 -33 28 -47 q14 -20 24.5 -47t4.5 -53q-10 -31 -33 -47q-25 -18 -53 -25q-2 -2 -8 -2t-8 -2h-15v2q-14 27 -35 53q-16 23 -32 52q-33 -41 -86 -72q-51 -29 -105 -29q-10 -1 -19 0q-48 0 -91 13q-51 14 -97 47q-53 37 -79 69q-37 43 -58 90q-49 90 -63 197q-10 67 -10 133q1 40 4 80z M344 506q4 -68 23 -119q4 -14 20 -53q10 -23 33 -49q16 -20 43 -33q25 -12 59 -12q5 -1 10 -1q26 0 50 13q31 16 51 41q-8 8 -15.5 18.5t-17.5 20.5l-33 41q-14 20 -24 47q-10 25 -6 53q2 25 22 51q16 23 49 27q22 -6 37 -25q6 -8 14.5 -17t14.5 -17q6 -6 16 -17.5l15 -17.5 q14 -16 36 -27q23 33 37 64q12 25 23 69q2 4 12 72q8 49 10 72q3 36 4 74q0 24 -2 53q-2 61 -18 122q-2 10 -16 58q-9 31 -25 55q-14 25 -39 41q-23 16 -55 16q-7 1 -15 1q-32 0 -67 -11q-40 -12 -74 -37q-37 -27 -59 -57q-27 -35 -41 -72q-20 -45 -31 -78q-16 -51 -20 -81 q-8 -53 -11 -82q-2 -20 -5 -40t-5 -40q-2 -24 -2 -52q0 -24 2 -71z" />
<glyph unicode="r" horiz-adv-x="1169" d="M174 313q4 102 21 193q2 18 7 51l7 47q8 66 10 101q8 78 8 116q0 35 4 117q8 80 11 115q4 61 14 114q2 18 10 45q4 16 19 41q23 25 47 41q20 12 55 25q2 0 59 12q41 8 62 10q16 2 31.5 4.5t31.5 2.5q10 0 33 1t33 3q12 0 37.5 -1t38.5 -1q37 0 73 -7q49 -8 72 -16 q43 -16 68 -33q33 -23 51 -49q14 -20 31 -65q14 -37 16 -74q2 -20 2 -38.5t-2 -37.5q0 -31 -14 -69q-12 -31 -31 -64q-16 -27 -45 -59q-16 -18 -51 -54q-57 -57 -125 -100t-144 -61q33 -37 72 -88l22.5 -29l25.5 -34t20 -30q37 -55 69 -88q45 -45 88 -69q45 -20 66 -33 q31 -18 61 -39q20 -14 35 -35q10 -14 10 -32q0 -8 -2 -17q-10 -35 -37 -51q-25 -16 -61 -23q-13 -2 -28 -2q-20 0 -44 4q-39 6 -65 21q-41 20 -60 35q-37 29 -53 45l-94 114l-90 117l-37 41q-31 35 -37 41q-22 18 -43 31q-20 12 -51 18l-12 -63q-2 -12 -4.5 -37t-2.5 -27 q-2 -20 -2 -63q0 -10 1 -33t1 -33v-61q0 -43 -2 -64q0 -6 -4 -30q-6 -33 -6 -35q-6 -16 -16 -26.5t-33 -10.5q-45 8 -70 39q-29 35 -38 69q-14 45 -17 84q-2 31 -2 84zM399 895q0 -58 13 -117q70 0 137 18.5t129 55.5q31 20 53 43q27 27 43 51q16 23 31 62q12 31 12 65 q2 25 -10 41q-14 18 -33 27q-16 6 -43 10q-16 2 -45 2q-18 -2 -53 -2q-20 0 -53 -4q-16 -2 -53.5 -6t-53.5 -4q-16 -4 -31 -19q-12 -12 -18 -31q-8 -25 -10 -38q-3 -22 -6 -37q-9 -78 -9 -117z" />
<glyph unicode="s" horiz-adv-x="1085" d="M162 266q0 14 2 23q0 4 12 20q4 6 17 15q8 6 22 2q20 -2 47 -11q14 -4 43 -20t43 -27q6 -4 45 -26q27 -10 80 -23q39 -8 86 -8q13 -2 27 -2q39 0 80 12q53 16 96 49t69 82q27 47 27 107q3 28 3 54.5t-3 53.5q-2 23 -22.5 43.5t-44.5 16.5q-45 0 -89 -13q-4 -2 -37.5 -10 t-50.5 -14l-88 -25q-38 -11 -72 -11q-8 0 -16 1q-10 -1 -18 -1q-30 0 -58 9q-27 8 -63 35q-27 18 -51 53q-22 31 -31 68q-27 74 -27 141q0 84 9 150q6 37 22 77q10 27 41 68q20 29 55 59q29 25 66 50q68 45 145 67q74 20 158 21q68 -4 100 -11q47 -8 93 -34q45 -23 75.5 -60 t30.5 -82q0 -25 -10 -39q-6 -10 -25 -16q-20 -8 -32 -8q-23 0 -31 2q-35 4 -62 12l-59 21q-8 2 -28.5 10t-28.5 10q-31 10 -62 10q-53 0 -94 -16q-53 -20 -84 -47q-41 -27 -72 -74q-27 -41 -32 -90q-2 -18 6 -55q6 -27 18 -51q0 -2 17 -23q6 -8 18 -20q6 -6 22 -15 q12 -6 27 -6q41 4 74 18q14 6 69 27q27 14 80 29q29 8 82 12q68 0 121 -33q55 -33 86 -90q33 -51 45 -112q8 -41 8 -81q0 -20 -2 -42q-12 -94 -49 -176q-37 -83 -98 -154q-37 -41 -68 -64q-37 -28 -80 -49q-51 -27 -86 -32q-41 -8 -90 -9q-66 0 -131 19q-59 16 -121 49 q-25 14 -53 33q-31 20 -49 39q-23 23 -35 51q-14 32 -14 61z" />
<glyph unicode="t" horiz-adv-x="1056" d="M160 1169q4 12 8 21q8 12 14 18q16 12 58 29q31 12 61 18q45 8 68 15l67 12q74 18 152 31l77 11t74 11q14 0 41 1t41 3l33 2q25 0 49 -4q14 -2 58 -10q31 -6 55 -18.5t45 -32.5q18 -18 29 -51q-2 -25 -27 -45q-23 -20 -47 -23q-29 -4 -58 0q-37 4 -57 4h-72 q-37 0 -71 -22q-8 -37 -10 -66q-4 -45 -9 -63q-2 -10 -30 -238q-16 -129 -27 -237l-16 -179q-4 -27 -8.5 -88t-8.5 -88q0 -6 -3 -21.5l-5 -25.5q-2 -27 -12 -51q-9 -25 -24.5 -43.5t-43.5 -24.5q-41 0 -63 21q-23 18 -35 51q-14 35 -17 66q-2 25 -2 65q0 12 1 39t1 41 q0 53 3 78l12 71q10 61 12 70l35 150q4 16 8 57q2 18 6 59q6 56 6 107q0 30 -2 57q-8 113 -18 164q-33 -4 -53 -4q-25 0 -52 -10q-25 -2 -53 -11q-25 -6 -51 -6q-14 -2 -49 -2q-23 0 -51 13q-23 10 -35 28q-8 12 -8 28q0 11 4 23z" />
<glyph unicode="u" horiz-adv-x="1081" d="M174 502q-1 29 -1 56q0 96 9 183l17 133l18 136q6 49 27 133q12 49 39 131q12 27 39 41q28 15 55 18q10 3 19 4q6 0 12 -2q10 -2 22 -14q10 -10 16 -23q4 -10 9 -26q7 -30 7 -64q0 -11 -1 -22q-2 -14 -2 -42t-2 -42q-6 -41 -12.5 -80t-10.5 -76l-24 -151 q-6 -31 -15.5 -90.5t-9.5 -65.5q-12 -74 -18 -156q-2 -22 -2 -42t2 -40q4 -43 20 -77q20 -35 64 -52q37 -14 84 -14h12q68 0 115 33q57 41 88 94q35 59 49 125q18 80 20 127q12 104 12 205q0 117 -10 200l-4 41t-2 39q-3 38 -3 55q0 12 1 23q0 8 4 37q4 23 12 41q8 14 25 29 q14 12 39 12q25 -4 41 -14.5t30.5 -29t22.5 -36.5q6 -14 19 -39q12 -45 24 -127q6 -41 10 -131q2 -32 2 -64.5t-2 -66.5q-4 -90 -8 -133q-14 -117 -43 -209q-35 -106 -88 -199q-23 -41 -59 -92q-33 -45 -76 -82q-45 -39 -92 -59q-51 -23 -107 -23q-11 -1 -20 0q-54 0 -98 15 q-49 16 -103 55q-51 37 -82 82q-33 47 -51 104q-37 119 -39 232z" />
<glyph unicode="v" horiz-adv-x="919" d="M195 1130q0 25 4 74q4 25 8 33l12 31q6 14 18.5 26.5t28.5 14.5q20 6 39 -2.5t29 -20.5q12 -16 18 -33q4 -12 8 -36q4 -45 4.5 -66t4.5 -66q8 -117 14 -182q12 -115 20 -182q8 -61 29 -184q12 -76 45 -181q20 33 41 80q18 40 31 80l24 84l25 84l59 223l60 223 q10 20 20 56q12 41 21 59q14 33 30 51q20 25 50 33q27 -4 43 -16q20 -16 30 -35q12 -20 15 -43q4 -33 4 -47q-2 -51 -12 -101q-12 -72 -23 -100l-37 -102q-18 -49 -35 -103l-63 -219q-39 -127 -70 -219q-6 -16 -31 -92q-16 -53 -36 -96q-20 -45 -54 -84q-29 -35 -77 -58 q-33 0 -66 6.5t-55 28.5q-8 8 -21 25q-2 2 -12 28l-5 10.5t-5 11.5t-2 9q-2 10 -11 31q-12 45 -34 155q-10 53 -23 156q-6 53 -14 160q-2 18 -5 50l-5.5 58.5t-2.5 51.5q-6 41 -14 133q-4 43 -16 133q0 4 -3 29.5t-3 39.5z" />
<glyph unicode="w" horiz-adv-x="1368" d="M201 459l6 73q4 35 8 74q8 49 12 76q4 25 9 78q6 59 6 114v113q-1 19 -1 37q0 99 15 188q4 20 8 31l4 12q4 12 8 19q10 16 21 24q16 12 29 15h8q39 0 69 -25q31 -27 41 -69q6 -31 5 -58l-5 -57l-16 -172l-12 -172q-4 -119 -8 -178l-13 -179q29 43 51 95l39 98l68 166 q35 82 74 164l18 37.5t17 33.5l34 72q8 14 41 68q25 39 47 63l19 6l8 4t8 2q12 0 37 -8q20 -6 31 -20q6 -10 10 -33q4 -25 8 -37q22 -77 37 -153q10 -51 27 -158l12 -90l12 -90l19 -86q8 -41 26 -80q35 203 54 366q18 152 28 367q0 25 8 70q0 20 11 47q25 20 41 20 q23 0 32 -2q18 -2 31 -8q16 -6 29 -19q27 -49 35 -96q12 -72 14 -102q1 -15 1 -36q0 -12 -0.5 -36t-0.5 -37v-106q-2 -94 -23 -199q-20 -109 -45 -197q-18 -72 -57 -188q-31 -92 -84 -180l-22 -31q-16 -20 -25 -29q-18 -18 -28.5 -24t-39.5 -10q-18 0 -32 8q-16 10 -25 20 q-12 18 -18 31q-2 4 -6.5 16.5t-6.5 16.5q-55 156 -92 295q-35 129 -55 307q-45 -115 -72 -176l-78 -170q-41 -92 -57 -125q-2 -6 -55 -98q-6 -10 -14.5 -21.5t-14.5 -21.5q-12 -23 -27 -39q-12 -14 -30 -27q-16 -10 -39 -14q-61 18 -100 65t-53.5 108.5t-18.5 131.5 q-2 45 -2 125z" />
<glyph unicode="x" horiz-adv-x="1107" d="M154 190q4 27 12 52q8 23 22 47q23 39 27 45l29 43l75 96q14 18 25.5 34.5t22 29t26.5 34.5l51 82q33 53 48 82l-22.5 49.5l-19 41t-24.5 48.5q-41 84 -64 144q-6 14 -13 28.5t-13 30.5q-16 41 -23 62q-12 37 -16 65q-3 19 -3 39q0 12 1 27q4 18 10 26q10 12 21 19l24 12 q6 0 14.5 2t14.5 4q23 2 51 -4q27 -6 41 -26q18 -33 23 -43q2 -6 7 -22.5t9 -25.5q18 -47 51 -145l49 -145q47 45 88 108.5t72 120.5q12 27 26.5 53.5t26.5 52.5q8 8 15 21q2 4 7 11t7 11q6 12 16 23q4 4 21 12q25 -4 45 -14q22 -12 37 -31q16 -20 24.5 -38.5t8.5 -49.5 q-16 -74 -48 -129q-31 -57 -77 -117l-88 -108q-86 -102 -91 -109q49 -82 70 -125l66 -129l26.5 -57.5l28.5 -60.5l57 -113q16 -29 31 -70q12 -34 12 -73q-10 -37 -37 -54q-33 -18 -63 -22q-5 -1 -9 -1q-25 0 -42 15q-29 25 -39 39q-14 14 -35 51q-15 28 -25 56 q-41 100 -75 174q-37 82 -74 176q-59 -66 -100 -133q-57 -94 -84 -144l-33 -69q-25 -45 -33 -68q-2 -2 -16 -27q-2 -4 -7.5 -14t-9.5 -14q-12 -16 -20 -23q-16 -12 -27 -14q-31 4 -49 16q-16 12 -35 37q-14 18 -20 47q-5 20 -5 38q0 7 1 13z" />
<glyph unicode="y" horiz-adv-x="960" d="M211 1051q-4 43 -4 82q0 55 8 108l8 27l13 24l18 19q8 8 25 8q18 6 38 2q12 -2 31 -16q14 -10 23 -29q10 -18 12 -35q4 -57 8 -86q4 -27 8 -88q4 -27 17 -92q6 -31 22 -92q8 -43 29 -95q12 -31 41 -88q66 137 113 213l124 205q27 49 52 88l55 86q10 18 31 29q12 6 39 6 q27 -4 41 -14q16 -14 26 -33q12 -25 15 -39q6 -37 4 -45q-6 -37 -29 -68q-6 -8 -39 -63q-27 -33 -51 -68l-49 -69q-49 -68 -115 -178q-47 -80 -100 -189q-45 -92 -80 -194q-39 -113 -58 -201q-2 -8 -5 -25.5t-5 -25.5q-6 -25 -18 -49q-16 -27 -35 -37q-22 -11 -41 -11h-8 q-16 0 -33 11q-14 8 -23 22q-12 20 -14 35q-4 25 -2 35q3 49 12 98q10 57 21 96q2 10 7 31l9 37l8 31q12 39 39 96q-41 37 -61 74q-27 45 -43 88q-18 45 -31 96l-24 96q-19 78 -29 187z" />
<glyph unicode="z" horiz-adv-x="1105" d="M211 170q14 61 43 124.5t63 119.5q49 78 76 114l76 111l90 131l92 129l90 131q63 90 88 131q-12 4 -18 4q-4 0 -8 1t-8 1q-47 0 -72 -2q-20 -2 -72 -10q-106 -16 -159 -27q-86 -16 -156 -24q-12 -2 -41 -2t-41 4q-20 8 -33 18q-12 12 -8 37q18 37 61 70q31 23 82 45 q37 14 93 27q61 12 90 20q104 20 194 23q17 1 34 0l163 -11q61 -10 106 -41q23 -14 45 -37q18 -18 23 -53q-37 -74 -66 -117q-49 -74 -75 -110l-80 -109q-35 -45 -76 -108q-53 -80 -90 -129l-92 -125q-49 -70 -86 -131q-39 -66 -68 -139l2 -9q23 0 45 6l43 13q35 10 45 14 q29 12 43 16l44 17.5l50 19.5l95 39q25 8 36 10q25 4 39 7q10 0 39 -4q20 -2 39 -15q16 -10 25 -26q10 -18 6 -41q0 -10 -8 -27q-2 -2 -17 -23q-8 -12 -20 -20l-21 -16l-41 -19l-43 -18q-121 -47 -141 -54q-74 -25 -143 -43q-84 -20 -146 -28q-50 -6 -93 -6q-26 0 -52 2 q-23 2 -39 22q-6 8 -13 16.5l-14 16.5q-8 18 -14 41z" />
<glyph unicode="{" horiz-adv-x="706" d="M109 649q3 34 24 56q18 20 47 28q37 12 60 15q41 4 57 4h4h16q10 0 17 -2h31h10q2 0 5 1t5 1q-39 23 -74 63q-31 37 -55 80q-18 33 -35 84q-14 45 -6 92q4 68 33 127q31 59 76 109q47 51 108 73q63 25 127 13q27 -2 53 -17q20 -10 41 -30q23 -23 33 -41q14 -23 10 -52 q2 -14 -6 -30q-8 -14 -18 -21q-16 -8 -29 -8q-18 0 -29 4q-12 4 -32 8q-6 2 -16.5 4t-16.5 2q-29 6 -59.5 0t-51.5 -24q-23 -18 -37 -45q-12 -23 -12 -58q4 -35 12 -49q16 -29 27 -43q14 -23 35 -41q12 -12 33 -37l32 -36l33 -39q10 -14 27 -43q10 -18 14 -47 q-4 -35 -22 -54q-23 -23 -45 -37q10 -4 22 -14q16 -12 23 -18q12 -12 16 -20.5t4 -26.5l-4 -19q-29 -49 -64 -88l-75 -80l-17.5 -17t-17.5 -20l-33 -41q-14 -18 -27 -45q-12 -25 -18 -49q14 -10 43 -26q4 -2 13.5 -8.5t16.5 -10.5t13 -6q27 -12 49 -14q25 -3 49 0q12 4 33 0 q15 -3 25 -13q12 -12 14 -24q4 -16 0 -33q-6 -35 -30.5 -65.5t-59.5 -43.5q-55 -10 -119 3q-49 10 -104 45q-23 14 -45 36q-29 29 -39 45q-12 20 -25 56q-10 33 -8 59q4 53 23 94q20 43 49 88q57 90 147 156q-23 2 -70 2t-69 2q-14 0 -47 4q-23 2 -45 13q-20 8 -35 26 q-14 16 -14 43z" />
<glyph unicode="|" horiz-adv-x="425" d="M150 104v80q2 143 12 285q16 238 20 285l19 192l24 197q0 16 2 32.5l4 34.5q4 49 9 70q4 49 10 74l18 73q2 2 4 8.5t4 10.5q2 8 11 16q27 12 45 6q16 -6 30 -26q12 -18 19 -41q8 -29 10 -41q-2 -29 2 -90q2 -45 0 -90q4 -111 0 -219q-4 -121 -14 -220l-8 -71 q-2 -18 -3 -36t-3 -36q-8 -43 -11 -72l-6 -71q-2 -10 -2 -31q0 -10 -4 -31v-33q0 -12 -4 -32q-12 -70 -14 -109q-3 -55 -13 -110q-10 -59 -26 -107q-18 -53 -56 -96q-23 0 -34 12q-14 14 -23 31q-6 12 -10 39q-4 20 -6 39q-6 73 -6 77z" />
<glyph unicode="}" horiz-adv-x="704" d="M127 111q2 8 2 22q0 8 10 19q20 14 39 14t29 -2q14 -4 35 -8q6 0 17 -4.5t17 -4.5q33 -6 60 3q33 10 51 26q25 20 35 45q12 29 12 58q-4 33 -12 47t-29 43q-16 20 -33 39q-18 18 -34 36l-33 37q-18 18 -33 39q-15 22 -24 43q-14 35 -17 47q4 33 24.5 53.5t47.5 36.5 q-16 8 -25 15q-16 12 -20 16q-10 10 -16.5 22.5t-6.5 28.5l6 15q20 37 64 88q14 14 25.5 28.5t21.5 24.5t27 29q2 2 34 39l33 41q4 6 27 45q8 12 16 49l-20.5 12t-20.5 14q-29 16 -43 22.5t-47 14.5q-23 6 -51 2q-12 -4 -31 0q-14 2 -26.5 14.5t-14.5 24.5q-4 20 -2 31 q6 31 33 65q25 33 61 41q51 14 117 0q57 -12 107 -45q23 -14 45 -36.5t37 -45.5q12 -20 24 -55q10 -29 6 -59q-4 -53 -20 -97q-12 -31 -49 -88q-23 -37 -66 -84q-35 -39 -82 -71q23 -2 70 -2t69 -2q12 0 45 -4.5t48 -10.5q20 -8 34 -26q12 -15 13 -43q-4 -33 -23 -54 q-20 -20 -49 -32q-25 -10 -59 -15q-41 -4 -56 -4h-6h-31q-6 2 -16 2h-16h-11q-2 0 -5 -1t-5 -1q45 -29 74 -63q41 -49 57 -78q14 -27 35 -84q12 -37 6 -92q-10 -72 -35 -127q-27 -59 -75 -109q-47 -53 -109 -73q-68 -23 -127 -15q-25 6 -49 19q-29 14 -43 30q-23 18 -33 41 q-10 21 -10 54z" />
<glyph unicode="~" horiz-adv-x="1069" d="M176 737q0 23 14.5 47.5t28.5 36.5q20 16 41 29l41 24q41 20 92 41t94 21q35 0 58 -14q41 -25 49 -33q22 -18 49 -31q25 -10 57 -14q41 4 68 14q41 16 59 29q25 12 58 26q37 14 59 13q25 -4 37 -8q16 -6 35 -17q16 -10 26 -27q12 -20 15 -34q0 -12 -13 -33q-4 -4 -22 -25 q-20 -16 -31 -22q-20 -12 -37 -12q-57 -33 -127 -62q-63 -27 -135 -31q-35 4 -59 15q-23 10 -53 32q-18 16 -50 33q-29 16 -57 19q-55 -2 -111 -35q-52 -31 -86 -80h-2q-23 4 -32 10q-2 2 -29 23q-20 20 -25 28q-9 19 -12 37z" />
<glyph unicode="&#x85;" horiz-adv-x="1173" d="M133 150q2 27 21 47q10 10 18 21t16 20q8 4 22.5 14t22.5 14q23 16 50 17q35 4 49 -15q16 -20 22 -45q4 -18 4 -55q0 -10 -1 -28.5t-1 -24.5q2 -18 -4 -41q-6 -22 -18 -37q-10 -12 -31 -23q-18 -10 -41 -6q-20 2 -49 17q-25 12 -41 30q-18 18 -31 43q-12 23 -8 52z M473 149.5q2 20.5 19 53.5q14 29 32 47q14 16 37 33q20 14 47 14q39 0 58 -16q23 -18 33 -43t14 -58q2 -23 -2 -59q0 -18 -11 -43q-6 -14 -26 -35q-14 -14 -39 -25q-18 -8 -43 -4q-27 0 -49 13q-22 12 -37.5 30.5t-24.5 42.5q-10 29 -8 49.5zM836 147q0 25 10 50q9 22 24 43 q12 18 31 30.5t39 12.5q31 -3 55 -19q25 -14 39 -39q16 -27 23 -53q4 -23 -2 -57q-6 -29 -19 -45q-8 -12 -32 -33q-12 -10 -41 -23q-18 -8 -48 -8q-23 4 -38 14q-18 12 -25 33q-14 25 -16 45q-3 24 0 49z" />
<glyph unicode="&#x2026;" horiz-adv-x="1173" d="M133 150q2 27 21 47q10 10 18 21t16 20q8 4 22.5 14t22.5 14q23 16 50 17q35 4 49 -15q16 -20 22 -45q4 -18 4 -55q0 -10 -1 -28.5t-1 -24.5q2 -18 -4 -41q-6 -22 -18 -37q-10 -12 -31 -23q-18 -10 -41 -6q-20 2 -49 17q-25 12 -41 30q-18 18 -31 43q-12 23 -8 52z M473 149.5q2 20.5 19 53.5q14 29 32 47q14 16 37 33q20 14 47 14q39 0 58 -16q23 -18 33 -43t14 -58q2 -23 -2 -59q0 -18 -11 -43q-6 -14 -26 -35q-14 -14 -39 -25q-18 -8 -43 -4q-27 0 -49 13q-22 12 -37.5 30.5t-24.5 42.5q-10 29 -8 49.5zM836 147q0 25 10 50q9 22 24 43 q12 18 31 30.5t39 12.5q31 -3 55 -19q25 -14 39 -39q16 -27 23 -53q4 -23 -2 -57q-6 -29 -19 -45q-8 -12 -32 -33q-12 -10 -41 -23q-18 -8 -48 -8q-23 4 -38 14q-18 12 -25 33q-14 25 -16 45q-3 24 0 49z" />
<glyph horiz-adv-x="409" d="M168 1311q2 12 12 22q6 6 23 15q8 4 28 8q4 0 13.5 1t13.5 3q27 -10 43 -29q20 -23 31 -45q16 -33 22 -51q10 -31 21 -51q37 -111 55 -228q2 -4 2 -14v-10q-6 -31 -26.5 -47.5t-53.5 -20.5q-27 6 -45 25q-23 23 -33 43q-16 33 -22 51t-23 51q-23 63 -36 115 q-10 41 -23 119q2 8 -2 20q-4 11 0 23z" />
<glyph unicode="&#x2018;" horiz-adv-x="409" d="M168 1311q2 12 12 22q6 6 23 15q8 4 28 8q4 0 13.5 1t13.5 3q27 -10 43 -29q20 -23 31 -45q16 -33 22 -51q10 -31 21 -51q37 -111 55 -228q2 -4 2 -14v-10q-6 -31 -26.5 -47.5t-53.5 -20.5q-27 6 -45 25q-23 23 -33 43q-16 33 -22 51t-23 51q-23 63 -36 115 q-10 41 -23 119q2 8 -2 20q-4 11 0 23z" />
<glyph horiz-adv-x="399" d="M152 956q6 66 26 117q22 55 49 111l25 51q12 25 29 53q18 29 36 45q25 20 52 27q20 -4 32 -17q16 -16 22.5 -26t10.5 -33q3 -18 0 -37q0 -41 -8 -73q-6 -25 -23 -74q-12 -35 -30 -70l-37 -69l-12.5 -18.5t-10.5 -16.5q-16 -25 -26 -35q-20 -20 -31 -29q-12 -10 -39 -10 q-14 0 -31 12q-14 12 -20 25q-8 20 -10 33q-4 24 -4 34z" />
<glyph unicode="&#x2019;" horiz-adv-x="399" d="M152 956q6 66 26 117q22 55 49 111l25 51q12 25 29 53q18 29 36 45q25 20 52 27q20 -4 32 -17q16 -16 22.5 -26t10.5 -33q3 -18 0 -37q0 -41 -8 -73q-6 -25 -23 -74q-12 -35 -30 -70l-37 -69l-12.5 -18.5t-10.5 -16.5q-16 -25 -26 -35q-20 -20 -31 -29q-12 -10 -39 -10 q-14 0 -31 12q-14 12 -20 25q-8 20 -10 33q-4 24 -4 34z" />
<glyph horiz-adv-x="757" d="M203 1231v43q4 10 16 22q8 8 23 13q25 6 28 6q10 0 27 4q27 -12 41 -31q18 -20 27 -45q12 -33 18 -51q9 -28 18 -49q20 -53 37 -119q20 -78 27 -119q2 -4 2 -12t-2 -12q0 -14 -6 -26.5t-19 -18.5q-2 -2 -10 -6.5t-12 -6.5q-8 -2 -27 -2q-27 10 -47 29q-20 20 -35 43 q-6 10 -24 51q-8 18 -25 51q-23 63 -37 115q-18 68 -20 121zM481 1323q2 14 15 23q10 6 24 10q16 4 27 4h26q29 -14 45 -33q23 -27 31 -43q23 -45 25 -51q8 -25 20 -49q23 -66 35 -115q14 -53 21 -117v-12q0 -8 -2 -12q-6 -29 -29 -43q-29 -18 -49 -21q-27 8 -45 27 q-14 14 -29 43q-16 33 -23 51q-9 28 -18 49q-18 53 -39 121q-18 61 -31 123q-4 16 -4 22v23z" />
<glyph unicode="&#x201c;" horiz-adv-x="757" d="M203 1231v43q4 10 16 22q8 8 23 13q25 6 28 6q10 0 27 4q27 -12 41 -31q18 -20 27 -45q12 -33 18 -51q9 -28 18 -49q20 -53 37 -119q20 -78 27 -119q2 -4 2 -12t-2 -12q0 -14 -6 -26.5t-19 -18.5q-2 -2 -10 -6.5t-12 -6.5q-8 -2 -27 -2q-27 10 -47 29q-20 20 -35 43 q-6 10 -24 51q-8 18 -25 51q-23 63 -37 115q-18 68 -20 121zM481 1323q2 14 15 23q10 6 24 10q16 4 27 4h26q29 -14 45 -33q23 -27 31 -43q23 -45 25 -51q8 -25 20 -49q23 -66 35 -115q14 -53 21 -117v-12q0 -8 -2 -12q-6 -29 -29 -43q-29 -18 -49 -21q-27 8 -45 27 q-14 14 -29 43q-16 33 -23 51q-9 28 -18 49q-18 53 -39 121q-18 61 -31 123q-4 16 -4 22v23z" />
<glyph horiz-adv-x="724" d="M166 952q2 51 27 117q23 61 49 115q6 8 10 16t8 14.5t10 18.5q10 18 31 51q18 29 37 45q27 23 49 31q18 0 35 -10q14 -8 22 -23q6 -10 11 -33q2 -12 -2 -37q-8 -70 -39 -151.5t-68 -147.5q-16 -20 -22 -32q-8 -18 -23 -35q-12 -16 -29 -29q-12 -10 -36 -10q-18 0 -33 10 q-16 12 -23 23q-10 16 -12 33q-2 11 -2 34zM444 831q-2 8 2 17q10 14 11 16q31 57 57 125l49 131q6 8 19 43q12 33 20 47q12 23 27 39q14 18 41 25q14 0 35 -12q15 -9 24 -25q10 -16 12 -33q2 -12 2 -35q-4 -80 -32 -147q-37 -86 -72 -137l-25 -37q-16 -25 -26 -35 q-25 -25 -31 -29q-20 -14 -39 -16q-10 -2 -28.5 2t-26.5 10q-10 8 -17 21q-6 10 -2 30z" />
<glyph unicode="&#x201d;" horiz-adv-x="724" d="M166 952q2 51 27 117q23 61 49 115q6 8 10 16t8 14.5t10 18.5q10 18 31 51q18 29 37 45q27 23 49 31q18 0 35 -10q14 -8 22 -23q6 -10 11 -33q2 -12 -2 -37q-8 -70 -39 -151.5t-68 -147.5q-16 -20 -22 -32q-8 -18 -23 -35q-12 -16 -29 -29q-12 -10 -36 -10q-18 0 -33 10 q-16 12 -23 23q-10 16 -12 33q-2 11 -2 34zM444 831q-2 8 2 17q10 14 11 16q31 57 57 125l49 131q6 8 19 43q12 33 20 47q12 23 27 39q14 18 41 25q14 0 35 -12q15 -9 24 -25q10 -16 12 -33q2 -12 2 -35q-4 -80 -32 -147q-37 -86 -72 -137l-25 -37q-16 -25 -26 -35 q-25 -25 -31 -29q-20 -14 -39 -16q-10 -2 -28.5 2t-26.5 10q-10 8 -17 21q-6 10 -2 30z" />
<glyph horiz-adv-x="641" d="M168 639q-4 51 2 88q0 53 20 100q23 53 58 91q33 35 84 59q47 23 100 16q43 0 76 -18q39 -20 57 -47q27 -27 41 -62q15 -37 12 -73q-2 -59 -24 -119q-20 -55 -59 -111q-20 -27 -43 -47t-53.5 -36.5t-59.5 -22.5q-41 -8 -62 -6q-49 2 -81 32q-33 29 -48 68q-18 45 -20 88z " />
<glyph unicode="&#x2022;" horiz-adv-x="641" d="M168 639q-4 51 2 88q0 53 20 100q23 53 58 91q33 35 84 59q47 23 100 16q43 0 76 -18q39 -20 57 -47q27 -27 41 -62q15 -37 12 -73q-2 -59 -24 -119q-20 -55 -59 -111q-20 -27 -43 -47t-53.5 -36.5t-59.5 -22.5q-41 -8 -62 -6q-49 2 -81 32q-33 29 -48 68q-18 45 -20 88z " />
<glyph horiz-adv-x="747" d="M178 707q14 27 41 43q14 10 55 18q37 8 60 8q25 0 57 4q74 -4 113 -4q10 -2 29.5 -3t29.5 -1q31 -2 60 -12q33 -10 49 -26.5t20 -51.5q-4 -20 -10 -29q-12 -16 -20 -22q-10 -8 -27 -15q-20 -8 -29 -8q-86 -6 -170 -6q-29 0 -85 -1t-85 -1q-14 2 -35 14q-14 8 -26 21 q-16 20 -21 33q-8 25 -6 39z" />
<glyph unicode="&#x2013;" horiz-adv-x="747" d="M178 707q14 27 41 43q14 10 55 18q37 8 60 8q25 0 57 4q74 -4 113 -4q10 -2 29.5 -3t29.5 -1q31 -2 60 -12q33 -10 49 -26.5t20 -51.5q-4 -20 -10 -29q-12 -16 -20 -22q-10 -8 -27 -15q-20 -8 -29 -8q-86 -6 -170 -6q-29 0 -85 -1t-85 -1q-14 2 -35 14q-14 8 -26 21 q-16 20 -21 33q-8 25 -6 39z" />
<glyph horiz-adv-x="1153" d="M188 707q16 23 48 41q25 14 57 20q31 6 63 6q23 0 60 4q117 4 235 0h117q18 0 58 -1t61 -1q10 -2 29.5 -3t29.5 -1q33 -2 63.5 -12t51.5 -27q23 -20 29 -51q-2 -12 -15 -29q-8 -10 -24 -20q-10 -6 -31 -14.5t-31 -8.5q-328 -12 -700 -8q-27 0 -41.5 10.5l-30.5 22.5 q-15 12 -24 31q-11 21 -5 41z" />
<glyph unicode="&#x2014;" horiz-adv-x="1153" d="M188 707q16 23 48 41q25 14 57 20q31 6 63 6q23 0 60 4q117 4 235 0h117q18 0 58 -1t61 -1q10 -2 29.5 -3t29.5 -1q33 -2 63.5 -12t51.5 -27q23 -20 29 -51q-2 -12 -15 -29q-8 -10 -24 -20q-10 -6 -31 -14.5t-31 -8.5q-328 -12 -700 -8q-27 0 -41.5 10.5l-30.5 22.5 q-15 12 -24 31q-11 21 -5 41z" />
<glyph horiz-adv-x="1261" d="M231 1278v18q12 16 23 19q4 0 13 2t14 4q35 2 104 10l104 12q25 4 82 9q53 4 82 8q18 -2 39 -17q16 -10 21 -36q-2 -25 -29 -39q-18 -10 -45 -15q-33 -8 -64 -8q-18 0 -51 -4q-16 -72 -41 -215q-16 -96 -26 -215q-2 -6 -3 -16.5t-1 -16.5q-2 -12 -7 -33q-4 -16 -14 -30 q-12 -14 -24 -21q-25 0 -48 17q-18 12 -18 45q0 43 2 63q4 49 8 68l13 67q4 20 8 70q4 39 8 109q4 72 2 108q-45 -4 -72 -4q-47 0 -69 -2q-4 2 -8.5 10t-2.5 15v18zM672 766v76q0 23 4 63q8 66 10 101q0 8 12 102q8 70 17 100q16 66 28 99q4 12 21 32q10 12 31 17 q12 0 20 -6q12 -8 16.5 -12.5t12.5 -16.5q6 -10 10 -18q35 -106 49 -170q18 -86 25 -177q25 47 49 113l45 111q6 14 14 43q4 14 17 43q8 20 22 41q12 18 33 30q31 -6 53 -28q20 -20 31 -54q12 -41 14 -65q4 -45 4 -64q2 -16 0 -34q-2 -6 -4 -16.5t-2 -16.5q0 -8 -2 -17.5 t-4 -17.5q-4 -20 -4 -35v-39v-41q-2 -12 -2 -34.5t-2 -34.5q-4 -41 -14 -70q-2 -14 -15 -39q-10 -23 -28 -26h-17q-2 0 -14 4l-17 22l-6 19v26q0 10 4 31l15 76q6 40 6 80q2 39 0 77q-4 45 -14 78q-25 -98 -78 -207q-8 -14 -21 -43q-10 -23 -22 -45q-16 -29 -27 -41 q-27 -31 -33 -37q-18 4 -26 17q-10 16 -13 33q-2 12 -7 36.5t-7 37t-5 38t-5 37.5q-2 18 -6 39t-9 39q-6 35 -24 74q-4 -16 -8 -49t-8 -50q-9 -49 -13 -98q-2 -12 -2 -35q0 -6 1 -17t1 -18q0 -23 -4 -67q-4 -33 -12 -51q-6 -14 -19 -17l-24 -6q-12 0 -25 8q-4 4 -12 19 q-4 8 -8 24q-2 9 -2 27z" />
<glyph unicode="&#x2122;" horiz-adv-x="1261" d="M231 1278v18q12 16 23 19q4 0 13 2t14 4q35 2 104 10l104 12q25 4 82 9q53 4 82 8q18 -2 39 -17q16 -10 21 -36q-2 -25 -29 -39q-18 -10 -45 -15q-33 -8 -64 -8q-18 0 -51 -4q-16 -72 -41 -215q-16 -96 -26 -215q-2 -6 -3 -16.5t-1 -16.5q-2 -12 -7 -33q-4 -16 -14 -30 q-12 -14 -24 -21q-25 0 -48 17q-18 12 -18 45q0 43 2 63q4 49 8 68l13 67q4 20 8 70q4 39 8 109q4 72 2 108q-45 -4 -72 -4q-47 0 -69 -2q-4 2 -8.5 10t-2.5 15v18zM672 766v76q0 23 4 63q8 66 10 101q0 8 12 102q8 70 17 100q16 66 28 99q4 12 21 32q10 12 31 17 q12 0 20 -6q12 -8 16.5 -12.5t12.5 -16.5q6 -10 10 -18q35 -106 49 -170q18 -86 25 -177q25 47 49 113l45 111q6 14 14 43q4 14 17 43q8 20 22 41q12 18 33 30q31 -6 53 -28q20 -20 31 -54q12 -41 14 -65q4 -45 4 -64q2 -16 0 -34q-2 -6 -4 -16.5t-2 -16.5q0 -8 -2 -17.5 t-4 -17.5q-4 -20 -4 -35v-39v-41q-2 -12 -2 -34.5t-2 -34.5q-4 -41 -14 -70q-2 -14 -15 -39q-10 -23 -28 -26h-17q-2 0 -14 4l-17 22l-6 19v26q0 10 4 31l15 76q6 40 6 80q2 39 0 77q-4 45 -14 78q-25 -98 -78 -207q-8 -14 -21 -43q-10 -23 -22 -45q-16 -29 -27 -41 q-27 -31 -33 -37q-18 4 -26 17q-10 16 -13 33q-2 12 -7 36.5t-7 37t-5 38t-5 37.5q-2 18 -6 39t-9 39q-6 35 -24 74q-4 -16 -8 -49t-8 -50q-9 -49 -13 -98q-2 -12 -2 -35q0 -6 1 -17t1 -18q0 -23 -4 -67q-4 -33 -12 -51q-6 -14 -19 -17l-24 -6q-12 0 -25 8q-4 4 -12 19 q-4 8 -8 24q-2 9 -2 27z" />
<glyph unicode="&#xa2;" horiz-adv-x="851" d="M102 709q6 82 37 145q33 68 78 131q8 10 53 62q31 33 62 53q35 23 69.5 37t73.5 14q0 10 4 29.5t4 30t2 30t2 29.5q4 20 5 33l6 36l12 31q6 15 25 25q8 0 32 -4q14 -2 30.5 -12.5t25.5 -20.5q8 -12 12 -33q2 -20 2 -65v-66v-29q57 -14 96 -41q49 -35 76 -71 q33 -39 53 -86q20 -45 17 -103q0 -6 -5 -26q-2 -14 -12 -26.5t-20 -18.5q-14 -6 -29 -5q-35 2 -57 31q-22 28 -31 62q-4 8 -8 17t-8 17q-2 8 -17 31q-6 10 -24 29q-12 12 -31 18l-6 -123q-4 -86 -8 -125q0 -12 -2.5 -34.5t-2.5 -32.5q-2 -27 -10 -70l-6 -67q-4 -23 -8 -68 q25 10 41 25l39 28q14 10 43 27q20 12 47 12q12 -4 20.5 -8t14.5 -18l6 -17v-14v-19v-8q-8 -37 -35 -65q-25 -28 -55 -49q-23 -16 -68 -35l-67 -25q-8 -51 -11 -82q-4 -20 -8 -65q-3 -34 -12 -68q-10 -37 -27 -61q-16 -27 -49 -45q-27 -2 -47 18q-14 14 -23 45v111 q2 23 3 69v68q-72 18 -127 59q-61 45 -101 99q-41 55 -61 118q-23 70 -15 136zM274 674q-4 -35 13 -64l30 -55q33 -43 43 -51q20 -18 56 -39l10 125q4 31 8 100q2 37 10 101l21 194q-37 -31 -68 -67q-29 -35 -55 -78q-33 -53 -45 -80q-17 -33 -23 -86z" />
<glyph unicode="&#xa3;" horiz-adv-x="1236" d="M129 809q14 29 45 47q31 16 62 23q34 6 67 6q45 0 66 2q0 6 10 39q8 29 10 43q14 78 27 125l30 125q16 29 41 47t56 30q41 16 61 21l60 12q86 12 192 17q74 2 174 -9q23 0 41 -6q23 -8 33 -20q16 -20 20 -33q8 -25 6 -41q0 -18 -6 -31q-6 -14 -18 -22q-8 -6 -28.5 -14.5 t-28.5 -8.5q-23 2 -68 2q-43 0 -66 2q-49 4 -90 -2q-53 -8 -92 -22q-35 -14 -76 -49q-37 -31 -49 -78q-4 -10 -9 -33t-7 -33q-8 -27 -14 -65q12 0 35.5 -1t35.5 -1q35 0 72 -7l29 -10q16 -6 28.5 -18t18.5 -27q6 -18 4 -35q0 -8 -8 -28q-6 -15 -19 -25q-18 -14 -24 -16 q-16 -6 -29 -6q-29 2 -86 -2q-43 -3 -86 0q-6 -43 -14 -111q-2 -27 -5.5 -55.5t-5.5 -57.5q-4 -63 2 -114q8 -74 17 -113q78 20 139 51l133 68l68 33l67 30q31 14 70 25q23 6 72 10q12 2 36 -2q20 -4 35 -12q20 -12 31 -25q14 -18 18 -31v-6q-29 -41 -71 -73 q-41 -31 -84 -58q-14 -8 -94 -51q-10 -6 -42 -21.5t-49 -25.5l-98 -49l-100 -45q-35 -14 -105 -35q-59 -18 -104 -23q-35 4 -59 13q-20 6 -46 34q-18 25 -24 54l-12 57q-18 78 -21 139q-4 96 -2 144q8 80 14 125q12 82 21 125h-35q-4 0 -15.5 -1t-17.5 -1h-32q-20 0 -31 2 q-16 -2 -33 10q-14 12 -22 24q-12 20 -15 31q0 4 -2 11.5t-3 13.5t-1 12z" />
<glyph unicode="&#xa5;" horiz-adv-x="1005" d="M156 279q14 35 34 45q33 16 56 18q31 3 61 0q33 -4 58 0l18 74q14 43 29 69q-53 4 -80 4q-51 0 -78 3q-18 0 -35 10q-14 8 -24 22q-8 10 -15 31q-6 18 -6 35q6 23 21 37q10 10 38 22q22 9 43 13q8 2 23.5 5t19.5 3q-33 94 -45 141q-20 78 -28 147q-10 59 -15 142 q-3 71 7 141q4 20 8 27l12 24l18 19q8 8 23 8q20 6 41 2q12 -2 31 -16q14 -10 22 -29q6 -14 10 -35q2 -29 11 -86q4 -27 8 -88l18 -94q10 -59 21 -94q10 -39 28 -91q12 -35 39 -88q51 109 115 213l125 205q27 49 51 88l55 86q12 20 29 29q12 6 41 6q27 -4 41 -14 q16 -14 27 -33q12 -25 14 -39q4 -29 2 -45q-8 -41 -24 -68q-10 -14 -20.5 -30.5l-20.5 -32.5l-52 -68l-49 -69q-55 -78 -86 -127q-47 -78 -76 -133q14 0 56 -4q33 -4 55 -15q25 -12 39 -32.5t12 -53.5q0 -16 -10 -33q-12 -20 -23 -26q-14 -8 -30 -15q-20 -6 -33 -4 q-27 -2 -78 -2q-12 0 -37.5 1t-38.5 1q-8 -18 -15 -37.5t-15 -39.5q-12 -31 -27 -76q10 -2 23 0q8 2 20 2q8 -2 25 -2q4 0 11 1t11 1q37 0 57 -2q29 -2 58 -13q23 -8 43 -28q18 -18 14 -53q-4 -25 -12 -35q-12 -16 -27 -25q-10 -6 -35 -14q-12 -4 -34 -4q-66 -4 -101 -4h-98 q-4 -23 -12 -47q-10 -27 -20.5 -45.5t-33 -33t-47.5 -12.5q-23 0 -43 16.5t-22 39.5q-6 20 -6 45q0 16 4 45l-43 6l-45 4q-20 4 -35 12q-16 10 -27 23q-12 16 -18 33q-6 19 -6 37z" />
<glyph unicode="&#xa9;" horiz-adv-x="1409" d="M135 494q4 70 21 133q20 74 45 129q23 49 69 118q45 66 88 109q51 57 101 96q51 41 119 74q63 33 127 47q72 16 133 14q72 0 127 -16q66 -20 114 -51q59 -39 97 -78q49 -53 75 -100q68 -104 92.5 -229.5t6.5 -254.5q-6 -53 -25 -102q-18 -47 -49 -94q-33 -49 -68 -84 q-33 -33 -84 -70q-94 -66 -190 -94q-102 -31 -205 -31q-104 -2 -211 33q-102 35 -186 94q-43 31 -82 70q-37 35 -64 82q-25 41 -41 96q-14 48 -10 109zM301 487q-4 -41 8.5 -75.5t32.5 -65.5q22 -31 49 -55q18 -16 60 -41q68 -39 141 -57q82 -20 153 -21q74 0 144 18 q74 18 137 56q35 20 59 43q25 20 50 57q25 35 34 64q10 31 15 69q12 98 0 197q-12 92 -58 184q-23 45 -51 80q-31 37 -69 64q-37 25 -84 40q-46 15 -99 13q-49 0 -102 -13q-52 -12 -98 -36q-49 -27 -88 -60q-43 -35 -74 -76q-68 -80 -113 -182q-41 -92 -47 -203zM424 553 q2 35 16.5 72t32.5 67q25 37 45 62q33 39 53 55l62 47q33 25 65 41q31 16 70 27q41 10 74 10q33 -4 47 -8q25 -6 43 -17q20 -14 35 -30q15 -18 12 -43q0 -16 -10.5 -33t-20.5 -27q-14 -14 -28 -20q-20 -8 -33 -8t-33 8q-23 8 -31 10q-37 -6 -75 -29q-35 -20 -66 -51 q-25 -23 -53 -61q-20 -27 -31 -74q-4 -31 2 -43q9 -18 24.5 -30.5t37.5 -18.5q18 -6 40 -2q6 0 20.5 1t20.5 3q25 4 37 10q25 8 37 10q25 4 37 4q18 0 33 -6t24 -18q12 -16 15 -27q4 -20 2 -33q-4 -31 -25 -51q-18 -18 -49 -28q-23 -8 -82 -23q-27 -6 -82 -10q-59 0 -106 16 q-51 18 -90 57q-37 34 -56 87q-16 49 -14 104z" />
<glyph unicode="&#xad;" d="M176 707q16 29 43 41q37 16 57 20q41 8 62 8q23 0 59 4q14 -2 45 -2q8 0 22.5 -1t22.5 -1q33 0 47.5 -2t45.5 -2q6 0 18 1t18 1q10 0 35 -4q39 0 60 -2q41 -4 59 -10q29 -10 51.5 -28.5t24.5 -51.5q-2 -12 -15 -29q-10 -12 -22 -22q-8 -6 -29 -15q-15 -6 -30 -6 q-120 -6 -240 -6q-160 0 -240 2q-25 0 -37 10q-4 2 -15 10.5t-15 12.5q-16 20 -23 33q-10 19 -4 39z" />
<glyph unicode="&#xae;" horiz-adv-x="1482" d="M147 608q3 68 25 135.5t55 128.5q35 63 78 119q41 51 96 105q49 51 109 90q70 47 121 69q68 29 129 43q68 16 137 13q72 0 127 -17q66 -20 119 -49q47 -27 100 -76q43 -41 80 -100q72 -111 96 -231q27 -135 13 -258q-6 -66 -31 -127q-27 -66 -64 -117q-39 -55 -88 -100 q-47 -45 -106 -82q20 -14 31 -29q12 -20 10 -41q-4 -27 -29 -39t-47 -12q-41 -4 -69.5 4t-59.5 29q-76 -29 -131 -39q-68 -12 -135 -13q-84 -4 -158 14.5t-141 59.5q-82 51 -121 92q-49 53 -88 123q-35 63 -51 146q-16 76 -7 159zM315 606q-6 -61 2.5 -116.5t30.5 -108.5 q20 -47 60 -94q33 -39 90 -66q2 12 4 37t4 37q4 45 8 72l12 75l11 76q2 33 2 94v95q0 61 2 92q0 16 4 47t4 45l6 37q4 20 12 35q20 20 39 28q29 12 45 15q2 0 19.5 3t27.5 3q18 0 47 4h54q37 4 53 2q37 -4 57 -4q23 0 60 -4q23 -2 57 -11q23 -6 51 -22q25 -14 39 -39 q16 -27 25 -51q6 -20 10 -56q4 -31 0 -59.5t-12 -52.5q-9 -25 -25 -49q-14 -25 -35 -47q-12 -14 -39 -41q-43 -40 -92 -74q-51 -35 -106 -47l23.5 -29.5t17.5 -23.5l37 -56l41 -57q25 -31 47 -51q39 16 94 57q45 33 80 78q37 47 57 94q20 45 27 107q10 104 -2 194 q-12 96 -56 182q-23 47 -51 80q-31 37 -70 64q-35 25 -86 41q-37 12 -96 12q-108 3 -209 -43q-98 -45 -182 -125q-41 -39 -76 -82q-43 -53 -61 -92q-29 -59 -41 -98q-19 -62 -21 -107zM641 182q14 -4 43 -4q8 0 22.5 -1t20.5 -1q23 0 64 4q45 4 65 8l-41 58q-20 29 -43 57 l-15 15.5t-17.5 17.5l-16.5 16q-25 23 -64 29q-4 -16 -8 -49q0 -8 -2 -23.5t-2 -23.5q-4 -33 -4 -52q0 -8 -1 -25.5t-1 -25.5zM670 666q0 -43 12 -91q52 0 104 13q43 10 99 43q47 29 76 71q27 41 30 99q0 23 -8 33q-9 12 -25 18q-10 4 -34 8q-12 2 -33 2q-14 2 -41 -2 q-29 -4 -41 -4h-41q-6 0 -20.5 -1t-20.5 -1q-20 -4 -27 -12q-8 -10 -14 -27q-4 -12 -8 -29q-2 -16 -4 -28q-4 -61 -4 -92z" />
<glyph unicode="&#xb4;" horiz-adv-x="346" d="M209 1491v25q2 14 4 26l23 70q12 35 30 69q20 37 43 59.5t66 33.5q20 0 36.5 -20.5t16.5 -41.5q0 -10 -4 -22q-6 -18 -8 -23q-2 -6 -11.5 -29.5l-15.5 -38.5q-18 -45 -35 -67q-18 -25 -51 -51q-29 -23 -67 -23l-19 12q-8 7 -8 21z" />
<glyph unicode="&#x2000;" horiz-adv-x="884" />
<glyph unicode="&#x2001;" horiz-adv-x="1771" />
<glyph unicode="&#x2002;" horiz-adv-x="884" />
<glyph unicode="&#x2003;" horiz-adv-x="1771" />
<glyph unicode="&#x2004;" horiz-adv-x="589" />
<glyph unicode="&#x2005;" horiz-adv-x="442" />
<glyph unicode="&#x2006;" horiz-adv-x="294" />
<glyph unicode="&#x2007;" horiz-adv-x="294" />
<glyph unicode="&#x2008;" horiz-adv-x="219" />
<glyph unicode="&#x2009;" horiz-adv-x="352" />
<glyph unicode="&#x200a;" horiz-adv-x="96" />
<glyph unicode="&#x2010;" d="M176 707q16 29 43 41q37 16 57 20q41 8 62 8q23 0 59 4q14 -2 45 -2q8 0 22.5 -1t22.5 -1q33 0 47.5 -2t45.5 -2q6 0 18 1t18 1q10 0 35 -4q39 0 60 -2q41 -4 59 -10q29 -10 51.5 -28.5t24.5 -51.5q-2 -12 -15 -29q-10 -12 -22 -22q-8 -6 -29 -15q-15 -6 -30 -6 q-120 -6 -240 -6q-160 0 -240 2q-25 0 -37 10q-4 2 -15 10.5t-15 12.5q-16 20 -23 33q-10 19 -4 39z" />
<glyph unicode="&#x2011;" d="M176 707q16 29 43 41q37 16 57 20q41 8 62 8q23 0 59 4q14 -2 45 -2q8 0 22.5 -1t22.5 -1q33 0 47.5 -2t45.5 -2q6 0 18 1t18 1q10 0 35 -4q39 0 60 -2q41 -4 59 -10q29 -10 51.5 -28.5t24.5 -51.5q-2 -12 -15 -29q-10 -12 -22 -22q-8 -6 -29 -15q-15 -6 -30 -6 q-120 -6 -240 -6q-160 0 -240 2q-25 0 -37 10q-4 2 -15 10.5t-15 12.5q-16 20 -23 33q-10 19 -4 39z" />
<glyph unicode="&#x2012;" d="M176 707q16 29 43 41q37 16 57 20q41 8 62 8q23 0 59 4q14 -2 45 -2q8 0 22.5 -1t22.5 -1q33 0 47.5 -2t45.5 -2q6 0 18 1t18 1q10 0 35 -4q39 0 60 -2q41 -4 59 -10q29 -10 51.5 -28.5t24.5 -51.5q-2 -12 -15 -29q-10 -12 -22 -22q-8 -6 -29 -15q-15 -6 -30 -6 q-120 -6 -240 -6q-160 0 -240 2q-25 0 -37 10q-4 2 -15 10.5t-15 12.5q-16 20 -23 33q-10 19 -4 39z" />
<glyph unicode="&#x202f;" horiz-adv-x="352" />
<glyph unicode="&#x205f;" horiz-adv-x="442" />
<glyph unicode="&#x20ac;" horiz-adv-x="1208" d="M102 510q6 31 27 45q25 18 47 23q37 8 55 10q8 0 25.5 1t26.5 3l2 26l6 52q4 41 8 53h-39h-41q-23 0 -33 6q-14 8 -24 23q-10 12 -12 28q-4 23 -3 35q10 31 33 49q25 18 53 27q20 6 62 10l57 6q27 72 76 160q45 82 107 145q18 20 63 58q31 25 74 45q47 23 80 28 q35 8 84 5q40 0 73 -13q51 -18 68 -28q27 -16 57 -43q37 -33 51 -52q29 -37 43 -57q16 -25 35 -63q16 -37 25 -68q6 -25 6 -74q0 -23 -4 -35q-6 -16 -16 -34q-8 -14 -27 -25q-15 -9 -37 -6q-37 4 -61.5 22.5t-38.5 51.5l-27 63q-16 45 -27 66q-16 37 -49 55q-35 18 -71 18 q-47 0 -82 -20q-37 -23 -66 -53q-27 -29 -49 -72q-33 -59 -39 -76q20 0 31 2q14 2 28 0q41 0 64 -2q31 -2 61 -16q29 -12 47.5 -35t16.5 -59q0 -20 -12.5 -35t-26.5 -23q-18 -10 -39 -12q-14 -2 -37 -2h-94h-96q-4 -18 -15 -72q-4 -23 -8 -71q27 0 39 2q18 2 39 0 q39 0 61 -2q37 -4 62 -15q27 -12 45 -33q18 -23 16 -57q0 -20 -12 -35q-14 -16 -29 -24q-20 -10 -36 -13q-14 -2 -35 -2q-12 0 -38 -1t-38 -1q-53 0 -78 2q6 -43 8 -55q6 -29 19 -53q14 -29 30 -43q20 -18 54 -19q70 4 104 9q55 6 103 32l43 31l43 35q16 14 48.5 26.5 t53.5 14.5q23 0 33 -8q12 -9 18 -25q4 -10 4 -33q0 -14 -6 -30q0 -20 -4 -33q-14 -31 -31 -53q-18 -25 -43 -43q-37 -29 -53 -37l-51 -31q-35 -18 -109 -47q-55 -23 -112 -25q-84 -6 -152 29q-66 35 -110 88q-47 57 -76 129q-25 63 -35 146q-33 4 -53.5 4t-53.5 4 q-20 0 -34.5 8t-28.5 22q-12 12 -19 31q-4 12 -4 35z" />
<glyph unicode="&#xe000;" horiz-adv-x="1335" d="M0 1335h1335v-1335h-1335v1335z" />
<glyph unicode="&#xfb01;" horiz-adv-x="1351" d="M1041 274q-1 14 -1 30q0 35 5 81q4 66 16 193l19 192l20 191l12 95t11 95q3 25 6 55q2 27 12 56q8 27 27 51q15 22 43 37q9 2 18 1.5t16 -1.5q16 -4 31 -14.5t23 -25t14 -28.5q8 -41 8 -83q0 -21 -2 -44q-4 -70 -8 -108q-12 -104 -12 -109l-13 -115l-12 -114 q-6 -61 -6 -121q0 -20 -1 -60.5t-1 -60.5q0 -18 -1 -56t-3 -57q-4 -74 -8 -112l-12.5 -66t-18.5 -69.5t-33 -57.5q-23 -27 -57 -35h-6q-23 0 -37 17q-25 29 -29 37q-2 12 -3 24t-3 25q-2 14 -10 47zM158 233l6 48l6 49l12 100q4 33 8 102q4 41 5 60q0 20 4 57q2 10 2 30.5 t2 31.5l6 61q2 16 4 48t2 34t2 34t4 48q4 53 8 78q2 18 5.5 37.5t5.5 40.5q2 14 4 30l4 29q12 47 47 72q39 29 76 43q57 16 83.5 22l84.5 19q25 6 74 14t71 14q49 4 70 4q47 0 69 -4q31 -6 49.5 -20.5t38.5 -36.5l29 -43q14 -25 12 -51q-6 -20 -16 -25q-14 -8 -29 -10 q-20 -4 -30 -4q-20 0 -29 -2q-37 -2 -111 -2q-45 0 -106 -11q-23 -6 -51 -16q-27 -10 -48 -24q-20 -16 -40 -35q-16 -16 -27 -45q-14 -35 -25 -78q-9 -40 -12 -80q0 -4 -1 -8t-1 -6v-15q39 0 59 2l62 6q10 0 29.5 2.5t29.5 2.5q31 3 62 0q25 0 69 -5q33 -2 68 -20 q29 -23 37 -53q8 -29 8 -51q0 -10 -2 -19q-4 -18 -14.5 -32.5t-26.5 -16.5q-29 -8 -39 -8h-37q-27 -2 -84 -2q-29 0 -86 -4q-49 -4 -84 -15q-39 -12 -76 -37q-12 -37 -16 -94q-2 -27 -10 -94q-4 -35 -8 -104l-7 -105q0 -6 -3 -21.5t-5 -23.5q-2 -18 -14 -47q-10 -23 -27 -37 q-15 -13 -34 -13q-4 0 -9 1q-37 6 -57.5 26.5t-32.5 47.5q-16 37 -18 61q-2 22 -2 63z" />
<glyph unicode="&#xfb02;" horiz-adv-x="1775" d="M1051 342q2 35 10 111q8 74 17 112q10 45 20 115q4 20 8 59t8 58q6 51 7 100q0 31 4 100l6 97q2 31 10 96q4 33 8 45q4 14 21 43q10 18 30 35q12 10 43 18q11 2 20 2q30 0 48 -16q27 -23 35 -55q8 -31 8 -74q0 -29 -4 -70q-6 -57 -27 -168l-32 -168q-12 -66 -27 -170 q-16 -121 -23 -170q0 -16 -2 -53t-2 -53q-1 -9 0 -18q0 -44 13 -85h14q40 0 90 15q63 18 102 35q10 4 31 14t31 14q12 6 27.5 14.5l31.5 16.5q47 20 58 27q23 12 57 20q14 4 41 0q18 -2 35 -16q14 -10 20 -31q3 -9 3 -18q0 -12 -5 -23q-12 -37 -38.5 -71.5t-59.5 -57.5 q-31 -23 -72 -43q-55 -29 -72 -37q-77 -34 -159 -55q-58 -15 -115 -15q-24 0 -49 3q-37 2 -80 22q-37 16 -59 55q-18 43 -23 74q-4 27 -4 80q-4 29 -4 41v45zM158 233l6 48l6 49l12 100q4 33 8 102q4 41 5 60q0 20 4 57q2 10 2 30.5t2 31.5l6 61q2 16 4 48t2 34t2 34t4 48 q4 53 8 78q2 18 5.5 37.5t5.5 40.5q2 14 4 30l4 29q12 47 47 72q39 29 76 43q57 16 83.5 22l84.5 19q25 6 74 14t71 14q49 4 70 4q47 0 69 -4q31 -6 49.5 -20.5t38.5 -36.5l29 -43q14 -25 12 -51q-6 -20 -16 -25q-14 -8 -29 -10q-20 -4 -30 -4q-20 0 -29 -2q-37 -2 -111 -2 q-45 0 -106 -11q-23 -6 -51 -16q-27 -10 -48 -24q-20 -16 -40 -35q-16 -16 -27 -45q-14 -35 -25 -78q-9 -40 -12 -80q0 -4 -1 -8t-1 -6v-15q39 0 59 2l62 6q10 0 29.5 2.5t29.5 2.5q31 3 62 0q25 0 69 -5q33 -2 68 -20q29 -23 37 -53q8 -29 8 -51q0 -10 -2 -19 q-4 -18 -14.5 -32.5t-26.5 -16.5q-29 -8 -39 -8h-37q-27 -2 -84 -2q-29 0 -86 -4q-49 -4 -84 -15q-39 -12 -76 -37q-12 -37 -16 -94q-2 -27 -10 -94q-4 -35 -8 -104l-7 -105q0 -6 -3 -21.5t-5 -23.5q-2 -18 -14 -47q-10 -23 -27 -37q-15 -13 -34 -13q-4 0 -9 1 q-37 6 -57.5 26.5t-32.5 47.5q-16 37 -18 61q-2 22 -2 63z" />
<glyph unicode="&#xfb03;" horiz-adv-x="2234" d="M1923 274q-1 14 -1 30q0 35 5 81q4 66 16 193l19 192l20 191l12 95t11 95q3 25 6 55q2 27 12 56q8 27 27 51q15 22 43 37q9 2 18 1.5t16 -1.5q16 -4 31 -14.5t23 -25t14 -28.5q8 -41 8 -83q0 -21 -2 -44q-4 -70 -8 -108q-12 -104 -12 -109l-13 -115l-12 -114 q-6 -61 -6 -121q0 -20 -1 -60.5t-1 -60.5q0 -18 -1 -56t-3 -57q-4 -74 -8 -112l-12.5 -66t-18.5 -69.5t-33 -57.5q-23 -27 -57 -35h-6q-23 0 -37 17q-25 29 -29 37q-2 12 -3 24t-3 25q-2 14 -10 47zM1043 233l6 48l6 49l12 100q4 33 8 102q4 41 5 60q0 20 4 57q2 10 2 30.5 t2 31.5l6 61q2 16 4 48t2 34t2 34t4 48q4 53 8 78q2 18 5.5 37.5t5.5 40.5q2 14 4 30l4 29q12 47 47 72q39 29 76 43q57 16 83.5 22l84.5 19q25 6 74 14t71 14q49 4 70 4q47 0 69 -4q31 -6 49.5 -20.5t38.5 -36.5l29 -43q14 -25 12 -51q-6 -20 -16 -25q-14 -8 -29 -10 q-20 -4 -30 -4q-20 0 -29 -2q-37 -2 -111 -2q-45 0 -106 -11q-23 -6 -51 -16q-27 -10 -48 -24q-20 -16 -40 -35q-16 -16 -27 -45q-14 -35 -25 -78q-9 -40 -12 -80q0 -4 -1 -8t-1 -6v-15q39 0 59 2l62 6q10 0 29.5 2.5t29.5 2.5q31 3 62 0q25 0 69 -5q33 -2 68 -20 q29 -23 37 -53q8 -29 8 -51q0 -10 -2 -19q-4 -18 -14.5 -32.5t-26.5 -16.5q-29 -8 -39 -8h-37q-27 -2 -84 -2q-29 0 -86 -4q-49 -4 -84 -15q-39 -12 -76 -37q-12 -37 -16 -94q-2 -27 -10 -94q-4 -35 -8 -104l-7 -105q0 -6 -3 -21.5t-5 -23.5q-2 -18 -14 -47q-10 -23 -27 -37 q-15 -13 -34 -13q-4 0 -9 1q-37 6 -57.5 26.5t-32.5 47.5q-16 37 -18 61q-2 22 -2 63zM158 233l6 48l6 49l12 100q4 33 8 102q4 41 5 60q0 20 4 57q2 10 2 30.5t2 31.5l6 61q2 16 4 48t2 34t2 34t4 48q4 53 8 78q2 18 5.5 37.5t5.5 40.5q2 14 4 30l4 29q12 47 47 72 q39 29 76 43q57 16 83.5 22l84.5 19q25 6 74 14t71 14q49 4 70 4q47 0 69 -4q31 -6 49.5 -20.5t38.5 -36.5l29 -43q14 -25 12 -51q-6 -20 -16 -25q-14 -8 -29 -10q-20 -4 -30 -4q-20 0 -29 -2q-37 -2 -111 -2q-45 0 -106 -11q-23 -6 -51 -16q-27 -10 -48 -24 q-20 -16 -40 -35q-16 -16 -27 -45q-14 -35 -25 -78q-9 -40 -12 -80q0 -4 -1 -8t-1 -6v-15q39 0 59 2l62 6q10 0 29.5 2.5t29.5 2.5q31 3 62 0q25 0 69 -5q33 -2 68 -20q29 -23 37 -53q8 -29 8 -51q0 -10 -2 -19q-4 -18 -14.5 -32.5t-26.5 -16.5q-29 -8 -39 -8h-37 q-27 -2 -84 -2q-29 0 -86 -4q-49 -4 -84 -15q-39 -12 -76 -37q-12 -37 -16 -94q-2 -27 -10 -94q-4 -35 -8 -104l-7 -105q0 -6 -3 -21.5t-5 -23.5q-2 -18 -14 -47q-10 -23 -27 -37q-15 -13 -34 -13q-4 0 -9 1q-37 6 -57.5 26.5t-32.5 47.5q-16 37 -18 61q-2 22 -2 63z" />
<glyph unicode="&#xfb04;" horiz-adv-x="2660" d="M1933 342q2 35 10 111q8 74 17 112q10 45 20 115q4 20 8 59t8 58q6 51 7 100q0 31 4 100l6 97q2 31 10 96q4 33 8 45q4 14 21 43q10 18 30 35q12 10 43 18q11 2 20 2q30 0 48 -16q27 -23 35 -55q8 -31 8 -74q0 -29 -4 -70q-6 -57 -27 -168l-32 -168q-12 -66 -27 -170 q-16 -121 -23 -170q0 -16 -2 -53t-2 -53q-1 -9 0 -18q0 -44 13 -85h14q40 0 90 15q63 18 102 35q10 4 31 14t31 14q12 6 27.5 14.5l31.5 16.5q47 20 58 27q23 12 57 20q14 4 41 0q18 -2 35 -16q14 -10 20 -31q3 -9 3 -18q0 -12 -5 -23q-12 -37 -38.5 -71.5t-59.5 -57.5 q-31 -23 -72 -43q-55 -29 -72 -37q-77 -34 -159 -55q-58 -15 -115 -15q-24 0 -49 3q-37 2 -80 22q-37 16 -59 55q-18 43 -23 74q-4 27 -4 80q-4 29 -4 41v45zM1043 233l6 48l6 49l12 100q4 33 8 102q4 41 5 60q0 20 4 57q2 10 2 30.5t2 31.5l6 61q2 16 4 48t2 34t2 34t4 48 q4 53 8 78q2 18 5.5 37.5t5.5 40.5q2 14 4 30l4 29q12 47 47 72q39 29 76 43q57 16 83.5 22l84.5 19q25 6 74 14t71 14q49 4 70 4q47 0 69 -4q31 -6 49.5 -20.5t38.5 -36.5l29 -43q14 -25 12 -51q-6 -20 -16 -25q-14 -8 -29 -10q-20 -4 -30 -4q-20 0 -29 -2q-37 -2 -111 -2 q-45 0 -106 -11q-23 -6 -51 -16q-27 -10 -48 -24q-20 -16 -40 -35q-16 -16 -27 -45q-14 -35 -25 -78q-9 -40 -12 -80q0 -4 -1 -8t-1 -6v-15q39 0 59 2l62 6q10 0 29.5 2.5t29.5 2.5q31 3 62 0q25 0 69 -5q33 -2 68 -20q29 -23 37 -53q8 -29 8 -51q0 -10 -2 -19 q-4 -18 -14.5 -32.5t-26.5 -16.5q-29 -8 -39 -8h-37q-27 -2 -84 -2q-29 0 -86 -4q-49 -4 -84 -15q-39 -12 -76 -37q-12 -37 -16 -94q-2 -27 -10 -94q-4 -35 -8 -104l-7 -105q0 -6 -3 -21.5t-5 -23.5q-2 -18 -14 -47q-10 -23 -27 -37q-15 -13 -34 -13q-4 0 -9 1 q-37 6 -57.5 26.5t-32.5 47.5q-16 37 -18 61q-2 22 -2 63zM158 233l6 48l6 49l12 100q4 33 8 102q4 41 5 60q0 20 4 57q2 10 2 30.5t2 31.5l6 61q2 16 4 48t2 34t2 34t4 48q4 53 8 78q2 18 5.5 37.5t5.5 40.5q2 14 4 30l4 29q12 47 47 72q39 29 76 43q57 16 83.5 22l84.5 19 q25 6 74 14t71 14q49 4 70 4q47 0 69 -4q31 -6 49.5 -20.5t38.5 -36.5l29 -43q14 -25 12 -51q-6 -20 -16 -25q-14 -8 -29 -10q-20 -4 -30 -4q-20 0 -29 -2q-37 -2 -111 -2q-45 0 -106 -11q-23 -6 -51 -16q-27 -10 -48 -24q-20 -16 -40 -35q-16 -16 -27 -45q-14 -35 -25 -78 q-9 -40 -12 -80q0 -4 -1 -8t-1 -6v-15q39 0 59 2l62 6q10 0 29.5 2.5t29.5 2.5q31 3 62 0q25 0 69 -5q33 -2 68 -20q29 -23 37 -53q8 -29 8 -51q0 -10 -2 -19q-4 -18 -14.5 -32.5t-26.5 -16.5q-29 -8 -39 -8h-37q-27 -2 -84 -2q-29 0 -86 -4q-49 -4 -84 -15q-39 -12 -76 -37 q-12 -37 -16 -94q-2 -27 -10 -94q-4 -35 -8 -104l-7 -105q0 -6 -3 -21.5t-5 -23.5q-2 -18 -14 -47q-10 -23 -27 -37q-15 -13 -34 -13q-4 0 -9 1q-37 6 -57.5 26.5t-32.5 47.5q-16 37 -18 61q-2 22 -2 63z" />
</font>
</defs>
</svg>
